<svg width="1196" height="479" viewBox="0 0 1196 479" fill="none" xmlns="http://www.w3.org/2000/svg">
<mask id="path-1-outside-1_2294_153" maskUnits="userSpaceOnUse" x="11" y="219" width="1129" height="212" fill="black">
<rect fill="white" x="11" y="219" width="1129" height="212"/>
<path d="M176.5 414C170.833 418.333 162 422 150 425C138 428.333 126.167 430 114.5 430C95.1667 430 77.8333 425.5 62.5 416.5C47.1667 407.5 35 395 26 379C17 363 12.5 344.667 12.5 324C12.5 303.667 16.8333 285.667 25.5 270C34.1667 254.333 46.3333 242.167 62 233.5C78 224.5 96.5 220 117.5 220C125.833 220 134 220.667 142 222C150.333 223.333 158.667 225.667 167 229C170.333 230.667 172.667 233 174 236C175.667 238.667 176.5 241.333 176.5 244C176.5 248.333 175 252.167 172 255.5C169.333 258.833 165.667 260.5 161 260.5C159 260.5 156.667 260 154 259C148.667 257 142.333 255.167 135 253.5C128 251.833 121 251 114 251C100.667 251 89 254.5 79 261.5C69 268.167 61.1667 277.167 55.5 288.5C50.1667 299.833 47.5 312.333 47.5 326C47.5 346.333 53.6667 363.667 66 378C78.3333 392.333 94.6667 399.5 115 399.5C124 399.5 132.833 398.167 141.5 395.5C150.167 392.5 156.667 389.333 161 386C164.667 384 167.833 383 170.5 383C174.833 383 178.333 384.667 181 388C183.667 391 185 394.5 185 398.5C185 404.5 182.167 409.667 176.5 414ZM498.809 430C479.809 430 462.475 425.5 446.809 416.5C431.475 407.167 419.142 394.667 409.809 379C400.809 363 396.309 345 396.309 325C396.309 304 400.809 285.667 409.809 270C419.142 254 431.642 241.667 447.309 233C463.309 224.333 481.142 220 500.809 220C514.475 220 527.142 221.833 538.809 225.5C550.475 228.833 561.475 234.333 571.809 242C575.809 245.333 577.809 249.833 577.809 255.5C577.809 259.833 576.309 263.667 573.309 267C570.642 270 566.975 271.5 562.309 271.5C559.309 271.5 555.975 270.333 552.309 268C544.309 262 535.975 257.667 527.309 255C518.642 252.333 509.975 251 501.309 251C480.975 251 464.142 257.833 450.809 271.5C437.809 284.833 431.309 302.667 431.309 325C431.309 346.667 437.475 364.5 449.809 378.5C462.475 392.167 478.809 399 498.809 399C510.809 399 521.309 396.833 530.309 392.5C539.642 388.167 546.975 382.667 552.309 376C557.975 369 561.142 362.167 561.809 355.5C561.809 350.167 559.142 347.5 553.809 347.5H518.309C507.309 347.5 501.809 342.333 501.809 332C501.809 327.333 503.309 323.667 506.309 321C509.309 318.333 513.309 317 518.309 317H575.309C582.642 317 587.975 318.667 591.309 322C594.642 325 596.309 331 596.309 340C596.309 356.333 592.142 371.333 583.809 385C575.809 398.667 564.475 409.667 549.809 418C535.142 426 518.142 430 498.809 430ZM640.506 429C637.04 429 633.84 427.667 630.906 425C628.24 422.6 626.906 419.667 626.906 416.2V287C626.906 279.8 629.306 274.333 634.106 270.6C639.173 266.867 644.506 265 650.106 265H689.306C698.373 265 706.773 267 714.506 271C722.506 274.733 728.906 280.2 733.706 287.4C738.506 294.333 740.906 302.733 740.906 312.6C740.906 321.933 738.106 330.867 732.506 339.4C727.173 347.667 720.24 353.267 711.706 356.2C715.44 357.8 718.906 360.467 722.106 364.2C725.573 367.667 728.64 372.333 731.306 378.2L745.706 410.6C746.506 412.2 746.906 413.933 746.906 415.8C746.906 420.6 745.306 424.067 742.106 426.2C739.173 428.333 736.106 429.4 732.906 429.4C727.573 429.4 723.84 426.867 721.706 421.8L705.306 383.4C701.84 375.667 697.44 370.333 692.106 367.4C686.773 364.467 680.906 363 674.506 363H664.506C657.573 363 654.106 367 654.106 375V416.2C654.106 419.667 652.773 422.6 650.106 425C647.44 427.667 644.24 429 640.506 429ZM662.906 339H685.306C691.973 339 698.373 336.867 704.506 332.6C710.906 328.067 714.106 321.667 714.106 313.4C714.106 305.4 711.173 299.4 705.306 295.4C699.706 291.4 693.573 289.4 686.906 289.4H664.106C657.44 289.4 654.106 292.733 654.106 299.4V329.8C654.106 335.933 657.04 339 662.906 339ZM996.781 429C991.981 429 987.715 427.533 983.981 424.6C980.515 421.4 978.248 417.4 977.181 412.6L950.781 277C950.515 272.467 951.848 269 954.781 266.6C957.715 264.2 961.048 263 964.781 263C967.715 263 970.515 263.933 973.181 265.8C976.115 267.667 977.848 270.6 978.381 274.6L997.181 382.2C997.715 385.133 998.781 386.6 1000.38 386.6C1001.71 386.6 1002.78 385.267 1003.58 382.6L1027.58 292.2C1028.91 287.933 1031.31 284.867 1034.78 283C1038.25 280.867 1041.58 279.8 1044.78 279.8C1047.98 279.8 1051.31 280.867 1054.78 283C1058.51 284.867 1060.91 287.933 1061.98 292.2L1085.98 382.6C1086.78 385.267 1087.85 386.6 1089.18 386.6C1090.78 386.6 1091.85 385.133 1092.38 382.2L1111.18 274.6C1111.98 270.6 1113.71 267.667 1116.38 265.8C1119.05 263.933 1121.85 263 1124.78 263C1128.51 263 1131.85 264.2 1134.78 266.6C1137.98 269 1139.31 272.467 1138.78 277L1111.98 412.6C1110.91 417.4 1108.51 421.4 1104.78 424.6C1101.31 427.533 1097.18 429 1092.38 429C1082.78 429 1075.98 423.8 1071.98 413.4L1048.38 328.6C1047.58 325.667 1046.38 324.2 1044.78 324.2C1043.18 324.2 1041.98 325.667 1041.18 328.6L1017.18 413.4C1013.18 423.8 1006.38 429 996.781 429Z"/>
</mask>
<path d="M176.5 414C170.833 418.333 162 422 150 425C138 428.333 126.167 430 114.5 430C95.1667 430 77.8333 425.5 62.5 416.5C47.1667 407.5 35 395 26 379C17 363 12.5 344.667 12.5 324C12.5 303.667 16.8333 285.667 25.5 270C34.1667 254.333 46.3333 242.167 62 233.5C78 224.5 96.5 220 117.5 220C125.833 220 134 220.667 142 222C150.333 223.333 158.667 225.667 167 229C170.333 230.667 172.667 233 174 236C175.667 238.667 176.5 241.333 176.5 244C176.5 248.333 175 252.167 172 255.5C169.333 258.833 165.667 260.5 161 260.5C159 260.5 156.667 260 154 259C148.667 257 142.333 255.167 135 253.5C128 251.833 121 251 114 251C100.667 251 89 254.5 79 261.5C69 268.167 61.1667 277.167 55.5 288.5C50.1667 299.833 47.5 312.333 47.5 326C47.5 346.333 53.6667 363.667 66 378C78.3333 392.333 94.6667 399.5 115 399.5C124 399.5 132.833 398.167 141.5 395.5C150.167 392.5 156.667 389.333 161 386C164.667 384 167.833 383 170.5 383C174.833 383 178.333 384.667 181 388C183.667 391 185 394.5 185 398.5C185 404.5 182.167 409.667 176.5 414ZM498.809 430C479.809 430 462.475 425.5 446.809 416.5C431.475 407.167 419.142 394.667 409.809 379C400.809 363 396.309 345 396.309 325C396.309 304 400.809 285.667 409.809 270C419.142 254 431.642 241.667 447.309 233C463.309 224.333 481.142 220 500.809 220C514.475 220 527.142 221.833 538.809 225.5C550.475 228.833 561.475 234.333 571.809 242C575.809 245.333 577.809 249.833 577.809 255.5C577.809 259.833 576.309 263.667 573.309 267C570.642 270 566.975 271.5 562.309 271.5C559.309 271.5 555.975 270.333 552.309 268C544.309 262 535.975 257.667 527.309 255C518.642 252.333 509.975 251 501.309 251C480.975 251 464.142 257.833 450.809 271.5C437.809 284.833 431.309 302.667 431.309 325C431.309 346.667 437.475 364.5 449.809 378.5C462.475 392.167 478.809 399 498.809 399C510.809 399 521.309 396.833 530.309 392.5C539.642 388.167 546.975 382.667 552.309 376C557.975 369 561.142 362.167 561.809 355.5C561.809 350.167 559.142 347.5 553.809 347.5H518.309C507.309 347.5 501.809 342.333 501.809 332C501.809 327.333 503.309 323.667 506.309 321C509.309 318.333 513.309 317 518.309 317H575.309C582.642 317 587.975 318.667 591.309 322C594.642 325 596.309 331 596.309 340C596.309 356.333 592.142 371.333 583.809 385C575.809 398.667 564.475 409.667 549.809 418C535.142 426 518.142 430 498.809 430ZM640.506 429C637.04 429 633.84 427.667 630.906 425C628.24 422.6 626.906 419.667 626.906 416.2V287C626.906 279.8 629.306 274.333 634.106 270.6C639.173 266.867 644.506 265 650.106 265H689.306C698.373 265 706.773 267 714.506 271C722.506 274.733 728.906 280.2 733.706 287.4C738.506 294.333 740.906 302.733 740.906 312.6C740.906 321.933 738.106 330.867 732.506 339.4C727.173 347.667 720.24 353.267 711.706 356.2C715.44 357.8 718.906 360.467 722.106 364.2C725.573 367.667 728.64 372.333 731.306 378.2L745.706 410.6C746.506 412.2 746.906 413.933 746.906 415.8C746.906 420.6 745.306 424.067 742.106 426.2C739.173 428.333 736.106 429.4 732.906 429.4C727.573 429.4 723.84 426.867 721.706 421.8L705.306 383.4C701.84 375.667 697.44 370.333 692.106 367.4C686.773 364.467 680.906 363 674.506 363H664.506C657.573 363 654.106 367 654.106 375V416.2C654.106 419.667 652.773 422.6 650.106 425C647.44 427.667 644.24 429 640.506 429ZM662.906 339H685.306C691.973 339 698.373 336.867 704.506 332.6C710.906 328.067 714.106 321.667 714.106 313.4C714.106 305.4 711.173 299.4 705.306 295.4C699.706 291.4 693.573 289.4 686.906 289.4H664.106C657.44 289.4 654.106 292.733 654.106 299.4V329.8C654.106 335.933 657.04 339 662.906 339ZM996.781 429C991.981 429 987.715 427.533 983.981 424.6C980.515 421.4 978.248 417.4 977.181 412.6L950.781 277C950.515 272.467 951.848 269 954.781 266.6C957.715 264.2 961.048 263 964.781 263C967.715 263 970.515 263.933 973.181 265.8C976.115 267.667 977.848 270.6 978.381 274.6L997.181 382.2C997.715 385.133 998.781 386.6 1000.38 386.6C1001.71 386.6 1002.78 385.267 1003.58 382.6L1027.58 292.2C1028.91 287.933 1031.31 284.867 1034.78 283C1038.25 280.867 1041.58 279.8 1044.78 279.8C1047.98 279.8 1051.31 280.867 1054.78 283C1058.51 284.867 1060.91 287.933 1061.98 292.2L1085.98 382.6C1086.78 385.267 1087.85 386.6 1089.18 386.6C1090.78 386.6 1091.85 385.133 1092.38 382.2L1111.18 274.6C1111.98 270.6 1113.71 267.667 1116.38 265.8C1119.05 263.933 1121.85 263 1124.78 263C1128.51 263 1131.85 264.2 1134.78 266.6C1137.98 269 1139.31 272.467 1138.78 277L1111.98 412.6C1110.91 417.4 1108.51 421.4 1104.78 424.6C1101.31 427.533 1097.18 429 1092.38 429C1082.78 429 1075.98 423.8 1071.98 413.4L1048.38 328.6C1047.58 325.667 1046.38 324.2 1044.78 324.2C1043.18 324.2 1041.98 325.667 1041.18 328.6L1017.18 413.4C1013.18 423.8 1006.38 429 996.781 429Z" fill="#566E32"/>
<path d="M176.5 414L175.893 413.206V413.206L176.5 414ZM150 425L149.757 424.03L149.745 424.033L149.732 424.036L150 425ZM62.5 416.5L61.9938 417.362V417.362L62.5 416.5ZM26 379L26.8716 378.51V378.51L26 379ZM25.5 270L26.375 270.484V270.484L25.5 270ZM62 233.5L62.4841 234.375L62.4903 234.372L62 233.5ZM142 222L141.836 222.986L141.842 222.987L142 222ZM167 229L167.447 228.106L167.41 228.087L167.371 228.072L167 229ZM174 236L173.086 236.406L173.115 236.47L173.152 236.53L174 236ZM172 255.5L171.257 254.831L171.237 254.853L171.219 254.875L172 255.5ZM154 259L153.649 259.936V259.936L154 259ZM135 253.5L134.768 254.473L134.778 254.475L135 253.5ZM79 261.5L79.5547 262.332L79.5642 262.326L79.5735 262.319L79 261.5ZM55.5 288.5L54.6056 288.053L54.6003 288.063L54.5952 288.074L55.5 288.5ZM66 378L65.242 378.652V378.652L66 378ZM141.5 395.5L141.794 396.456L141.811 396.451L141.827 396.445L141.5 395.5ZM161 386L160.521 385.122L160.452 385.16L160.39 385.207L161 386ZM181 388L180.219 388.625L180.235 388.645L180.253 388.664L181 388ZM176.5 414L175.893 413.206C170.386 417.416 161.708 421.042 149.757 424.03L150 425L150.243 425.97C162.292 422.958 171.281 419.25 177.107 414.794L176.5 414ZM150 425L149.732 424.036C137.814 427.347 126.07 429 114.5 429V430V431C126.263 431 138.186 429.319 150.268 425.964L150 425ZM114.5 430V429C95.3286 429 78.1728 424.54 63.0062 415.638L62.5 416.5L61.9938 417.362C77.4939 426.46 95.0048 431 114.5 431V430ZM62.5 416.5L63.0062 415.638C47.8305 406.73 35.7878 394.361 26.8716 378.51L26 379L25.1284 379.49C34.2122 395.639 46.5028 408.27 61.9938 417.362L62.5 416.5ZM26 379L26.8716 378.51C17.9659 362.677 13.5 344.517 13.5 324H12.5H11.5C11.5 344.816 16.0341 363.323 25.1284 379.49L26 379ZM12.5 324H13.5C13.5 303.813 17.8009 285.983 26.375 270.484L25.5 270L24.625 269.516C15.8657 285.35 11.5 303.521 11.5 324H12.5ZM25.5 270L26.375 270.484C34.9507 254.982 46.9819 242.951 62.4841 234.375L62 233.5L61.5159 232.625C45.6848 241.383 33.3826 253.685 24.625 269.516L25.5 270ZM62 233.5L62.4903 234.372C78.3202 225.467 96.6467 221 117.5 221V220V219C96.3533 219 77.6798 223.533 61.5097 232.628L62 233.5ZM117.5 220V221C125.78 221 133.891 221.662 141.836 222.986L142 222L142.164 221.014C134.109 219.671 125.887 219 117.5 219V220ZM142 222L141.842 222.987C150.098 224.308 158.36 226.621 166.629 229.928L167 229L167.371 228.072C158.974 224.712 150.569 222.358 142.158 221.013L142 222ZM167 229L166.553 229.894C169.708 231.472 171.86 233.647 173.086 236.406L174 236L174.914 235.594C173.474 232.353 170.958 229.861 167.447 228.106L167 229ZM174 236L173.152 236.53C174.737 239.067 175.5 241.552 175.5 244H176.5H177.5C177.5 241.115 176.596 238.267 174.848 235.47L174 236ZM176.5 244H175.5C175.5 248.077 174.098 251.674 171.257 254.831L172 255.5L172.743 256.169C175.902 252.659 177.5 248.59 177.5 244H176.5ZM172 255.5L171.219 254.875C168.762 257.947 165.395 259.5 161 259.5V260.5V261.5C165.938 261.5 169.905 259.719 172.781 256.125L172 255.5ZM161 260.5V259.5C159.159 259.5 156.949 259.038 154.351 258.064L154 259L153.649 259.936C156.384 260.962 158.841 261.5 161 261.5V260.5ZM154 259L154.351 258.064C148.965 256.044 142.586 254.199 135.222 252.525L135 253.5L134.778 254.475C142.081 256.135 148.369 257.956 153.649 259.936L154 259ZM135 253.5L135.232 252.527C128.158 250.843 121.08 250 114 250V251V252C120.92 252 127.842 252.824 134.768 254.473L135 253.5ZM114 251V250C100.481 250 88.6102 253.552 78.4265 260.681L79 261.5L79.5735 262.319C89.3898 255.448 100.852 252 114 252V251ZM79 261.5L78.4453 260.668C68.2926 267.436 60.3457 276.573 54.6056 288.053L55.5 288.5L56.3944 288.947C61.9877 277.761 69.7075 268.897 79.5547 262.332L79 261.5ZM55.5 288.5L54.5952 288.074C49.1936 299.552 46.5 312.2 46.5 326H47.5H48.5C48.5 312.467 51.1397 300.114 56.4048 288.926L55.5 288.5ZM47.5 326H46.5C46.5 346.553 52.7403 364.123 65.242 378.652L66 378L66.758 377.348C54.5931 363.21 48.5 346.113 48.5 326H47.5ZM66 378L65.242 378.652C77.7809 393.225 94.4003 400.5 115 400.5V399.5V398.5C94.9331 398.5 78.8857 391.442 66.758 377.348L66 378ZM115 399.5V400.5C124.1 400.5 133.033 399.152 141.794 396.456L141.5 395.5L141.206 394.544C132.634 397.182 123.9 398.5 115 398.5V399.5ZM141.5 395.5L141.827 396.445C150.536 393.43 157.153 390.221 161.61 386.793L161 386L160.39 385.207C156.181 388.445 149.797 391.57 141.173 394.555L141.5 395.5ZM161 386L161.479 386.878C165.074 384.917 168.069 384 170.5 384V383V382C167.597 382 164.259 383.083 160.521 385.122L161 386ZM170.5 383V384C174.535 384 177.746 385.533 180.219 388.625L181 388L181.781 387.375C178.921 383.801 175.132 382 170.5 382V383ZM181 388L180.253 388.664C182.757 391.482 184 394.746 184 398.5H185H186C186 394.254 184.576 390.518 181.747 387.336L181 388ZM185 398.5H184C184 404.128 181.364 409.021 175.893 413.206L176.5 414L177.107 414.794C182.969 410.312 186 404.872 186 398.5H185ZM446.809 416.5L446.289 417.354L446.299 417.361L446.31 417.367L446.809 416.5ZM409.809 379L408.937 379.49L408.943 379.501L408.949 379.512L409.809 379ZM409.809 270L408.945 269.496L408.941 269.502L409.809 270ZM447.309 233L446.832 232.121L446.825 232.125L447.309 233ZM538.809 225.5L538.509 226.454L538.521 226.458L538.534 226.462L538.809 225.5ZM571.809 242L572.449 241.232L572.427 241.214L572.404 241.197L571.809 242ZM573.309 267L572.565 266.331L572.561 266.336L573.309 267ZM552.309 268L551.709 268.8L551.739 268.823L551.772 268.844L552.309 268ZM527.309 255L527.015 255.956V255.956L527.309 255ZM450.809 271.5L450.093 270.802L450.093 270.802L450.809 271.5ZM449.809 378.5L449.058 379.161L449.067 379.171L449.075 379.18L449.809 378.5ZM530.309 392.5L529.887 391.593L529.875 391.599L530.309 392.5ZM552.309 376L551.531 375.371L551.528 375.375L552.309 376ZM561.809 355.5L562.804 355.599L562.809 355.55V355.5H561.809ZM506.309 321L505.644 320.253V320.253L506.309 321ZM591.309 322L590.602 322.707L590.62 322.726L590.64 322.743L591.309 322ZM583.809 385L582.955 384.479L582.95 384.487L582.946 384.495L583.809 385ZM549.809 418L550.287 418.878L550.295 418.874L550.303 418.869L549.809 418ZM498.809 430V429C479.974 429 462.814 424.541 447.307 415.633L446.809 416.5L446.31 417.367C462.137 426.459 479.643 431 498.809 431V430ZM446.809 416.5L447.329 415.646C432.137 406.399 419.919 394.017 410.668 378.488L409.809 379L408.949 379.512C418.365 395.316 430.814 407.935 446.289 417.354L446.809 416.5ZM409.809 379L410.68 378.51C401.772 362.673 397.309 344.844 397.309 325H396.309H395.309C395.309 345.156 399.845 363.327 408.937 379.49L409.809 379ZM396.309 325H397.309C397.309 304.146 401.776 285.99 410.676 270.498L409.809 270L408.941 269.502C399.841 285.343 395.309 303.854 395.309 325H396.309ZM409.809 270L410.672 270.504C419.918 254.654 432.289 242.451 447.793 233.875L447.309 233L446.825 232.125C430.995 240.882 418.366 253.346 408.945 269.496L409.809 270ZM447.309 233L447.785 233.879C463.627 225.298 481.294 221 500.809 221V220V219C480.989 219 462.99 223.368 446.832 232.121L447.309 233ZM500.809 220V221C514.385 221 526.95 222.821 538.509 226.454L538.809 225.5L539.108 224.546C527.334 220.845 514.565 219 500.809 219V220ZM538.809 225.5L538.534 226.462C550.078 229.76 560.97 235.204 571.213 242.803L571.809 242L572.404 241.197C561.98 233.463 550.873 227.907 539.083 224.538L538.809 225.5ZM571.809 242L571.168 242.768C574.919 245.893 576.809 250.1 576.809 255.5H577.809H578.809C578.809 249.566 576.699 244.773 572.449 241.232L571.809 242ZM577.809 255.5H576.809C576.809 259.577 575.406 263.174 572.565 266.331L573.309 267L574.052 267.669C577.211 264.159 578.809 260.09 578.809 255.5H577.809ZM573.309 267L572.561 266.336C570.116 269.087 566.741 270.5 562.309 270.5V271.5V272.5C567.21 272.5 571.168 270.913 574.056 267.664L573.309 267ZM562.309 271.5V270.5C559.566 270.5 556.42 269.431 552.845 267.156L552.309 268L551.772 268.844C555.531 271.236 559.051 272.5 562.309 272.5V271.5ZM552.309 268L552.909 267.2C544.826 261.138 536.39 256.748 527.603 254.044L527.309 255L527.015 255.956C535.56 258.585 543.791 262.862 551.709 268.8L552.309 268ZM527.309 255L527.603 254.044C518.845 251.35 510.079 250 501.309 250V251V252C509.871 252 518.439 253.317 527.015 255.956L527.309 255ZM501.309 251V250C480.725 250 463.628 256.929 450.093 270.802L450.809 271.5L451.524 272.198C464.656 258.738 481.225 252 501.309 252V251ZM450.809 271.5L450.093 270.802C436.875 284.358 430.309 302.461 430.309 325H431.309H432.309C432.309 302.872 438.742 285.308 451.525 272.198L450.809 271.5ZM431.309 325H430.309C430.309 346.868 436.538 364.949 449.058 379.161L449.809 378.5L450.559 377.839C438.412 364.051 432.309 346.465 432.309 325H431.309ZM449.809 378.5L449.075 379.18C461.946 393.067 478.553 400 498.809 400V399V398C479.064 398 463.004 391.267 450.542 377.82L449.809 378.5ZM498.809 399V400C510.929 400 521.583 397.811 530.742 393.401L530.309 392.5L529.875 391.599C521.035 395.855 510.688 398 498.809 398V399ZM530.309 392.5L530.73 393.407C540.175 389.022 547.642 383.434 553.089 376.625L552.309 376L551.528 375.375C546.309 381.899 539.109 387.312 529.887 391.593L530.309 392.5ZM552.309 376L553.086 376.629C558.834 369.529 562.112 362.516 562.804 355.599L561.809 355.5L560.814 355.4C560.172 361.817 557.117 368.471 551.531 375.371L552.309 376ZM561.809 355.5H562.809C562.809 352.679 562.103 350.38 560.516 348.793C558.929 347.206 556.629 346.5 553.809 346.5V347.5V348.5C556.321 348.5 558.022 349.127 559.102 350.207C560.181 351.287 560.809 352.987 560.809 355.5H561.809ZM553.809 347.5V346.5H518.309V347.5V348.5H553.809V347.5ZM518.309 347.5V346.5C512.948 346.5 509.113 345.24 506.618 342.896C504.135 340.564 502.809 336.996 502.809 332H501.809H500.809C500.809 337.337 502.232 341.52 505.249 344.354C508.254 347.177 512.669 348.5 518.309 348.5V347.5ZM501.809 332H502.809C502.809 327.568 504.222 324.193 506.973 321.747L506.309 321L505.644 320.253C502.395 323.141 500.809 327.099 500.809 332H501.809ZM506.309 321L506.973 321.747C509.748 319.281 513.491 318 518.309 318V317V316C513.126 316 508.869 317.386 505.644 320.253L506.309 321ZM518.309 317V318H575.309V317V316H518.309V317ZM575.309 317V318C582.52 318 587.537 319.643 590.602 322.707L591.309 322L592.016 321.293C588.413 317.69 582.764 316 575.309 316V317ZM591.309 322L590.64 322.743C593.629 325.434 595.309 331.032 595.309 340H596.309H597.309C597.309 330.968 595.655 324.566 591.978 321.257L591.309 322ZM596.309 340H595.309C595.309 356.154 591.19 370.973 582.955 384.479L583.809 385L584.662 385.521C593.093 371.694 597.309 356.513 597.309 340H596.309ZM583.809 385L582.946 384.495C575.04 398 563.839 408.878 549.315 417.131L549.809 418L550.303 418.869C565.112 410.455 576.577 399.334 584.672 385.505L583.809 385ZM549.809 418L549.33 417.122C534.832 425.03 518.001 429 498.809 429V430V431C518.283 431 535.452 426.97 550.287 418.878L549.809 418ZM630.906 425L631.579 424.26L631.575 424.257L630.906 425ZM634.106 270.6L633.513 269.795L633.503 269.803L633.492 269.811L634.106 270.6ZM714.506 271L714.047 271.888L714.065 271.898L714.083 271.906L714.506 271ZM733.706 287.4L732.874 287.955L732.879 287.962L732.884 287.969L733.706 287.4ZM732.506 339.4L731.67 338.851L731.666 338.858L732.506 339.4ZM711.706 356.2L711.381 355.254L708.928 356.097L711.312 357.119L711.706 356.2ZM722.106 364.2L721.347 364.851L721.372 364.88L721.399 364.907L722.106 364.2ZM731.306 378.2L732.22 377.794L732.217 377.786L731.306 378.2ZM745.706 410.6L744.792 411.006L744.802 411.027L744.812 411.047L745.706 410.6ZM742.106 426.2L741.552 425.368L741.535 425.379L741.518 425.391L742.106 426.2ZM721.706 421.8L722.628 421.412L722.626 421.407L721.706 421.8ZM705.306 383.4L706.226 383.007L706.222 382.999L706.219 382.991L705.306 383.4ZM692.106 367.4L692.588 366.524V366.524L692.106 367.4ZM650.106 425L649.437 424.257L649.418 424.274L649.399 424.293L650.106 425ZM704.506 332.6L705.077 333.421L705.084 333.416L704.506 332.6ZM705.306 295.4L704.725 296.214L704.734 296.22L704.743 296.226L705.306 295.4ZM640.506 429V428C637.324 428 634.356 426.785 631.579 424.26L630.906 425L630.234 425.74C633.323 428.548 636.755 430 640.506 430V429ZM630.906 425L631.575 424.257C629.111 422.039 627.906 419.372 627.906 416.2H626.906H625.906C625.906 419.961 627.368 423.161 630.237 425.743L630.906 425ZM626.906 416.2H627.906V287H626.906H625.906V416.2H626.906ZM626.906 287H627.906C627.906 280.045 630.21 274.897 634.72 271.389L634.106 270.6L633.492 269.811C628.403 273.769 625.906 279.555 625.906 287H626.906ZM634.106 270.6L634.699 271.405C639.617 267.782 644.746 266 650.106 266V265V264C644.267 264 638.729 265.951 633.513 269.795L634.106 270.6ZM650.106 265V266H689.306V265V264H650.106V265ZM689.306 265V266C698.22 266 706.461 267.965 714.047 271.888L714.506 271L714.966 270.112C707.084 266.035 698.526 264 689.306 264V265ZM714.506 271L714.083 271.906C721.921 275.564 728.178 280.91 732.874 287.955L733.706 287.4L734.538 286.845C729.635 279.49 723.092 273.903 714.929 270.094L714.506 271ZM733.706 287.4L732.884 287.969C737.55 294.708 739.906 302.901 739.906 312.6H740.906H741.906C741.906 302.565 739.463 293.958 734.528 286.831L733.706 287.4ZM740.906 312.6H739.906C739.906 321.72 737.174 330.465 731.67 338.851L732.506 339.4L733.342 339.949C739.039 331.268 741.906 322.146 741.906 312.6H740.906ZM732.506 339.4L731.666 338.858C726.443 346.954 719.683 352.401 711.381 355.254L711.706 356.2L712.031 357.146C720.796 354.133 727.903 348.379 733.347 339.942L732.506 339.4ZM711.706 356.2L711.312 357.119C714.878 358.647 718.226 361.21 721.347 364.851L722.106 364.2L722.866 363.549C719.587 359.724 716.001 356.953 712.1 355.281L711.706 356.2ZM722.106 364.2L721.399 364.907C724.759 368.267 727.764 372.824 730.396 378.614L731.306 378.2L732.217 377.786C729.515 371.843 726.387 367.066 722.813 363.493L722.106 364.2ZM731.306 378.2L730.392 378.606L744.792 411.006L745.706 410.6L746.62 410.194L732.22 377.794L731.306 378.2ZM745.706 410.6L744.812 411.047C745.539 412.502 745.906 414.082 745.906 415.8H746.906H747.906C747.906 413.785 747.473 411.898 746.601 410.153L745.706 410.6ZM746.906 415.8H745.906C745.906 420.36 744.403 423.467 741.552 425.368L742.106 426.2L742.661 427.032C746.209 424.667 747.906 420.84 747.906 415.8H746.906ZM742.106 426.2L741.518 425.391C738.732 427.418 735.867 428.4 732.906 428.4V429.4V430.4C736.345 430.4 739.614 429.249 742.694 427.009L742.106 426.2ZM732.906 429.4V428.4C730.403 428.4 728.34 427.808 726.668 426.673C724.993 425.536 723.636 423.806 722.628 421.412L721.706 421.8L720.785 422.188C721.91 424.86 723.486 426.931 725.545 428.327C727.605 429.726 730.077 430.4 732.906 430.4V429.4ZM721.706 421.8L722.626 421.407L706.226 383.007L705.306 383.4L704.387 383.793L720.787 422.193L721.706 421.8ZM705.306 383.4L706.219 382.991C702.697 375.135 698.174 369.596 692.588 366.524L692.106 367.4L691.624 368.276C696.705 371.071 700.982 376.198 704.394 383.809L705.306 383.4ZM692.106 367.4L692.588 366.524C687.099 363.505 681.066 362 674.506 362V363V364C680.747 364 686.446 365.428 691.624 368.276L692.106 367.4ZM674.506 363V362H664.506V363V364H674.506V363ZM664.506 363V362C660.845 362 657.929 363.063 655.951 365.345C653.996 367.6 653.106 370.878 653.106 375H654.106H655.106C655.106 371.122 655.95 368.4 657.462 366.655C658.951 364.937 661.234 364 664.506 364V363ZM654.106 375H653.106V416.2H654.106H655.106V375H654.106ZM654.106 416.2H653.106C653.106 419.372 651.902 422.039 649.437 424.257L650.106 425L650.775 425.743C653.644 423.161 655.106 419.961 655.106 416.2H654.106ZM650.106 425L649.399 424.293C646.918 426.774 643.971 428 640.506 428V429V430C644.508 430 647.961 428.559 650.813 425.707L650.106 425ZM662.906 339V340H685.306V339V338H662.906V339ZM685.306 339V340C692.201 340 698.797 337.79 705.077 333.421L704.506 332.6L703.935 331.779C697.948 335.944 691.745 338 685.306 338V339ZM704.506 332.6L705.084 333.416C711.765 328.684 715.106 321.97 715.106 313.4H714.106H713.106C713.106 321.363 710.047 327.45 703.928 331.784L704.506 332.6ZM714.106 313.4H715.106C715.106 305.118 712.047 298.786 705.87 294.574L705.306 295.4L704.743 296.226C710.298 300.014 713.106 305.682 713.106 313.4H714.106ZM705.306 295.4L705.888 294.586C700.124 290.469 693.788 288.4 686.906 288.4V289.4V290.4C693.357 290.4 699.289 292.331 704.725 296.214L705.306 295.4ZM686.906 289.4V288.4H664.106V289.4V290.4H686.906V289.4ZM664.106 289.4V288.4C660.619 288.4 657.82 289.273 655.899 291.193C653.979 293.113 653.106 295.913 653.106 299.4H654.106H655.106C655.106 296.221 655.9 294.02 657.313 292.607C658.726 291.194 660.927 290.4 664.106 290.4V289.4ZM654.106 299.4H653.106V329.8H654.106H655.106V299.4H654.106ZM654.106 329.8H653.106C653.106 333.01 653.873 335.603 655.584 337.391C657.302 339.188 659.807 340 662.906 340V339V338C660.139 338 658.244 337.279 657.029 336.009C655.806 334.73 655.106 332.723 655.106 329.8H654.106ZM983.981 424.6L983.303 425.335L983.332 425.362L983.363 425.386L983.981 424.6ZM977.181 412.6L976.2 412.791L976.202 412.804L976.205 412.817L977.181 412.6ZM950.781 277L949.783 277.059L949.787 277.125L949.8 277.191L950.781 277ZM954.781 266.6L954.148 265.826V265.826L954.781 266.6ZM973.181 265.8L972.608 266.619L972.626 266.632L972.644 266.644L973.181 265.8ZM978.381 274.6L977.39 274.732L977.393 274.752L977.396 274.772L978.381 274.6ZM997.181 382.2L996.196 382.372L996.197 382.379L997.181 382.2ZM1003.58 382.6L1004.54 382.887L1004.54 382.872L1004.55 382.857L1003.58 382.6ZM1027.58 292.2L1026.63 291.902L1026.62 291.922L1026.61 291.943L1027.58 292.2ZM1034.78 283L1035.26 283.88L1035.28 283.867L1035.31 283.852L1034.78 283ZM1054.78 283L1054.26 283.852L1054.29 283.875L1054.33 283.894L1054.78 283ZM1061.98 292.2L1061.01 292.443L1061.01 292.45L1061.01 292.457L1061.98 292.2ZM1085.98 382.6L1085.01 382.857L1085.02 382.872L1085.02 382.887L1085.98 382.6ZM1092.38 382.2L1093.37 382.379L1093.37 382.372L1092.38 382.2ZM1111.18 274.6L1110.2 274.404L1110.2 274.416L1110.2 274.428L1111.18 274.6ZM1116.38 265.8L1115.81 264.981H1115.81L1116.38 265.8ZM1134.78 266.6L1134.15 267.374L1134.16 267.387L1134.18 267.4L1134.78 266.6ZM1138.78 277L1139.76 277.194L1139.77 277.156L1139.77 277.117L1138.78 277ZM1111.98 412.6L1112.96 412.817L1112.96 412.805L1112.96 412.794L1111.98 412.6ZM1104.78 424.6L1105.43 425.363L1105.43 425.359L1104.78 424.6ZM1071.98 413.4L1071.02 413.668L1071.03 413.714L1071.05 413.759L1071.98 413.4ZM1048.38 328.6L1047.42 328.863L1047.42 328.868L1048.38 328.6ZM1041.18 328.6L1042.14 328.872L1042.15 328.863L1041.18 328.6ZM1017.18 413.4L1018.11 413.759L1018.13 413.716L1018.14 413.672L1017.18 413.4ZM996.781 429V428C992.203 428 988.154 426.607 984.599 423.814L983.981 424.6L983.363 425.386C987.275 428.46 991.76 430 996.781 430V429ZM983.981 424.6L984.66 423.865C981.349 420.81 979.182 416.993 978.157 412.383L977.181 412.6L976.205 412.817C977.314 417.807 979.68 421.991 983.303 425.335L983.981 424.6ZM977.181 412.6L978.163 412.409L951.763 276.809L950.781 277L949.8 277.191L976.2 412.791L977.181 412.6ZM950.781 277L951.78 276.941C951.527 272.656 952.78 269.529 955.414 267.374L954.781 266.6L954.148 265.826C950.916 268.471 949.502 272.277 949.783 277.059L950.781 277ZM954.781 266.6L955.414 267.374C958.172 265.118 961.283 264 964.781 264V263V262C960.813 262 957.257 263.282 954.148 265.826L954.781 266.6ZM964.781 263V264C967.487 264 970.09 264.857 972.608 266.619L973.181 265.8L973.755 264.981C970.939 263.01 967.942 262 964.781 262V263ZM973.181 265.8L972.644 266.644C975.287 268.326 976.889 270.972 977.39 274.732L978.381 274.6L979.372 274.468C978.807 270.228 976.942 267.008 973.718 264.956L973.181 265.8ZM978.381 274.6L977.396 274.772L996.196 382.372L997.181 382.2L998.166 382.028L979.366 274.428L978.381 274.6ZM997.181 382.2L996.197 382.379C996.476 383.91 996.912 385.179 997.573 386.088C998.265 387.041 999.215 387.6 1000.38 387.6V386.6V385.6C999.947 385.6 999.564 385.426 999.19 384.912C998.784 384.354 998.42 383.424 998.165 382.021L997.181 382.2ZM1000.38 386.6V387.6C1001.43 387.6 1002.3 387.056 1002.96 386.225C1003.61 385.415 1004.12 384.276 1004.54 382.887L1003.58 382.6L1002.62 382.313C1002.24 383.591 1001.82 384.452 1001.4 384.975C1001 385.477 1000.66 385.6 1000.38 385.6V386.6ZM1003.58 382.6L1004.55 382.857L1028.55 292.457L1027.58 292.2L1026.61 291.943L1002.61 382.343L1003.58 382.6ZM1027.58 292.2L1028.54 292.498C1029.8 288.444 1032.05 285.606 1035.26 283.88L1034.78 283L1034.31 282.12C1030.58 284.127 1028.03 287.422 1026.63 291.902L1027.58 292.2ZM1034.78 283L1035.31 283.852C1038.66 281.789 1041.81 280.8 1044.78 280.8V279.8V278.8C1041.35 278.8 1037.84 279.944 1034.26 282.148L1034.78 283ZM1044.78 279.8V280.8C1047.75 280.8 1050.91 281.789 1054.26 283.852L1054.78 283L1055.31 282.148C1051.72 279.944 1048.21 278.8 1044.78 278.8V279.8ZM1054.78 283L1054.33 283.894C1057.79 285.623 1060.01 288.442 1061.01 292.443L1061.98 292.2L1062.95 291.957C1061.82 287.425 1059.24 284.111 1055.23 282.106L1054.78 283ZM1061.98 292.2L1061.01 292.457L1085.01 382.857L1085.98 382.6L1086.95 382.343L1062.95 291.943L1061.98 292.2ZM1085.98 382.6L1085.02 382.887C1085.44 384.276 1085.95 385.415 1086.6 386.225C1087.27 387.056 1088.13 387.6 1089.18 387.6V386.6V385.6C1088.9 385.6 1088.56 385.477 1088.16 384.975C1087.74 384.452 1087.32 383.591 1086.94 382.313L1085.98 382.6ZM1089.18 386.6V387.6C1090.35 387.6 1091.3 387.041 1091.99 386.088C1092.65 385.179 1093.09 383.91 1093.37 382.379L1092.38 382.2L1091.4 382.021C1091.14 383.424 1090.78 384.354 1090.37 384.912C1090 385.426 1089.62 385.6 1089.18 385.6V386.6ZM1092.38 382.2L1093.37 382.372L1112.17 274.772L1111.18 274.6L1110.2 274.428L1091.4 382.028L1092.38 382.2ZM1111.18 274.6L1112.16 274.796C1112.92 270.982 1114.55 268.303 1116.95 266.619L1116.38 265.8L1115.81 264.981C1112.88 267.03 1111.04 270.218 1110.2 274.404L1111.18 274.6ZM1116.38 265.8L1116.95 266.619C1119.47 264.857 1122.08 264 1124.78 264V263V262C1121.62 262 1118.62 263.01 1115.81 264.981L1116.38 265.8ZM1124.78 263V264C1128.28 264 1131.39 265.118 1134.15 267.374L1134.78 266.6L1135.41 265.826C1132.31 263.282 1128.75 262 1124.78 262V263ZM1134.78 266.6L1134.18 267.4C1137.05 269.552 1138.29 272.644 1137.79 276.883L1138.78 277L1139.77 277.117C1140.34 272.289 1138.91 268.448 1135.38 265.8L1134.78 266.6ZM1138.78 277L1137.8 276.806L1111 412.406L1111.98 412.6L1112.96 412.794L1139.76 277.194L1138.78 277ZM1111.98 412.6L1111.01 412.383C1109.99 416.972 1107.7 420.782 1104.13 423.841L1104.78 424.6L1105.43 425.359C1109.33 422.018 1111.84 417.828 1112.96 412.817L1111.98 412.6ZM1104.78 424.6L1104.14 423.837C1100.86 426.608 1096.96 428 1092.38 428V429V430C1097.4 430 1101.77 428.459 1105.43 425.363L1104.78 424.6ZM1092.38 429V428C1087.77 428 1083.89 426.756 1080.69 424.306C1077.47 421.847 1074.87 418.12 1072.91 413.041L1071.98 413.4L1071.05 413.759C1073.09 419.08 1075.89 423.153 1079.47 425.894C1083.07 428.644 1087.39 430 1092.38 430V429ZM1071.98 413.4L1072.94 413.132L1049.34 328.332L1048.38 328.6L1047.42 328.868L1071.02 413.668L1071.98 413.4ZM1048.38 328.6L1049.35 328.337C1048.93 326.807 1048.38 325.555 1047.66 324.667C1046.9 323.749 1045.94 323.2 1044.78 323.2V324.2V325.2C1045.22 325.2 1045.66 325.384 1046.11 325.933C1046.58 326.512 1047.03 327.459 1047.42 328.863L1048.38 328.6ZM1044.78 324.2V323.2C1043.62 323.2 1042.66 323.749 1041.91 324.667C1041.18 325.555 1040.63 326.807 1040.22 328.337L1041.18 328.6L1042.15 328.863C1042.53 327.459 1042.98 326.512 1043.46 325.933C1043.9 325.384 1044.34 325.2 1044.78 325.2V324.2ZM1041.18 328.6L1040.22 328.328L1016.22 413.128L1017.18 413.4L1018.14 413.672L1042.14 328.872L1041.18 328.6ZM1017.18 413.4L1016.25 413.041C1014.29 418.12 1011.69 421.847 1008.47 424.306C1005.27 426.756 1001.39 428 996.781 428V429V430C1001.77 430 1006.09 428.644 1009.69 425.894C1013.27 423.153 1016.07 419.08 1018.11 413.759L1017.18 413.4Z" fill="#566E32" mask="url(#path-1-outside-1_2294_153)"/>
<ellipse cx="20" cy="26.0024" rx="20" ry="26.0024" transform="matrix(0.926185 -0.377068 0.404492 0.914542 239 260.082)" fill="#566E32"/>
<ellipse cx="20" cy="26.0935" rx="20" ry="26.0935" transform="matrix(0.897845 0.440312 -0.472193 0.881495 311.209 245)" fill="#566E32"/>
<ellipse cx="20" cy="26.0024" rx="20" ry="26.0024" transform="matrix(0.926185 -0.377068 0.404492 0.914542 797.852 265.082)" fill="#566E32"/>
<ellipse cx="20" cy="26.0935" rx="20" ry="26.0935" transform="matrix(0.897845 0.440312 -0.472193 0.881495 870.061 250)" fill="#566E32"/>
<ellipse cx="20" cy="26.7659" rx="20" ry="26.7659" transform="matrix(-0.458471 0.888709 -0.904761 -0.42592 267.921 304.166)" fill="#F1AD24"/>
<ellipse cx="20" cy="26.8259" rx="20" ry="26.8259" transform="matrix(0.41932 0.907838 -0.921039 0.389471 369.75 282.693)" fill="#566E32"/>
<ellipse cx="20" cy="26.7659" rx="20" ry="26.7659" transform="matrix(-0.458471 0.888709 -0.904761 -0.42592 826.772 309.166)" fill="#566E32"/>
<ellipse cx="20" cy="26.8259" rx="20" ry="26.8259" transform="matrix(0.41932 0.907838 -0.921039 0.389471 928.602 287.693)" fill="#566E32"/>
<ellipse cx="20" cy="26.7634" rx="20" ry="26.7634" transform="matrix(-0.482871 0.875692 -0.892698 -0.450655 382.098 355.122)" fill="#566E32"/>
<ellipse cx="20" cy="26.8829" rx="20" ry="26.8829" transform="matrix(0.350664 0.936501 -0.945962 0.324277 252.86 331)" fill="#566E32"/>
<ellipse cx="20" cy="26.7634" rx="20" ry="26.7634" transform="matrix(-0.482871 0.875692 -0.892698 -0.450655 940.949 360.122)" fill="#C04C6F"/>
<ellipse cx="20" cy="26.8829" rx="20" ry="26.8829" transform="matrix(0.350664 0.936501 -0.945962 0.324277 811.712 336)" fill="#566E32"/>
<ellipse cx="20" cy="26.0935" rx="20" ry="26.0935" transform="matrix(0.897845 0.440312 -0.472193 0.881495 259.435 361.31)" fill="#566E32"/>
<ellipse cx="20" cy="26.0024" rx="20" ry="26.0024" transform="matrix(0.93737 -0.348334 0.376103 0.926578 286.568 376.905)" fill="#566E32"/>
<ellipse cx="20" cy="26.0935" rx="20" ry="26.0935" transform="matrix(0.897845 0.440312 -0.472193 0.881495 818.287 366.31)" fill="#566E32"/>
<ellipse cx="20" cy="26.0024" rx="20" ry="26.0024" transform="matrix(0.93737 -0.348334 0.376103 0.926578 845.42 381.905)" fill="#566E32"/>
<mask id="path-19-outside-2_2294_153" maskUnits="userSpaceOnUse" x="11" y="219" width="1129" height="212" fill="black">
<rect fill="white" x="11" y="219" width="1129" height="212"/>
<path d="M176.5 414C170.833 418.333 162 422 150 425C138 428.333 126.167 430 114.5 430C95.1667 430 77.8333 425.5 62.5 416.5C47.1667 407.5 35 395 26 379C17 363 12.5 344.667 12.5 324C12.5 303.667 16.8333 285.667 25.5 270C34.1667 254.333 46.3333 242.167 62 233.5C78 224.5 96.5 220 117.5 220C125.833 220 134 220.667 142 222C150.333 223.333 158.667 225.667 167 229C170.333 230.667 172.667 233 174 236C175.667 238.667 176.5 241.333 176.5 244C176.5 248.333 175 252.167 172 255.5C169.333 258.833 165.667 260.5 161 260.5C159 260.5 156.667 260 154 259C148.667 257 142.333 255.167 135 253.5C128 251.833 121 251 114 251C100.667 251 89 254.5 79 261.5C69 268.167 61.1667 277.167 55.5 288.5C50.1667 299.833 47.5 312.333 47.5 326C47.5 346.333 53.6667 363.667 66 378C78.3333 392.333 94.6667 399.5 115 399.5C124 399.5 132.833 398.167 141.5 395.5C150.167 392.5 156.667 389.333 161 386C164.667 384 167.833 383 170.5 383C174.833 383 178.333 384.667 181 388C183.667 391 185 394.5 185 398.5C185 404.5 182.167 409.667 176.5 414ZM498.809 430C479.809 430 462.475 425.5 446.809 416.5C431.475 407.167 419.142 394.667 409.809 379C400.809 363 396.309 345 396.309 325C396.309 304 400.809 285.667 409.809 270C419.142 254 431.642 241.667 447.309 233C463.309 224.333 481.142 220 500.809 220C514.475 220 527.142 221.833 538.809 225.5C550.475 228.833 561.475 234.333 571.809 242C575.809 245.333 577.809 249.833 577.809 255.5C577.809 259.833 576.309 263.667 573.309 267C570.642 270 566.975 271.5 562.309 271.5C559.309 271.5 555.975 270.333 552.309 268C544.309 262 535.975 257.667 527.309 255C518.642 252.333 509.975 251 501.309 251C480.975 251 464.142 257.833 450.809 271.5C437.809 284.833 431.309 302.667 431.309 325C431.309 346.667 437.475 364.5 449.809 378.5C462.475 392.167 478.809 399 498.809 399C510.809 399 521.309 396.833 530.309 392.5C539.642 388.167 546.975 382.667 552.309 376C557.975 369 561.142 362.167 561.809 355.5C561.809 350.167 559.142 347.5 553.809 347.5H518.309C507.309 347.5 501.809 342.333 501.809 332C501.809 327.333 503.309 323.667 506.309 321C509.309 318.333 513.309 317 518.309 317H575.309C582.642 317 587.975 318.667 591.309 322C594.642 325 596.309 331 596.309 340C596.309 356.333 592.142 371.333 583.809 385C575.809 398.667 564.475 409.667 549.809 418C535.142 426 518.142 430 498.809 430ZM640.506 429C637.04 429 633.84 427.667 630.906 425C628.24 422.6 626.906 419.667 626.906 416.2V287C626.906 279.8 629.306 274.333 634.106 270.6C639.173 266.867 644.506 265 650.106 265H689.306C698.373 265 706.773 267 714.506 271C722.506 274.733 728.906 280.2 733.706 287.4C738.506 294.333 740.906 302.733 740.906 312.6C740.906 321.933 738.106 330.867 732.506 339.4C727.173 347.667 720.24 353.267 711.706 356.2C715.44 357.8 718.906 360.467 722.106 364.2C725.573 367.667 728.64 372.333 731.306 378.2L745.706 410.6C746.506 412.2 746.906 413.933 746.906 415.8C746.906 420.6 745.306 424.067 742.106 426.2C739.173 428.333 736.106 429.4 732.906 429.4C727.573 429.4 723.84 426.867 721.706 421.8L705.306 383.4C701.84 375.667 697.44 370.333 692.106 367.4C686.773 364.467 680.906 363 674.506 363H664.506C657.573 363 654.106 367 654.106 375V416.2C654.106 419.667 652.773 422.6 650.106 425C647.44 427.667 644.24 429 640.506 429ZM662.906 339H685.306C691.973 339 698.373 336.867 704.506 332.6C710.906 328.067 714.106 321.667 714.106 313.4C714.106 305.4 711.173 299.4 705.306 295.4C699.706 291.4 693.573 289.4 686.906 289.4H664.106C657.44 289.4 654.106 292.733 654.106 299.4V329.8C654.106 335.933 657.04 339 662.906 339ZM996.781 429C991.981 429 987.715 427.533 983.981 424.6C980.515 421.4 978.248 417.4 977.181 412.6L950.781 277C950.515 272.467 951.848 269 954.781 266.6C957.715 264.2 961.048 263 964.781 263C967.715 263 970.515 263.933 973.181 265.8C976.115 267.667 977.848 270.6 978.381 274.6L997.181 382.2C997.715 385.133 998.781 386.6 1000.38 386.6C1001.71 386.6 1002.78 385.267 1003.58 382.6L1027.58 292.2C1028.91 287.933 1031.31 284.867 1034.78 283C1038.25 280.867 1041.58 279.8 1044.78 279.8C1047.98 279.8 1051.31 280.867 1054.78 283C1058.51 284.867 1060.91 287.933 1061.98 292.2L1085.98 382.6C1086.78 385.267 1087.85 386.6 1089.18 386.6C1090.78 386.6 1091.85 385.133 1092.38 382.2L1111.18 274.6C1111.98 270.6 1113.71 267.667 1116.38 265.8C1119.05 263.933 1121.85 263 1124.78 263C1128.51 263 1131.85 264.2 1134.78 266.6C1137.98 269 1139.31 272.467 1138.78 277L1111.98 412.6C1110.91 417.4 1108.51 421.4 1104.78 424.6C1101.31 427.533 1097.18 429 1092.38 429C1082.78 429 1075.98 423.8 1071.98 413.4L1048.38 328.6C1047.58 325.667 1046.38 324.2 1044.78 324.2C1043.18 324.2 1041.98 325.667 1041.18 328.6L1017.18 413.4C1013.18 423.8 1006.38 429 996.781 429Z"/>
</mask>
<path d="M176.5 414C170.833 418.333 162 422 150 425C138 428.333 126.167 430 114.5 430C95.1667 430 77.8333 425.5 62.5 416.5C47.1667 407.5 35 395 26 379C17 363 12.5 344.667 12.5 324C12.5 303.667 16.8333 285.667 25.5 270C34.1667 254.333 46.3333 242.167 62 233.5C78 224.5 96.5 220 117.5 220C125.833 220 134 220.667 142 222C150.333 223.333 158.667 225.667 167 229C170.333 230.667 172.667 233 174 236C175.667 238.667 176.5 241.333 176.5 244C176.5 248.333 175 252.167 172 255.5C169.333 258.833 165.667 260.5 161 260.5C159 260.5 156.667 260 154 259C148.667 257 142.333 255.167 135 253.5C128 251.833 121 251 114 251C100.667 251 89 254.5 79 261.5C69 268.167 61.1667 277.167 55.5 288.5C50.1667 299.833 47.5 312.333 47.5 326C47.5 346.333 53.6667 363.667 66 378C78.3333 392.333 94.6667 399.5 115 399.5C124 399.5 132.833 398.167 141.5 395.5C150.167 392.5 156.667 389.333 161 386C164.667 384 167.833 383 170.5 383C174.833 383 178.333 384.667 181 388C183.667 391 185 394.5 185 398.5C185 404.5 182.167 409.667 176.5 414ZM498.809 430C479.809 430 462.475 425.5 446.809 416.5C431.475 407.167 419.142 394.667 409.809 379C400.809 363 396.309 345 396.309 325C396.309 304 400.809 285.667 409.809 270C419.142 254 431.642 241.667 447.309 233C463.309 224.333 481.142 220 500.809 220C514.475 220 527.142 221.833 538.809 225.5C550.475 228.833 561.475 234.333 571.809 242C575.809 245.333 577.809 249.833 577.809 255.5C577.809 259.833 576.309 263.667 573.309 267C570.642 270 566.975 271.5 562.309 271.5C559.309 271.5 555.975 270.333 552.309 268C544.309 262 535.975 257.667 527.309 255C518.642 252.333 509.975 251 501.309 251C480.975 251 464.142 257.833 450.809 271.5C437.809 284.833 431.309 302.667 431.309 325C431.309 346.667 437.475 364.5 449.809 378.5C462.475 392.167 478.809 399 498.809 399C510.809 399 521.309 396.833 530.309 392.5C539.642 388.167 546.975 382.667 552.309 376C557.975 369 561.142 362.167 561.809 355.5C561.809 350.167 559.142 347.5 553.809 347.5H518.309C507.309 347.5 501.809 342.333 501.809 332C501.809 327.333 503.309 323.667 506.309 321C509.309 318.333 513.309 317 518.309 317H575.309C582.642 317 587.975 318.667 591.309 322C594.642 325 596.309 331 596.309 340C596.309 356.333 592.142 371.333 583.809 385C575.809 398.667 564.475 409.667 549.809 418C535.142 426 518.142 430 498.809 430ZM640.506 429C637.04 429 633.84 427.667 630.906 425C628.24 422.6 626.906 419.667 626.906 416.2V287C626.906 279.8 629.306 274.333 634.106 270.6C639.173 266.867 644.506 265 650.106 265H689.306C698.373 265 706.773 267 714.506 271C722.506 274.733 728.906 280.2 733.706 287.4C738.506 294.333 740.906 302.733 740.906 312.6C740.906 321.933 738.106 330.867 732.506 339.4C727.173 347.667 720.24 353.267 711.706 356.2C715.44 357.8 718.906 360.467 722.106 364.2C725.573 367.667 728.64 372.333 731.306 378.2L745.706 410.6C746.506 412.2 746.906 413.933 746.906 415.8C746.906 420.6 745.306 424.067 742.106 426.2C739.173 428.333 736.106 429.4 732.906 429.4C727.573 429.4 723.84 426.867 721.706 421.8L705.306 383.4C701.84 375.667 697.44 370.333 692.106 367.4C686.773 364.467 680.906 363 674.506 363H664.506C657.573 363 654.106 367 654.106 375V416.2C654.106 419.667 652.773 422.6 650.106 425C647.44 427.667 644.24 429 640.506 429ZM662.906 339H685.306C691.973 339 698.373 336.867 704.506 332.6C710.906 328.067 714.106 321.667 714.106 313.4C714.106 305.4 711.173 299.4 705.306 295.4C699.706 291.4 693.573 289.4 686.906 289.4H664.106C657.44 289.4 654.106 292.733 654.106 299.4V329.8C654.106 335.933 657.04 339 662.906 339ZM996.781 429C991.981 429 987.715 427.533 983.981 424.6C980.515 421.4 978.248 417.4 977.181 412.6L950.781 277C950.515 272.467 951.848 269 954.781 266.6C957.715 264.2 961.048 263 964.781 263C967.715 263 970.515 263.933 973.181 265.8C976.115 267.667 977.848 270.6 978.381 274.6L997.181 382.2C997.715 385.133 998.781 386.6 1000.38 386.6C1001.71 386.6 1002.78 385.267 1003.58 382.6L1027.58 292.2C1028.91 287.933 1031.31 284.867 1034.78 283C1038.25 280.867 1041.58 279.8 1044.78 279.8C1047.98 279.8 1051.31 280.867 1054.78 283C1058.51 284.867 1060.91 287.933 1061.98 292.2L1085.98 382.6C1086.78 385.267 1087.85 386.6 1089.18 386.6C1090.78 386.6 1091.85 385.133 1092.38 382.2L1111.18 274.6C1111.98 270.6 1113.71 267.667 1116.38 265.8C1119.05 263.933 1121.85 263 1124.78 263C1128.51 263 1131.85 264.2 1134.78 266.6C1137.98 269 1139.31 272.467 1138.78 277L1111.98 412.6C1110.91 417.4 1108.51 421.4 1104.78 424.6C1101.31 427.533 1097.18 429 1092.38 429C1082.78 429 1075.98 423.8 1071.98 413.4L1048.38 328.6C1047.58 325.667 1046.38 324.2 1044.78 324.2C1043.18 324.2 1041.98 325.667 1041.18 328.6L1017.18 413.4C1013.18 423.8 1006.38 429 996.781 429Z" fill="#00ACE5"/>
<path d="M176.5 414L175.893 413.206V413.206L176.5 414ZM150 425L149.757 424.03L149.745 424.033L149.732 424.036L150 425ZM62.5 416.5L61.9938 417.362V417.362L62.5 416.5ZM26 379L26.8716 378.51V378.51L26 379ZM25.5 270L26.375 270.484V270.484L25.5 270ZM62 233.5L62.4841 234.375L62.4903 234.372L62 233.5ZM142 222L141.836 222.986L141.842 222.987L142 222ZM167 229L167.447 228.106L167.41 228.087L167.371 228.072L167 229ZM174 236L173.086 236.406L173.115 236.47L173.152 236.53L174 236ZM172 255.5L171.257 254.831L171.237 254.853L171.219 254.875L172 255.5ZM154 259L153.649 259.936V259.936L154 259ZM135 253.5L134.768 254.473L134.778 254.475L135 253.5ZM79 261.5L79.5547 262.332L79.5642 262.326L79.5735 262.319L79 261.5ZM55.5 288.5L54.6056 288.053L54.6003 288.063L54.5952 288.074L55.5 288.5ZM66 378L65.242 378.652V378.652L66 378ZM141.5 395.5L141.794 396.456L141.811 396.451L141.827 396.445L141.5 395.5ZM161 386L160.521 385.122L160.452 385.16L160.39 385.207L161 386ZM181 388L180.219 388.625L180.235 388.645L180.253 388.664L181 388ZM176.5 414L175.893 413.206C170.386 417.416 161.708 421.042 149.757 424.03L150 425L150.243 425.97C162.292 422.958 171.281 419.25 177.107 414.794L176.5 414ZM150 425L149.732 424.036C137.814 427.347 126.07 429 114.5 429V430V431C126.263 431 138.186 429.319 150.268 425.964L150 425ZM114.5 430V429C95.3286 429 78.1728 424.54 63.0062 415.638L62.5 416.5L61.9938 417.362C77.4939 426.46 95.0048 431 114.5 431V430ZM62.5 416.5L63.0062 415.638C47.8305 406.73 35.7878 394.361 26.8716 378.51L26 379L25.1284 379.49C34.2122 395.639 46.5028 408.27 61.9938 417.362L62.5 416.5ZM26 379L26.8716 378.51C17.9659 362.677 13.5 344.517 13.5 324H12.5H11.5C11.5 344.816 16.0341 363.323 25.1284 379.49L26 379ZM12.5 324H13.5C13.5 303.813 17.8009 285.983 26.375 270.484L25.5 270L24.625 269.516C15.8657 285.35 11.5 303.521 11.5 324H12.5ZM25.5 270L26.375 270.484C34.9507 254.982 46.9819 242.951 62.4841 234.375L62 233.5L61.5159 232.625C45.6848 241.383 33.3826 253.685 24.625 269.516L25.5 270ZM62 233.5L62.4903 234.372C78.3202 225.467 96.6467 221 117.5 221V220V219C96.3533 219 77.6798 223.533 61.5097 232.628L62 233.5ZM117.5 220V221C125.78 221 133.891 221.662 141.836 222.986L142 222L142.164 221.014C134.109 219.671 125.887 219 117.5 219V220ZM142 222L141.842 222.987C150.098 224.308 158.36 226.621 166.629 229.928L167 229L167.371 228.072C158.974 224.712 150.569 222.358 142.158 221.013L142 222ZM167 229L166.553 229.894C169.708 231.472 171.86 233.647 173.086 236.406L174 236L174.914 235.594C173.474 232.353 170.958 229.861 167.447 228.106L167 229ZM174 236L173.152 236.53C174.737 239.067 175.5 241.552 175.5 244H176.5H177.5C177.5 241.115 176.596 238.267 174.848 235.47L174 236ZM176.5 244H175.5C175.5 248.077 174.098 251.674 171.257 254.831L172 255.5L172.743 256.169C175.902 252.659 177.5 248.59 177.5 244H176.5ZM172 255.5L171.219 254.875C168.762 257.947 165.395 259.5 161 259.5V260.5V261.5C165.938 261.5 169.905 259.719 172.781 256.125L172 255.5ZM161 260.5V259.5C159.159 259.5 156.949 259.038 154.351 258.064L154 259L153.649 259.936C156.384 260.962 158.841 261.5 161 261.5V260.5ZM154 259L154.351 258.064C148.965 256.044 142.586 254.199 135.222 252.525L135 253.5L134.778 254.475C142.081 256.135 148.369 257.956 153.649 259.936L154 259ZM135 253.5L135.232 252.527C128.158 250.843 121.08 250 114 250V251V252C120.92 252 127.842 252.824 134.768 254.473L135 253.5ZM114 251V250C100.481 250 88.6102 253.552 78.4265 260.681L79 261.5L79.5735 262.319C89.3898 255.448 100.852 252 114 252V251ZM79 261.5L78.4453 260.668C68.2926 267.436 60.3457 276.573 54.6056 288.053L55.5 288.5L56.3944 288.947C61.9877 277.761 69.7075 268.897 79.5547 262.332L79 261.5ZM55.5 288.5L54.5952 288.074C49.1936 299.552 46.5 312.2 46.5 326H47.5H48.5C48.5 312.467 51.1397 300.114 56.4048 288.926L55.5 288.5ZM47.5 326H46.5C46.5 346.553 52.7403 364.123 65.242 378.652L66 378L66.758 377.348C54.5931 363.21 48.5 346.113 48.5 326H47.5ZM66 378L65.242 378.652C77.7809 393.225 94.4003 400.5 115 400.5V399.5V398.5C94.9331 398.5 78.8857 391.442 66.758 377.348L66 378ZM115 399.5V400.5C124.1 400.5 133.033 399.152 141.794 396.456L141.5 395.5L141.206 394.544C132.634 397.182 123.9 398.5 115 398.5V399.5ZM141.5 395.5L141.827 396.445C150.536 393.43 157.153 390.221 161.61 386.793L161 386L160.39 385.207C156.181 388.445 149.797 391.57 141.173 394.555L141.5 395.5ZM161 386L161.479 386.878C165.074 384.917 168.069 384 170.5 384V383V382C167.597 382 164.259 383.083 160.521 385.122L161 386ZM170.5 383V384C174.535 384 177.746 385.533 180.219 388.625L181 388L181.781 387.375C178.921 383.801 175.132 382 170.5 382V383ZM181 388L180.253 388.664C182.757 391.482 184 394.746 184 398.5H185H186C186 394.254 184.576 390.518 181.747 387.336L181 388ZM185 398.5H184C184 404.128 181.364 409.021 175.893 413.206L176.5 414L177.107 414.794C182.969 410.312 186 404.872 186 398.5H185ZM446.809 416.5L446.289 417.354L446.299 417.361L446.31 417.367L446.809 416.5ZM409.809 379L408.937 379.49L408.943 379.501L408.949 379.512L409.809 379ZM409.809 270L408.945 269.496L408.941 269.502L409.809 270ZM447.309 233L446.832 232.121L446.825 232.125L447.309 233ZM538.809 225.5L538.509 226.454L538.521 226.458L538.534 226.462L538.809 225.5ZM571.809 242L572.449 241.232L572.427 241.214L572.404 241.197L571.809 242ZM573.309 267L572.565 266.331L572.561 266.336L573.309 267ZM552.309 268L551.709 268.8L551.739 268.823L551.772 268.844L552.309 268ZM527.309 255L527.015 255.956V255.956L527.309 255ZM450.809 271.5L450.093 270.802L450.093 270.802L450.809 271.5ZM449.809 378.5L449.058 379.161L449.067 379.171L449.075 379.18L449.809 378.5ZM530.309 392.5L529.887 391.593L529.875 391.599L530.309 392.5ZM552.309 376L551.531 375.371L551.528 375.375L552.309 376ZM561.809 355.5L562.804 355.599L562.809 355.55V355.5H561.809ZM506.309 321L505.644 320.253V320.253L506.309 321ZM591.309 322L590.602 322.707L590.62 322.726L590.64 322.743L591.309 322ZM583.809 385L582.955 384.479L582.95 384.487L582.946 384.495L583.809 385ZM549.809 418L550.287 418.878L550.295 418.874L550.303 418.869L549.809 418ZM498.809 430V429C479.974 429 462.814 424.541 447.307 415.633L446.809 416.5L446.31 417.367C462.137 426.459 479.643 431 498.809 431V430ZM446.809 416.5L447.329 415.646C432.137 406.399 419.919 394.017 410.668 378.488L409.809 379L408.949 379.512C418.365 395.316 430.814 407.935 446.289 417.354L446.809 416.5ZM409.809 379L410.68 378.51C401.772 362.673 397.309 344.844 397.309 325H396.309H395.309C395.309 345.156 399.845 363.327 408.937 379.49L409.809 379ZM396.309 325H397.309C397.309 304.146 401.776 285.99 410.676 270.498L409.809 270L408.941 269.502C399.841 285.343 395.309 303.854 395.309 325H396.309ZM409.809 270L410.672 270.504C419.918 254.654 432.289 242.451 447.793 233.875L447.309 233L446.825 232.125C430.995 240.882 418.366 253.346 408.945 269.496L409.809 270ZM447.309 233L447.785 233.879C463.627 225.298 481.294 221 500.809 221V220V219C480.989 219 462.99 223.368 446.832 232.121L447.309 233ZM500.809 220V221C514.385 221 526.95 222.821 538.509 226.454L538.809 225.5L539.108 224.546C527.334 220.845 514.565 219 500.809 219V220ZM538.809 225.5L538.534 226.462C550.078 229.76 560.97 235.204 571.213 242.803L571.809 242L572.404 241.197C561.98 233.463 550.873 227.907 539.083 224.538L538.809 225.5ZM571.809 242L571.168 242.768C574.919 245.893 576.809 250.1 576.809 255.5H577.809H578.809C578.809 249.566 576.699 244.773 572.449 241.232L571.809 242ZM577.809 255.5H576.809C576.809 259.577 575.406 263.174 572.565 266.331L573.309 267L574.052 267.669C577.211 264.159 578.809 260.09 578.809 255.5H577.809ZM573.309 267L572.561 266.336C570.116 269.087 566.741 270.5 562.309 270.5V271.5V272.5C567.21 272.5 571.168 270.913 574.056 267.664L573.309 267ZM562.309 271.5V270.5C559.566 270.5 556.42 269.431 552.845 267.156L552.309 268L551.772 268.844C555.531 271.236 559.051 272.5 562.309 272.5V271.5ZM552.309 268L552.909 267.2C544.826 261.138 536.39 256.748 527.603 254.044L527.309 255L527.015 255.956C535.56 258.585 543.791 262.862 551.709 268.8L552.309 268ZM527.309 255L527.603 254.044C518.845 251.35 510.079 250 501.309 250V251V252C509.871 252 518.439 253.317 527.015 255.956L527.309 255ZM501.309 251V250C480.725 250 463.628 256.929 450.093 270.802L450.809 271.5L451.524 272.198C464.656 258.738 481.225 252 501.309 252V251ZM450.809 271.5L450.093 270.802C436.875 284.358 430.309 302.461 430.309 325H431.309H432.309C432.309 302.872 438.742 285.308 451.525 272.198L450.809 271.5ZM431.309 325H430.309C430.309 346.868 436.538 364.949 449.058 379.161L449.809 378.5L450.559 377.839C438.412 364.051 432.309 346.465 432.309 325H431.309ZM449.809 378.5L449.075 379.18C461.946 393.067 478.553 400 498.809 400V399V398C479.064 398 463.004 391.267 450.542 377.82L449.809 378.5ZM498.809 399V400C510.929 400 521.583 397.811 530.742 393.401L530.309 392.5L529.875 391.599C521.035 395.855 510.688 398 498.809 398V399ZM530.309 392.5L530.73 393.407C540.175 389.022 547.642 383.434 553.089 376.625L552.309 376L551.528 375.375C546.309 381.899 539.109 387.312 529.887 391.593L530.309 392.5ZM552.309 376L553.086 376.629C558.834 369.529 562.112 362.516 562.804 355.599L561.809 355.5L560.814 355.4C560.172 361.817 557.117 368.471 551.531 375.371L552.309 376ZM561.809 355.5H562.809C562.809 352.679 562.103 350.38 560.516 348.793C558.929 347.206 556.629 346.5 553.809 346.5V347.5V348.5C556.321 348.5 558.022 349.127 559.102 350.207C560.181 351.287 560.809 352.987 560.809 355.5H561.809ZM553.809 347.5V346.5H518.309V347.5V348.5H553.809V347.5ZM518.309 347.5V346.5C512.948 346.5 509.113 345.24 506.618 342.896C504.135 340.564 502.809 336.996 502.809 332H501.809H500.809C500.809 337.337 502.232 341.52 505.249 344.354C508.254 347.177 512.669 348.5 518.309 348.5V347.5ZM501.809 332H502.809C502.809 327.568 504.222 324.193 506.973 321.747L506.309 321L505.644 320.253C502.395 323.141 500.809 327.099 500.809 332H501.809ZM506.309 321L506.973 321.747C509.748 319.281 513.491 318 518.309 318V317V316C513.126 316 508.869 317.386 505.644 320.253L506.309 321ZM518.309 317V318H575.309V317V316H518.309V317ZM575.309 317V318C582.52 318 587.537 319.643 590.602 322.707L591.309 322L592.016 321.293C588.413 317.69 582.764 316 575.309 316V317ZM591.309 322L590.64 322.743C593.629 325.434 595.309 331.032 595.309 340H596.309H597.309C597.309 330.968 595.655 324.566 591.978 321.257L591.309 322ZM596.309 340H595.309C595.309 356.154 591.19 370.973 582.955 384.479L583.809 385L584.662 385.521C593.093 371.694 597.309 356.513 597.309 340H596.309ZM583.809 385L582.946 384.495C575.04 398 563.839 408.878 549.315 417.131L549.809 418L550.303 418.869C565.112 410.455 576.577 399.334 584.672 385.505L583.809 385ZM549.809 418L549.33 417.122C534.832 425.03 518.001 429 498.809 429V430V431C518.283 431 535.452 426.97 550.287 418.878L549.809 418ZM630.906 425L631.579 424.26L631.575 424.257L630.906 425ZM634.106 270.6L633.513 269.795L633.503 269.803L633.492 269.811L634.106 270.6ZM714.506 271L714.047 271.888L714.065 271.898L714.083 271.906L714.506 271ZM733.706 287.4L732.874 287.955L732.879 287.962L732.884 287.969L733.706 287.4ZM732.506 339.4L731.67 338.851L731.666 338.858L732.506 339.4ZM711.706 356.2L711.381 355.254L708.928 356.097L711.312 357.119L711.706 356.2ZM722.106 364.2L721.347 364.851L721.372 364.88L721.399 364.907L722.106 364.2ZM731.306 378.2L732.22 377.794L732.217 377.786L731.306 378.2ZM745.706 410.6L744.792 411.006L744.802 411.027L744.812 411.047L745.706 410.6ZM742.106 426.2L741.552 425.368L741.535 425.379L741.518 425.391L742.106 426.2ZM721.706 421.8L722.628 421.412L722.626 421.407L721.706 421.8ZM705.306 383.4L706.226 383.007L706.222 382.999L706.219 382.991L705.306 383.4ZM692.106 367.4L692.588 366.524V366.524L692.106 367.4ZM650.106 425L649.437 424.257L649.418 424.274L649.399 424.293L650.106 425ZM704.506 332.6L705.077 333.421L705.084 333.416L704.506 332.6ZM705.306 295.4L704.725 296.214L704.734 296.22L704.743 296.226L705.306 295.4ZM640.506 429V428C637.324 428 634.356 426.785 631.579 424.26L630.906 425L630.234 425.74C633.323 428.548 636.755 430 640.506 430V429ZM630.906 425L631.575 424.257C629.111 422.039 627.906 419.372 627.906 416.2H626.906H625.906C625.906 419.961 627.368 423.161 630.237 425.743L630.906 425ZM626.906 416.2H627.906V287H626.906H625.906V416.2H626.906ZM626.906 287H627.906C627.906 280.045 630.21 274.897 634.72 271.389L634.106 270.6L633.492 269.811C628.403 273.769 625.906 279.555 625.906 287H626.906ZM634.106 270.6L634.699 271.405C639.617 267.782 644.746 266 650.106 266V265V264C644.267 264 638.729 265.951 633.513 269.795L634.106 270.6ZM650.106 265V266H689.306V265V264H650.106V265ZM689.306 265V266C698.22 266 706.461 267.965 714.047 271.888L714.506 271L714.966 270.112C707.084 266.035 698.526 264 689.306 264V265ZM714.506 271L714.083 271.906C721.921 275.564 728.178 280.91 732.874 287.955L733.706 287.4L734.538 286.845C729.635 279.49 723.092 273.903 714.929 270.094L714.506 271ZM733.706 287.4L732.884 287.969C737.55 294.708 739.906 302.901 739.906 312.6H740.906H741.906C741.906 302.565 739.463 293.958 734.528 286.831L733.706 287.4ZM740.906 312.6H739.906C739.906 321.72 737.174 330.465 731.67 338.851L732.506 339.4L733.342 339.949C739.039 331.268 741.906 322.146 741.906 312.6H740.906ZM732.506 339.4L731.666 338.858C726.443 346.954 719.683 352.401 711.381 355.254L711.706 356.2L712.031 357.146C720.796 354.133 727.903 348.379 733.347 339.942L732.506 339.4ZM711.706 356.2L711.312 357.119C714.878 358.647 718.226 361.21 721.347 364.851L722.106 364.2L722.866 363.549C719.587 359.724 716.001 356.953 712.1 355.281L711.706 356.2ZM722.106 364.2L721.399 364.907C724.759 368.267 727.764 372.824 730.396 378.614L731.306 378.2L732.217 377.786C729.515 371.843 726.387 367.066 722.813 363.493L722.106 364.2ZM731.306 378.2L730.392 378.606L744.792 411.006L745.706 410.6L746.62 410.194L732.22 377.794L731.306 378.2ZM745.706 410.6L744.812 411.047C745.539 412.502 745.906 414.082 745.906 415.8H746.906H747.906C747.906 413.785 747.473 411.898 746.601 410.153L745.706 410.6ZM746.906 415.8H745.906C745.906 420.36 744.403 423.467 741.552 425.368L742.106 426.2L742.661 427.032C746.209 424.667 747.906 420.84 747.906 415.8H746.906ZM742.106 426.2L741.518 425.391C738.732 427.418 735.867 428.4 732.906 428.4V429.4V430.4C736.345 430.4 739.614 429.249 742.694 427.009L742.106 426.2ZM732.906 429.4V428.4C730.403 428.4 728.34 427.808 726.668 426.673C724.993 425.536 723.636 423.806 722.628 421.412L721.706 421.8L720.785 422.188C721.91 424.86 723.486 426.931 725.545 428.327C727.605 429.726 730.077 430.4 732.906 430.4V429.4ZM721.706 421.8L722.626 421.407L706.226 383.007L705.306 383.4L704.387 383.793L720.787 422.193L721.706 421.8ZM705.306 383.4L706.219 382.991C702.697 375.135 698.174 369.596 692.588 366.524L692.106 367.4L691.624 368.276C696.705 371.071 700.982 376.198 704.394 383.809L705.306 383.4ZM692.106 367.4L692.588 366.524C687.099 363.505 681.066 362 674.506 362V363V364C680.747 364 686.446 365.428 691.624 368.276L692.106 367.4ZM674.506 363V362H664.506V363V364H674.506V363ZM664.506 363V362C660.845 362 657.929 363.063 655.951 365.345C653.996 367.6 653.106 370.878 653.106 375H654.106H655.106C655.106 371.122 655.95 368.4 657.462 366.655C658.951 364.937 661.234 364 664.506 364V363ZM654.106 375H653.106V416.2H654.106H655.106V375H654.106ZM654.106 416.2H653.106C653.106 419.372 651.902 422.039 649.437 424.257L650.106 425L650.775 425.743C653.644 423.161 655.106 419.961 655.106 416.2H654.106ZM650.106 425L649.399 424.293C646.918 426.774 643.971 428 640.506 428V429V430C644.508 430 647.961 428.559 650.813 425.707L650.106 425ZM662.906 339V340H685.306V339V338H662.906V339ZM685.306 339V340C692.201 340 698.797 337.79 705.077 333.421L704.506 332.6L703.935 331.779C697.948 335.944 691.745 338 685.306 338V339ZM704.506 332.6L705.084 333.416C711.765 328.684 715.106 321.97 715.106 313.4H714.106H713.106C713.106 321.363 710.047 327.45 703.928 331.784L704.506 332.6ZM714.106 313.4H715.106C715.106 305.118 712.047 298.786 705.87 294.574L705.306 295.4L704.743 296.226C710.298 300.014 713.106 305.682 713.106 313.4H714.106ZM705.306 295.4L705.888 294.586C700.124 290.469 693.788 288.4 686.906 288.4V289.4V290.4C693.357 290.4 699.289 292.331 704.725 296.214L705.306 295.4ZM686.906 289.4V288.4H664.106V289.4V290.4H686.906V289.4ZM664.106 289.4V288.4C660.619 288.4 657.82 289.273 655.899 291.193C653.979 293.113 653.106 295.913 653.106 299.4H654.106H655.106C655.106 296.221 655.9 294.02 657.313 292.607C658.726 291.194 660.927 290.4 664.106 290.4V289.4ZM654.106 299.4H653.106V329.8H654.106H655.106V299.4H654.106ZM654.106 329.8H653.106C653.106 333.01 653.873 335.603 655.584 337.391C657.302 339.188 659.807 340 662.906 340V339V338C660.139 338 658.244 337.279 657.029 336.009C655.806 334.73 655.106 332.723 655.106 329.8H654.106ZM983.981 424.6L983.303 425.335L983.332 425.362L983.363 425.386L983.981 424.6ZM977.181 412.6L976.2 412.791L976.202 412.804L976.205 412.817L977.181 412.6ZM950.781 277L949.783 277.059L949.787 277.125L949.8 277.191L950.781 277ZM954.781 266.6L954.148 265.826V265.826L954.781 266.6ZM973.181 265.8L972.608 266.619L972.626 266.632L972.644 266.644L973.181 265.8ZM978.381 274.6L977.39 274.732L977.393 274.752L977.396 274.772L978.381 274.6ZM997.181 382.2L996.196 382.372L996.197 382.379L997.181 382.2ZM1003.58 382.6L1004.54 382.887L1004.54 382.872L1004.55 382.857L1003.58 382.6ZM1027.58 292.2L1026.63 291.902L1026.62 291.922L1026.61 291.943L1027.58 292.2ZM1034.78 283L1035.26 283.88L1035.28 283.867L1035.31 283.852L1034.78 283ZM1054.78 283L1054.26 283.852L1054.29 283.875L1054.33 283.894L1054.78 283ZM1061.98 292.2L1061.01 292.443L1061.01 292.45L1061.01 292.457L1061.98 292.2ZM1085.98 382.6L1085.01 382.857L1085.02 382.872L1085.02 382.887L1085.98 382.6ZM1092.38 382.2L1093.37 382.379L1093.37 382.372L1092.38 382.2ZM1111.18 274.6L1110.2 274.404L1110.2 274.416L1110.2 274.428L1111.18 274.6ZM1116.38 265.8L1115.81 264.981H1115.81L1116.38 265.8ZM1134.78 266.6L1134.15 267.374L1134.16 267.387L1134.18 267.4L1134.78 266.6ZM1138.78 277L1139.76 277.194L1139.77 277.156L1139.77 277.117L1138.78 277ZM1111.98 412.6L1112.96 412.817L1112.96 412.805L1112.96 412.794L1111.98 412.6ZM1104.78 424.6L1105.43 425.363L1105.43 425.359L1104.78 424.6ZM1071.98 413.4L1071.02 413.668L1071.03 413.714L1071.05 413.759L1071.98 413.4ZM1048.38 328.6L1047.42 328.863L1047.42 328.868L1048.38 328.6ZM1041.18 328.6L1042.14 328.872L1042.15 328.863L1041.18 328.6ZM1017.18 413.4L1018.11 413.759L1018.13 413.716L1018.14 413.672L1017.18 413.4ZM996.781 429V428C992.203 428 988.154 426.607 984.599 423.814L983.981 424.6L983.363 425.386C987.275 428.46 991.76 430 996.781 430V429ZM983.981 424.6L984.66 423.865C981.349 420.81 979.182 416.993 978.157 412.383L977.181 412.6L976.205 412.817C977.314 417.807 979.68 421.991 983.303 425.335L983.981 424.6ZM977.181 412.6L978.163 412.409L951.763 276.809L950.781 277L949.8 277.191L976.2 412.791L977.181 412.6ZM950.781 277L951.78 276.941C951.527 272.656 952.78 269.529 955.414 267.374L954.781 266.6L954.148 265.826C950.916 268.471 949.502 272.277 949.783 277.059L950.781 277ZM954.781 266.6L955.414 267.374C958.172 265.118 961.283 264 964.781 264V263V262C960.813 262 957.257 263.282 954.148 265.826L954.781 266.6ZM964.781 263V264C967.487 264 970.09 264.857 972.608 266.619L973.181 265.8L973.755 264.981C970.939 263.01 967.942 262 964.781 262V263ZM973.181 265.8L972.644 266.644C975.287 268.326 976.889 270.972 977.39 274.732L978.381 274.6L979.372 274.468C978.807 270.228 976.942 267.008 973.718 264.956L973.181 265.8ZM978.381 274.6L977.396 274.772L996.196 382.372L997.181 382.2L998.166 382.028L979.366 274.428L978.381 274.6ZM997.181 382.2L996.197 382.379C996.476 383.91 996.912 385.179 997.573 386.088C998.265 387.041 999.215 387.6 1000.38 387.6V386.6V385.6C999.947 385.6 999.564 385.426 999.19 384.912C998.784 384.354 998.42 383.424 998.165 382.021L997.181 382.2ZM1000.38 386.6V387.6C1001.43 387.6 1002.3 387.056 1002.96 386.225C1003.61 385.415 1004.12 384.276 1004.54 382.887L1003.58 382.6L1002.62 382.313C1002.24 383.591 1001.82 384.452 1001.4 384.975C1001 385.477 1000.66 385.6 1000.38 385.6V386.6ZM1003.58 382.6L1004.55 382.857L1028.55 292.457L1027.58 292.2L1026.61 291.943L1002.61 382.343L1003.58 382.6ZM1027.58 292.2L1028.54 292.498C1029.8 288.444 1032.05 285.606 1035.26 283.88L1034.78 283L1034.31 282.12C1030.58 284.127 1028.03 287.422 1026.63 291.902L1027.58 292.2ZM1034.78 283L1035.31 283.852C1038.66 281.789 1041.81 280.8 1044.78 280.8V279.8V278.8C1041.35 278.8 1037.84 279.944 1034.26 282.148L1034.78 283ZM1044.78 279.8V280.8C1047.75 280.8 1050.91 281.789 1054.26 283.852L1054.78 283L1055.31 282.148C1051.72 279.944 1048.21 278.8 1044.78 278.8V279.8ZM1054.78 283L1054.33 283.894C1057.79 285.623 1060.01 288.442 1061.01 292.443L1061.98 292.2L1062.95 291.957C1061.82 287.425 1059.24 284.111 1055.23 282.106L1054.78 283ZM1061.98 292.2L1061.01 292.457L1085.01 382.857L1085.98 382.6L1086.95 382.343L1062.95 291.943L1061.98 292.2ZM1085.98 382.6L1085.02 382.887C1085.44 384.276 1085.95 385.415 1086.6 386.225C1087.27 387.056 1088.13 387.6 1089.18 387.6V386.6V385.6C1088.9 385.6 1088.56 385.477 1088.16 384.975C1087.74 384.452 1087.32 383.591 1086.94 382.313L1085.98 382.6ZM1089.18 386.6V387.6C1090.35 387.6 1091.3 387.041 1091.99 386.088C1092.65 385.179 1093.09 383.91 1093.37 382.379L1092.38 382.2L1091.4 382.021C1091.14 383.424 1090.78 384.354 1090.37 384.912C1090 385.426 1089.62 385.6 1089.18 385.6V386.6ZM1092.38 382.2L1093.37 382.372L1112.17 274.772L1111.18 274.6L1110.2 274.428L1091.4 382.028L1092.38 382.2ZM1111.18 274.6L1112.16 274.796C1112.92 270.982 1114.55 268.303 1116.95 266.619L1116.38 265.8L1115.81 264.981C1112.88 267.03 1111.04 270.218 1110.2 274.404L1111.18 274.6ZM1116.38 265.8L1116.95 266.619C1119.47 264.857 1122.08 264 1124.78 264V263V262C1121.62 262 1118.62 263.01 1115.81 264.981L1116.38 265.8ZM1124.78 263V264C1128.28 264 1131.39 265.118 1134.15 267.374L1134.78 266.6L1135.41 265.826C1132.31 263.282 1128.75 262 1124.78 262V263ZM1134.78 266.6L1134.18 267.4C1137.05 269.552 1138.29 272.644 1137.79 276.883L1138.78 277L1139.77 277.117C1140.34 272.289 1138.91 268.448 1135.38 265.8L1134.78 266.6ZM1138.78 277L1137.8 276.806L1111 412.406L1111.98 412.6L1112.96 412.794L1139.76 277.194L1138.78 277ZM1111.98 412.6L1111.01 412.383C1109.99 416.972 1107.7 420.782 1104.13 423.841L1104.78 424.6L1105.43 425.359C1109.33 422.018 1111.84 417.828 1112.96 412.817L1111.98 412.6ZM1104.78 424.6L1104.14 423.837C1100.86 426.608 1096.96 428 1092.38 428V429V430C1097.4 430 1101.77 428.459 1105.43 425.363L1104.78 424.6ZM1092.38 429V428C1087.77 428 1083.89 426.756 1080.69 424.306C1077.47 421.847 1074.87 418.12 1072.91 413.041L1071.98 413.4L1071.05 413.759C1073.09 419.08 1075.89 423.153 1079.47 425.894C1083.07 428.644 1087.39 430 1092.38 430V429ZM1071.98 413.4L1072.94 413.132L1049.34 328.332L1048.38 328.6L1047.42 328.868L1071.02 413.668L1071.98 413.4ZM1048.38 328.6L1049.35 328.337C1048.93 326.807 1048.38 325.555 1047.66 324.667C1046.9 323.749 1045.94 323.2 1044.78 323.2V324.2V325.2C1045.22 325.2 1045.66 325.384 1046.11 325.933C1046.58 326.512 1047.03 327.459 1047.42 328.863L1048.38 328.6ZM1044.78 324.2V323.2C1043.62 323.2 1042.66 323.749 1041.91 324.667C1041.18 325.555 1040.63 326.807 1040.22 328.337L1041.18 328.6L1042.15 328.863C1042.53 327.459 1042.98 326.512 1043.46 325.933C1043.9 325.384 1044.34 325.2 1044.78 325.2V324.2ZM1041.18 328.6L1040.22 328.328L1016.22 413.128L1017.18 413.4L1018.14 413.672L1042.14 328.872L1041.18 328.6ZM1017.18 413.4L1016.25 413.041C1014.29 418.12 1011.69 421.847 1008.47 424.306C1005.27 426.756 1001.39 428 996.781 428V429V430C1001.77 430 1006.09 428.644 1009.69 425.894C1013.27 423.153 1016.07 419.08 1018.11 413.759L1017.18 413.4Z" fill="#00ACE5" mask="url(#path-19-outside-2_2294_153)"/>
<ellipse cx="20" cy="26.0024" rx="20" ry="26.0024" transform="matrix(0.926185 -0.377068 0.404492 0.914542 239 260.082)" fill="#00ACE5"/>
<ellipse cx="20" cy="26.0935" rx="20" ry="26.0935" transform="matrix(0.897845 0.440312 -0.472193 0.881495 311.209 245)" fill="#00ACE5"/>
<ellipse cx="20" cy="26.0024" rx="20" ry="26.0024" transform="matrix(0.926185 -0.377068 0.404492 0.914542 797.852 265.082)" fill="#00ACE5"/>
<ellipse cx="20" cy="26.0935" rx="20" ry="26.0935" transform="matrix(0.897845 0.440312 -0.472193 0.881495 870.061 250)" fill="#00ACE5"/>
<ellipse cx="20" cy="26.7659" rx="20" ry="26.7659" transform="matrix(-0.458471 0.888709 -0.904761 -0.42592 267.921 304.166)" fill="#00ACE5"/>
<ellipse cx="20" cy="26.8259" rx="20" ry="26.8259" transform="matrix(0.41932 0.907838 -0.921039 0.389471 369.75 282.693)" fill="#00ACE5"/>
<ellipse cx="20" cy="26.7659" rx="20" ry="26.7659" transform="matrix(-0.458471 0.888709 -0.904761 -0.42592 826.772 309.166)" fill="#00ACE5"/>
<ellipse cx="20" cy="26.8259" rx="20" ry="26.8259" transform="matrix(0.41932 0.907838 -0.921039 0.389471 928.602 287.693)" fill="#00ACE5"/>
<ellipse cx="20" cy="26.7634" rx="20" ry="26.7634" transform="matrix(-0.482871 0.875692 -0.892698 -0.450655 382.098 355.122)" fill="#00ACE5"/>
<ellipse cx="20" cy="26.8829" rx="20" ry="26.8829" transform="matrix(0.350664 0.936501 -0.945962 0.324277 252.86 331)" fill="#00ACE5"/>
<ellipse cx="20" cy="26.7634" rx="20" ry="26.7634" transform="matrix(-0.482871 0.875692 -0.892698 -0.450655 940.949 360.122)" fill="#00ACE5"/>
<ellipse cx="20" cy="26.8829" rx="20" ry="26.8829" transform="matrix(0.350664 0.936501 -0.945962 0.324277 811.712 336)" fill="#00ACE5"/>
<ellipse cx="20" cy="26.0935" rx="20" ry="26.0935" transform="matrix(0.897845 0.440312 -0.472193 0.881495 259.435 361.31)" fill="#00ACE5"/>
<ellipse cx="20" cy="26.0024" rx="20" ry="26.0024" transform="matrix(0.93737 -0.348334 0.376103 0.926578 286.568 376.905)" fill="#00ACE5"/>
<ellipse cx="20" cy="26.0935" rx="20" ry="26.0935" transform="matrix(0.897845 0.440312 -0.472193 0.881495 818.287 366.31)" fill="#00ACE5"/>
<ellipse cx="20" cy="26.0024" rx="20" ry="26.0024" transform="matrix(0.93737 -0.348334 0.376103 0.926578 845.42 381.905)" fill="#00ACE5"/>
</svg>
