<svg width="45" height="47" viewBox="0 0 45 47" fill="none" xmlns="http://www.w3.org/2000/svg">
<path d="M18 13.5C27.1528 13.5 34.5 20.703 34.5 29.5C34.5 38.297 27.1528 45.5 18 45.5C8.84719 45.5 1.5 38.297 1.5 29.5C1.5 20.703 8.84719 13.5 18 13.5Z" stroke="black" stroke-width="3"/>
<path d="M37.3218 9.42887C38.3273 10.1601 38.5523 11.5664 37.821 12.5718L19.821 37.3218C19.4343 37.8562 18.8367 38.1867 18.1757 38.2429C17.5148 38.2992 16.875 38.0531 16.4109 37.589L7.41089 28.589C6.53198 27.7101 6.53198 26.2828 7.41089 25.4039C8.28979 24.525 9.71714 24.525 10.596 25.4039L17.7328 32.5406L34.1859 9.92106C34.9171 8.91559 36.3234 8.69059 37.3289 9.42184L37.3218 9.42887Z" fill="black"/>
</svg>
