<svg width="113" height="85" viewBox="0 0 113 85" fill="none" xmlns="http://www.w3.org/2000/svg">
<path d="M41.7549 61.8175C41.8369 61.7723 42.2188 61.6691 43.4392 62.7854C44.6671 63.9087 46.3625 65.9741 48.0294 68.8519C49.6963 71.7297 50.6355 74.2128 50.9887 75.8192C51.3397 77.4159 51.0524 77.6824 50.9704 77.7277C50.8884 77.7729 50.5065 77.8761 49.2861 76.7598C48.0582 75.6365 46.3628 73.5711 44.6959 70.6933C43.029 67.8156 42.0898 65.3324 41.7366 63.726C41.3856 62.1293 41.6729 61.8628 41.7549 61.8175Z" fill="#096F1F"/>
<path d="M62.691 8.25957C63.3841 8.45186 66.1163 9.56935 68.1798 16.1116C70.256 22.694 70.7508 32.84 67.3315 44.556C63.9122 56.2721 58.013 64.644 52.6935 69.1745C47.4064 73.6774 44.4802 73.2249 43.7872 73.0326C43.0941 72.8403 40.3619 71.7229 38.2984 65.1805C36.2222 58.5981 35.7274 48.4521 39.1467 36.7361C42.566 25.0201 48.4653 16.6481 53.7847 12.1176C59.0717 7.61483 61.998 8.06728 62.691 8.25957Z" fill="#972F50"/>
<path opacity="0.93" d="M47.3063 8.82444C48.3185 8.74703 52.4697 8.77854 58.1587 14.1394C63.8826 19.5332 69.0906 28.8524 69.7728 41.0963C70.4549 53.3403 66.3249 63.3735 61.248 69.5934C56.202 75.7754 52.0895 76.4387 51.0774 76.5161C50.0652 76.5936 45.9141 76.5622 40.2249 71.2012C34.501 65.8074 29.293 56.4883 28.6109 44.2443C27.9288 32.0004 32.0587 21.967 37.1356 15.7472C42.1816 9.56535 46.2941 8.90185 47.3063 8.82444Z" fill="#972F50"/>
<g opacity="0.93">
<path d="M28.8024 9.70595C29.7078 9.22861 33.5594 7.58804 40.9467 10.1728C48.3792 12.7736 56.8915 19.1494 62.3781 30.0034C67.8647 40.8574 68.0243 51.637 65.7959 59.3315C63.581 66.9792 60.0408 69.2357 59.1355 69.7131C58.2301 70.1904 54.3787 71.8311 46.9913 69.2462C39.5587 66.6454 31.0464 60.2697 25.5598 49.4157C20.0733 38.5617 19.9136 27.782 22.142 20.0875C24.357 12.44 27.8971 10.1833 28.8024 9.70595Z" fill="#972F50"/>
<path d="M28.8024 9.70595C29.7078 9.22861 33.5594 7.58804 40.9467 10.1728C48.3792 12.7736 56.8915 19.1494 62.3781 30.0034C67.8647 40.8574 68.0243 51.637 65.7959 59.3315C63.581 66.9792 60.0408 69.2357 59.1355 69.7131C58.2301 70.1904 54.3787 71.8311 46.9913 69.2462C39.5587 66.6454 31.0464 60.2697 25.5598 49.4157C20.0733 38.5617 19.9136 27.782 22.142 20.0875C24.357 12.44 27.8971 10.1833 28.8024 9.70595Z" fill="url(#paint0_linear_2330_67)" fill-opacity="0.2"/>
</g>
<path opacity="0.93" d="M93.7819 21.0348C94.4554 21.7841 96.9458 25.0796 96.2207 32.9838C95.491 40.9364 91.3941 50.9829 82.2791 59.3217C73.1641 67.6605 62.8541 70.7941 54.938 70.7509C47.07 70.708 44.0623 67.8859 43.3888 67.1366C42.7153 66.3872 40.2248 63.0919 40.95 55.1876C41.6797 47.235 45.7765 37.1885 54.8916 28.8497C64.0066 20.5109 74.3167 17.3773 82.2327 17.4204C90.1006 17.4634 93.1084 20.2855 93.7819 21.0348Z" fill="#972F50"/>
<g opacity="0.99">
<path d="M75.8563 13.0774C76.8207 13.5067 80.614 15.5754 83.3385 23.1079C86.0795 30.6866 86.5211 41.4793 81.4503 52.6305C76.3795 63.7818 67.923 70.6144 60.3722 73.6129C52.8672 76.593 48.7862 75.1572 47.8217 74.728C46.8572 74.2987 43.0639 72.2302 40.3395 64.6975C37.5984 57.1187 37.1567 46.3261 42.2276 35.1749C47.2984 24.0237 55.7549 17.191 63.3058 14.1926C70.8106 11.2125 74.8918 12.6482 75.8563 13.0774Z" fill="#972F50"/>
<path d="M75.8563 13.0774C76.8207 13.5067 80.614 15.5754 83.3385 23.1079C86.0795 30.6866 86.5211 41.4793 81.4503 52.6305C76.3795 63.7818 67.923 70.6144 60.3722 73.6129C52.8672 76.593 48.7862 75.1572 47.8217 74.728C46.8572 74.2987 43.0639 72.2302 40.3395 64.6975C37.5984 57.1187 37.1567 46.3261 42.2276 35.1749C47.2984 24.0237 55.7549 17.191 63.3058 14.1926C70.8106 11.2125 74.8918 12.6482 75.8563 13.0774Z" fill="url(#paint1_linear_2330_67)" fill-opacity="0.2"/>
</g>
<path opacity="0.93" d="M13.399 46.7467C13.5634 46.4908 14.4088 45.5541 18.1731 45.9867C21.9604 46.422 27.5681 48.242 33.7039 52.0383C39.8398 55.8346 43.9303 60.0151 45.963 63.1806C47.9833 66.327 47.4861 67.4791 47.3217 67.735C47.1572 67.9909 46.3119 68.9276 42.5476 68.495C38.7602 68.0596 33.1526 66.2397 27.0168 62.4434C20.8809 58.6471 16.7903 54.4666 14.7577 51.301C12.7374 48.1547 13.2346 47.0025 13.399 46.7467Z" fill="#972F50"/>
<path opacity="0.93" d="M86.0556 67.0162C86.0743 67.3305 85.9646 68.6237 82.9763 70.465C79.9696 72.3175 74.8794 74.0603 68.3296 74.4314C61.7798 74.8026 56.5175 73.6464 53.3116 72.1459C50.1251 70.6545 49.8631 69.3823 49.8444 69.0681C49.8258 68.7539 49.9354 67.4607 52.9238 65.6194C55.9305 63.7668 61.0206 62.024 67.5704 61.6529C74.1202 61.2818 79.3826 62.4379 82.5885 63.9384C85.7749 65.4298 86.037 66.702 86.0556 67.0162Z" fill="#972F50"/>
<g opacity="0.99" filter="url(#filter0_d_2330_67)">
<path d="M14.0469 20.2768C14.7378 19.6043 17.7962 17.11 25.4185 17.7124C33.0875 18.3186 42.9115 22.2056 51.3102 31.0494C59.7088 39.8933 63.1594 49.9846 63.4567 57.767C63.7521 65.5022 61.1703 68.4983 60.4795 69.1708C59.7887 69.8433 56.7304 72.3376 49.1079 71.7352C41.4389 71.129 31.6149 67.242 23.2163 58.3982C14.8177 49.5543 11.367 39.4629 11.0698 31.6806C10.7744 23.9456 13.3561 20.9493 14.0469 20.2768Z" fill="#972F50"/>
<path d="M14.0469 20.2768C14.7378 19.6043 17.7962 17.11 25.4185 17.7124C33.0875 18.3186 42.9115 22.2056 51.3102 31.0494C59.7088 39.8933 63.1594 49.9846 63.4567 57.767C63.7521 65.5022 61.1703 68.4983 60.4795 69.1708C59.7887 69.8433 56.7304 72.3376 49.1079 71.7352C41.4389 71.129 31.6149 67.242 23.2163 58.3982C14.8177 49.5543 11.367 39.4629 11.0698 31.6806C10.7744 23.9456 13.3561 20.9493 14.0469 20.2768Z" fill="url(#paint2_linear_2330_67)" fill-opacity="0.2"/>
</g>
<g opacity="0.98" filter="url(#filter1_d_2330_67)">
<path d="M102.411 31.7928C102.92 32.736 104.691 36.7587 102.265 44.6197C99.8244 52.5288 93.5788 61.6733 82.7032 67.7386C71.8275 73.804 60.8833 74.2462 53.0081 72.0901C45.1808 69.947 42.7933 66.2687 42.284 65.3254C41.7747 64.3822 40.0043 60.3597 42.43 52.4985C44.8706 44.5893 51.1162 35.4449 61.9919 29.3796C72.8675 23.3143 83.8118 22.872 91.6869 25.0281C99.5141 27.1712 101.902 30.8495 102.411 31.7928Z" fill="#972F50"/>
<path d="M102.411 31.7928C102.92 32.736 104.691 36.7587 102.265 44.6197C99.8244 52.5288 93.5788 61.6733 82.7032 67.7386C71.8275 73.804 60.8833 74.2462 53.0081 72.0901C45.1808 69.947 42.7933 66.2687 42.284 65.3254C41.7747 64.3822 40.0043 60.3597 42.43 52.4985C44.8706 44.5893 51.1162 35.4449 61.9919 29.3796C72.8675 23.3143 83.8118 22.872 91.6869 25.0281C99.5141 27.1712 101.902 30.8495 102.411 31.7928Z" fill="url(#paint3_linear_2330_67)" fill-opacity="0.2"/>
</g>
<path d="M71.9868 38.6898C71.9243 39.2152 71.5044 41.3413 68.4353 43.815C65.3472 46.3038 60.4687 48.2033 54.6602 47.54C48.8516 46.8766 44.5493 43.9285 42.1278 40.8105C39.7211 37.7114 39.8113 35.5477 39.8737 35.0222C39.9362 34.4968 40.3559 32.3707 43.4252 29.897C46.5132 27.4082 51.3918 25.5087 57.2003 26.1721C63.0088 26.8355 67.3111 29.7835 69.7326 32.9015C72.1393 36.0006 72.0492 38.1644 71.9868 38.6898Z" fill="#F1AD24" fill-opacity="0.6"/>
<g opacity="0.98" filter="url(#filter2_d_2330_67)">
<path d="M88.2352 32.8765C88.8713 33.4557 91.2923 36.0118 91.7448 42.2683C92.1999 48.5632 90.237 56.5751 84.0401 63.3323C77.8431 70.0895 70.0113 72.7579 63.6782 72.8724C57.3835 72.9861 54.6109 70.8135 53.9748 70.2343C53.3386 69.6551 50.9176 67.0992 50.4652 60.8425C50.01 54.5476 51.9729 46.5358 58.1698 39.7785C64.3668 33.0214 72.1987 30.3529 78.5318 30.2384C84.8263 30.1247 87.599 32.2973 88.2352 32.8765Z" fill="#972F50"/>
<path d="M88.2352 32.8765C88.8713 33.4557 91.2923 36.0118 91.7448 42.2683C92.1999 48.5632 90.237 56.5751 84.0401 63.3323C77.8431 70.0895 70.0113 72.7579 63.6782 72.8724C57.3835 72.9861 54.6109 70.8135 53.9748 70.2343C53.3386 69.6551 50.9176 67.0992 50.4652 60.8425C50.01 54.5476 51.9729 46.5358 58.1698 39.7785C64.3668 33.0214 72.1987 30.3529 78.5318 30.2384C84.8263 30.1247 87.599 32.2973 88.2352 32.8765Z" fill="url(#paint4_linear_2330_67)" fill-opacity="0.2"/>
</g>
<g opacity="0.98" filter="url(#filter3_d_2330_67)">
<path d="M27.2165 26.206C27.9477 25.7198 31.0832 23.9664 37.4609 25.2282C43.8777 26.4978 51.4425 30.6933 56.7466 38.8398C62.0508 46.9864 62.8696 55.6672 61.4838 62.1249C60.1065 68.5432 57.2721 70.759 56.5409 71.2452C55.8097 71.7313 52.6744 73.4849 46.2965 72.223C39.8797 70.9534 32.3149 66.758 27.0108 58.6114C21.7067 50.4648 20.8878 41.7839 22.2736 35.3263C23.651 28.9081 26.4853 26.6922 27.2165 26.206Z" fill="#972F50"/>
<path d="M27.2165 26.206C27.9477 25.7198 31.0832 23.9664 37.4609 25.2282C43.8777 26.4978 51.4425 30.6933 56.7466 38.8398C62.0508 46.9864 62.8696 55.6672 61.4838 62.1249C60.1065 68.5432 57.2721 70.759 56.5409 71.2452C55.8097 71.7313 52.6744 73.4849 46.2965 72.223C39.8797 70.9534 32.3149 66.758 27.0108 58.6114C21.7067 50.4648 20.8878 41.7839 22.2736 35.3263C23.651 28.9081 26.4853 26.6922 27.2165 26.206Z" fill="url(#paint5_linear_2330_67)" fill-opacity="0.2"/>
</g>
<g opacity="0.98" filter="url(#filter4_d_2330_67)">
<path d="M58.952 30.5416C59.8968 30.7443 63.7019 31.7952 67.8567 36.581C72.0368 41.3961 74.9611 48.5528 73.1469 56.4253C71.3327 64.2978 65.5411 69.5843 59.6401 72.2364C53.7749 74.8723 49.8669 74.2682 48.9221 74.0655C47.9774 73.8628 44.1724 72.812 40.0175 68.0261C35.8373 63.211 32.9131 56.0544 34.7273 48.1819C36.5415 40.3094 42.3331 35.0229 48.2341 32.3708C54.0992 29.7349 58.0073 30.3389 58.952 30.5416Z" fill="#972F50"/>
<path d="M58.952 30.5416C59.8968 30.7443 63.7019 31.7952 67.8567 36.581C72.0368 41.3961 74.9611 48.5528 73.1469 56.4253C71.3327 64.2978 65.5411 69.5843 59.6401 72.2364C53.7749 74.8723 49.8669 74.2682 48.9221 74.0655C47.9774 73.8628 44.1724 72.812 40.0175 68.0261C35.8373 63.211 32.9131 56.0544 34.7273 48.1819C36.5415 40.3094 42.3331 35.0229 48.2341 32.3708C54.0992 29.7349 58.0073 30.3389 58.952 30.5416Z" fill="url(#paint6_linear_2330_67)" fill-opacity="0.2"/>
</g>
<path d="M31.5271 63.0586C31.6008 62.9691 31.9981 62.6795 33.9933 63.4641C36.0007 64.2535 39.0306 65.9519 42.4345 68.6236C45.8384 71.2952 48.1886 73.8195 49.4099 75.5642C50.6237 77.2983 50.4195 77.7395 50.3459 77.8291C50.2722 77.9186 49.8749 78.2082 47.8797 77.4236C45.8722 76.6342 42.8424 74.9358 39.4384 72.2641C36.0345 69.5925 33.6843 67.0682 32.4631 65.3235C31.2493 63.5894 31.4534 63.1482 31.5271 63.0586Z" fill="#096F1F"/>
<path d="M36.7856 62.0719C36.8431 62.0361 37.1169 61.9505 38.0752 62.7626C39.0395 63.5796 40.4006 65.0941 41.7877 67.2191C43.1747 69.3441 44.006 71.1883 44.3575 72.3869C44.7068 73.5781 44.5117 73.7844 44.4542 73.8201C44.3968 73.8559 44.123 73.9415 43.1647 73.1294C42.2004 72.3124 40.8393 70.7979 39.4522 68.6729C38.0651 66.5479 37.2339 64.7037 36.8824 63.5051C36.5331 62.3139 36.7282 62.1076 36.7856 62.0719Z" fill="#096F1F"/>
<path d="M57.39 66.3874C57.4458 66.4435 57.621 66.7221 57.0448 67.8473C56.4651 68.9794 55.2603 70.6262 53.4102 72.383C51.5601 74.1397 49.8407 75.2695 48.6656 75.8037C47.4976 76.3347 47.2174 76.1558 47.1616 76.0997C47.1058 76.0437 46.9306 75.7651 47.5068 74.6399C48.0866 73.5077 49.2913 71.8609 51.1414 70.1042C52.9915 68.3475 54.711 67.2176 55.8861 66.6834C57.054 66.1525 57.3342 66.3314 57.39 66.3874Z" fill="#096F1F"/>
<path d="M66.4758 68.378C66.5085 68.4193 66.5842 68.6319 65.7954 69.5776C65.0018 70.5291 63.5392 71.9378 61.4976 73.479C59.4559 75.0201 57.6914 76.0473 56.5485 76.5576C55.4126 77.0647 55.2211 76.9396 55.1883 76.8983C55.1556 76.8569 55.0799 76.6444 55.8687 75.6986C56.6624 74.7471 58.1249 73.3384 60.1666 71.7973C62.2082 70.2561 63.9727 69.2289 65.1156 68.7187C66.2515 68.2115 66.4431 68.3366 66.4758 68.378Z" fill="#096F1F"/>
<path d="M43.2927 64.5658C43.3773 64.528 43.7522 64.4371 44.6934 65.2887C45.6404 66.1454 46.8566 67.7348 47.9018 69.9664C48.9471 72.198 49.383 74.1359 49.4274 75.3958C49.4716 76.6481 49.156 76.8656 49.0715 76.9034C48.9869 76.9412 48.612 77.0321 47.6708 76.1805C46.7238 75.3237 45.5076 73.7344 44.4624 71.5028C43.4171 69.2712 42.9812 67.3333 42.9367 66.0734C42.8926 64.8211 43.2082 64.6036 43.2927 64.5658Z" fill="#096F1F"/>
<path d="M59.1373 69.5018C59.1879 69.5684 59.3401 69.8795 58.7051 70.8877C58.0661 71.9019 56.7849 73.3074 54.8684 74.6973C52.9518 76.0872 51.2037 76.8786 50.0247 77.1826C48.8529 77.4848 48.5919 77.2525 48.5413 77.186C48.4907 77.1194 48.3385 76.8083 48.9735 75.8001C49.6124 74.7858 50.8936 73.3804 52.8102 71.9905C54.7267 70.6006 56.4749 69.8092 57.6538 69.5052C58.8256 69.203 59.0866 69.4353 59.1373 69.5018Z" fill="#096F1F"/>
<path d="M49.3015 76.5938C49.2758 76.4926 49.2708 76.0553 50.7883 75.1193C52.3152 74.1775 54.9691 73.0413 58.4768 72.1946C61.9846 71.3478 64.8749 71.1456 66.6752 71.2842C68.4645 71.4219 68.6686 71.8111 68.6943 71.9124C68.7199 72.0136 68.725 72.4509 67.2074 73.3869C65.6805 74.3287 63.0266 75.4649 59.5189 76.3116C56.0112 77.1584 53.1209 77.3606 51.3206 77.222C49.5313 77.0843 49.3271 76.695 49.3015 76.5938Z" fill="#096F1F"/>
<defs>
<filter id="filter0_d_2330_67" x="7.04639" y="14.6191" width="60.4338" height="62.209" filterUnits="userSpaceOnUse" color-interpolation-filters="sRGB">
<feFlood flood-opacity="0" result="BackgroundImageFix"/>
<feColorMatrix in="SourceAlpha" type="matrix" values="0 0 0 0 0 0 0 0 0 0 0 0 0 0 0 0 0 0 127 0" result="hardAlpha"/>
<feOffset dy="1"/>
<feGaussianBlur stdDeviation="2"/>
<feComposite in2="hardAlpha" operator="out"/>
<feColorMatrix type="matrix" values="0 0 0 0 0 0 0 0 0 0 0 0 0 0 0 0 0 0 0.25 0"/>
<feBlend mode="normal" in2="BackgroundImageFix" result="effect1_dropShadow_2330_67"/>
<feBlend mode="normal" in="SourceGraphic" in2="effect1_dropShadow_2330_67" result="shape"/>
</filter>
<filter id="filter1_d_2330_67" x="37.1829" y="20.8477" width="70.3293" height="57.4219" filterUnits="userSpaceOnUse" color-interpolation-filters="sRGB">
<feFlood flood-opacity="0" result="BackgroundImageFix"/>
<feColorMatrix in="SourceAlpha" type="matrix" values="0 0 0 0 0 0 0 0 0 0 0 0 0 0 0 0 0 0 127 0" result="hardAlpha"/>
<feOffset dy="1"/>
<feGaussianBlur stdDeviation="2"/>
<feComposite in2="hardAlpha" operator="out"/>
<feColorMatrix type="matrix" values="0 0 0 0 0 0 0 0 0 0 0 0 0 0 0 0 0 0 0.25 0"/>
<feBlend mode="normal" in2="BackgroundImageFix" result="effect1_dropShadow_2330_67"/>
<feBlend mode="normal" in="SourceGraphic" in2="effect1_dropShadow_2330_67" result="shape"/>
</filter>
<filter id="filter2_d_2330_67" x="46.4023" y="27.2344" width="49.4053" height="50.6426" filterUnits="userSpaceOnUse" color-interpolation-filters="sRGB">
<feFlood flood-opacity="0" result="BackgroundImageFix"/>
<feColorMatrix in="SourceAlpha" type="matrix" values="0 0 0 0 0 0 0 0 0 0 0 0 0 0 0 0 0 0 127 0" result="hardAlpha"/>
<feOffset dy="1"/>
<feGaussianBlur stdDeviation="2"/>
<feComposite in2="hardAlpha" operator="out"/>
<feColorMatrix type="matrix" values="0 0 0 0 0 0 0 0 0 0 0 0 0 0 0 0 0 0 0.25 0"/>
<feBlend mode="normal" in2="BackgroundImageFix" result="effect1_dropShadow_2330_67"/>
<feBlend mode="normal" in="SourceGraphic" in2="effect1_dropShadow_2330_67" result="shape"/>
</filter>
<filter id="filter3_d_2330_67" x="17.678" y="21.7793" width="48.4016" height="55.8926" filterUnits="userSpaceOnUse" color-interpolation-filters="sRGB">
<feFlood flood-opacity="0" result="BackgroundImageFix"/>
<feColorMatrix in="SourceAlpha" type="matrix" values="0 0 0 0 0 0 0 0 0 0 0 0 0 0 0 0 0 0 127 0" result="hardAlpha"/>
<feOffset dy="1"/>
<feGaussianBlur stdDeviation="2"/>
<feComposite in2="hardAlpha" operator="out"/>
<feColorMatrix type="matrix" values="0 0 0 0 0 0 0 0 0 0 0 0 0 0 0 0 0 0 0.25 0"/>
<feBlend mode="normal" in2="BackgroundImageFix" result="effect1_dropShadow_2330_67"/>
<feBlend mode="normal" in="SourceGraphic" in2="effect1_dropShadow_2330_67" result="shape"/>
</filter>
<filter id="filter4_d_2330_67" x="30.179" y="27.3359" width="47.5164" height="51.9355" filterUnits="userSpaceOnUse" color-interpolation-filters="sRGB">
<feFlood flood-opacity="0" result="BackgroundImageFix"/>
<feColorMatrix in="SourceAlpha" type="matrix" values="0 0 0 0 0 0 0 0 0 0 0 0 0 0 0 0 0 0 127 0" result="hardAlpha"/>
<feOffset dy="1"/>
<feGaussianBlur stdDeviation="2"/>
<feComposite in2="hardAlpha" operator="out"/>
<feColorMatrix type="matrix" values="0 0 0 0 0 0 0 0 0 0 0 0 0 0 0 0 0 0 0.25 0"/>
<feBlend mode="normal" in2="BackgroundImageFix" result="effect1_dropShadow_2330_67"/>
<feBlend mode="normal" in="SourceGraphic" in2="effect1_dropShadow_2330_67" result="shape"/>
</filter>
<linearGradient id="paint0_linear_2330_67" x1="28.8024" y1="9.70595" x2="60.157" y2="69.1745" gradientUnits="userSpaceOnUse">
<stop stop-color="#FFDA09" stop-opacity="0.5"/>
<stop offset="1" stop-opacity="0"/>
</linearGradient>
<linearGradient id="paint1_linear_2330_67" x1="75.8563" y1="13.0774" x2="48.3205" y2="74.95" gradientUnits="userSpaceOnUse">
<stop stop-color="#FFDA09" stop-opacity="0.4"/>
<stop offset="1" stop-opacity="0"/>
</linearGradient>
<linearGradient id="paint2_linear_2330_67" x1="14.0469" y1="20.2768" x2="61.0775" y2="68.5887" gradientUnits="userSpaceOnUse">
<stop stop-color="#FFDA09"/>
<stop offset="1" stop-opacity="0"/>
</linearGradient>
<linearGradient id="paint3_linear_2330_67" x1="102.411" y1="31.7928" x2="41.8375" y2="64.4984" gradientUnits="userSpaceOnUse">
<stop stop-color="#FFDA09"/>
<stop offset="1" stop-opacity="0"/>
</linearGradient>
<linearGradient id="paint4_linear_2330_67" x1="88.2352" y1="32.8765" x2="54.1102" y2="70.3576" gradientUnits="userSpaceOnUse">
<stop stop-color="#FFDA09"/>
<stop offset="1" stop-opacity="0"/>
</linearGradient>
<linearGradient id="paint5_linear_2330_67" x1="27.2165" y1="26.206" x2="56.9725" y2="70.9582" gradientUnits="userSpaceOnUse">
<stop stop-color="#FFDA09"/>
<stop offset="1" stop-opacity="0"/>
</linearGradient>
<linearGradient id="paint6_linear_2330_67" x1="58.952" y1="30.5416" x2="49.583" y2="74.2073" gradientUnits="userSpaceOnUse">
<stop stop-color="#FFDA09"/>
<stop offset="1" stop-opacity="0"/>
</linearGradient>
</defs>
</svg>
