<svg width="83" height="70" viewBox="0 0 83 70" fill="none" xmlns="http://www.w3.org/2000/svg">
<path d="M42.3305 9.11386C42.8125 9.18392 44.7442 9.69599 46.7084 13.8226C48.6845 17.9745 49.9159 24.5934 48.661 32.5598C47.4061 40.5263 44.1913 46.4989 41.0249 49.9033C37.8776 53.287 35.8748 53.2271 35.3928 53.157C34.9109 53.087 32.9792 52.575 31.015 48.4483C29.0388 44.2964 27.8075 37.6775 29.0624 29.711C30.3173 21.7446 33.5321 15.772 36.6985 12.3676C39.8457 8.98395 41.8486 9.04381 42.3305 9.11386Z" fill="#972F50"/>
<path opacity="0.93" d="M32.08 10.6999C32.752 10.5671 35.5393 10.2514 39.8306 13.3089C44.1481 16.3852 48.4677 22.0796 50.0107 30.0602C51.5537 38.0409 49.6729 44.9605 46.819 49.454C43.9823 53.9202 41.2826 54.6887 40.6106 54.8215C39.9385 54.9543 37.1513 55.2701 32.8599 52.2125C28.5424 49.1362 24.2228 43.4419 22.6798 35.4612C21.1368 27.4806 23.0176 20.5609 25.8716 16.0674C28.7082 11.6014 31.4079 10.8327 32.08 10.6999Z" fill="#972F50"/>
<g opacity="0.93">
<path d="M23.5121 14.2984C24.0771 13.9117 26.5151 12.5229 31.6994 13.6209C36.9155 14.7256 43.1904 18.2205 47.8329 24.8996C52.4754 31.5787 53.5381 38.6407 52.7255 43.8712C51.9178 49.07 49.7432 50.8378 49.1783 51.2244C48.6133 51.6111 46.1754 52.9999 40.991 51.9019C35.7749 50.7972 29.4999 47.3023 24.8575 40.6232C20.2151 33.9441 19.1523 26.8821 19.9649 21.6516C20.7726 16.4529 22.9471 14.685 23.5121 14.2984Z" fill="#972F50"/>
<path d="M23.5121 14.2984C24.0771 13.9117 26.5151 12.5229 31.6994 13.6209C36.9155 14.7256 43.1904 18.2205 47.8329 24.8996C52.4754 31.5787 53.5381 38.6407 52.7255 43.8712C51.9178 49.07 49.7432 50.8378 49.1783 51.2244C48.6133 51.6111 46.1754 52.9999 40.991 51.9019C35.7749 50.7972 29.4999 47.3023 24.8575 40.6232C20.2151 33.9441 19.1523 26.8821 19.9649 21.6516C20.7726 16.4529 22.9471 14.685 23.5121 14.2984Z" fill="url(#paint0_linear_2319_65)" fill-opacity="0.2"/>
</g>
<path opacity="0.93" d="M62.9037 16.9156C63.4218 17.3528 65.3845 19.3139 65.5988 24.5603C65.8144 29.8388 63.957 36.7644 58.5823 42.9758C53.2075 49.1872 46.5697 52.0791 41.256 52.6922C35.9746 53.3015 33.707 51.6929 33.1888 51.2557C32.6706 50.8185 30.7079 48.8575 30.4936 43.611C30.2781 38.3324 32.1354 31.4068 37.5102 25.1955C42.885 18.9841 49.5228 16.0921 54.8365 15.4791C60.1177 14.8698 62.3855 16.4783 62.9037 16.9156Z" fill="#972F50"/>
<g opacity="0.96">
<path d="M50.8414 11.6764C51.5264 11.88 54.2542 12.9304 56.7495 17.6534C59.26 22.4053 60.513 29.453 58.1003 37.1825C55.6875 44.9121 50.621 50.0816 45.8219 52.6613C41.052 55.2253 38.1874 54.6136 37.5023 54.41C36.8173 54.2064 34.0896 53.1561 31.5943 48.433C29.0838 43.6811 27.8308 36.6335 30.2435 28.9039C32.6563 21.1744 37.7228 16.0048 42.5219 13.4251C47.2917 10.8612 50.1564 11.4729 50.8414 11.6764Z" fill="#972F50"/>
<path d="M50.8414 11.6764C51.5264 11.88 54.2542 12.9304 56.7495 17.6534C59.26 22.4053 60.513 29.453 58.1003 37.1825C55.6875 44.9121 50.621 50.0816 45.8219 52.6613C41.052 55.2253 38.1874 54.6136 37.5023 54.41C36.8173 54.2064 34.0896 53.1561 31.5943 48.433C29.0838 43.6811 27.8308 36.6335 30.2435 28.9039C32.6563 21.1744 37.7228 16.0048 42.5219 13.4251C47.2917 10.8612 50.1564 11.4729 50.8414 11.6764Z" fill="url(#paint1_linear_2319_65)" fill-opacity="0.2"/>
</g>
<path opacity="0.93" d="M13.8455 39.8436C13.9512 39.6901 14.499 39.1374 16.9905 39.5517C19.4974 39.9686 23.2225 41.3199 27.3191 43.9257C31.4158 46.5316 34.1657 49.299 35.5446 51.3539C36.9151 53.3963 36.5999 54.0968 36.4942 54.2503C36.3885 54.4038 35.8408 54.9565 33.3492 54.5422C30.8423 54.1254 27.1172 52.7741 23.0206 50.1682C18.9239 47.5623 16.174 44.7949 14.7951 42.74C13.4246 40.6977 13.7398 39.9971 13.8455 39.8436Z" fill="#972F50"/>
<path opacity="0.93" d="M65.6997 46.4449C65.7724 46.6157 65.9402 47.3633 64.1851 49.1016C62.4192 50.8504 59.1656 53.0338 54.6242 54.7992C50.0828 56.5647 46.1585 57.1717 43.6168 57.0974C41.0906 57.0235 40.665 56.3761 40.5923 56.2052C40.5196 56.0344 40.3516 55.2868 42.1068 53.5485C43.8727 51.7997 47.1263 49.6163 51.6677 47.8509C56.2091 46.0855 60.1334 45.4784 62.6751 45.5527C65.2013 45.6267 65.627 46.274 65.6997 46.4449Z" fill="#972F50"/>
<g opacity="0.99" filter="url(#filter0_d_2319_65)">
<path d="M15.4065 20.3059C15.8903 19.8794 18.0201 18.3104 23.1571 18.9069C28.3257 19.5071 34.8689 22.332 40.3245 28.3959C45.7802 34.4599 47.8601 41.2197 47.8663 46.3712C47.8724 51.4915 46.0523 53.4046 45.5685 53.8312C45.0848 54.2577 42.9551 55.8268 37.8179 55.2302C32.6493 54.6299 26.1062 51.8052 20.6506 45.7412C15.1949 39.6772 13.115 32.9174 13.1088 27.7658C13.1027 22.6456 14.9228 20.7324 15.4065 20.3059Z" fill="#972F50"/>
<path d="M15.4065 20.3059C15.8903 19.8794 18.0201 18.3104 23.1571 18.9069C28.3257 19.5071 34.8689 22.332 40.3245 28.3959C45.7802 34.4599 47.8601 41.2197 47.8663 46.3712C47.8724 51.4915 46.0523 53.4046 45.5685 53.8312C45.0848 54.2577 42.9551 55.8268 37.8179 55.2302C32.6493 54.6299 26.1062 51.8052 20.6506 45.7412C15.1949 39.6772 13.115 32.9174 13.1088 27.7658C13.1027 22.6456 14.9228 20.7324 15.4065 20.3059Z" fill="url(#paint2_linear_2319_65)" fill-opacity="0.2"/>
</g>
<g opacity="0.98" filter="url(#filter1_d_2319_65)">
<path d="M68.5133 21.1809C69.0408 21.6755 71.0316 23.8634 71.1328 29.2951C71.2345 34.7601 69.1476 41.7511 63.4283 47.7105C57.7089 53.67 50.7559 56.0984 45.2292 56.2861C39.7361 56.4726 37.4207 54.6229 36.8933 54.1283C36.3658 53.6338 34.3749 51.4459 34.2738 46.0141C34.172 40.5492 36.2589 33.5582 41.9783 27.5987C47.6977 21.6393 54.6507 19.2109 60.1774 19.0231C65.6704 18.8367 67.9859 20.6864 68.5133 21.1809Z" fill="#972F50"/>
<path d="M68.5133 21.1809C69.0408 21.6755 71.0316 23.8634 71.1328 29.2951C71.2345 34.7601 69.1476 41.7511 63.4283 47.7105C57.7089 53.67 50.7559 56.0984 45.2292 56.2861C39.7361 56.4726 37.4207 54.6229 36.8933 54.1283C36.3658 53.6338 34.3749 51.4459 34.2738 46.0141C34.172 40.5492 36.2589 33.5582 41.9783 27.5987C47.6977 21.6393 54.6507 19.2109 60.1774 19.0231C65.6704 18.8367 67.9859 20.6864 68.5133 21.1809Z" fill="url(#paint3_linear_2319_65)" fill-opacity="0.2"/>
</g>
<g opacity="0.98" filter="url(#filter2_d_2319_65)">
<path d="M59.7482 17.7405C60.2767 17.9877 62.3391 19.1919 63.5677 23.7451C64.8037 28.3263 64.6029 34.9029 61.2644 41.7819C57.9258 48.661 52.8498 52.9572 48.447 54.901C44.071 56.8329 41.8192 56.0191 41.2908 55.7719C40.7623 55.5248 38.6999 54.3207 37.4713 49.7674C36.2353 45.1862 36.4361 38.6096 39.7746 31.7306C43.1132 24.8515 48.1892 20.5552 52.592 18.6115C56.9679 16.6796 59.2198 17.4934 59.7482 17.7405Z" fill="#972F50"/>
<path d="M59.7482 17.7405C60.2767 17.9877 62.3391 19.1919 63.5677 23.7451C64.8037 28.3263 64.6029 34.9029 61.2644 41.7819C57.9258 48.661 52.8498 52.9572 48.447 54.901C44.071 56.8329 41.8192 56.0191 41.2908 55.7719C40.7623 55.5248 38.6999 54.3207 37.4713 49.7674C36.2353 45.1862 36.4361 38.6096 39.7746 31.7306C43.1132 24.8515 48.1892 20.5552 52.592 18.6115C56.9679 16.6796 59.2198 17.4934 59.7482 17.7405Z" fill="url(#paint4_linear_2319_65)" fill-opacity="0.2"/>
</g>
<g opacity="0.98" filter="url(#filter3_d_2319_65)">
<path d="M26.3706 15.6991C26.881 15.5478 29.027 15.1418 32.7693 17.8521C36.5345 20.5792 40.6252 25.7706 42.8222 33.2227C45.0192 40.6748 44.401 47.262 42.7197 51.6034C41.0485 55.9185 39.0273 56.7475 38.5169 56.8988C38.0065 57.05 35.8606 57.4562 32.1182 54.7458C28.353 52.0187 24.2623 46.8273 22.0653 39.3752C19.8683 31.9231 20.4865 25.3359 22.1678 20.9945C23.839 16.6795 25.8602 15.8504 26.3706 15.6991Z" fill="#972F50"/>
<path d="M26.3706 15.6991C26.881 15.5478 29.027 15.1418 32.7693 17.8521C36.5345 20.5792 40.6252 25.7706 42.8222 33.2227C45.0192 40.6748 44.401 47.262 42.7197 51.6034C41.0485 55.9185 39.0273 56.7475 38.5169 56.8988C38.0065 57.05 35.8606 57.4562 32.1182 54.7458C28.353 52.0187 24.2623 46.8273 22.0653 39.3752C19.8683 31.9231 20.4865 25.3359 22.1678 20.9945C23.839 16.6795 25.8602 15.8504 26.3706 15.6991Z" fill="url(#paint5_linear_2319_65)" fill-opacity="0.2"/>
</g>
<g opacity="0.98" filter="url(#filter4_d_2319_65)">
<path d="M43.2914 14.9339C43.9431 14.9904 46.5826 15.4334 49.694 19.2592C52.8244 23.1086 55.2531 29.2813 54.5225 36.7622C53.7919 44.2432 50.2084 49.8947 46.385 53.1412C42.5847 56.3679 39.9038 56.3495 39.2522 56.293C38.6005 56.2365 35.961 55.7937 32.8496 51.9677C29.7192 48.1183 27.2905 41.9457 28.0211 34.4647C28.7517 26.9838 32.3352 21.3323 36.1586 18.0858C39.9588 14.8591 42.6398 14.8774 43.2914 14.9339Z" fill="#972F50"/>
<path d="M43.2914 14.9339C43.9431 14.9904 46.5826 15.4334 49.694 19.2592C52.8244 23.1086 55.2531 29.2813 54.5225 36.7622C53.7919 44.2432 50.2084 49.8947 46.385 53.1412C42.5847 56.3679 39.9038 56.3495 39.2522 56.293C38.6005 56.2365 35.961 55.7937 32.8496 51.9677C29.7192 48.1183 27.2905 41.9457 28.0211 34.4647C28.7517 26.9838 32.3352 21.3323 36.1586 18.0858C39.9588 14.8591 42.6398 14.8774 43.2914 14.9339Z" fill="url(#paint6_linear_2319_65)" fill-opacity="0.2"/>
</g>
<path d="M20.2813 46.7786C20.3229 46.7133 20.5852 46.5015 22.3418 47.0606C24.1091 47.6232 26.8761 48.8399 30.1345 50.7603C33.3929 52.6807 35.7761 54.4994 37.0994 55.7583C38.4147 57.0096 38.3373 57.3305 38.2957 57.3957C38.2541 57.461 37.9918 57.6729 36.2352 57.1137C34.4679 56.5511 31.7009 55.3344 28.4425 53.414C25.1841 51.4936 22.8009 49.6749 21.4776 48.416C20.1623 47.1647 20.2397 46.8439 20.2813 46.7786Z" fill="#096F1F"/>
<path d="M30.7553 39.9003C30.8258 39.8672 31.1616 39.8253 32.3328 41.2021C33.5112 42.5874 35.1732 45.0375 36.8647 48.3312C38.5562 51.6249 39.5678 54.3808 39.9938 56.1197C40.4173 57.8481 40.1775 58.0768 40.107 58.1099C40.0365 58.1431 39.7007 58.1849 38.5295 56.8081C37.3511 55.4229 35.6891 52.9728 33.9976 49.679C32.3061 46.3853 31.2945 43.6294 30.8685 41.8905C30.445 40.1622 30.6848 39.9334 30.7553 39.9003Z" fill="#096F1F"/>
<path d="M28.5343 45.2856C28.6204 45.2168 29.0284 45.0014 30.4263 45.7204C31.8327 46.4439 33.8081 47.9436 35.8053 50.2425C37.8025 52.5415 38.9838 54.6754 39.4718 56.1326C39.9568 57.5809 39.6621 57.9268 39.576 57.9955C39.4899 58.0643 39.0819 58.2797 37.6841 57.5607C36.2776 56.8372 34.3022 55.3375 32.305 53.0386C30.3078 50.7396 29.1265 48.6056 28.6385 47.1485C28.1535 45.7002 28.4482 45.3543 28.5343 45.2856Z" fill="#096F1F"/>
<path d="M50.8082 36.6534C50.9289 36.7086 51.365 37.0491 51.0633 39.2479C50.7597 41.4602 49.7374 44.9103 47.7392 48.9532C45.741 52.9961 43.605 55.9361 42.0132 57.5586C40.4311 59.1711 39.8816 59.0602 39.7609 59.0049C39.6402 58.9496 39.204 58.6092 39.5058 56.4103C39.8093 54.198 40.8316 50.748 42.8298 46.7051C44.828 42.6622 46.9641 39.7221 48.5559 38.0997C50.1379 36.4872 50.6875 36.5981 50.8082 36.6534Z" fill="#096F1F"/>
<path d="M54.5702 46.509C54.6407 46.5767 54.8704 46.9086 54.2804 48.1918C53.6868 49.4828 52.3961 51.3445 50.3515 53.3053C48.3068 55.266 46.3658 56.5034 45.0201 57.0722C43.6825 57.6375 43.3367 57.4168 43.2662 57.3492C43.1957 57.2815 42.966 56.9496 43.556 55.6664C44.1496 54.3754 45.4403 52.5136 47.4849 50.5529C49.5296 48.5922 51.4706 47.3548 52.8164 46.786C54.1539 46.2207 54.4997 46.4413 54.5702 46.509Z" fill="#096F1F"/>
<path d="M38.5051 44.73C38.6045 44.7252 39.0144 44.7796 39.6111 45.9848C40.2116 47.1975 40.787 49.2388 40.9349 51.8499C41.0829 54.4611 40.7414 56.5469 40.2814 57.811C39.8241 59.0674 39.4226 59.1612 39.3233 59.166C39.2239 59.1708 38.814 59.1164 38.2172 57.9112C37.6168 56.6986 37.0414 54.6573 36.8934 52.0461C36.7454 49.435 37.0869 47.3491 37.547 46.085C38.0042 44.8287 38.4057 44.7349 38.5051 44.73Z" fill="#096F1F"/>
<path d="M39.9733 58.29C39.9444 58.2185 39.9183 57.8925 41.2961 56.9467C42.6823 55.9951 45.1163 54.7153 48.3652 53.5133C51.6141 52.3114 54.3154 51.6913 56.0108 51.5029C57.6959 51.3155 57.9064 51.5734 57.9353 51.6449C57.9643 51.7164 57.9904 52.0424 56.6126 52.9882C55.2263 53.9398 52.7924 55.2196 49.5435 56.4216C46.2945 57.6235 43.5933 58.2435 41.8979 58.432C40.2128 58.6193 40.0023 58.3615 39.9733 58.29Z" fill="#096F1F"/>
<defs>
<filter id="filter0_d_2319_65" x="9.10886" y="15.7734" width="42.7573" height="44.5898" filterUnits="userSpaceOnUse" color-interpolation-filters="sRGB">
<feFlood flood-opacity="0" result="BackgroundImageFix"/>
<feColorMatrix in="SourceAlpha" type="matrix" values="0 0 0 0 0 0 0 0 0 0 0 0 0 0 0 0 0 0 127 0" result="hardAlpha"/>
<feOffset dy="1"/>
<feGaussianBlur stdDeviation="2"/>
<feComposite in2="hardAlpha" operator="out"/>
<feColorMatrix type="matrix" values="0 0 0 0 0 0 0 0 0 0 0 0 0 0 0 0 0 0 0.25 0"/>
<feBlend mode="normal" in2="BackgroundImageFix" result="effect1_dropShadow_2319_65"/>
<feBlend mode="normal" in="SourceGraphic" in2="effect1_dropShadow_2319_65" result="shape"/>
</filter>
<filter id="filter1_d_2319_65" x="30.2702" y="16.0098" width="44.8662" height="45.2891" filterUnits="userSpaceOnUse" color-interpolation-filters="sRGB">
<feFlood flood-opacity="0" result="BackgroundImageFix"/>
<feColorMatrix in="SourceAlpha" type="matrix" values="0 0 0 0 0 0 0 0 0 0 0 0 0 0 0 0 0 0 127 0" result="hardAlpha"/>
<feOffset dy="1"/>
<feGaussianBlur stdDeviation="2"/>
<feComposite in2="hardAlpha" operator="out"/>
<feColorMatrix type="matrix" values="0 0 0 0 0 0 0 0 0 0 0 0 0 0 0 0 0 0 0.25 0"/>
<feBlend mode="normal" in2="BackgroundImageFix" result="effect1_dropShadow_2319_65"/>
<feBlend mode="normal" in="SourceGraphic" in2="effect1_dropShadow_2319_65" result="shape"/>
</filter>
<filter id="filter2_d_2319_65" x="32.7741" y="14.3594" width="35.4905" height="46.7949" filterUnits="userSpaceOnUse" color-interpolation-filters="sRGB">
<feFlood flood-opacity="0" result="BackgroundImageFix"/>
<feColorMatrix in="SourceAlpha" type="matrix" values="0 0 0 0 0 0 0 0 0 0 0 0 0 0 0 0 0 0 127 0" result="hardAlpha"/>
<feOffset dy="1"/>
<feGaussianBlur stdDeviation="2"/>
<feComposite in2="hardAlpha" operator="out"/>
<feColorMatrix type="matrix" values="0 0 0 0 0 0 0 0 0 0 0 0 0 0 0 0 0 0 0.25 0"/>
<feBlend mode="normal" in2="BackgroundImageFix" result="effect1_dropShadow_2319_65"/>
<feBlend mode="normal" in="SourceGraphic" in2="effect1_dropShadow_2319_65" result="shape"/>
</filter>
<filter id="filter3_d_2319_65" x="16.6499" y="12.5859" width="31.5879" height="49.4277" filterUnits="userSpaceOnUse" color-interpolation-filters="sRGB">
<feFlood flood-opacity="0" result="BackgroundImageFix"/>
<feColorMatrix in="SourceAlpha" type="matrix" values="0 0 0 0 0 0 0 0 0 0 0 0 0 0 0 0 0 0 127 0" result="hardAlpha"/>
<feOffset dy="1"/>
<feGaussianBlur stdDeviation="2"/>
<feComposite in2="hardAlpha" operator="out"/>
<feColorMatrix type="matrix" values="0 0 0 0 0 0 0 0 0 0 0 0 0 0 0 0 0 0 0.25 0"/>
<feBlend mode="normal" in2="BackgroundImageFix" result="effect1_dropShadow_2319_65"/>
<feBlend mode="normal" in="SourceGraphic" in2="effect1_dropShadow_2319_65" result="shape"/>
</filter>
<filter id="filter4_d_2319_65" x="23.8904" y="11.9199" width="34.7629" height="49.3867" filterUnits="userSpaceOnUse" color-interpolation-filters="sRGB">
<feFlood flood-opacity="0" result="BackgroundImageFix"/>
<feColorMatrix in="SourceAlpha" type="matrix" values="0 0 0 0 0 0 0 0 0 0 0 0 0 0 0 0 0 0 127 0" result="hardAlpha"/>
<feOffset dy="1"/>
<feGaussianBlur stdDeviation="2"/>
<feComposite in2="hardAlpha" operator="out"/>
<feColorMatrix type="matrix" values="0 0 0 0 0 0 0 0 0 0 0 0 0 0 0 0 0 0 0.25 0"/>
<feBlend mode="normal" in2="BackgroundImageFix" result="effect1_dropShadow_2319_65"/>
<feBlend mode="normal" in="SourceGraphic" in2="effect1_dropShadow_2319_65" result="shape"/>
</filter>
<linearGradient id="paint0_linear_2319_65" x1="23.5121" y1="14.2984" x2="48.9091" y2="51.4086" gradientUnits="userSpaceOnUse">
<stop stop-color="#FFDA09" stop-opacity="0.5"/>
<stop offset="1" stop-opacity="0"/>
</linearGradient>
<linearGradient id="paint1_linear_2319_65" x1="50.8414" y1="11.6764" x2="38.0897" y2="54.5846" gradientUnits="userSpaceOnUse">
<stop stop-color="#FFDA09" stop-opacity="0.5"/>
<stop offset="1" stop-opacity="0"/>
</linearGradient>
<linearGradient id="paint2_linear_2319_65" x1="15.4065" y1="20.3059" x2="45.2281" y2="54.1313" gradientUnits="userSpaceOnUse">
<stop stop-color="#FFDA09"/>
<stop offset="1" stop-opacity="0"/>
</linearGradient>
<linearGradient id="paint3_linear_2319_65" x1="68.5133" y1="21.1809" x2="37.2807" y2="54.4917" gradientUnits="userSpaceOnUse">
<stop stop-color="#FFDA09"/>
<stop offset="1" stop-opacity="0"/>
</linearGradient>
<linearGradient id="paint4_linear_2319_65" x1="59.7482" y1="17.7405" x2="41.8398" y2="56.0287" gradientUnits="userSpaceOnUse">
<stop stop-color="#FFDA09"/>
<stop offset="1" stop-opacity="0"/>
</linearGradient>
<linearGradient id="paint5_linear_2319_65" x1="26.3706" y1="15.6991" x2="38.5772" y2="56.8809" gradientUnits="userSpaceOnUse">
<stop stop-color="#FFDA09"/>
<stop offset="1" stop-opacity="0"/>
</linearGradient>
<linearGradient id="paint6_linear_2319_65" x1="43.2914" y1="14.9339" x2="39.7024" y2="56.332" gradientUnits="userSpaceOnUse">
<stop stop-color="#FFDA09"/>
<stop offset="1" stop-opacity="0"/>
</linearGradient>
</defs>
</svg>
