<svg width="258" height="242" viewBox="0 0 258 242" fill="none" xmlns="http://www.w3.org/2000/svg">
<path opacity="0.96" d="M117.988 67.7925C119.509 67.8493 125.703 68.554 133.498 76.7122C141.34 84.9205 147.9 98.3558 147.321 115.025C146.742 131.694 139.268 144.606 130.876 152.208C122.536 159.765 116.31 160.006 114.789 159.95C113.267 159.893 107.074 159.188 99.2792 151.03C91.437 142.822 84.877 129.386 85.4557 112.717C86.0345 96.048 93.5093 83.1363 101.9 75.5336C110.24 67.9772 116.467 67.7358 117.988 67.7925Z" fill="#972F50"/>
<g opacity="0.97">
<path d="M71.4509 62.7028C72.7523 61.9509 78.3329 59.3384 89.689 62.9417C101.115 66.5673 114.587 75.8256 124.038 91.9294C133.49 108.033 134.956 124.229 132.495 135.878C130.049 147.457 125.005 150.983 123.703 151.735C122.402 152.487 116.822 155.099 105.465 151.496C94.0396 147.87 80.5674 138.612 71.1161 122.508C61.6648 106.404 60.1985 90.2089 62.6594 78.5596C65.1055 66.9813 70.1496 63.4547 71.4509 62.7028Z" fill="#972F50"/>
<path d="M71.4509 62.7028C72.7523 61.9509 78.3329 59.3384 89.689 62.9417C101.115 66.5673 114.587 75.8256 124.038 91.9294C133.49 108.033 134.956 124.229 132.495 135.878C130.049 147.457 125.005 150.983 123.703 151.735C122.402 152.487 116.822 155.099 105.465 151.496C94.0396 147.87 80.5674 138.612 71.1161 122.508C61.6648 106.404 60.1985 90.2089 62.6594 78.5596C65.1055 66.9813 70.1496 63.4547 71.4509 62.7028Z" fill="url(#paint0_linear_2319_249)" fill-opacity="0.2"/>
</g>
<path opacity="0.93" d="M194.065 100.051C194.97 101.263 198.239 106.52 196.004 118.058C193.755 129.666 186.137 143.823 171.219 154.661C156.3 165.498 140.337 168.47 128.436 167.141C116.606 165.82 112.491 161.178 111.586 159.966C110.682 158.754 107.412 153.497 109.648 141.959C111.897 130.351 119.514 116.193 134.433 105.356C149.352 94.5188 165.314 91.5468 177.216 92.8757C189.045 94.1967 193.161 98.8383 194.065 100.051Z" fill="#972F50"/>
<g opacity="0.99">
<path d="M170.226 84.1923C171.384 85.2715 175.775 90.0109 176.339 101.278C176.906 112.614 172.896 126.887 161.064 138.649C149.231 150.41 134.538 154.726 122.748 154.546C111.029 154.367 105.966 150.295 104.808 149.216C103.65 148.137 99.2587 143.398 98.6952 132.131C98.1285 120.795 102.138 106.521 113.97 94.76C125.803 82.9987 140.496 78.682 152.286 78.8622C164.005 79.0413 169.068 83.1131 170.226 84.1923Z" fill="#972F50"/>
<path d="M170.226 84.1923C171.384 85.2715 175.775 90.0109 176.339 101.278C176.906 112.614 172.896 126.887 161.064 138.649C149.231 150.41 134.538 154.726 122.748 154.546C111.029 154.367 105.966 150.295 104.808 149.216C103.65 148.137 99.2587 143.398 98.6952 132.131C98.1285 120.795 102.138 106.521 113.97 94.76C125.803 82.9987 140.496 78.682 152.286 78.8622C164.005 79.0413 169.068 83.1131 170.226 84.1923Z" fill="url(#paint1_linear_2319_249)" fill-opacity="0.2"/>
</g>
<path opacity="0.93" d="M24.0569 100.611C24.382 99.8326 26.2046 96.859 36.162 96.1433C46.1805 95.4234 61.4845 97.5554 78.9524 104.799C96.4203 112.043 108.726 121.36 115.276 128.95C121.786 136.495 120.955 139.879 120.63 140.658C120.305 141.437 118.482 144.411 108.525 145.126C98.5061 145.846 83.2022 143.714 65.7342 136.471C48.2664 129.227 35.961 119.91 29.4109 112.319C22.9008 104.775 23.7319 101.39 24.0569 100.611Z" fill="#972F50"/>
<path opacity="0.93" d="M118.127 139.084C118.263 138.25 119.346 134.943 128.829 132.122C138.369 129.283 153.686 128.119 172.273 131.513C190.86 134.907 204.922 141.436 213.011 147.494C221.051 153.515 221.023 157.015 220.887 157.848C220.751 158.682 219.669 161.989 210.186 164.811C200.645 167.65 185.329 168.813 166.742 165.419C148.155 162.025 134.093 155.497 126.004 149.439C117.964 143.418 117.991 139.918 118.127 139.084Z" fill="#972F50"/>
<path opacity="0.93" d="M167.855 171.015C167.676 171.442 166.685 173.076 161.432 173.562C156.146 174.052 148.105 173.043 138.975 169.278C129.845 165.512 123.457 160.569 120.083 156.508C116.73 152.471 117.202 150.623 117.381 150.197C117.56 149.77 118.551 148.136 123.804 147.65C129.09 147.16 137.132 148.169 146.261 151.934C155.391 155.7 161.779 160.643 165.153 164.705C168.506 168.741 168.034 170.589 167.855 171.015Z" fill="#972F50"/>
<path opacity="0.93" d="M107.496 145.403C107.512 145.868 107.297 147.767 102.748 150.246C98.1716 152.74 90.4784 154.908 80.6525 154.938C70.8265 154.968 62.9891 152.848 58.2456 150.382C53.531 147.931 53.1884 146.034 53.1728 145.569C53.1571 145.104 53.3721 143.206 57.9209 140.727C62.4976 138.232 70.1908 136.064 80.0167 136.034C89.8427 136.004 97.6801 138.125 102.424 140.591C107.138 143.042 107.481 144.938 107.496 145.403Z" fill="#972F50"/>
<g opacity="0.99" filter="url(#filter0_d_2319_249)">
<path d="M32.6305 74.9336C33.3776 74.006 36.9435 70.6391 49.477 72.6915C62.0875 74.7565 79.9051 82.1659 98.0901 96.9556C116.275 111.745 127.2 127.712 131.838 139.676C136.449 151.567 133.915 155.773 133.168 156.7C132.421 157.628 128.855 160.995 116.321 158.942C103.711 156.877 85.8932 149.468 67.7081 134.678C49.5233 119.888 38.5981 103.921 33.9597 91.958C29.3498 80.0676 31.8834 75.8612 32.6305 74.9336Z" fill="#972F50"/>
<path d="M32.6305 74.9336C33.3776 74.006 36.9435 70.6391 49.477 72.6915C62.0875 74.7565 79.9051 82.1659 98.0901 96.9556C116.275 111.745 127.2 127.712 131.838 139.676C136.449 151.567 133.915 155.773 133.168 156.7C132.421 157.628 128.855 160.995 116.321 158.942C103.711 156.877 85.8932 149.468 67.7081 134.678C49.5233 119.888 38.5981 103.921 33.9597 91.958C29.3498 80.0676 31.8834 75.8612 32.6305 74.9336Z" fill="url(#paint2_linear_2319_249)" fill-opacity="0.2"/>
</g>
<g opacity="0.98" filter="url(#filter1_d_2319_249)">
<path d="M228.153 129.259C228.228 130.493 227.894 135.57 217.632 142.765C207.307 150.003 189.779 156.786 167.159 158.166C144.54 159.545 126.316 154.942 115.186 149.012C104.123 143.118 103.174 138.119 103.098 136.885C103.023 135.651 103.357 130.574 113.619 123.38C123.944 116.141 141.472 109.358 164.092 107.979C186.711 106.6 204.935 111.202 216.065 117.132C227.127 123.027 228.077 128.025 228.153 129.259Z" fill="#972F50"/>
<path d="M228.153 129.259C228.228 130.493 227.894 135.57 217.632 142.765C207.307 150.003 189.779 156.786 167.159 158.166C144.54 159.545 126.316 154.942 115.186 149.012C104.123 143.118 103.174 138.119 103.098 136.885C103.023 135.651 103.357 130.574 113.619 123.38C123.944 116.141 141.472 109.358 164.092 107.979C186.711 106.6 204.935 111.202 216.065 117.132C227.127 123.027 228.077 128.025 228.153 129.259Z" fill="url(#paint3_linear_2319_249)" fill-opacity="0.2"/>
</g>
<g filter="url(#filter2_d_2319_249)">
<path d="M155.522 122.825C155.336 123.611 154.249 126.739 147.884 129.577C141.479 132.432 131.607 133.828 120.205 131.005C108.803 128.183 100.654 122.327 96.243 116.794C91.8592 111.295 92.2984 108.007 92.4853 107.221C92.6721 106.434 93.7583 103.306 100.124 100.468C106.528 97.6127 116.401 96.2173 127.803 99.0398C139.205 101.862 147.354 107.719 151.765 113.251C156.148 118.75 155.709 122.039 155.522 122.825Z" fill="#F1AD24" fill-opacity="0.6" shape-rendering="crispEdges"/>
<path d="M155.522 122.825C155.336 123.611 154.249 126.739 147.884 129.577C141.479 132.432 131.607 133.828 120.205 131.005C108.803 128.183 100.654 122.327 96.243 116.794C91.8592 111.295 92.2984 108.007 92.4853 107.221C92.6721 106.434 93.7583 103.306 100.124 100.468C106.528 97.6127 116.401 96.2173 127.803 99.0398C139.205 101.862 147.354 107.719 151.765 113.251C156.148 118.75 155.709 122.039 155.522 122.825Z" fill="url(#paint4_linear_2319_249)" fill-opacity="0.2" shape-rendering="crispEdges"/>
</g>
<g opacity="0.98" filter="url(#filter3_d_2319_249)">
<path d="M205.305 140.831C205.265 141.886 204.614 146.171 196.265 151.412C187.864 156.686 174.034 160.96 156.763 160.211C139.493 159.461 126.026 154.002 118.046 148.018C110.114 142.07 109.785 137.742 109.824 136.687C109.864 135.632 110.515 131.347 118.864 126.105C127.265 120.832 141.095 116.558 158.366 117.307C175.636 118.057 189.103 123.515 197.083 129.5C205.015 135.448 205.344 139.776 205.305 140.831Z" fill="#972F50"/>
<path d="M205.305 140.831C205.265 141.886 204.614 146.171 196.265 151.412C187.864 156.686 174.034 160.96 156.763 160.211C139.493 159.461 126.026 154.002 118.046 148.018C110.114 142.07 109.785 137.742 109.824 136.687C109.864 135.632 110.515 131.347 118.864 126.105C127.265 120.832 141.095 116.558 158.366 117.307C175.636 118.057 189.103 123.515 197.083 129.5C205.015 135.448 205.344 139.776 205.305 140.831Z" fill="url(#paint5_linear_2319_249)" fill-opacity="0.2"/>
</g>
<g opacity="0.98" filter="url(#filter4_d_2319_249)">
<path d="M46.7971 105.884C47.128 104.981 48.9049 101.463 57.7389 99.4911C66.6272 97.5069 80.0229 98.0645 95.0421 104.042C110.061 110.02 120.405 118.91 125.762 126.565C131.088 134.172 130.163 138.029 129.832 138.932C129.501 139.835 127.725 143.353 118.89 145.325C110.002 147.309 96.6065 146.752 81.5872 140.774C66.5681 134.796 56.2247 125.906 50.8669 118.252C45.5419 110.644 46.4663 106.787 46.7971 105.884Z" fill="#972F50"/>
<path d="M46.7971 105.884C47.128 104.981 48.9049 101.463 57.7389 99.4911C66.6272 97.5069 80.0229 98.0645 95.0421 104.042C110.061 110.02 120.405 118.91 125.762 126.565C131.088 134.172 130.163 138.029 129.832 138.932C129.501 139.835 127.725 143.353 118.89 145.325C110.002 147.309 96.6065 146.752 81.5872 140.774C66.5681 134.796 56.2247 125.906 50.8669 118.252C45.5419 110.644 46.4663 106.787 46.7971 105.884Z" fill="url(#paint6_linear_2319_249)" fill-opacity="0.2"/>
</g>
<g opacity="0.98" filter="url(#filter5_d_2319_249)">
<path d="M124.912 117.907C126.557 118.45 133.203 120.866 140.808 127.078C148.46 133.329 154.173 141.424 151.803 148.5C149.433 155.575 139.973 158.664 130.073 159.124C120.234 159.581 113.452 157.567 111.807 157.024C110.163 156.482 103.516 154.066 95.911 147.853C88.2596 141.602 82.5457 133.507 84.916 126.432C87.2863 119.356 96.7466 116.268 106.646 115.807C116.486 115.35 123.267 117.364 124.912 117.907Z" fill="#972F50"/>
<path d="M124.912 117.907C126.557 118.45 133.203 120.866 140.808 127.078C148.46 133.329 154.173 141.424 151.803 148.5C149.433 155.575 139.973 158.664 130.073 159.124C120.234 159.581 113.452 157.567 111.807 157.024C110.163 156.482 103.516 154.066 95.911 147.853C88.2596 141.602 82.5457 133.507 84.916 126.432C87.2863 119.356 96.7466 116.268 106.646 115.807C116.486 115.35 123.267 117.364 124.912 117.907Z" fill="url(#paint7_linear_2319_249)" fill-opacity="0.2"/>
</g>
<path d="M85.0887 142.977C85.1478 142.895 85.5164 142.646 87.9419 143.648C90.3823 144.656 94.196 146.688 98.6765 149.739C103.157 152.789 106.425 155.579 108.235 157.465C110.033 159.338 109.919 159.761 109.86 159.843C109.8 159.925 109.432 160.174 107.006 159.172C104.566 158.164 100.752 156.132 96.2718 153.081C91.7913 150.031 88.5232 147.241 86.7137 145.355C84.9154 143.481 85.0296 143.059 85.0887 142.977Z" fill="#096F1F"/>
<path d="M79.6053 147.041C79.6599 146.93 80.033 146.552 82.8153 147.163C85.6147 147.777 90.0458 149.274 95.3339 151.811C100.622 154.349 104.549 156.864 106.766 158.656C108.969 160.438 108.896 160.96 108.841 161.071C108.787 161.181 108.414 161.56 105.631 160.949C102.832 160.334 98.4009 158.838 93.1128 156.3C87.8246 153.762 83.8974 151.248 81.6808 149.455C79.4778 147.674 79.5507 147.151 79.6053 147.041Z" fill="#096F1F"/>
<path d="M111.898 161.736C111.92 161.584 112.165 160.99 114.812 160.604C117.474 160.215 121.815 160.216 127.175 161.104C132.534 161.991 136.666 163.393 139.087 164.623C141.494 165.846 141.553 166.491 141.531 166.643C141.508 166.795 141.264 167.389 138.617 167.775C135.954 168.164 131.614 168.163 126.254 167.276C120.894 166.388 116.763 164.987 114.341 163.756C111.935 162.533 111.875 161.888 111.898 161.736Z" fill="#096F1F"/>
<path d="M102.676 146.192C102.805 146.139 103.389 146.052 105.06 147.895C106.742 149.749 108.995 153.064 111.097 157.565C113.198 162.067 114.266 165.867 114.578 168.283C114.887 170.684 114.422 171.027 114.294 171.079C114.165 171.132 113.581 171.219 111.91 169.376C110.228 167.522 107.975 164.207 105.873 159.706C103.772 155.204 102.704 151.404 102.393 148.988C102.083 146.587 102.548 146.244 102.676 146.192Z" fill="#096F1F"/>
<path d="M123.362 152.257C123.413 152.318 123.534 152.633 122.39 154.025C121.239 155.426 119.103 157.499 116.105 159.765C113.108 162.03 110.505 163.538 108.813 164.286C107.131 165.029 106.839 164.843 106.789 164.782C106.738 164.721 106.616 164.407 107.761 163.014C108.912 161.613 111.048 159.54 114.045 157.274C117.043 155.009 119.646 153.501 121.338 152.753C123.02 152.01 123.311 152.196 123.362 152.257Z" fill="#096F1F"/>
<path d="M125.623 156.859C125.657 156.929 125.728 157.247 124.761 158.116C123.787 158.989 122.017 160.143 119.576 161.19C117.136 162.238 115.048 162.74 113.707 162.859C112.374 162.978 112.164 162.72 112.13 162.649C112.095 162.578 112.024 162.26 112.992 161.392C113.966 160.518 115.736 159.364 118.176 158.317C120.617 157.27 122.704 156.768 124.046 156.648C125.378 156.529 125.588 156.788 125.623 156.859Z" fill="#096F1F"/>
<path d="M112.611 151.494C112.75 151.5 113.317 151.628 114.026 153.368C114.738 155.118 115.33 158.008 115.265 161.628C115.2 165.248 114.506 168.081 113.732 169.765C112.963 171.438 112.392 171.516 112.253 171.509C112.113 171.503 111.546 171.375 110.838 169.635C110.125 167.885 109.534 164.995 109.598 161.375C109.663 157.755 110.357 154.922 111.131 153.238C111.901 151.565 112.471 151.487 112.611 151.494Z" fill="#096F1F"/>
<path d="M112.504 152.052C112.577 152.085 112.834 152.311 112.531 153.95C112.226 155.599 111.406 158.203 109.94 161.301C108.475 164.4 106.979 166.693 105.894 167.983C104.815 169.265 104.475 169.215 104.402 169.182C104.329 169.148 104.072 168.923 104.375 167.284C104.679 165.635 105.5 163.031 106.965 159.932C108.431 156.834 109.926 154.54 111.011 153.251C112.09 151.969 112.43 152.018 112.504 152.052Z" fill="#096F1F"/>
<path d="M107.351 155.04C107.417 154.998 107.746 154.908 109.074 156.033C110.409 157.165 112.351 159.231 114.422 162.089C116.493 164.947 117.824 167.399 118.453 168.978C119.078 170.547 118.866 170.799 118.8 170.841C118.734 170.883 118.405 170.973 117.078 169.848C115.742 168.716 113.8 166.651 111.73 163.793C109.659 160.935 108.327 158.483 107.699 156.904C107.073 155.334 107.285 155.082 107.351 155.04Z" fill="#096F1F"/>
<path d="M114.043 162.768C114.025 162.654 114.075 162.174 116.045 161.319C118.028 160.458 121.41 159.51 125.798 158.976C130.185 158.441 133.736 158.544 135.915 158.897C138.08 159.249 138.28 159.698 138.298 159.812C138.316 159.926 138.267 160.406 136.296 161.261C134.313 162.122 130.931 163.07 126.544 163.604C122.157 164.139 118.605 164.036 116.426 163.683C114.261 163.331 114.062 162.882 114.043 162.768Z" fill="#096F1F"/>
<path d="M130.762 179.922C130.407 179.531 130.059 179.147 129.719 178.771C126.624 175.344 123.784 171.871 120.943 168.453C118.05 165.252 115.475 161.075 111.351 160.139C110.896 160.118 110.406 160.23 110.004 160.545C110.246 160.099 110.721 159.748 111.254 159.579C116.559 158.987 120.275 163.273 123.258 166.576C126.246 170.173 128.485 174.209 130.205 178.479C130.393 178.949 130.578 179.43 130.762 179.922Z" fill="#096F1F"/>
<path d="M87.295 166.632C87.7578 166.551 88.2109 166.47 88.6544 166.391C92.6854 165.664 96.524 164.73 100.327 163.809C103.996 163.121 108.202 161.291 111.161 163.355C111.432 163.651 111.618 164.055 111.671 164.508C111.818 164.082 111.833 163.574 111.662 163.087C110.641 160.796 107.882 160.416 105.841 160.257C103.685 160.142 101.592 160.432 99.5762 160.91C95.5335 161.89 91.8516 163.639 88.4335 165.865C88.0581 166.111 87.6786 166.367 87.295 166.632Z" fill="#096F1F"/>
<defs>
<filter id="filter0_d_2319_249" x="27.2623" y="69.0391" width="111.274" height="95.5547" filterUnits="userSpaceOnUse" color-interpolation-filters="sRGB">
<feFlood flood-opacity="0" result="BackgroundImageFix"/>
<feColorMatrix in="SourceAlpha" type="matrix" values="0 0 0 0 0 0 0 0 0 0 0 0 0 0 0 0 0 0 127 0" result="hardAlpha"/>
<feOffset dy="1"/>
<feGaussianBlur stdDeviation="2"/>
<feComposite in2="hardAlpha" operator="out"/>
<feColorMatrix type="matrix" values="0 0 0 0 0 0 0 0 0 0 0 0 0 0 0 0 0 0 0.25 0"/>
<feBlend mode="normal" in2="BackgroundImageFix" result="effect1_dropShadow_2319_249"/>
<feBlend mode="normal" in="SourceGraphic" in2="effect1_dropShadow_2319_249" result="shape"/>
</filter>
<filter id="filter1_d_2319_249" x="99.0912" y="104.732" width="133.069" height="58.6797" filterUnits="userSpaceOnUse" color-interpolation-filters="sRGB">
<feFlood flood-opacity="0" result="BackgroundImageFix"/>
<feColorMatrix in="SourceAlpha" type="matrix" values="0 0 0 0 0 0 0 0 0 0 0 0 0 0 0 0 0 0 127 0" result="hardAlpha"/>
<feOffset dy="1"/>
<feGaussianBlur stdDeviation="2"/>
<feComposite in2="hardAlpha" operator="out"/>
<feColorMatrix type="matrix" values="0 0 0 0 0 0 0 0 0 0 0 0 0 0 0 0 0 0 0.25 0"/>
<feBlend mode="normal" in2="BackgroundImageFix" result="effect1_dropShadow_2319_249"/>
<feBlend mode="normal" in="SourceGraphic" in2="effect1_dropShadow_2319_249" result="shape"/>
</filter>
<filter id="filter2_d_2319_249" x="88.3771" y="93.498" width="71.2534" height="43.0488" filterUnits="userSpaceOnUse" color-interpolation-filters="sRGB">
<feFlood flood-opacity="0" result="BackgroundImageFix"/>
<feColorMatrix in="SourceAlpha" type="matrix" values="0 0 0 0 0 0 0 0 0 0 0 0 0 0 0 0 0 0 127 0" result="hardAlpha"/>
<feOffset/>
<feGaussianBlur stdDeviation="2"/>
<feComposite in2="hardAlpha" operator="out"/>
<feColorMatrix type="matrix" values="0 0 0 0 0 0 0 0 0 0 0 0 0 0 0 0 0 0 0.25 0"/>
<feBlend mode="normal" in2="BackgroundImageFix" result="effect1_dropShadow_2319_249"/>
<feBlend mode="normal" in="SourceGraphic" in2="effect1_dropShadow_2319_249" result="shape"/>
</filter>
<filter id="filter3_d_2319_249" x="105.822" y="114.221" width="103.485" height="51.0762" filterUnits="userSpaceOnUse" color-interpolation-filters="sRGB">
<feFlood flood-opacity="0" result="BackgroundImageFix"/>
<feColorMatrix in="SourceAlpha" type="matrix" values="0 0 0 0 0 0 0 0 0 0 0 0 0 0 0 0 0 0 127 0" result="hardAlpha"/>
<feOffset dy="1"/>
<feGaussianBlur stdDeviation="2"/>
<feComposite in2="hardAlpha" operator="out"/>
<feColorMatrix type="matrix" values="0 0 0 0 0 0 0 0 0 0 0 0 0 0 0 0 0 0 0.25 0"/>
<feBlend mode="normal" in2="BackgroundImageFix" result="effect1_dropShadow_2319_249"/>
<feBlend mode="normal" in="SourceGraphic" in2="effect1_dropShadow_2319_249" result="shape"/>
</filter>
<filter id="filter4_d_2319_249" x="42.5214" y="95.4609" width="91.5867" height="55.8945" filterUnits="userSpaceOnUse" color-interpolation-filters="sRGB">
<feFlood flood-opacity="0" result="BackgroundImageFix"/>
<feColorMatrix in="SourceAlpha" type="matrix" values="0 0 0 0 0 0 0 0 0 0 0 0 0 0 0 0 0 0 127 0" result="hardAlpha"/>
<feOffset dy="1"/>
<feGaussianBlur stdDeviation="2"/>
<feComposite in2="hardAlpha" operator="out"/>
<feColorMatrix type="matrix" values="0 0 0 0 0 0 0 0 0 0 0 0 0 0 0 0 0 0 0.25 0"/>
<feBlend mode="normal" in2="BackgroundImageFix" result="effect1_dropShadow_2319_249"/>
<feBlend mode="normal" in="SourceGraphic" in2="effect1_dropShadow_2319_249" result="shape"/>
</filter>
<filter id="filter5_d_2319_249" x="80.3736" y="112.74" width="75.9719" height="51.4512" filterUnits="userSpaceOnUse" color-interpolation-filters="sRGB">
<feFlood flood-opacity="0" result="BackgroundImageFix"/>
<feColorMatrix in="SourceAlpha" type="matrix" values="0 0 0 0 0 0 0 0 0 0 0 0 0 0 0 0 0 0 127 0" result="hardAlpha"/>
<feOffset dy="1"/>
<feGaussianBlur stdDeviation="2"/>
<feComposite in2="hardAlpha" operator="out"/>
<feColorMatrix type="matrix" values="0 0 0 0 0 0 0 0 0 0 0 0 0 0 0 0 0 0 0.25 0"/>
<feBlend mode="normal" in2="BackgroundImageFix" result="effect1_dropShadow_2319_249"/>
<feBlend mode="normal" in="SourceGraphic" in2="effect1_dropShadow_2319_249" result="shape"/>
</filter>
<linearGradient id="paint0_linear_2319_249" x1="71.4509" y1="62.7028" x2="123.097" y2="152.085" gradientUnits="userSpaceOnUse">
<stop stop-color="#FFDA09" stop-opacity="0.5"/>
<stop offset="1" stop-opacity="0"/>
</linearGradient>
<linearGradient id="paint1_linear_2319_249" x1="170.226" y1="84.1923" x2="107.387" y2="151.62" gradientUnits="userSpaceOnUse">
<stop stop-color="#FFDA09" stop-opacity="0.4"/>
<stop offset="1" stop-opacity="0"/>
</linearGradient>
<linearGradient id="paint2_linear_2319_249" x1="32.6305" y1="74.9336" x2="133.556" y2="156.219" gradientUnits="userSpaceOnUse">
<stop stop-color="#FFDA09"/>
<stop offset="1" stop-opacity="0"/>
</linearGradient>
<linearGradient id="paint3_linear_2319_249" x1="228.153" y1="129.259" x2="103.099" y2="136.903" gradientUnits="userSpaceOnUse">
<stop stop-color="#FFDA09"/>
<stop offset="1" stop-opacity="0"/>
</linearGradient>
<linearGradient id="paint4_linear_2319_249" x1="127.803" y1="99.0398" x2="122.354" y2="119.041" gradientUnits="userSpaceOnUse">
<stop stop-color="white" stop-opacity="0.8"/>
<stop offset="1" stop-color="white" stop-opacity="0"/>
</linearGradient>
<linearGradient id="paint5_linear_2319_249" x1="205.305" y1="140.831" x2="109.803" y2="137.264" gradientUnits="userSpaceOnUse">
<stop stop-color="#FFDA09"/>
<stop offset="1" stop-opacity="0"/>
</linearGradient>
<linearGradient id="paint6_linear_2319_249" x1="46.7971" y1="105.884" x2="130.682" y2="136.611" gradientUnits="userSpaceOnUse">
<stop stop-color="#FFDA09"/>
<stop offset="1" stop-opacity="0"/>
</linearGradient>
<linearGradient id="paint7_linear_2319_249" x1="124.912" y1="117.907" x2="111.986" y2="157.083" gradientUnits="userSpaceOnUse">
<stop stop-color="#FFDA09"/>
<stop offset="1" stop-opacity="0"/>
</linearGradient>
</defs>
</svg>
