<svg width="94" height="91" viewBox="0 0 94 91" fill="none" xmlns="http://www.w3.org/2000/svg">
<g opacity="0.98" filter="url(#filter0_d_2323_3561)">
<path d="M42.422 19.2651C42.9877 19.1391 45.3377 18.8554 49.0185 22.0194C52.7218 25.2029 56.4732 31.0469 57.9184 39.1772C59.3636 47.3075 57.8965 54.314 55.564 58.8423C53.2456 63.343 50.9776 64.0881 50.412 64.2141C49.8463 64.3402 47.4964 64.6239 43.8155 61.4598C40.1122 58.2763 36.3609 52.4324 34.9156 44.3021C33.4705 36.1718 34.9375 29.1652 37.27 24.6369C39.5884 20.1363 41.8564 19.3911 42.422 19.2651Z" fill="#F17B23"/>
<path d="M42.422 19.2651C42.9877 19.1391 45.3377 18.8554 49.0185 22.0194C52.7218 25.2029 56.4732 31.0469 57.9184 39.1772C59.3636 47.3075 57.8965 54.314 55.564 58.8423C53.2456 63.343 50.9776 64.0881 50.412 64.2141C49.8463 64.3402 47.4964 64.6239 43.8155 61.4598C40.1122 58.2763 36.3609 52.4324 34.9156 44.3021C33.4705 36.1718 34.9375 29.1652 37.27 24.6369C39.5884 20.1363 41.8564 19.3911 42.422 19.2651Z" fill="url(#paint0_linear_2323_3561)" fill-opacity="0.2"/>
</g>
<g opacity="0.98" filter="url(#filter1_d_2323_3561)">
<path d="M50.3021 19.4561C50.8246 19.4294 52.9569 19.5201 55.714 22.6971C58.488 25.8936 60.875 31.3345 60.8453 38.375C60.8157 45.4157 58.3817 51.103 55.5796 54.5847C52.7945 58.0452 50.6605 58.354 50.138 58.3807C49.6154 58.4074 47.4831 58.3168 44.726 55.1397C41.952 51.9432 39.565 46.5024 39.5947 39.4617C39.6244 32.4212 42.0583 26.7338 44.8604 23.2521C47.6455 19.7917 49.7795 19.4828 50.3021 19.4561Z" fill="#F17B23"/>
<path d="M50.3021 19.4561C50.8246 19.4294 52.9569 19.5201 55.714 22.6971C58.488 25.8936 60.875 31.3345 60.8453 38.375C60.8157 45.4157 58.3817 51.103 55.5796 54.5847C52.7945 58.0452 50.6605 58.354 50.138 58.3807C49.6154 58.4074 47.4831 58.3168 44.726 55.1397C41.952 51.9432 39.565 46.5024 39.5947 39.4617C39.6244 32.4212 42.0583 26.7338 44.8604 23.2521C47.6455 19.7917 49.7795 19.4828 50.3021 19.4561Z" fill="url(#paint1_linear_2323_3561)" fill-opacity="0.2"/>
</g>
<g opacity="0.97" filter="url(#filter2_d_2323_3561)">
<path d="M21.4281 61.4927C21.4664 61.2155 21.7914 60.1146 24.7977 59.1516C27.8224 58.1828 32.699 57.754 38.6463 58.8292C44.5936 59.9045 49.117 62.0327 51.7334 64.0215C54.3338 65.9981 54.3463 67.16 54.308 67.4372C54.2698 67.7143 53.9448 68.8152 50.9385 69.7782C47.9137 70.7471 43.0371 71.1758 37.0899 70.1006C31.1426 69.0254 26.6191 66.8971 24.0028 64.9084C21.4024 62.9318 21.3898 61.7698 21.4281 61.4927Z" fill="#F17B23"/>
<path d="M21.4281 61.4927C21.4664 61.2155 21.7914 60.1146 24.7977 59.1516C27.8224 58.1828 32.699 57.754 38.6463 58.8292C44.5936 59.9045 49.117 62.0327 51.7334 64.0215C54.3338 65.9981 54.3463 67.16 54.308 67.4372C54.2698 67.7143 53.9448 68.8152 50.9385 69.7782C47.9137 70.7471 43.0371 71.1758 37.0899 70.1006C31.1426 69.0254 26.6191 66.8971 24.0028 64.9084C21.4024 62.9318 21.3898 61.7698 21.4281 61.4927Z" fill="url(#paint2_linear_2323_3561)" fill-opacity="0.2"/>
</g>
<g opacity="0.97" filter="url(#filter3_d_2323_3561)">
<path d="M69.9707 33.956C70.2196 34.0231 71.1724 34.4656 71.4391 37.62C71.7074 40.7937 71.0894 45.7953 68.8544 51.7322C66.6194 57.6692 63.7047 62.0515 61.3165 64.5091C58.9428 66.9517 57.8631 66.8461 57.6142 66.779C57.3652 66.7119 56.4124 66.2695 56.1458 63.115C55.8775 59.9412 56.4954 54.9397 58.7305 49.0028C60.9655 43.0658 63.8801 38.6835 66.2684 36.2259C68.642 33.7834 69.7217 33.8889 69.9707 33.956Z" fill="#F17B23"/>
<path d="M69.9707 33.956C70.2196 34.0231 71.1724 34.4656 71.4391 37.62C71.7074 40.7937 71.0894 45.7953 68.8544 51.7322C66.6194 57.6692 63.7047 62.0515 61.3165 64.5091C58.9428 66.9517 57.8631 66.8461 57.6142 66.779C57.3652 66.7119 56.4124 66.2695 56.1458 63.115C55.8775 59.9412 56.4954 54.9397 58.7305 49.0028C60.9655 43.0658 63.8801 38.6835 66.2684 36.2259C68.642 33.7834 69.7217 33.8889 69.9707 33.956Z" fill="url(#paint3_linear_2323_3561)" fill-opacity="0.2"/>
</g>
<g opacity="0.93" filter="url(#filter4_d_2323_3561)">
<path d="M56.9888 21.2776C57.7517 21.3666 60.8231 21.9829 64.1599 26.6559C67.5172 31.3577 69.8481 38.8119 68.345 47.7247C66.8419 56.6375 62.1351 63.2706 57.3521 67.0228C52.5981 70.7521 49.4415 70.6417 48.6786 70.5527C47.9158 70.4638 44.8444 69.8476 41.5075 65.1744C38.1503 60.4727 35.8193 53.0185 37.3224 44.1057C38.8256 35.193 43.5324 28.5598 48.3154 24.8076C53.0693 21.0784 56.226 21.1887 56.9888 21.2776Z" fill="#F17B23"/>
<path d="M56.9888 21.2776C57.7517 21.3666 60.8231 21.9829 64.1599 26.6559C67.5172 31.3577 69.8481 38.8119 68.345 47.7247C66.8419 56.6375 62.1351 63.2706 57.3521 67.0228C52.5981 70.7521 49.4415 70.6417 48.6786 70.5527C47.9158 70.4638 44.8444 69.8476 41.5075 65.1744C38.1503 60.4727 35.8193 53.0185 37.3224 44.1057C38.8256 35.193 43.5324 28.5598 48.3154 24.8076C53.0693 21.0784 56.226 21.1887 56.9888 21.2776Z" fill="url(#paint4_linear_2323_3561)" fill-opacity="0.2"/>
</g>
<g opacity="0.98" filter="url(#filter5_d_2323_3561)">
<path d="M32.5274 21.4237C33.0261 21.2258 35.1481 20.6578 39.227 23.5887C43.3309 26.5375 48.0363 32.2978 51.0795 40.7415C54.1228 49.1852 54.2275 56.7708 53.0102 61.8309C51.8002 66.8603 49.8509 67.9075 49.3523 68.1053C48.8536 68.3032 46.7316 68.8713 42.6526 65.9404C38.5487 62.9915 33.8434 57.2312 30.8001 48.7875C27.7569 40.3439 27.6521 32.7582 28.8695 27.6981C30.0794 22.6689 32.0287 21.6215 32.5274 21.4237Z" fill="#F17B23"/>
<path d="M32.5274 21.4237C33.0261 21.2258 35.1481 20.6578 39.227 23.5887C43.3309 26.5375 48.0363 32.2978 51.0795 40.7415C54.1228 49.1852 54.2275 56.7708 53.0102 61.8309C51.8002 66.8603 49.8509 67.9075 49.3523 68.1053C48.8536 68.3032 46.7316 68.8713 42.6526 65.9404C38.5487 62.9915 33.8434 57.2312 30.8001 48.7875C27.7569 40.3439 27.6521 32.7582 28.8695 27.6981C30.0794 22.6689 32.0287 21.6215 32.5274 21.4237Z" fill="url(#paint5_linear_2323_3561)" fill-opacity="0.2"/>
</g>
<g filter="url(#filter6_d_2323_3561)">
<path d="M22.8664 28.1967C23.3459 27.8209 25.437 26.466 30.2012 27.4471C34.9946 28.4344 40.931 31.687 45.644 37.996C50.3569 44.305 51.8697 51.0243 51.5467 56.0213C51.2256 60.988 49.402 62.7008 48.9225 63.0766C48.443 63.4524 46.352 64.8073 41.5877 63.8261C36.7943 62.8389 30.858 59.5863 26.145 53.2773C21.432 46.9683 19.9192 40.249 20.2422 35.252C20.5634 30.2854 22.387 28.5724 22.8664 28.1967Z" fill="#F17B23"/>
<path d="M22.8664 28.1967C23.3459 27.8209 25.437 26.466 30.2012 27.4471C34.9946 28.4344 40.931 31.687 45.644 37.996C50.3569 44.305 51.8697 51.0243 51.5467 56.0213C51.2256 60.988 49.402 62.7008 48.9225 63.0766C48.443 63.4524 46.352 64.8073 41.5877 63.8261C36.7943 62.8389 30.858 59.5863 26.145 53.2773C21.432 46.9683 19.9192 40.249 20.2422 35.252C20.5634 30.2854 22.387 28.5724 22.8664 28.1967Z" fill="url(#paint6_linear_2323_3561)" fill-opacity="0.2"/>
</g>
<g opacity="0.97" filter="url(#filter7_d_2323_3561)">
<path d="M18.4234 38.7061C18.7895 38.022 20.5006 35.3538 26.0357 33.7932C31.6048 32.2232 39.3187 32.5336 46.9423 36.9194C54.566 41.3053 58.9019 47.9271 60.564 53.6573C62.216 59.3526 60.9376 62.2696 60.5715 62.9538C60.2054 63.6379 58.4945 66.3061 52.9592 67.8666C47.3901 69.4367 39.6762 69.1263 32.0526 64.7405C24.4289 60.3546 20.093 53.7327 18.4309 48.0026C16.779 42.3074 18.0573 39.3902 18.4234 38.7061Z" fill="#F17B23"/>
<path d="M18.4234 38.7061C18.7895 38.022 20.5006 35.3538 26.0357 33.7932C31.6048 32.2232 39.3187 32.5336 46.9423 36.9194C54.566 41.3053 58.9019 47.9271 60.564 53.6573C62.216 59.3526 60.9376 62.2696 60.5715 62.9538C60.2054 63.6379 58.4945 66.3061 52.9592 67.8666C47.3901 69.4367 39.6762 69.1263 32.0526 64.7405C24.4289 60.3546 20.093 53.7327 18.4309 48.0026C16.779 42.3074 18.0573 39.3902 18.4234 38.7061Z" fill="url(#paint7_linear_2323_3561)" fill-opacity="0.2"/>
</g>
<g opacity="0.98" filter="url(#filter8_d_2323_3561)">
<path d="M35.1991 26.0967C35.881 25.724 38.7701 24.4123 44.1347 25.9193C49.5322 27.4356 55.6091 31.5568 59.3182 38.947C63.0273 46.3373 62.8129 53.897 60.9335 59.3905C59.0656 64.8506 56.3871 66.5817 55.7051 66.9544C55.0232 67.3271 52.1343 68.6389 46.7695 67.1318C41.372 65.6155 35.2951 61.4944 31.586 54.1041C27.877 46.7138 28.0914 39.1541 29.9707 33.6606C31.8387 28.2006 34.5172 26.4694 35.1991 26.0967Z" fill="#F17B23"/>
<path d="M35.1991 26.0967C35.881 25.724 38.7701 24.4123 44.1347 25.9193C49.5322 27.4356 55.6091 31.5568 59.3182 38.947C63.0273 46.3373 62.8129 53.897 60.9335 59.3905C59.0656 64.8506 56.3871 66.5817 55.7051 66.9544C55.0232 67.3271 52.1343 68.6389 46.7695 67.1318C41.372 65.6155 35.2951 61.4944 31.586 54.1041C27.877 46.7138 28.0914 39.1541 29.9707 33.6606C31.8387 28.2006 34.5172 26.4694 35.1991 26.0967Z" fill="url(#paint8_linear_2323_3561)" fill-opacity="0.2"/>
</g>
<path d="M54.381 68.655C54.3352 68.6974 54.1014 68.8233 53.0859 68.2643C52.064 67.7018 50.5575 66.583 48.9188 64.9197C47.2801 63.2564 46.1966 61.7463 45.6642 60.7312C45.1349 59.7222 45.2756 59.5018 45.3215 59.4594C45.3673 59.417 45.601 59.291 46.6166 59.8501C47.6385 60.4126 49.145 61.5314 50.7837 63.1946C52.4224 64.8579 53.5059 66.368 54.0383 67.3832C54.5676 68.3922 54.4269 68.6125 54.381 68.655Z" fill="#096F1F"/>
<mask id="path-11-inside-1_2323_3561" fill="white">
<path d="M56.0693 68.5774C56.0063 68.5719 55.7564 68.4853 55.538 67.3898C55.3183 66.2876 55.2214 64.4743 55.4663 62.2119C55.7111 59.9495 56.195 58.1868 56.6469 57.1431C57.0961 56.1058 57.36 56.064 57.4229 56.0694C57.4859 56.0749 57.7359 56.1615 57.9542 57.257C58.174 58.3593 58.2708 60.1725 58.0259 62.4349C57.7811 64.6973 57.2973 66.46 56.8453 67.5037C56.3961 68.5411 56.1322 68.5829 56.0693 68.5774Z"/>
</mask>
<path d="M56.0693 68.5774C56.0063 68.5719 55.7564 68.4853 55.538 67.3898C55.3183 66.2876 55.2214 64.4743 55.4663 62.2119C55.7111 59.9495 56.195 58.1868 56.6469 57.1431C57.0961 56.1058 57.36 56.064 57.4229 56.0694C57.4859 56.0749 57.7359 56.1615 57.9542 57.257C58.174 58.3593 58.2708 60.1725 58.0259 62.4349C57.7811 64.6973 57.2973 66.46 56.8453 67.5037C56.3961 68.5411 56.1322 68.5829 56.0693 68.5774Z" fill="#096F1F"/>
<path d="M56.0163 69.0666C56.0516 68.7405 56.0869 68.4143 56.1222 68.0882C56.3482 68.1324 56.3088 68.1749 56.319 68.1697C56.3164 68.1689 56.2991 68.1472 56.283 68.12C56.249 68.0636 56.2129 67.9827 56.181 67.8969C56.1166 67.7234 56.064 67.526 56.0191 67.3274C56.0167 67.3169 56.0143 67.3062 56.012 67.2954C55.6821 65.6848 55.703 63.9436 55.8457 62.245C56.004 60.5454 56.2858 58.8252 56.9054 57.2445C56.9889 57.0415 57.0787 56.8429 57.1811 56.6616C57.2329 56.5704 57.2879 56.4841 57.3453 56.413C57.3828 56.3417 57.5274 56.2923 57.3965 56.314C57.2744 56.2659 57.4114 56.3387 57.4371 56.414C57.4825 56.4927 57.5224 56.5862 57.5581 56.6841C57.6285 56.8787 57.6829 57.0884 57.7301 57.3017C58.0676 58.9584 58.0432 60.7076 57.8995 62.4239C57.7384 64.1409 57.4583 65.8696 56.8213 67.4943C56.8168 67.5052 56.8123 67.516 56.8079 67.5266C56.6246 67.9081 56.4924 68.4056 56.0693 68.5774C56.0693 68.5774 56.0693 68.5774 56.0693 68.5774C56.5034 68.4186 56.6555 67.9221 56.8547 67.5452C56.8596 67.5346 56.8645 67.5239 56.8694 67.5131C57.5732 65.9017 57.9227 64.1724 58.1524 62.4459C58.3635 60.7156 58.4628 58.9627 58.1784 57.2124C58.1373 56.9857 58.089 56.7602 58.0168 56.5329C57.9795 56.4177 57.9378 56.3038 57.8759 56.1855C57.7924 56.0745 57.8051 55.922 57.4494 55.8248C57.0787 55.8545 57.0531 56.0046 56.9435 56.0972C56.8533 56.201 56.7837 56.3041 56.7182 56.4095C56.5902 56.6175 56.4859 56.8283 56.3884 57.0418C55.6671 58.6972 55.3193 60.435 55.0868 62.1789C54.8747 63.9268 54.7719 65.6878 55.064 67.4842C55.0662 67.4963 55.0684 67.5084 55.0706 67.5203C55.1126 67.7454 55.1623 67.9739 55.2399 68.2127C55.2798 68.3327 55.3245 68.4539 55.3966 68.589C55.4333 68.6562 55.4765 68.7286 55.5457 68.8093C55.6282 68.8842 55.6768 69.0082 56.0163 69.0666ZM56.1222 68.0882L56.0163 69.0666L56.0693 68.5774L56.1222 68.0882Z" fill="#096F1F" mask="url(#path-11-inside-1_2323_3561)"/>
<mask id="path-13-inside-2_2323_3561" fill="white">
<path d="M56.4233 68.4934C56.4349 68.5457 56.3988 68.7754 55.0776 69.3187C53.7482 69.8654 51.4836 70.5524 48.5506 71.1163C45.6176 71.6801 43.2463 71.8843 41.7936 71.8725C40.3497 71.8607 40.2194 71.663 40.2078 71.6107C40.1962 71.5584 40.2322 71.3287 41.5535 70.7854C42.8829 70.2387 45.1474 69.5516 48.0805 68.9878C51.0135 68.4239 53.3848 68.2198 54.8375 68.2316C56.2813 68.2434 56.4117 68.441 56.4233 68.4934Z"/>
</mask>
<path d="M56.4233 68.4934C56.4349 68.5457 56.3988 68.7754 55.0776 69.3187C53.7482 69.8654 51.4836 70.5524 48.5506 71.1163C45.6176 71.6801 43.2463 71.8843 41.7936 71.8725C40.3497 71.8607 40.2194 71.663 40.2078 71.6107C40.1962 71.5584 40.2322 71.3287 41.5535 70.7854C42.8829 70.2387 45.1474 69.5516 48.0805 68.9878C51.0135 68.4239 53.3848 68.2198 54.8375 68.2316C56.2813 68.2434 56.4117 68.441 56.4233 68.4934Z" fill="#096F1F"/>
<path d="M56.9216 68.3976C56.5894 68.4614 56.2572 68.5253 55.925 68.5892C55.8968 68.3292 55.9699 68.3309 55.9716 68.3059C55.9831 68.2912 55.98 68.2977 55.9717 68.3058C55.9543 68.3236 55.9168 68.3538 55.8754 68.3827C55.7907 68.4419 55.6859 68.5029 55.5783 68.5606C55.36 68.6772 55.1244 68.785 54.8821 68.8892C54.8677 68.8954 54.8532 68.9016 54.8385 68.9078C52.8294 69.7365 50.6502 70.2958 48.4709 70.7555C46.2708 71.204 44.0279 71.5635 41.7922 71.6035C41.5216 71.605 41.255 71.6008 40.9937 71.5812C40.8644 71.5713 40.7353 71.5573 40.6165 71.535C40.5579 71.524 40.5007 71.5103 40.4567 71.4951C40.4162 71.5001 40.3718 71.3938 40.4569 71.5628C40.4481 71.7492 40.4429 71.6328 40.4811 71.6208C40.514 71.5888 40.5598 71.5533 40.6081 71.5197C40.706 71.4517 40.8172 71.3875 40.9303 71.3269C41.1591 71.205 41.3996 71.0951 41.6463 70.9891C43.6972 70.1374 45.8998 69.5742 48.107 69.108C50.3036 68.6606 52.5332 68.3022 54.7881 68.2558C54.8047 68.2556 54.8212 68.2555 54.8376 68.2554C55.3711 68.2783 55.9829 68.1849 56.4233 68.4934C55.9883 68.1697 55.372 68.2464 54.8373 68.2078C54.8209 68.2074 54.8043 68.2071 54.7876 68.2068C52.5236 68.1877 50.2751 68.4822 48.0539 68.8675C45.8183 69.2727 43.5957 69.7689 41.4607 70.5816C41.2029 70.6836 40.9499 70.7897 40.6972 70.9148C40.5717 70.9774 40.4461 71.0441 40.32 71.126C40.2571 71.1672 40.1939 71.2116 40.129 71.2701C40.0753 71.3494 39.9562 71.3354 39.9586 71.6586C40.0915 71.9574 40.195 71.9032 40.2776 71.9581C40.3618 71.99 40.4386 72.0094 40.5138 72.0262C40.6643 72.0588 40.8081 72.0778 40.9502 72.0931C41.2358 72.1228 41.514 72.1349 41.795 72.1414C44.1095 72.1664 46.3802 71.8668 48.6303 71.477C50.8618 71.0723 53.0724 70.5797 55.2258 69.7667C55.2416 69.7605 55.2574 69.7544 55.2731 69.7482C55.5353 69.6443 55.7932 69.5362 56.0564 69.4058C56.1874 69.3403 56.3193 69.2704 56.4587 69.1798C56.5284 69.1338 56.5999 69.0841 56.6803 69.0114C56.721 68.9738 56.7643 68.9319 56.8139 68.8635C56.8527 68.7847 56.9617 68.7236 56.9216 68.3976ZM55.925 68.5892L56.9216 68.3976L56.4233 68.4934L55.925 68.5892Z" fill="#096F1F" mask="url(#path-13-inside-2_2323_3561)"/>
<mask id="path-15-inside-3_2323_3561" fill="white">
<path d="M60.5676 64.8178C60.5053 64.809 60.2621 64.708 60.1122 63.5828C59.9615 62.4506 59.9766 60.6019 60.359 58.3141C60.7415 56.0263 61.3309 54.259 61.8443 53.2211C62.3547 52.1896 62.6197 52.1607 62.6819 52.1696C62.7442 52.1784 62.9874 52.2794 63.1372 53.4046C63.288 54.5368 63.2729 56.3855 62.8904 58.6733C62.508 60.9611 61.9186 62.7284 61.4051 63.7663C60.8948 64.7978 60.6298 64.8267 60.5676 64.8178Z"/>
</mask>
<path d="M60.5676 64.8178C60.5053 64.809 60.2621 64.708 60.1122 63.5828C59.9615 62.4506 59.9766 60.6019 60.359 58.3141C60.7415 56.0263 61.3309 54.259 61.8443 53.2211C62.3547 52.1896 62.6197 52.1607 62.6819 52.1696C62.7442 52.1784 62.9874 52.2794 63.1372 53.4046C63.288 54.5368 63.2729 56.3855 62.8904 58.6733C62.508 60.9611 61.9186 62.7284 61.4051 63.7663C60.8948 64.7978 60.6298 64.8267 60.5676 64.8178Z" fill="#096F1F"/>
<path d="M60.4864 65.3034C60.5405 64.9797 60.5946 64.656 60.6487 64.3323C60.8825 64.3928 60.8338 64.4332 60.8448 64.4274C60.8415 64.4253 60.8251 64.4012 60.8104 64.3717C60.7795 64.3107 60.7484 64.2255 60.7218 64.1354C60.6683 63.9541 60.6282 63.7498 60.5957 63.5446C60.5943 63.5355 60.5929 63.5263 60.5914 63.517C60.3618 61.8566 60.49 60.0879 60.736 58.3676C60.9978 56.6472 61.3828 54.9133 62.0973 53.3347C62.1924 53.1332 62.2937 52.9363 62.4065 52.7572C62.4636 52.6671 62.5237 52.5819 62.5855 52.5118C62.6264 52.4407 62.7795 52.396 62.6413 52.4123C62.517 52.3544 62.654 52.4392 62.674 52.5175C62.7145 52.6007 62.7484 52.6982 62.7778 52.7997C62.8358 53.0013 62.8768 53.2171 62.9105 53.4357C63.1448 55.1418 63.0128 56.9181 62.7648 58.6555C62.4993 60.3928 62.1154 62.1349 61.3817 63.7557C61.3774 63.7648 61.3732 63.7737 61.3689 63.7826C61.1627 64.1618 61.0041 64.6603 60.5676 64.8178C61.0146 64.6737 61.1928 64.1772 61.4148 63.8034C61.4193 63.7946 61.4239 63.7857 61.4286 63.7768C62.2284 62.1726 62.6815 60.4337 63.0161 58.6912C63.3322 56.9437 63.539 55.1683 63.3639 53.3735C63.3371 53.1421 63.3031 52.9114 63.2458 52.6777C63.216 52.5591 63.1817 52.4416 63.128 52.3185C63.0506 52.2011 63.08 52.0491 62.7225 51.9268C62.3409 51.9399 62.3141 52.0912 62.1982 52.1796C62.1028 52.2802 62.0276 52.3812 61.9564 52.4845C61.8171 52.6885 61.7009 52.8966 61.5914 53.1075C60.7723 54.754 60.3204 56.5011 59.9821 58.2606C59.6639 60.0252 59.4534 61.8082 59.633 63.6485C59.6342 63.6589 59.6354 63.6691 59.6366 63.6793C59.6643 63.9103 59.6995 64.1447 59.7612 64.3905C59.7932 64.5145 59.8299 64.6395 59.8925 64.7801C59.9245 64.8502 59.9624 64.9254 60.0256 65.0112C60.1043 65.0921 60.1378 65.2216 60.4864 65.3034ZM60.6487 64.3323L60.4864 65.3034L60.5676 64.8178L60.6487 64.3323Z" fill="#096F1F" mask="url(#path-15-inside-3_2323_3561)"/>
<path d="M68.1326 51.6674C68.1996 51.5724 68.2974 51.497 68.4138 51.4621C68.5301 51.4272 68.6543 51.4352 68.7611 51.4853C68.8679 51.5354 68.9504 51.6242 68.9924 51.7334C69.0346 51.8426 69.0317 51.9625 68.9938 52.0711C68.9938 52.0711 68.9938 52.0711 68.9938 52.0711C68.8634 52.4394 68.7293 52.8017 68.5917 53.1579C67.3382 56.3922 65.6122 59.4775 63.433 62.2461C61.2239 65.0186 58.6553 67.5293 55.4236 69.3379C55.2287 69.4395 55.0612 69.5268 54.8034 69.6277C54.7609 69.6434 54.7656 69.6414 54.6708 69.6722C54.6306 69.6835 54.5871 69.6965 54.5067 69.7032C54.4453 69.6931 54.4924 69.7516 54.191 69.6443C54.0594 69.5882 53.9223 69.4147 53.9033 69.2759C53.8781 69.1364 53.9075 69.0527 53.9267 68.997C54.0557 68.7433 54.1063 68.7647 54.154 68.7134C54.2766 68.6159 54.332 68.5893 54.4432 68.5165C54.545 68.4559 54.6666 68.4252 54.7877 68.4388C54.9088 68.4523 55.0187 68.5079 55.0947 68.5953C55.1708 68.6826 55.2079 68.7959 55.1996 68.9119C55.1913 69.028 55.1373 69.1363 55.0561 69.2207C55.0561 69.2207 55.0561 69.2207 55.0561 69.2207C54.9795 69.2985 54.9423 69.3456 54.8905 69.4117C54.8825 69.414 54.8362 69.532 54.9435 69.3362C54.9591 69.2901 54.9874 69.2144 54.9635 69.0812C54.9457 68.9487 54.8123 68.7799 54.6867 68.7267C54.4022 68.6257 54.4549 68.6816 54.4026 68.6712C54.3397 68.6763 54.3192 68.6838 54.307 68.6857C54.2885 68.6891 54.3006 68.6815 54.3074 68.6747C54.4036 68.6009 54.5562 68.4754 54.6921 68.3553C57.1571 66.0662 59.2848 63.4215 61.3869 60.7805C63.4664 58.1374 65.4739 55.4119 67.4675 52.6081C67.6872 52.2997 67.909 51.9862 68.1326 51.6674Z" fill="#096F1F"/>
<path d="M57.4683 48.3882C57.4556 48.2528 57.4839 48.1128 57.561 47.9957C57.6381 47.8786 57.756 47.7943 57.8923 47.7605C58.0287 47.7267 58.1747 47.7456 58.3017 47.8121C58.4289 47.8786 58.5249 47.9877 58.5829 48.112C58.5829 48.112 58.5829 48.112 58.5829 48.112C58.7471 48.4723 58.9028 48.8273 59.0502 49.1769C60.3597 52.3089 61.2603 55.7356 61.0707 59.322C60.9646 62.633 59.1057 67.6608 54.3527 67.6678C54.1012 67.6475 53.8575 67.622 53.535 67.4981C53.4404 67.4595 53.3451 67.4175 53.2234 67.3231C53.1454 67.2618 53.058 67.177 52.9933 67.0439C52.9213 66.914 52.9005 66.6628 52.9764 66.504C53.1021 66.236 53.2669 66.1725 53.3457 66.1275C53.4281 66.0882 53.5085 66.0618 53.5927 66.0396C53.7326 66.0132 53.8814 66.0253 54.0116 66.0862C54.1418 66.1469 54.242 66.2499 54.2916 66.3757C54.3411 66.5015 54.3367 66.642 54.2807 66.7695C54.2247 66.8971 54.1211 66.9997 53.9976 67.0678C53.9976 67.0678 53.9976 67.0678 53.9976 67.0678C53.9718 67.085 53.9622 67.0996 53.9735 67.102C53.9783 67.0995 54.0468 67.1094 54.1444 66.9185C54.2013 66.8058 54.1862 66.6051 54.1343 66.5127C54.0885 66.4163 54.0338 66.3667 54.0015 66.3383C53.9513 66.2948 53.9448 66.2911 53.9525 66.2848C53.9962 66.2704 54.1517 66.2581 54.2842 66.223C57.0761 65.4008 57.8296 62.1446 58.0049 59.1568C58.174 56.0788 57.8638 52.8004 57.5761 49.5155C57.5428 49.1487 57.507 48.773 57.4683 48.3882Z" fill="#096F1F"/>
<path d="M39.1847 61.9347C39.069 61.8565 38.9305 61.8073 38.7879 61.8089C38.6454 61.8105 38.5118 61.8617 38.4135 61.9539C38.3152 62.0462 38.2584 62.1738 38.2524 62.3116C38.2463 62.4495 38.2929 62.585 38.3702 62.6993C38.3702 62.6993 38.3702 62.6993 38.3702 62.6993C38.5648 62.9811 38.7609 63.2544 38.9583 63.5195C40.7537 65.9142 43.053 68.0493 45.949 69.4316C48.786 70.7592 52.4577 71.4693 55.4883 69.6311C55.6733 69.4978 55.8051 69.4136 56.033 69.1395C56.0502 69.1153 56.103 69.0467 56.1366 68.9798C56.1702 68.8979 56.2177 68.8626 56.2256 68.6087C56.2233 68.4959 56.1833 68.3564 56.1038 68.246C56.03 68.143 55.9474 68.0818 55.8686 68.0386C55.7068 67.9542 55.5955 67.9543 55.548 67.9514C55.285 67.9535 55.2272 68.0011 55.0944 68.0453C54.9693 68.1047 54.8599 68.198 54.7946 68.3198C54.7293 68.4416 54.713 68.5802 54.7504 68.7092C54.7879 68.8382 54.8768 68.9496 54.9988 69.0229C55.1208 69.0962 55.2653 69.1237 55.405 69.1146C55.405 69.1146 55.405 69.1146 55.405 69.1146C55.4614 69.1125 55.5332 69.1309 55.4447 69.1434C55.426 69.1429 55.3699 69.1522 55.2422 69.0882C55.1808 69.0549 55.1109 69.0046 55.0475 68.9165C54.9789 68.8221 54.9445 68.7011 54.9425 68.6089C54.9488 68.4039 54.9822 68.3929 54.9967 68.3462C55.0134 68.3102 55.0259 68.2916 55.0254 68.2863C55.0223 68.2517 54.8939 68.3124 54.774 68.3384C52.3253 68.8242 49.662 67.9092 47.2553 66.7844C44.8096 65.6195 42.4405 64.1077 40.0055 62.4881C39.7372 62.3097 39.4636 62.1253 39.1847 61.9347Z" fill="#096F1F"/>
<path d="M47.0813 64.7218C46.9963 64.6867 46.9015 64.67 46.8098 64.6857C46.7181 64.7012 46.6378 64.7469 46.5842 64.8155C46.5307 64.884 46.507 64.9715 46.5162 65.0616C46.5254 65.1516 46.5674 65.236 46.625 65.3061C46.625 65.3061 46.625 65.3061 46.625 65.3061C46.7393 65.4416 46.8545 65.5727 46.9706 65.6995C48.0275 66.8474 49.3641 67.7894 50.924 68.3124C52.4696 68.8141 54.2557 68.9723 55.8531 68.14C55.9564 68.0784 56.0222 68.0443 56.1748 67.9109C56.189 67.8962 56.2213 67.8683 56.2582 67.8198C56.2807 67.7606 56.3813 67.7476 56.3409 67.4346C56.2131 67.1212 56.0852 67.1568 56.0147 67.1207C55.9291 67.1019 55.917 67.1085 55.8854 67.1082C55.7627 67.1165 55.7355 67.1366 55.6672 67.158C55.5847 67.1962 55.5102 67.2539 55.4628 67.3311C55.4153 67.4082 55.3986 67.4972 55.4169 67.5823C55.4353 67.6673 55.4878 67.7432 55.5636 67.797C55.6394 67.8509 55.7321 67.877 55.8239 67.8822C55.8239 67.8822 55.8239 67.8822 55.8239 67.8822C55.8553 67.886 55.8874 67.8959 55.8604 67.9059C55.8488 67.9068 55.85 67.9136 55.7922 67.9018C55.7441 67.8732 55.6301 67.9131 55.5105 67.6217C55.474 67.3318 55.5629 67.3327 55.5736 67.2891C55.5978 67.2564 55.6086 67.2468 55.6113 67.2411C55.6274 67.2073 55.5493 67.2295 55.4871 67.2303C54.1962 67.2693 52.846 66.8738 51.5612 66.4536C50.26 66.0172 48.9474 65.487 47.5516 64.9159C47.3981 64.8534 47.2413 64.7888 47.0813 64.7218Z" fill="#096F1F"/>
<path d="M54.7951 69.3017C54.6837 69.3257 54.2108 69.3399 53.3214 68.078C52.4266 66.8084 51.4122 64.5901 50.7789 61.6431C50.1457 58.696 50.1593 56.2564 50.4535 54.7308C50.7459 53.2144 51.1828 53.0329 51.2942 53.0089C51.4056 52.9849 51.8785 52.9706 52.7679 54.2325C53.6627 55.5022 54.6771 57.7205 55.3104 60.6675C55.9436 63.6145 55.93 66.0541 55.6358 67.5798C55.3434 69.0961 54.9065 69.2777 54.7951 69.3017Z" fill="#096F1F"/>
<defs>
<filter id="filter0_d_2323_3561" x="30.3416" y="16.1967" width="32.1509" height="53.0859" filterUnits="userSpaceOnUse" color-interpolation-filters="sRGB">
<feFlood flood-opacity="0" result="BackgroundImageFix"/>
<feColorMatrix in="SourceAlpha" type="matrix" values="0 0 0 0 0 0 0 0 0 0 0 0 0 0 0 0 0 0 127 0" result="hardAlpha"/>
<feOffset dy="1"/>
<feGaussianBlur stdDeviation="2"/>
<feComposite in2="hardAlpha" operator="out"/>
<feColorMatrix type="matrix" values="0 0 0 0 0 0 0 0 0 0 0 0 0 0 0 0 0 0 0.25 0"/>
<feBlend mode="normal" in2="BackgroundImageFix" result="effect1_dropShadow_2323_3561"/>
<feBlend mode="normal" in="SourceGraphic" in2="effect1_dropShadow_2323_3561" result="shape"/>
</filter>
<filter id="filter1_d_2323_3561" x="35.5945" y="16.4526" width="29.2512" height="46.9316" filterUnits="userSpaceOnUse" color-interpolation-filters="sRGB">
<feFlood flood-opacity="0" result="BackgroundImageFix"/>
<feColorMatrix in="SourceAlpha" type="matrix" values="0 0 0 0 0 0 0 0 0 0 0 0 0 0 0 0 0 0 127 0" result="hardAlpha"/>
<feOffset dy="1"/>
<feGaussianBlur stdDeviation="2"/>
<feComposite in2="hardAlpha" operator="out"/>
<feColorMatrix type="matrix" values="0 0 0 0 0 0 0 0 0 0 0 0 0 0 0 0 0 0 0.25 0"/>
<feBlend mode="normal" in2="BackgroundImageFix" result="effect1_dropShadow_2323_3561"/>
<feBlend mode="normal" in="SourceGraphic" in2="effect1_dropShadow_2323_3561" result="shape"/>
</filter>
<filter id="filter2_d_2323_3561" x="17.4207" y="55.1987" width="40.8948" height="20.5332" filterUnits="userSpaceOnUse" color-interpolation-filters="sRGB">
<feFlood flood-opacity="0" result="BackgroundImageFix"/>
<feColorMatrix in="SourceAlpha" type="matrix" values="0 0 0 0 0 0 0 0 0 0 0 0 0 0 0 0 0 0 127 0" result="hardAlpha"/>
<feOffset dy="1"/>
<feGaussianBlur stdDeviation="2"/>
<feComposite in2="hardAlpha" operator="out"/>
<feColorMatrix type="matrix" values="0 0 0 0 0 0 0 0 0 0 0 0 0 0 0 0 0 0 0.25 0"/>
<feBlend mode="normal" in2="BackgroundImageFix" result="effect1_dropShadow_2323_3561"/>
<feBlend mode="normal" in="SourceGraphic" in2="effect1_dropShadow_2323_3561" result="shape"/>
</filter>
<filter id="filter3_d_2323_3561" x="52.0872" y="30.9311" width="23.4104" height="40.873" filterUnits="userSpaceOnUse" color-interpolation-filters="sRGB">
<feFlood flood-opacity="0" result="BackgroundImageFix"/>
<feColorMatrix in="SourceAlpha" type="matrix" values="0 0 0 0 0 0 0 0 0 0 0 0 0 0 0 0 0 0 127 0" result="hardAlpha"/>
<feOffset dy="1"/>
<feGaussianBlur stdDeviation="2"/>
<feComposite in2="hardAlpha" operator="out"/>
<feColorMatrix type="matrix" values="0 0 0 0 0 0 0 0 0 0 0 0 0 0 0 0 0 0 0.25 0"/>
<feBlend mode="normal" in2="BackgroundImageFix" result="effect1_dropShadow_2323_3561"/>
<feBlend mode="normal" in="SourceGraphic" in2="effect1_dropShadow_2323_3561" result="shape"/>
</filter>
<filter id="filter4_d_2323_3561" x="32.8567" y="18.2494" width="39.9541" height="57.332" filterUnits="userSpaceOnUse" color-interpolation-filters="sRGB">
<feFlood flood-opacity="0" result="BackgroundImageFix"/>
<feColorMatrix in="SourceAlpha" type="matrix" values="0 0 0 0 0 0 0 0 0 0 0 0 0 0 0 0 0 0 127 0" result="hardAlpha"/>
<feOffset dy="1"/>
<feGaussianBlur stdDeviation="2"/>
<feComposite in2="hardAlpha" operator="out"/>
<feColorMatrix type="matrix" values="0 0 0 0 0 0 0 0 0 0 0 0 0 0 0 0 0 0 0.25 0"/>
<feBlend mode="normal" in2="BackgroundImageFix" result="effect1_dropShadow_2323_3561"/>
<feBlend mode="normal" in="SourceGraphic" in2="effect1_dropShadow_2323_3561" result="shape"/>
</filter>
<filter id="filter5_d_2323_3561" x="24.1431" y="18.2455" width="33.5935" height="55.0371" filterUnits="userSpaceOnUse" color-interpolation-filters="sRGB">
<feFlood flood-opacity="0" result="BackgroundImageFix"/>
<feColorMatrix in="SourceAlpha" type="matrix" values="0 0 0 0 0 0 0 0 0 0 0 0 0 0 0 0 0 0 127 0" result="hardAlpha"/>
<feOffset dy="1"/>
<feGaussianBlur stdDeviation="2"/>
<feComposite in2="hardAlpha" operator="out"/>
<feColorMatrix type="matrix" values="0 0 0 0 0 0 0 0 0 0 0 0 0 0 0 0 0 0 0.25 0"/>
<feBlend mode="normal" in2="BackgroundImageFix" result="effect1_dropShadow_2323_3561"/>
<feBlend mode="normal" in="SourceGraphic" in2="effect1_dropShadow_2323_3561" result="shape"/>
</filter>
<filter id="filter6_d_2323_3561" x="16.2004" y="24.0971" width="39.3879" height="45.0781" filterUnits="userSpaceOnUse" color-interpolation-filters="sRGB">
<feFlood flood-opacity="0" result="BackgroundImageFix"/>
<feColorMatrix in="SourceAlpha" type="matrix" values="0 0 0 0 0 0 0 0 0 0 0 0 0 0 0 0 0 0 127 0" result="hardAlpha"/>
<feOffset dy="1"/>
<feGaussianBlur stdDeviation="2"/>
<feComposite in2="hardAlpha" operator="out"/>
<feColorMatrix type="matrix" values="0 0 0 0 0 0 0 0 0 0 0 0 0 0 0 0 0 0 0.25 0"/>
<feBlend mode="normal" in2="BackgroundImageFix" result="effect1_dropShadow_2323_3561"/>
<feBlend mode="normal" in="SourceGraphic" in2="effect1_dropShadow_2323_3561" result="shape"/>
</filter>
<filter id="filter7_d_2323_3561" x="13.606" y="29.9291" width="51.783" height="43.8008" filterUnits="userSpaceOnUse" color-interpolation-filters="sRGB">
<feFlood flood-opacity="0" result="BackgroundImageFix"/>
<feColorMatrix in="SourceAlpha" type="matrix" values="0 0 0 0 0 0 0 0 0 0 0 0 0 0 0 0 0 0 127 0" result="hardAlpha"/>
<feOffset dy="1"/>
<feGaussianBlur stdDeviation="2"/>
<feComposite in2="hardAlpha" operator="out"/>
<feColorMatrix type="matrix" values="0 0 0 0 0 0 0 0 0 0 0 0 0 0 0 0 0 0 0.25 0"/>
<feBlend mode="normal" in2="BackgroundImageFix" result="effect1_dropShadow_2323_3561"/>
<feBlend mode="normal" in="SourceGraphic" in2="effect1_dropShadow_2323_3561" result="shape"/>
</filter>
<filter id="filter8_d_2323_3561" x="24.6492" y="22.2123" width="41.606" height="50.627" filterUnits="userSpaceOnUse" color-interpolation-filters="sRGB">
<feFlood flood-opacity="0" result="BackgroundImageFix"/>
<feColorMatrix in="SourceAlpha" type="matrix" values="0 0 0 0 0 0 0 0 0 0 0 0 0 0 0 0 0 0 127 0" result="hardAlpha"/>
<feOffset dy="1"/>
<feGaussianBlur stdDeviation="2"/>
<feComposite in2="hardAlpha" operator="out"/>
<feColorMatrix type="matrix" values="0 0 0 0 0 0 0 0 0 0 0 0 0 0 0 0 0 0 0.2 0"/>
<feBlend mode="normal" in2="BackgroundImageFix" result="effect1_dropShadow_2323_3561"/>
<feBlend mode="normal" in="SourceGraphic" in2="effect1_dropShadow_2323_3561" result="shape"/>
</filter>
<linearGradient id="paint0_linear_2323_3561" x1="42.422" y1="19.2651" x2="52.3407" y2="63.7844" gradientUnits="userSpaceOnUse">
<stop stop-color="#FFDA09"/>
<stop offset="1" stop-opacity="0"/>
</linearGradient>
<linearGradient id="paint1_linear_2323_3561" x1="50.3021" y1="19.4561" x2="52.287" y2="58.2708" gradientUnits="userSpaceOnUse">
<stop stop-color="#FFDA09"/>
<stop offset="1" stop-opacity="0"/>
</linearGradient>
<linearGradient id="paint2_linear_2323_3561" x1="21.4281" y1="61.4927" x2="54.4983" y2="66.0592" gradientUnits="userSpaceOnUse">
<stop stop-color="#FFDA09"/>
<stop offset="1" stop-opacity="0"/>
</linearGradient>
<linearGradient id="paint3_linear_2323_3561" x1="69.9707" y1="33.956" x2="60.8837" y2="67.6605" gradientUnits="userSpaceOnUse">
<stop stop-color="#FFDA09"/>
<stop offset="1" stop-opacity="0"/>
</linearGradient>
<linearGradient id="paint4_linear_2323_3561" x1="56.9888" y1="21.2776" x2="51.2063" y2="70.8476" gradientUnits="userSpaceOnUse">
<stop stop-color="#FFDA09"/>
<stop offset="1" stop-opacity="0"/>
</linearGradient>
<linearGradient id="paint5_linear_2323_3561" x1="32.5274" y1="21.4237" x2="50.818" y2="67.5238" gradientUnits="userSpaceOnUse">
<stop stop-color="#FFDA09"/>
<stop offset="1" stop-opacity="0"/>
</linearGradient>
<linearGradient id="paint6_linear_2323_3561" x1="22.8664" y1="28.1967" x2="49.7151" y2="62.4555" gradientUnits="userSpaceOnUse">
<stop stop-color="#FFDA09"/>
<stop offset="1" stop-opacity="0"/>
</linearGradient>
<linearGradient id="paint7_linear_2323_3561" x1="18.4234" y1="38.7061" x2="61.2746" y2="61.64" gradientUnits="userSpaceOnUse">
<stop stop-color="#FFDA09"/>
<stop offset="1" stop-opacity="0"/>
</linearGradient>
<linearGradient id="paint8_linear_2323_3561" x1="35.1991" y1="26.0967" x2="57.1102" y2="66.1865" gradientUnits="userSpaceOnUse">
<stop stop-color="#FFDA09"/>
<stop offset="1" stop-opacity="0"/>
</linearGradient>
</defs>
</svg>
