<svg width="117" height="91" viewBox="0 0 117 91" fill="none" xmlns="http://www.w3.org/2000/svg">
<g filter="url(#filter0_d_2330_59)">
<g opacity="0.98" filter="url(#filter1_d_2330_59)">
<path d="M60.0021 5.098C60.9593 4.84722 64.9346 4.18687 71.1372 8.89205C77.3777 13.6262 83.6818 22.5878 86.0716 35.3911C88.4614 48.1946 85.9346 59.4697 81.9609 66.8799C78.0113 74.2451 74.1717 75.632 73.2145 75.8828C72.2573 76.1336 68.2821 76.7941 62.0795 72.0887C55.8389 67.3546 49.5348 58.3931 47.145 45.5897C44.7552 32.7863 47.282 21.511 51.2557 14.1009C55.2053 6.73591 59.0449 5.34878 60.0021 5.098Z" fill="url(#paint0_linear_2330_59)"/>
<path d="M60.0021 5.098C60.9593 4.84722 64.9346 4.18687 71.1372 8.89205C77.3777 13.6262 83.6818 22.5878 86.0716 35.3911C88.4614 48.1946 85.9346 59.4697 81.9609 66.8799C78.0113 74.2451 74.1717 75.632 73.2145 75.8828C72.2573 76.1336 68.2821 76.7941 62.0795 72.0887C55.8389 67.3546 49.5348 58.3931 47.145 45.5897C44.7552 32.7863 47.282 21.511 51.2557 14.1009C55.2053 6.73591 59.0449 5.34878 60.0021 5.098Z" fill="url(#paint1_linear_2330_59)" fill-opacity="0.2"/>
</g>
<g opacity="0.98" filter="url(#filter2_d_2330_59)">
<path d="M72.1443 3.98018C73.0285 3.91168 76.6269 3.93123 81.134 8.53667C85.6686 13.1704 89.4425 21.185 89.0569 31.726C88.6713 42.2672 84.288 50.9136 79.3876 56.2783C74.5169 61.6104 70.8967 62.1891 70.0125 62.2576C69.1283 62.3261 65.5299 62.3067 61.0228 57.7011C56.4882 53.0674 52.7143 45.0529 53.0999 34.5118C53.4855 23.9707 57.8688 15.3242 62.7692 9.95945C67.6398 4.6275 71.2601 4.04869 72.1443 3.98018Z" fill="url(#paint2_linear_2330_59)"/>
<path d="M72.1443 3.98018C73.0285 3.91168 76.6269 3.93123 81.134 8.53667C85.6686 13.1704 89.4425 21.185 89.0569 31.726C88.6713 42.2672 84.288 50.9136 79.3876 56.2783C74.5169 61.6104 70.8967 62.1891 70.0125 62.2576C69.1283 62.3261 65.5299 62.3067 61.0228 57.7011C56.4882 53.0674 52.7143 45.0529 53.0999 34.5118C53.4855 23.9707 57.8688 15.3242 62.7692 9.95945C67.6398 4.6275 71.2601 4.04869 72.1443 3.98018Z" fill="url(#paint3_linear_2330_59)" fill-opacity="0.2"/>
</g>
<g opacity="0.97" filter="url(#filter3_d_2330_59)">
<path d="M15.4064 74.0235C15.3934 73.5808 15.6312 71.7637 20.394 69.2515C25.1861 66.724 33.2272 64.406 43.478 64.0571C53.7289 63.7081 61.89 65.4745 66.8211 67.6711C71.7222 69.8543 72.0661 71.6516 72.0791 72.0943C72.0922 72.537 71.8545 74.3541 67.0915 76.8663C62.2994 79.3939 54.2584 81.7118 44.0075 82.0608C33.7567 82.4097 25.5955 80.6433 20.6644 78.4468C15.7635 76.2636 15.4194 74.4662 15.4064 74.0235Z" fill="url(#paint4_linear_2330_59)"/>
<path d="M15.4064 74.0235C15.3934 73.5808 15.6312 71.7637 20.394 69.2515C25.1861 66.724 33.2272 64.406 43.478 64.0571C53.7289 63.7081 61.89 65.4745 66.8211 67.6711C71.7222 69.8543 72.0661 71.6516 72.0791 72.0943C72.0922 72.537 71.8545 74.3541 67.0915 76.8663C62.2994 79.3939 54.2584 81.7118 44.0075 82.0608C33.7567 82.4097 25.5955 80.6433 20.6644 78.4468C15.7635 76.2636 15.4194 74.4662 15.4064 74.0235Z" fill="url(#paint5_linear_2330_59)" fill-opacity="0.2"/>
</g>
<g opacity="0.97" filter="url(#filter4_d_2330_59)">
<path d="M108.438 29.2402C108.797 29.4446 110.068 30.5138 108.726 35.4958C107.376 40.5084 103.59 47.9868 96.7037 56.2566C89.8172 64.5265 82.7184 70.119 77.5364 72.9505C72.386 75.7647 70.7247 75.165 70.3656 74.9605C70.0065 74.7561 68.736 73.6871 70.0778 68.705C71.4278 63.6923 75.2136 56.214 82.1001 47.9441C88.9866 39.6744 96.0855 34.0817 101.267 31.2503C106.418 28.4361 108.079 29.0358 108.438 29.2402Z" fill="url(#paint6_linear_2330_59)"/>
<path d="M108.438 29.2402C108.797 29.4446 110.068 30.5138 108.726 35.4958C107.376 40.5084 103.59 47.9868 96.7037 56.2566C89.8172 64.5265 82.7184 70.119 77.5364 72.9505C72.386 75.7647 70.7247 75.165 70.3656 74.9605C70.0065 74.7561 68.736 73.6871 70.0778 68.705C71.4278 63.6923 75.2136 56.214 82.1001 47.9441C88.9866 39.6744 96.0855 34.0817 101.267 31.2503C106.418 28.4361 108.079 29.0358 108.438 29.2402Z" fill="url(#paint7_linear_2330_59)" fill-opacity="0.2"/>
</g>
<g opacity="0.93" filter="url(#filter5_d_2330_59)">
<path d="M100.393 10.3679C101.191 10.79 104.194 12.8644 104.184 20.9369C104.173 29.0589 100.741 40.7875 91.7382 53.1645C82.7358 65.5416 71.9393 73.3759 63.4109 76.9937C54.9344 80.5896 51.4206 79.2176 50.6224 78.7955C49.8242 78.3734 46.8211 76.2992 46.8317 68.2266C46.8423 60.1045 50.2747 48.376 59.2771 35.9989C68.2795 23.6219 79.0761 15.7876 87.6044 12.1697C96.0807 8.57404 99.5947 9.94584 100.393 10.3679Z" fill="url(#paint8_linear_2330_59)"/>
<path d="M100.393 10.3679C101.191 10.79 104.194 12.8644 104.184 20.9369C104.173 29.0589 100.741 40.7875 91.7382 53.1645C82.7358 65.5416 71.9393 73.3759 63.4109 76.9937C54.9344 80.5896 51.4206 79.2176 50.6224 78.7955C49.8242 78.3734 46.8211 76.2992 46.8317 68.2266C46.8423 60.1045 50.2747 48.376 59.2771 35.9989C68.2795 23.6219 79.0761 15.7876 87.6044 12.1697C96.0807 8.57404 99.5947 9.94584 100.393 10.3679Z" fill="url(#paint9_linear_2330_59)" fill-opacity="0.2"/>
</g>
<g opacity="0.98" filter="url(#filter6_d_2330_59)">
<path d="M35.8918 11.2354C36.871 10.8191 41.0014 9.46441 48.4091 12.9847C55.8623 16.5267 64.0933 24.21 68.7934 36.3622C73.4935 48.5145 72.6912 60.0388 69.6962 68.0236C66.7193 75.9598 62.8557 78.0041 61.8766 78.4204C60.8974 78.8368 56.7672 80.1916 49.3593 76.6712C41.9061 73.1292 33.6751 65.446 28.975 53.2937C24.275 41.1414 25.0772 29.617 28.0722 21.6323C31.0491 13.6963 34.9127 11.6518 35.8918 11.2354Z" fill="url(#paint10_linear_2330_59)"/>
<path d="M35.8918 11.2354C36.871 10.8191 41.0014 9.46441 48.4091 12.9847C55.8623 16.5267 64.0933 24.21 68.7934 36.3622C73.4935 48.5145 72.6912 60.0388 69.6962 68.0236C66.7193 75.9598 62.8557 78.0041 61.8766 78.4204C60.8974 78.8368 56.7672 80.1916 49.3593 76.6712C41.9061 73.1292 33.6751 65.446 28.975 53.2937C24.275 41.1414 25.0772 29.617 28.0722 21.6323C31.0491 13.6963 34.9127 11.6518 35.8918 11.2354Z" fill="url(#paint11_linear_2330_59)" fill-opacity="0.2"/>
</g>
<g filter="url(#filter7_d_2330_59)">
<path d="M13.6837 31.3874C14.3539 30.536 17.3725 27.2571 25.6196 26.0077C33.9172 24.7509 44.8768 26.2986 54.8325 33.2266C64.7882 40.1546 69.5643 49.557 70.7099 57.3853C71.8484 65.166 69.3949 68.838 68.7246 69.6894C68.0544 70.5408 65.036 73.8197 56.7888 75.069C48.4912 76.3259 37.5316 74.7782 27.5759 67.8502C17.6202 60.9222 12.8441 51.5197 11.6985 43.6915C10.56 35.911 13.0135 32.2388 13.6837 31.3874Z" fill="url(#paint12_linear_2330_59)"/>
<path d="M13.6837 31.3874C14.3539 30.536 17.3725 27.2571 25.6196 26.0077C33.9172 24.7509 44.8768 26.2986 54.8325 33.2266C64.7882 40.1546 69.5643 49.557 70.7099 57.3853C71.8484 65.166 69.3949 68.838 68.7246 69.6894C68.0544 70.5408 65.036 73.8197 56.7888 75.069C48.4912 76.3259 37.5316 74.7782 27.5759 67.8502C17.6202 60.9222 12.8441 51.5197 11.6985 43.6915C10.56 35.911 13.0135 32.2388 13.6837 31.3874Z" fill="url(#paint13_linear_2330_59)" fill-opacity="0.2"/>
</g>
<g opacity="0.97" filter="url(#filter8_d_2330_59)">
<path d="M4.06553 54.1917C4.23532 53.2003 5.34064 49.2095 13.0867 44.8847C20.8803 40.5334 33.141 37.5236 47.6641 39.5016C62.1872 41.4797 72.8813 47.6159 78.8631 53.8434C84.8085 60.0331 84.5274 64.136 84.3576 65.1274C84.1878 66.1188 83.0827 70.1095 75.3364 74.4344C67.5428 78.7857 55.2822 81.7955 40.7591 79.8175C26.236 77.8394 15.5418 71.7032 9.56004 65.4757C3.6148 59.2861 3.89573 55.183 4.06553 54.1917Z" fill="url(#paint14_linear_2330_59)"/>
<path d="M4.06553 54.1917C4.23532 53.2003 5.34064 49.2095 13.0867 44.8847C20.8803 40.5334 33.141 37.5236 47.6641 39.5016C62.1872 41.4797 72.8813 47.6159 78.8631 53.8434C84.8085 60.0331 84.5274 64.136 84.3576 65.1274C84.1878 66.1188 83.0827 70.1095 75.3364 74.4344C67.5428 78.7857 55.2822 81.7955 40.7591 79.8175C26.236 77.8394 15.5418 71.7032 9.56004 65.4757C3.6148 59.2861 3.89573 55.183 4.06553 54.1917Z" fill="url(#paint15_linear_2330_59)" fill-opacity="0.2"/>
</g>
<g opacity="0.98" filter="url(#filter9_d_2330_59)">
<path d="M89.4137 8.72141C90.3421 8.95841 93.9683 10.2938 96.1743 17.6602C98.3936 25.0719 98.1204 36.4086 92.3557 49.3702C86.591 62.3319 77.7528 71.482 70.0655 76.3647C62.4248 81.2176 58.4715 80.6179 57.5431 80.3809C56.6147 80.1439 52.9885 78.8087 50.7826 71.4421C48.5632 64.0304 48.8364 52.6937 54.6011 39.7321C60.3658 26.7705 69.2041 17.6203 76.8914 12.7376C84.5319 7.8848 88.4853 8.48441 89.4137 8.72141Z" fill="url(#paint16_linear_2330_59)"/>
<path d="M89.4137 8.72141C90.3421 8.95841 93.9683 10.2938 96.1743 17.6602C98.3936 25.0719 98.1204 36.4086 92.3557 49.3702C86.591 62.3319 77.7528 71.482 70.0655 76.3647C62.4248 81.2176 58.4715 80.6179 57.5431 80.3809C56.6147 80.1439 52.9885 78.8087 50.7826 71.4421C48.5632 64.0304 48.8364 52.6937 54.6011 39.7321C60.3658 26.7705 69.2041 17.6203 76.8914 12.7376C84.5319 7.8848 88.4853 8.48441 89.4137 8.72141Z" fill="url(#paint17_linear_2330_59)" fill-opacity="0.2"/>
</g>
<g opacity="0.98" filter="url(#filter10_d_2330_59)">
<path d="M38.8254 19.2276C39.808 18.5961 44.0038 16.3072 52.2854 17.7585C60.6178 19.2189 70.2993 24.354 76.8149 34.5377C83.3305 44.7214 83.9474 55.6826 81.7952 63.8817C79.656 72.031 75.83 74.8978 74.8475 75.5293C73.8649 76.1608 69.6693 78.4498 61.3875 76.9984C53.0551 75.538 43.3736 70.403 36.858 60.2192C30.3424 50.0355 29.7255 39.0743 31.8777 30.8752C34.0169 22.726 37.8429 19.8591 38.8254 19.2276Z" fill="url(#paint18_linear_2330_59)"/>
<path d="M38.8254 19.2276C39.808 18.5961 44.0038 16.3072 52.2854 17.7585C60.6178 19.2189 70.2993 24.354 76.8149 34.5377C83.3305 44.7214 83.9474 55.6826 81.7952 63.8817C79.656 72.031 75.83 74.8978 74.8475 75.5293C73.8649 76.1608 69.6693 78.4498 61.3875 76.9984C53.0551 75.538 43.3736 70.403 36.858 60.2192C30.3424 50.0355 29.7255 39.0743 31.8777 30.8752C34.0169 22.726 37.8429 19.8591 38.8254 19.2276Z" fill="url(#paint19_linear_2330_59)" fill-opacity="0.2"/>
</g>
<path d="M73.3711 80.2805C73.3405 80.3263 73.1564 80.4849 72.0107 80.2579C70.8578 80.0294 69.0677 79.4529 66.9809 78.4562C64.8942 77.4594 63.3862 76.4605 62.5597 75.7435C61.7383 75.0309 61.8039 74.8157 61.8345 74.7699C61.8651 74.7242 62.0491 74.5655 63.1949 74.7926C64.3477 75.021 66.1379 75.5976 68.2246 76.5943C70.3113 77.5911 71.8194 78.59 72.6459 79.307C73.4673 80.0196 73.4017 80.2348 73.3711 80.2805Z" fill="#096F1F"/>
<path d="M71.6357 78.2557C71.5579 78.3273 71.1849 78.5692 69.8529 78.1159C68.5127 77.6598 66.6123 76.5936 64.6619 74.8269C62.7115 73.0601 61.5291 71.3338 61.0193 70.1142C60.5126 68.9019 60.7749 68.5597 60.8527 68.4881C60.9305 68.4166 61.3035 68.1746 62.6356 68.628C63.9758 69.0841 65.8761 70.1503 67.8265 71.917C69.7769 73.6837 70.9593 75.41 71.4692 76.6297C71.9759 77.8419 71.7135 78.1842 71.6357 78.2557Z" fill="#096F1F"/>
<mask id="path-13-inside-1_2330_59" fill="white">
<path d="M71.991 81.3212C71.8978 81.3089 71.5379 81.1744 71.3877 79.7133C71.2366 78.2433 71.3837 75.8464 72.1141 72.8856C72.8445 69.9247 73.8518 67.6418 74.6957 66.3034C75.5345 64.9732 75.9358 64.9396 76.0291 64.952C76.1223 64.9643 76.4822 65.0987 76.6324 66.5599C76.7835 68.03 76.6364 70.4268 75.906 73.3876C75.1756 76.3485 74.1683 78.6314 73.3244 79.9698C72.4856 81.2999 72.0843 81.3336 71.991 81.3212Z"/>
</mask>
<path d="M71.991 81.3212C71.8978 81.3089 71.5379 81.1744 71.3877 79.7133C71.2366 78.2433 71.3837 75.8464 72.1141 72.8856C72.8445 69.9247 73.8518 67.6418 74.6957 66.3034C75.5345 64.9732 75.9358 64.9396 76.0291 64.952C76.1223 64.9643 76.4822 65.0987 76.6324 66.5599C76.7835 68.03 76.6364 70.4268 75.906 73.3876C75.1756 76.3485 74.1683 78.6314 73.3244 79.9698C72.4856 81.2999 72.0843 81.3336 71.991 81.3212Z" fill="#096F1F"/>
<path d="M71.8713 81.8067C71.9511 81.483 72.0309 81.1594 72.1108 80.8358C72.333 80.9137 72.1721 80.8668 72.1527 80.7854C72.1074 80.7039 72.0654 80.5934 72.0308 80.4771C71.9612 80.2428 71.9145 79.9791 71.8796 79.7111C71.8758 79.6819 71.8721 79.6519 71.8684 79.6213C71.6506 77.4727 71.9788 75.1698 72.4858 72.9348C73.0153 70.7002 73.7385 68.4466 74.9329 66.4257C75.0974 66.1574 75.2703 65.8971 75.4617 65.6604C75.5575 65.5425 75.6576 65.4314 75.7611 65.3401C75.8514 65.2481 76.0148 65.1848 75.9692 65.1947C75.9333 65.1695 76.0619 65.2695 76.1069 65.3777C76.1648 65.4887 76.2101 65.6179 76.2482 65.7524C76.3236 66.0223 76.3703 66.31 76.4054 66.6033C76.6267 68.8033 76.2929 71.1162 75.7821 73.3712C75.2467 75.6254 74.5239 77.8898 73.3017 79.9581C73.2837 79.9875 73.2659 80.0163 73.2483 80.0445C72.9137 80.5279 72.6001 81.1695 71.991 81.3212C72.6076 81.1841 72.9414 80.5448 73.2909 80.067C73.3094 80.0391 73.3281 80.0106 73.347 79.9814C74.6332 77.93 75.4251 75.667 76.0299 73.4041C76.6092 71.1352 77.0195 68.8187 76.8594 66.5164C76.8317 66.208 76.7926 65.9026 76.7172 65.5959C76.6785 65.4421 76.6322 65.2901 76.5586 65.1364C76.4684 64.9897 76.4348 64.8034 76.0889 64.7093C75.7201 64.7042 75.5947 64.8676 75.4365 64.9797C75.2904 65.1025 75.1703 65.2314 75.0565 65.3638C74.8312 65.6285 74.6403 65.9019 74.4586 66.1812C73.1446 68.2799 72.3531 70.5537 71.7423 72.8363C71.1593 75.1251 70.7433 77.4516 70.9069 79.8053C70.9099 79.8391 70.913 79.8722 70.9162 79.9047C70.9464 80.2031 70.9878 80.5027 71.0684 80.8109C71.1099 80.9654 71.1598 81.1226 71.2434 81.2886C71.2863 81.372 71.3362 81.4574 71.4161 81.549C71.5038 81.636 71.5835 81.7519 71.8713 81.8067ZM72.1108 80.8358L71.8713 81.8067L71.991 81.3212L72.1108 80.8358Z" fill="#096F1F" mask="url(#path-13-inside-1_2330_59)"/>
<mask id="path-15-inside-2_2330_59" fill="white">
<path d="M75.4396 77.2812C75.3427 77.2492 74.9954 77.0195 75.2857 75.2097C75.5778 73.3888 76.4794 70.4917 78.186 67.0132C79.8927 63.5347 81.6886 60.9336 83.0153 59.4551C84.3339 57.9855 84.7781 58.0178 84.875 58.0499C84.972 58.0819 85.3193 58.3116 85.0289 60.1214C84.7368 61.9423 83.8352 64.8394 82.1286 68.3179C80.4219 71.7964 78.626 74.3975 77.2993 75.876C75.9808 77.3456 75.5366 77.3133 75.4396 77.2812Z"/>
</mask>
<path d="M75.4396 77.2812C75.3427 77.2492 74.9954 77.0195 75.2857 75.2097C75.5778 73.3888 76.4794 70.4917 78.186 67.0132C79.8927 63.5347 81.6886 60.9336 83.0153 59.4551C84.3339 57.9855 84.7781 58.0178 84.875 58.0499C84.972 58.0819 85.3193 58.3116 85.0289 60.1214C84.7368 61.9423 83.8352 64.8394 82.1286 68.3179C80.4219 71.7964 78.626 74.3975 77.2993 75.876C75.9808 77.3456 75.5366 77.3133 75.4396 77.2812Z" fill="#096F1F"/>
<path d="M75.2194 77.7301C75.3662 77.4309 75.513 77.1316 75.6598 76.8324C75.837 76.9177 75.7603 76.9156 75.7591 76.8815C75.7434 76.8482 75.7261 76.7887 75.7145 76.7247C75.6905 76.5938 75.6823 76.4385 75.6832 76.2788C75.6856 75.9584 75.7217 75.6171 75.7702 75.278C75.7724 75.2626 75.7746 75.2471 75.7769 75.2315C76.2241 72.5065 77.299 69.7684 78.5421 67.131C79.8116 64.5 81.2825 61.8912 83.2316 59.6084C83.4874 59.3178 83.7512 59.0358 84.0303 58.7815C84.1716 58.6535 84.3159 58.5334 84.4631 58.4342C84.5889 58.3336 84.8277 58.2683 84.7649 58.2743C84.7279 58.2307 84.8505 58.4145 84.8607 58.5585C84.8876 58.7139 84.8946 58.883 84.8928 59.0563C84.8882 59.3995 84.8489 59.7544 84.7965 60.1111C84.3407 62.8805 83.2599 65.6252 82.0099 68.2786C80.7318 70.9251 79.2597 73.5421 77.2793 75.8618C77.2677 75.875 77.2562 75.8881 77.2447 75.901C76.7254 76.433 76.2245 77.1672 75.4396 77.2812C75.4396 77.2812 75.4396 77.2812 75.4396 77.2812C76.2309 77.1819 76.7506 76.453 77.2838 75.9289C77.2956 75.9162 77.3075 75.9033 77.3194 75.8903C79.3601 73.5981 80.8995 70.9965 82.2473 68.3572C83.5673 65.7062 84.7216 62.9755 85.2613 60.1318C85.3242 59.764 85.3747 59.396 85.3892 59.0222C85.3956 58.8326 85.3939 58.6443 85.3655 58.4484C85.3506 58.3505 85.3297 58.2509 85.2881 58.1467C85.2373 58.045 85.2099 57.9212 84.9851 57.8254C84.743 57.7644 84.6171 57.8361 84.4933 57.879C84.3738 57.9288 84.2731 57.9874 84.1781 58.0482C83.9888 58.1706 83.825 58.3031 83.6659 58.4412C83.3535 58.7146 83.0717 59.0046 82.799 59.3017C80.727 61.6308 79.1863 64.2405 77.83 66.8954C76.5031 69.5623 75.3428 72.2997 74.7945 75.1878C74.7916 75.2045 74.7888 75.221 74.786 75.2374C74.7254 75.6004 74.6757 75.9695 74.663 76.3531C74.6576 76.5462 74.6599 76.7407 74.6923 76.9532C74.7093 77.0591 74.7331 77.1713 74.7839 77.295C74.8516 77.4167 74.8663 77.5781 75.2194 77.7301ZM75.6598 76.8324L75.2194 77.7301L75.4396 77.2812L75.6598 76.8324Z" fill="#096F1F" mask="url(#path-15-inside-2_2330_59)"/>
<path d="M95.6838 58.2789C95.7622 58.1908 95.8073 58.0803 95.8035 57.9665C95.7998 57.8528 95.7482 57.7459 95.6589 57.6683C95.5697 57.5907 95.4489 57.5477 95.322 57.5477C95.195 57.5477 95.073 57.5915 94.9772 57.6643C94.9772 57.6643 94.9772 57.6643 94.9772 57.6643C94.5385 57.999 94.1057 58.332 93.6789 58.6633C89.8078 61.6717 86.1089 64.8232 82.5786 68.123C79.0404 71.4314 75.6879 74.8662 72.5027 78.4727C72.3276 78.6716 72.1471 78.8767 71.9726 79.0784C71.9494 79.105 71.9309 79.1271 71.9139 79.1478C71.8959 79.1673 71.882 79.183 71.8714 79.1956C71.866 79.2019 71.8616 79.2074 71.857 79.2131C71.8548 79.2156 71.8583 79.2123 71.8502 79.2208C71.8356 79.2409 71.8676 79.1863 71.7754 79.3173C71.7678 79.3609 71.6964 79.3444 71.7172 79.6408C71.7182 79.807 72.013 80.0555 72.198 80.0463C72.3762 80.0581 72.4291 80.0244 72.4758 80.0111C72.6167 79.9501 72.5969 79.9451 72.6187 79.9334C72.6419 79.9158 72.6446 79.9126 72.6501 79.908C72.6829 79.8784 72.6735 79.8858 72.6777 79.8816C72.693 79.8633 72.7181 79.8356 72.75 79.8013C72.7666 79.7814 72.786 79.7589 72.8082 79.7336C72.9227 79.6083 72.969 79.5467 73.0809 79.4228C73.158 79.3339 73.2015 79.2229 73.196 79.1092C73.1906 78.9955 73.1375 78.8893 73.0471 78.8127C72.9567 78.7361 72.8353 78.6946 72.7083 78.6961C72.5814 78.6976 72.4601 78.7428 72.3653 78.8167C72.3653 78.8167 72.3653 78.8167 72.3653 78.8167C72.234 78.9233 72.168 78.9682 72.0358 79.0757C72.0091 79.0965 71.9853 79.1145 71.9645 79.1298C71.929 79.1588 71.9 79.1816 71.8854 79.1908C71.8866 79.1893 71.8729 79.201 71.8827 79.1919C71.8867 79.1886 71.8883 79.1863 71.9109 79.1692C71.9323 79.1577 71.9123 79.1529 72.0531 79.092C72.0998 79.0786 72.1526 79.0449 72.3308 79.0567C72.5157 79.0476 72.8106 79.296 72.8116 79.4622C72.8324 79.7586 72.761 79.742 72.7535 79.7855C72.6616 79.9159 72.6956 79.8591 72.6848 79.8754C72.6832 79.8774 72.6845 79.8763 72.6846 79.8765C72.686 79.8761 72.6897 79.8735 72.6946 79.8698C72.7046 79.8623 72.7196 79.8498 72.739 79.8333C72.7597 79.8175 72.7824 79.7999 72.8098 79.7779C73.0193 79.6109 73.2367 79.4368 73.4469 79.2688C77.2704 76.2132 80.9397 73.0562 84.4741 69.7513C88.0007 66.4549 91.3766 63.0316 94.6098 59.4719C94.9657 59.0794 95.3238 58.6817 95.6838 58.2789Z" fill="#096F1F"/>
<path d="M47.8456 79.9101C47.725 79.9064 47.6066 79.9394 47.5158 80.0107C47.4249 80.0819 47.3692 80.1843 47.3608 80.2974C47.3523 80.4105 47.3916 80.5266 47.47 80.6222C47.5483 80.7179 47.6593 80.7839 47.7779 80.8147C47.7779 80.8147 47.7779 80.8147 47.7779 80.8147C48.233 80.9311 48.6836 81.0402 49.1297 81.1422C53.1837 82.065 57.3539 82.467 61.4445 82.2339C65.5492 81.9738 69.5954 81.2111 73.1929 79.3186C73.4024 79.198 73.5802 79.0969 73.8167 78.9125C73.8512 78.8835 73.8571 78.8801 73.9301 78.8104C73.96 78.7792 73.9933 78.7446 74.0326 78.6761C74.0447 78.6326 74.0935 78.6379 74.0982 78.3882C74.1001 78.1358 73.806 77.9001 73.6875 77.8815C73.2936 77.8054 73.3195 77.8864 73.2327 77.8929C73.0644 77.9446 73.0058 77.979 72.8706 78.0369C72.7663 78.0867 72.6818 78.1696 72.6392 78.2756C72.5966 78.3815 72.5991 78.5008 72.6468 78.6091C72.6946 78.7173 72.7844 78.8073 72.8974 78.861C73.0104 78.9148 73.1369 78.9269 73.2526 78.9029C73.2526 78.9029 73.2526 78.9029 73.2526 78.9029C73.3735 78.8766 73.4433 78.8685 73.538 78.8598C73.5558 78.8592 73.5672 78.8605 73.5734 78.8628C73.5646 78.8588 73.6037 78.8947 73.398 78.8455C73.2992 78.8336 73.0155 78.6087 73.0184 78.3708C73.0232 78.1385 73.0653 78.1525 73.0736 78.1165C73.1035 78.064 73.121 78.048 73.1287 78.0377C73.1423 78.0213 73.1282 78.0296 73.1182 78.0322C72.9949 78.0841 72.7874 78.1564 72.5912 78.2165C68.9258 79.218 64.9955 79.5526 61.0874 79.7982C57.1841 80.0198 53.2239 80.0448 49.1953 79.948C48.7521 79.9377 48.3022 79.9251 47.8456 79.9101Z" fill="#096F1F"/>
<path d="M77.0191 56.5397C77.0139 56.4941 77.0276 56.4477 77.0586 56.4106C77.0897 56.3735 77.1354 56.3488 77.1861 56.3418C77.2367 56.3348 77.2884 56.3461 77.3301 56.3731C77.3718 56.4002 77.3999 56.4408 77.4097 56.4858C77.4097 56.4858 77.4097 56.4858 77.4097 56.4858C77.5048 56.9253 77.5921 57.3568 77.6718 57.7806C78.3797 61.5914 78.6498 65.6091 77.7908 69.4977C76.9466 73.2786 74.6941 77.5804 70.1043 78.6707C69.8383 78.712 69.6049 78.7442 69.2954 78.7004C69.2096 78.683 69.1365 78.6744 69.023 78.5973C68.877 78.5197 68.8884 78.2586 68.9705 78.1943C69.0996 78.0491 69.2041 78.0134 69.3462 77.9464C69.3926 77.9268 69.4459 77.9229 69.495 77.9369C69.5441 77.9509 69.5849 77.9814 69.6086 78.022C69.6323 78.0626 69.637 78.1101 69.6219 78.1544C69.6068 78.1987 69.573 78.236 69.5287 78.2593C69.5287 78.2593 69.5287 78.2593 69.5287 78.2593C69.4213 78.3143 69.3379 78.3785 69.3257 78.4056C69.3324 78.4347 69.3406 78.2943 69.3012 78.2865C69.2877 78.2768 69.3246 78.2915 69.3688 78.2939C69.5532 78.3067 69.7698 78.2697 69.9915 78.2163C74.0205 76.9399 75.9397 72.9522 76.7586 69.316C77.5832 65.5913 77.5083 61.6646 77.156 57.8416C77.1159 57.4166 77.0704 56.9827 77.0191 56.5397Z" fill="#096F1F"/>
<path d="M72.4576 79.0465C72.3827 79.0656 72.06 79.0687 71.3808 77.9276C70.6974 76.7794 69.879 74.7844 69.2807 72.1486C68.6824 69.5128 68.5552 67.3416 68.6711 65.9897C68.7863 64.6459 69.0751 64.4932 69.15 64.4741C69.2249 64.455 69.5476 64.4518 70.2268 65.593C70.9102 66.7412 71.7286 68.7362 72.3269 71.372C72.9252 74.0078 73.0525 76.179 72.9365 77.5309C72.8213 78.8746 72.5326 79.0274 72.4576 79.0465Z" fill="#096F1F"/>
<path d="M69.0391 79.9499C69.017 80.0218 68.852 80.2904 67.492 80.2591C66.1237 80.2276 63.9381 79.8676 61.3013 78.9926C58.6645 78.1175 56.6826 77.0943 55.5499 76.2958C54.4241 75.5021 54.4394 75.1838 54.4615 75.112C54.4836 75.0401 54.6485 74.7715 56.0085 74.8028C57.3768 74.8343 59.5625 75.1942 62.1993 76.0693C64.836 76.9444 66.818 77.9675 67.9507 78.7661C69.0764 79.5597 69.0611 79.878 69.0391 79.9499Z" fill="#096F1F"/>
</g>
<defs>
<filter id="filter0_d_2330_59" x="0" y="3.9668" width="113.328" height="86.332" filterUnits="userSpaceOnUse" color-interpolation-filters="sRGB">
<feFlood flood-opacity="0" result="BackgroundImageFix"/>
<feColorMatrix in="SourceAlpha" type="matrix" values="0 0 0 0 0 0 0 0 0 0 0 0 0 0 0 0 0 0 127 0" result="hardAlpha"/>
<feOffset dy="4"/>
<feGaussianBlur stdDeviation="2"/>
<feComposite in2="hardAlpha" operator="out"/>
<feColorMatrix type="matrix" values="0 0 0 0 0 0 0 0 0 0 0 0 0 0 0 0 0 0 0.25 0"/>
<feBlend mode="normal" in2="BackgroundImageFix" result="effect1_dropShadow_2330_59"/>
<feBlend mode="normal" in="SourceGraphic" in2="effect1_dropShadow_2330_59" result="shape"/>
</filter>
<filter id="filter1_d_2330_59" x="42.2163" y="1.91797" width="48.7842" height="79.1445" filterUnits="userSpaceOnUse" color-interpolation-filters="sRGB">
<feFlood flood-opacity="0" result="BackgroundImageFix"/>
<feColorMatrix in="SourceAlpha" type="matrix" values="0 0 0 0 0 0 0 0 0 0 0 0 0 0 0 0 0 0 127 0" result="hardAlpha"/>
<feOffset dy="1"/>
<feGaussianBlur stdDeviation="2"/>
<feComposite in2="hardAlpha" operator="out"/>
<feColorMatrix type="matrix" values="0 0 0 0 0 0 0 0 0 0 0 0 0 0 0 0 0 0 0.25 0"/>
<feBlend mode="normal" in2="BackgroundImageFix" result="effect1_dropShadow_2330_59"/>
<feBlend mode="normal" in="SourceGraphic" in2="effect1_dropShadow_2330_59" result="shape"/>
</filter>
<filter id="filter2_d_2330_59" x="49.0728" y="0.966797" width="44.0112" height="66.3047" filterUnits="userSpaceOnUse" color-interpolation-filters="sRGB">
<feFlood flood-opacity="0" result="BackgroundImageFix"/>
<feColorMatrix in="SourceAlpha" type="matrix" values="0 0 0 0 0 0 0 0 0 0 0 0 0 0 0 0 0 0 127 0" result="hardAlpha"/>
<feOffset dy="1"/>
<feGaussianBlur stdDeviation="2"/>
<feComposite in2="hardAlpha" operator="out"/>
<feColorMatrix type="matrix" values="0 0 0 0 0 0 0 0 0 0 0 0 0 0 0 0 0 0 0.25 0"/>
<feBlend mode="normal" in2="BackgroundImageFix" result="effect1_dropShadow_2330_59"/>
<feBlend mode="normal" in="SourceGraphic" in2="effect1_dropShadow_2330_59" result="shape"/>
</filter>
<filter id="filter3_d_2330_59" x="11.406" y="61.0137" width="64.6736" height="26.0918" filterUnits="userSpaceOnUse" color-interpolation-filters="sRGB">
<feFlood flood-opacity="0" result="BackgroundImageFix"/>
<feColorMatrix in="SourceAlpha" type="matrix" values="0 0 0 0 0 0 0 0 0 0 0 0 0 0 0 0 0 0 127 0" result="hardAlpha"/>
<feOffset dy="1"/>
<feGaussianBlur stdDeviation="2"/>
<feComposite in2="hardAlpha" operator="out"/>
<feColorMatrix type="matrix" values="0 0 0 0 0 0 0 0 0 0 0 0 0 0 0 0 0 0 0.25 0"/>
<feBlend mode="normal" in2="BackgroundImageFix" result="effect1_dropShadow_2330_59"/>
<feBlend mode="normal" in="SourceGraphic" in2="effect1_dropShadow_2330_59" result="shape"/>
</filter>
<filter id="filter4_d_2330_59" x="65.4763" y="26.043" width="47.8513" height="54.1152" filterUnits="userSpaceOnUse" color-interpolation-filters="sRGB">
<feFlood flood-opacity="0" result="BackgroundImageFix"/>
<feColorMatrix in="SourceAlpha" type="matrix" values="0 0 0 0 0 0 0 0 0 0 0 0 0 0 0 0 0 0 127 0" result="hardAlpha"/>
<feOffset dy="1"/>
<feGaussianBlur stdDeviation="2"/>
<feComposite in2="hardAlpha" operator="out"/>
<feColorMatrix type="matrix" values="0 0 0 0 0 0 0 0 0 0 0 0 0 0 0 0 0 0 0.25 0"/>
<feBlend mode="normal" in2="BackgroundImageFix" result="effect1_dropShadow_2330_59"/>
<feBlend mode="normal" in="SourceGraphic" in2="effect1_dropShadow_2330_59" result="shape"/>
</filter>
<filter id="filter5_d_2330_59" x="42.8315" y="6.75781" width="65.3521" height="77.6484" filterUnits="userSpaceOnUse" color-interpolation-filters="sRGB">
<feFlood flood-opacity="0" result="BackgroundImageFix"/>
<feColorMatrix in="SourceAlpha" type="matrix" values="0 0 0 0 0 0 0 0 0 0 0 0 0 0 0 0 0 0 127 0" result="hardAlpha"/>
<feOffset dy="1"/>
<feGaussianBlur stdDeviation="2"/>
<feComposite in2="hardAlpha" operator="out"/>
<feColorMatrix type="matrix" values="0 0 0 0 0 0 0 0 0 0 0 0 0 0 0 0 0 0 0.25 0"/>
<feBlend mode="normal" in2="BackgroundImageFix" result="effect1_dropShadow_2330_59"/>
<feBlend mode="normal" in="SourceGraphic" in2="effect1_dropShadow_2330_59" result="shape"/>
</filter>
<filter id="filter6_d_2330_59" x="21.6379" y="7.63086" width="54.4927" height="76.3945" filterUnits="userSpaceOnUse" color-interpolation-filters="sRGB">
<feFlood flood-opacity="0" result="BackgroundImageFix"/>
<feColorMatrix in="SourceAlpha" type="matrix" values="0 0 0 0 0 0 0 0 0 0 0 0 0 0 0 0 0 0 127 0" result="hardAlpha"/>
<feOffset dy="1"/>
<feGaussianBlur stdDeviation="2"/>
<feComposite in2="hardAlpha" operator="out"/>
<feColorMatrix type="matrix" values="0 0 0 0 0 0 0 0 0 0 0 0 0 0 0 0 0 0 0.25 0"/>
<feBlend mode="normal" in2="BackgroundImageFix" result="effect1_dropShadow_2330_59"/>
<feBlend mode="normal" in="SourceGraphic" in2="effect1_dropShadow_2330_59" result="shape"/>
</filter>
<filter id="filter7_d_2330_59" x="7.40137" y="22.6113" width="67.6057" height="57.8555" filterUnits="userSpaceOnUse" color-interpolation-filters="sRGB">
<feFlood flood-opacity="0" result="BackgroundImageFix"/>
<feColorMatrix in="SourceAlpha" type="matrix" values="0 0 0 0 0 0 0 0 0 0 0 0 0 0 0 0 0 0 127 0" result="hardAlpha"/>
<feOffset dy="1"/>
<feGaussianBlur stdDeviation="2"/>
<feComposite in2="hardAlpha" operator="out"/>
<feColorMatrix type="matrix" values="0 0 0 0 0 0 0 0 0 0 0 0 0 0 0 0 0 0 0.25 0"/>
<feBlend mode="normal" in2="BackgroundImageFix" result="effect1_dropShadow_2330_59"/>
<feBlend mode="normal" in="SourceGraphic" in2="effect1_dropShadow_2330_59" result="shape"/>
</filter>
<filter id="filter8_d_2330_59" x="0" y="35.8809" width="88.4231" height="49.5566" filterUnits="userSpaceOnUse" color-interpolation-filters="sRGB">
<feFlood flood-opacity="0" result="BackgroundImageFix"/>
<feColorMatrix in="SourceAlpha" type="matrix" values="0 0 0 0 0 0 0 0 0 0 0 0 0 0 0 0 0 0 127 0" result="hardAlpha"/>
<feOffset dy="1"/>
<feGaussianBlur stdDeviation="2"/>
<feComposite in2="hardAlpha" operator="out"/>
<feColorMatrix type="matrix" values="0 0 0 0 0 0 0 0 0 0 0 0 0 0 0 0 0 0 0.25 0"/>
<feBlend mode="normal" in2="BackgroundImageFix" result="effect1_dropShadow_2330_59"/>
<feBlend mode="normal" in="SourceGraphic" in2="effect1_dropShadow_2330_59" result="shape"/>
</filter>
<filter id="filter9_d_2330_59" x="45.4944" y="5.56445" width="55.968" height="79.9727" filterUnits="userSpaceOnUse" color-interpolation-filters="sRGB">
<feFlood flood-opacity="0" result="BackgroundImageFix"/>
<feColorMatrix in="SourceAlpha" type="matrix" values="0 0 0 0 0 0 0 0 0 0 0 0 0 0 0 0 0 0 127 0" result="hardAlpha"/>
<feOffset dy="1"/>
<feGaussianBlur stdDeviation="2"/>
<feComposite in2="hardAlpha" operator="out"/>
<feColorMatrix type="matrix" values="0 0 0 0 0 0 0 0 0 0 0 0 0 0 0 0 0 0 0.2 0"/>
<feBlend mode="normal" in2="BackgroundImageFix" result="effect1_dropShadow_2330_59"/>
<feBlend mode="normal" in="SourceGraphic" in2="effect1_dropShadow_2330_59" result="shape"/>
</filter>
<filter id="filter10_d_2330_59" x="26.7642" y="14.2852" width="60.1445" height="68.1875" filterUnits="userSpaceOnUse" color-interpolation-filters="sRGB">
<feFlood flood-opacity="0" result="BackgroundImageFix"/>
<feColorMatrix in="SourceAlpha" type="matrix" values="0 0 0 0 0 0 0 0 0 0 0 0 0 0 0 0 0 0 127 0" result="hardAlpha"/>
<feOffset dy="1"/>
<feGaussianBlur stdDeviation="2"/>
<feComposite in2="hardAlpha" operator="out"/>
<feColorMatrix type="matrix" values="0 0 0 0 0 0 0 0 0 0 0 0 0 0 0 0 0 0 0.2 0"/>
<feBlend mode="normal" in2="BackgroundImageFix" result="effect1_dropShadow_2330_59"/>
<feBlend mode="normal" in="SourceGraphic" in2="effect1_dropShadow_2330_59" result="shape"/>
</filter>
<linearGradient id="paint0_linear_2330_59" x1="60.0021" y1="5.098" x2="78.2048" y2="74.5754" gradientUnits="userSpaceOnUse">
<stop offset="0.192308" stop-color="#F1AD24"/>
<stop offset="0.639423" stop-color="#F17B23"/>
</linearGradient>
<linearGradient id="paint1_linear_2330_59" x1="60.0021" y1="5.098" x2="78.2048" y2="74.5754" gradientUnits="userSpaceOnUse">
<stop stop-color="#FFDA09"/>
<stop offset="1" stop-opacity="0"/>
</linearGradient>
<linearGradient id="paint2_linear_2330_59" x1="72.1443" y1="3.98018" x2="76.6196" y2="61.7457" gradientUnits="userSpaceOnUse">
<stop offset="0.192308" stop-color="#F1AD24"/>
<stop offset="0.639423" stop-color="#F17B23"/>
</linearGradient>
<linearGradient id="paint3_linear_2330_59" x1="72.1443" y1="3.98018" x2="76.6196" y2="61.7457" gradientUnits="userSpaceOnUse">
<stop stop-color="#FFDA09"/>
<stop offset="1" stop-opacity="0"/>
</linearGradient>
<linearGradient id="paint4_linear_2330_59" x1="15.4064" y1="74.0235" x2="72.0868" y2="72.3565" gradientUnits="userSpaceOnUse">
<stop offset="0.192308" stop-color="#F1AD24"/>
<stop offset="0.639423" stop-color="#F17B23"/>
</linearGradient>
<linearGradient id="paint5_linear_2330_59" x1="15.4064" y1="74.0235" x2="72.0868" y2="72.3565" gradientUnits="userSpaceOnUse">
<stop stop-color="#FFDA09"/>
<stop offset="1" stop-opacity="0"/>
</linearGradient>
<linearGradient id="paint6_linear_2330_59" x1="108.438" y1="29.2402" x2="79.4655" y2="80.1403" gradientUnits="userSpaceOnUse">
<stop offset="0.192308" stop-color="#F1AD24"/>
<stop offset="0.639423" stop-color="#F17B23"/>
</linearGradient>
<linearGradient id="paint7_linear_2330_59" x1="108.438" y1="29.2402" x2="79.4655" y2="80.1403" gradientUnits="userSpaceOnUse">
<stop stop-color="#FFDA09"/>
<stop offset="1" stop-opacity="0"/>
</linearGradient>
<linearGradient id="paint8_linear_2330_59" x1="100.393" y1="10.3679" x2="61.2393" y2="84.4098" gradientUnits="userSpaceOnUse">
<stop offset="0.192308" stop-color="#F1AD24"/>
<stop offset="0.639423" stop-color="#F17B23"/>
</linearGradient>
<linearGradient id="paint9_linear_2330_59" x1="100.393" y1="10.3679" x2="61.2393" y2="84.4098" gradientUnits="userSpaceOnUse">
<stop stop-color="#FFDA09"/>
<stop offset="1" stop-opacity="0"/>
</linearGradient>
<linearGradient id="paint10_linear_2330_59" x1="35.8918" y1="11.2354" x2="64.0645" y2="77.4901" gradientUnits="userSpaceOnUse">
<stop offset="0.192308" stop-color="#F1AD24"/>
<stop offset="0.639423" stop-color="#F17B23"/>
</linearGradient>
<linearGradient id="paint11_linear_2330_59" x1="35.8918" y1="11.2354" x2="64.0645" y2="77.4901" gradientUnits="userSpaceOnUse">
<stop stop-color="#FFDA09"/>
<stop offset="1" stop-opacity="0"/>
</linearGradient>
<linearGradient id="paint12_linear_2330_59" x1="13.6837" y1="31.3874" x2="66.2811" y2="72.7933" gradientUnits="userSpaceOnUse">
<stop offset="0.192308" stop-color="#F1AD24"/>
<stop offset="0.639423" stop-color="#F17B23"/>
</linearGradient>
<linearGradient id="paint13_linear_2330_59" x1="13.6837" y1="31.3874" x2="66.2811" y2="72.7933" gradientUnits="userSpaceOnUse">
<stop stop-color="#FFDA09"/>
<stop offset="1" stop-opacity="0"/>
</linearGradient>
<linearGradient id="paint14_linear_2330_59" x1="4.06553" y1="54.1917" x2="83.8891" y2="67.8632" gradientUnits="userSpaceOnUse">
<stop offset="0.192308" stop-color="#F1AD24"/>
<stop offset="0.639423" stop-color="#F17B23"/>
</linearGradient>
<linearGradient id="paint15_linear_2330_59" x1="4.06553" y1="54.1917" x2="83.8891" y2="67.8632" gradientUnits="userSpaceOnUse">
<stop stop-color="#FFDA09"/>
<stop offset="1" stop-opacity="0"/>
</linearGradient>
<linearGradient id="paint16_linear_2330_59" x1="89.4137" y1="8.72141" x2="70.2896" y2="83.6348" gradientUnits="userSpaceOnUse">
<stop offset="0.192308" stop-color="#F1AD24"/>
<stop offset="0.639423" stop-color="#F17B23"/>
</linearGradient>
<linearGradient id="paint17_linear_2330_59" x1="89.4137" y1="8.72141" x2="70.2896" y2="83.6348" gradientUnits="userSpaceOnUse">
<stop stop-color="#FFDA09"/>
<stop offset="1" stop-opacity="0"/>
</linearGradient>
<linearGradient id="paint18_linear_2330_59" x1="38.8254" y1="19.2276" x2="74.9641" y2="75.4544" gradientUnits="userSpaceOnUse">
<stop offset="0.192308" stop-color="#F1AD24"/>
<stop offset="0.639423" stop-color="#F17B23"/>
</linearGradient>
<linearGradient id="paint19_linear_2330_59" x1="38.8254" y1="19.2276" x2="74.9641" y2="75.4544" gradientUnits="userSpaceOnUse">
<stop stop-color="#FFDA09"/>
<stop offset="1" stop-opacity="0"/>
</linearGradient>
</defs>
</svg>
