<svg width="230" height="150" viewBox="0 0 230 150" fill="none" xmlns="http://www.w3.org/2000/svg">
<g opacity="0.97" filter="url(#filter0_d_2330_60)">
<path d="M63.204 128.897C63.0659 128.393 62.9018 126.249 68.8048 122.131C74.744 117.989 85.2315 113.241 99.3078 110.175C113.384 107.109 125.145 107.01 132.558 108.244C139.925 109.471 140.888 111.441 141.026 111.945C141.164 112.449 141.329 114.593 135.425 118.71C129.486 122.853 118.999 127.601 104.922 130.667C90.846 133.733 79.0848 133.832 71.6724 132.597C64.3051 131.37 63.342 129.4 63.204 128.897Z" fill="url(#paint0_linear_2330_60)"/>
<path d="M63.204 128.897C63.0659 128.393 62.9018 126.249 68.8048 122.131C74.744 117.989 85.2315 113.241 99.3078 110.175C113.384 107.109 125.145 107.01 132.558 108.244C139.925 109.471 140.888 111.441 141.026 111.945C141.164 112.449 141.329 114.593 135.425 118.71C129.486 122.853 118.999 127.601 104.922 130.667C90.846 133.733 79.0848 133.832 71.6724 132.597C64.3051 131.37 63.342 129.4 63.204 128.897Z" fill="url(#paint1_linear_2330_60)" fill-opacity="0.2"/>
</g>
<g opacity="0.93" filter="url(#filter1_d_2330_60)">
<path d="M193.561 21.2837C194.749 22.3118 199.115 27.0147 197.383 40.8694C195.64 54.8092 187.653 73.6397 170.61 91.4662C153.568 109.293 134.619 118.638 120.197 121.607C105.862 124.558 100.529 120.867 99.3405 119.839C98.1523 118.811 93.7855 114.108 95.5179 100.253C97.261 86.3135 105.248 67.483 122.291 49.6565C139.333 31.8301 158.282 22.4845 172.704 19.5155C187.038 16.5647 192.372 20.2556 193.561 21.2837Z" fill="url(#paint2_linear_2330_60)"/>
<path d="M193.561 21.2837C194.749 22.3118 199.115 27.0147 197.383 40.8694C195.64 54.8092 187.653 73.6397 170.61 91.4662C153.568 109.293 134.619 118.638 120.197 121.607C105.862 124.558 100.529 120.867 99.3405 119.839C98.1523 118.811 93.7855 114.108 95.5179 100.253C97.261 86.3135 105.248 67.483 122.291 49.6565C139.333 31.8301 158.282 22.4845 172.704 19.5155C187.038 16.5647 192.372 20.2556 193.561 21.2837Z" fill="url(#paint3_linear_2330_60)" fill-opacity="0.2"/>
</g>
<g opacity="0.98" filter="url(#filter2_d_2330_60)">
<path d="M90.4019 21.2781C92.3603 20.57 100.524 18.2072 113.725 23.2155C127.006 28.2548 140.76 39.6811 146.733 58.2724C152.706 76.8638 148.392 94.8225 140.776 107.418C133.206 119.936 125.381 123.354 123.423 124.062C121.465 124.77 113.301 127.133 100.1 122.125C86.8187 117.085 73.0648 105.659 67.092 87.0678C61.1194 68.4764 65.4328 50.5176 73.0488 37.9225C80.6187 25.4043 88.4435 21.9862 90.4019 21.2781Z" fill="url(#paint4_linear_2330_60)"/>
<path d="M90.4019 21.2781C92.3603 20.57 100.524 18.2072 113.725 23.2155C127.006 28.2548 140.76 39.6811 146.733 58.2724C152.706 76.8638 148.392 94.8225 140.776 107.418C133.206 119.936 125.381 123.354 123.423 124.062C121.465 124.77 113.301 127.133 100.1 122.125C86.8187 117.085 73.0648 105.659 67.092 87.0678C61.1194 68.4764 65.4328 50.5176 73.0488 37.9225C80.6187 25.4043 88.4435 21.9862 90.4019 21.2781Z" fill="url(#paint5_linear_2330_60)" fill-opacity="0.2"/>
</g>
<g filter="url(#filter3_d_2330_60)">
<path d="M6.83995 84.1188C7.10598 82.3116 8.86397 75.0283 21.4355 67.0049C34.0841 58.9324 54.0234 53.2117 77.7009 56.5213C101.379 59.831 118.863 70.7829 128.673 81.9947C138.424 93.1385 138.009 100.609 137.743 102.417C137.477 104.224 135.72 111.507 123.148 119.531C110.499 127.603 90.5599 133.324 66.8823 130.014C43.2049 126.704 25.7199 115.753 15.91 104.541C6.15996 93.3972 6.57392 85.926 6.83995 84.1188Z" fill="url(#paint6_linear_2330_60)"/>
<path d="M6.83995 84.1188C7.10598 82.3116 8.86397 75.0283 21.4355 67.0049C34.0841 58.9324 54.0234 53.2117 77.7009 56.5213C101.379 59.831 118.863 70.7829 128.673 81.9947C138.424 93.1385 138.009 100.609 137.743 102.417C137.477 104.224 135.72 111.507 123.148 119.531C110.499 127.603 90.5599 133.324 66.8823 130.014C43.2049 126.704 25.7199 115.753 15.91 104.541C6.15996 93.3972 6.57392 85.926 6.83995 84.1188Z" fill="url(#paint7_linear_2330_60)" fill-opacity="0.2"/>
</g>
<g opacity="0.96" filter="url(#filter4_d_2330_60)">
<path d="M22.3804 65.0348C22.7019 63.571 24.5132 57.7013 34.5035 51.6951C44.5551 45.6522 59.9295 41.8444 77.507 45.5703C95.0846 49.2962 107.493 58.9931 114.114 68.5701C120.695 78.0891 119.881 84.1701 119.559 85.6339C119.238 87.0977 117.427 92.9673 107.436 98.9736C97.3846 105.017 82.0103 108.824 64.4327 105.098C46.8553 101.372 34.4469 91.6756 27.8259 82.0986C21.2454 72.5798 22.0589 66.4986 22.3804 65.0348Z" fill="url(#paint8_linear_2330_60)"/>
<path d="M22.3804 65.0348C22.7019 63.571 24.5132 57.7013 34.5035 51.6951C44.5551 45.6522 59.9295 41.8444 77.507 45.5703C95.0846 49.2962 107.493 58.9931 114.114 68.5701C120.695 78.0891 119.881 84.1701 119.559 85.6339C119.238 87.0977 117.427 92.9673 107.436 98.9736C97.3846 105.017 82.0103 108.824 64.4327 105.098C46.8553 101.372 34.4469 91.6756 27.8259 82.0986C21.2454 72.5798 22.0589 66.4986 22.3804 65.0348Z" fill="url(#paint9_linear_2330_60)" fill-opacity="0.2"/>
</g>
<g opacity="0.98" filter="url(#filter5_d_2330_60)">
<path d="M171.233 17.6182C172.235 18.4846 176.023 22.3502 176.359 32.401C176.698 42.5134 172.978 55.6577 162.427 67.2325C151.876 78.8074 138.919 83.9579 128.573 84.8244C118.289 85.6856 113.903 82.477 112.901 81.6106C111.9 80.7441 108.112 76.8788 107.775 66.8277C107.437 56.7153 111.156 43.571 121.707 31.9962C132.258 20.4214 145.216 15.2708 155.562 14.4043C165.845 13.5432 170.232 16.7517 171.233 17.6182Z" fill="url(#paint10_linear_2330_60)"/>
<path d="M171.233 17.6182C172.235 18.4846 176.023 22.3502 176.359 32.401C176.698 42.5134 172.978 55.6577 162.427 67.2325C151.876 78.8074 138.919 83.9579 128.573 84.8244C118.289 85.6856 113.903 82.477 112.901 81.6106C111.9 80.7441 108.112 76.8788 107.775 66.8277C107.437 56.7153 111.156 43.571 121.707 31.9962C132.258 20.4214 145.216 15.2708 155.562 14.4043C165.845 13.5432 170.232 16.7517 171.233 17.6182Z" fill="url(#paint11_linear_2330_60)" fill-opacity="0.2"/>
</g>
<g filter="url(#filter6_d_2330_60)">
<path d="M78.6205 80.6885C78.3468 79.7138 77.5729 75.6327 81.8244 68.7675C86.102 61.8602 94.4008 54.5199 106.499 50.9211C118.598 47.3223 129.422 48.9744 136.62 52.4682C143.774 55.9408 145.235 59.8175 145.508 60.7923C145.782 61.767 146.556 65.8479 142.304 72.7133C138.027 79.6206 129.728 86.9609 117.629 90.5597C105.531 94.1584 94.7071 92.5063 87.509 89.0126C80.3548 85.54 78.8942 81.6632 78.6205 80.6885Z" fill="url(#paint12_linear_2330_60)"/>
<path d="M78.6205 80.6885C78.3468 79.7138 77.5729 75.6327 81.8244 68.7675C86.102 61.8602 94.4008 54.5199 106.499 50.9211C118.598 47.3223 129.422 48.9744 136.62 52.4682C143.774 55.9408 145.235 59.8175 145.508 60.7923C145.782 61.767 146.556 65.8479 142.304 72.7133C138.027 79.6206 129.728 86.9609 117.629 90.5597C105.531 94.1584 94.7071 92.5063 87.509 89.0126C80.3548 85.54 78.8942 81.6632 78.6205 80.6885Z" fill="url(#paint13_linear_2330_60)" fill-opacity="0.2"/>
</g>
<g opacity="0.97" filter="url(#filter7_d_2330_60)">
<path d="M7.03495 119.486C6.68897 118.016 6.01087 111.872 16.3701 101.686C26.7931 91.4381 45.6416 80.6491 71.5111 75.5764C97.3807 70.5038 119.421 73.2752 133.536 78.7117C147.565 84.1153 149.711 89.9715 150.057 91.4414C150.403 92.9113 151.081 99.0552 140.722 109.241C130.299 119.489 111.45 130.278 85.5808 135.351C59.7114 140.423 37.671 137.652 23.5562 132.215C9.52748 126.812 7.38092 120.956 7.03495 119.486Z" fill="url(#paint14_linear_2330_60)"/>
<path d="M7.03495 119.486C6.68897 118.016 6.01087 111.872 16.3701 101.686C26.7931 91.4381 45.6416 80.6491 71.5111 75.5764C97.3807 70.5038 119.421 73.2752 133.536 78.7117C147.565 84.1153 149.711 89.9715 150.057 91.4414C150.403 92.9113 151.081 99.0552 140.722 109.241C130.299 119.489 111.45 130.278 85.5808 135.351C59.7114 140.423 37.671 137.652 23.5562 132.215C9.52748 126.812 7.38092 120.956 7.03495 119.486Z" fill="url(#paint15_linear_2330_60)" fill-opacity="0.2"/>
</g>
<g opacity="0.98" filter="url(#filter8_d_2330_60)">
<path d="M210.429 39.3018C211.392 40.5554 214.828 46.0215 211.739 58.4631C208.63 70.9809 199.334 86.4775 181.952 98.7693C164.57 111.061 146.394 114.993 133.015 114.134C119.718 113.28 115.296 108.512 114.333 107.258C113.371 106.005 109.935 100.539 113.024 88.0968C116.132 75.579 125.429 60.0825 142.811 47.7906C160.193 35.4989 178.369 31.5673 191.748 32.4261C205.045 33.2799 209.467 38.0483 210.429 39.3018Z" fill="url(#paint16_linear_2330_60)"/>
<path d="M210.429 39.3018C211.392 40.5554 214.828 46.0215 211.739 58.4631C208.63 70.9809 199.334 86.4775 181.952 98.7693C164.57 111.061 146.394 114.993 133.015 114.134C119.718 113.28 115.296 108.512 114.333 107.258C113.371 106.005 109.935 100.539 113.024 88.0968C116.132 75.579 125.429 60.0825 142.811 47.7906C160.193 35.4989 178.369 31.5673 191.748 32.4261C205.045 33.2799 209.467 38.0483 210.429 39.3018Z" fill="url(#paint17_linear_2330_60)" fill-opacity="0.2"/>
</g>
<g opacity="0.98" filter="url(#filter9_d_2330_60)">
<path d="M43.5152 117.38C43.2187 116.048 42.4516 110.524 48.235 102.037C54.0541 93.4971 65.0188 84.9658 80.6233 81.9461C96.2278 78.9264 109.927 82.685 118.909 88.3603C127.837 94.0012 129.49 99.3534 129.786 100.686C130.082 102.018 130.85 107.541 125.066 116.029C119.247 124.569 108.282 133.1 92.6779 136.12C77.0734 139.139 63.374 135.381 54.3919 129.705C45.4645 124.064 43.8116 118.712 43.5152 117.38Z" fill="url(#paint18_linear_2330_60)"/>
<path d="M43.5152 117.38C43.2187 116.048 42.4516 110.524 48.235 102.037C54.0541 93.4971 65.0188 84.9658 80.6233 81.9461C96.2278 78.9264 109.927 82.685 118.909 88.3603C127.837 94.0012 129.49 99.3534 129.786 100.686C130.082 102.018 130.85 107.541 125.066 116.029C119.247 124.569 108.282 133.1 92.6779 136.12C77.0734 139.139 63.374 135.381 54.3919 129.705C45.4645 124.064 43.8116 118.712 43.5152 117.38Z" fill="url(#paint19_linear_2330_60)" fill-opacity="0.2"/>
</g>
<g opacity="0.98" filter="url(#filter10_d_2330_60)">
<path d="M191.234 50.324C192.302 51.2022 196.379 55.1132 197.342 65.1834C198.311 75.3154 195.356 88.442 185.382 99.9258C175.408 111.41 162.599 116.434 152.17 117.195C141.804 117.951 137.161 114.691 136.093 113.813C135.025 112.935 130.948 109.024 129.985 98.9537C129.016 88.8217 131.971 75.6952 141.945 64.2113C151.919 52.7276 164.728 47.7032 175.157 46.9425C185.523 46.1867 190.166 49.4458 191.234 50.324Z" fill="url(#paint20_linear_2330_60)"/>
<path d="M191.234 50.324C192.302 51.2022 196.379 55.1132 197.342 65.1834C198.311 75.3154 195.356 88.442 185.382 99.9258C175.408 111.41 162.599 116.434 152.17 117.195C141.804 117.951 137.161 114.691 136.093 113.813C135.025 112.935 130.948 109.024 129.985 98.9537C129.016 88.8217 131.971 75.6952 141.945 64.2113C151.919 52.7276 164.728 47.7032 175.157 46.9425C185.523 46.1867 190.166 49.4458 191.234 50.324Z" fill="url(#paint21_linear_2330_60)" fill-opacity="0.2"/>
</g>
<g opacity="0.98" filter="url(#filter11_d_2330_60)">
<path d="M112.14 71.5839C114.161 70.7229 122.527 67.5105 135.142 67.9615C147.834 68.4154 160.336 72.8549 164.358 83.4975C168.38 94.1403 162.234 106.522 153.356 116.163C144.533 125.746 136.396 129.562 134.375 130.423C132.353 131.284 123.988 134.497 111.373 134.045C98.681 133.592 86.1786 129.152 82.1568 118.509C78.1352 107.867 84.2809 95.4845 93.1581 85.8436C101.981 76.2614 110.119 72.4448 112.14 71.5839Z" fill="url(#paint22_linear_2330_60)"/>
<path d="M112.14 71.5839C114.161 70.7229 122.527 67.5105 135.142 67.9615C147.834 68.4154 160.336 72.8549 164.358 83.4975C168.38 94.1403 162.234 106.522 153.356 116.163C144.533 125.746 136.396 129.562 134.375 130.423C132.353 131.284 123.988 134.497 111.373 134.045C98.681 133.592 86.1786 129.152 82.1568 118.509C78.1352 107.867 84.2809 95.4845 93.1581 85.8436C101.981 76.2614 110.119 72.4448 112.14 71.5839Z" fill="url(#paint23_linear_2330_60)" fill-opacity="0.2"/>
</g>
<defs>
<filter id="filter0_d_2330_60" x="59.1606" y="104.504" width="85.9089" height="33.834" filterUnits="userSpaceOnUse" color-interpolation-filters="sRGB">
<feFlood flood-opacity="0" result="BackgroundImageFix"/>
<feColorMatrix in="SourceAlpha" type="matrix" values="0 0 0 0 0 0 0 0 0 0 0 0 0 0 0 0 0 0 127 0" result="hardAlpha"/>
<feOffset dy="1"/>
<feGaussianBlur stdDeviation="2"/>
<feComposite in2="hardAlpha" operator="out"/>
<feColorMatrix type="matrix" values="0 0 0 0 0 0 0 0 0 0 0 0 0 0 0 0 0 0 0.25 0"/>
<feBlend mode="normal" in2="BackgroundImageFix" result="effect1_dropShadow_2330_60"/>
<feBlend mode="normal" in="SourceGraphic" in2="effect1_dropShadow_2330_60" result="shape"/>
</filter>
<filter id="filter1_d_2330_60" x="91.1167" y="15.3945" width="110.668" height="112.334" filterUnits="userSpaceOnUse" color-interpolation-filters="sRGB">
<feFlood flood-opacity="0" result="BackgroundImageFix"/>
<feColorMatrix in="SourceAlpha" type="matrix" values="0 0 0 0 0 0 0 0 0 0 0 0 0 0 0 0 0 0 127 0" result="hardAlpha"/>
<feOffset dy="1"/>
<feGaussianBlur stdDeviation="2"/>
<feComposite in2="hardAlpha" operator="out"/>
<feColorMatrix type="matrix" values="0 0 0 0 0 0 0 0 0 0 0 0 0 0 0 0 0 0 0.25 0"/>
<feBlend mode="normal" in2="BackgroundImageFix" result="effect1_dropShadow_2330_60"/>
<feBlend mode="normal" in="SourceGraphic" in2="effect1_dropShadow_2330_60" result="shape"/>
</filter>
<filter id="filter2_d_2330_60" x="60.2883" y="17.0996" width="93.2483" height="113.141" filterUnits="userSpaceOnUse" color-interpolation-filters="sRGB">
<feFlood flood-opacity="0" result="BackgroundImageFix"/>
<feColorMatrix in="SourceAlpha" type="matrix" values="0 0 0 0 0 0 0 0 0 0 0 0 0 0 0 0 0 0 127 0" result="hardAlpha"/>
<feOffset dy="1"/>
<feGaussianBlur stdDeviation="2"/>
<feComposite in2="hardAlpha" operator="out"/>
<feColorMatrix type="matrix" values="0 0 0 0 0 0 0 0 0 0 0 0 0 0 0 0 0 0 0.25 0"/>
<feBlend mode="normal" in2="BackgroundImageFix" result="effect1_dropShadow_2330_60"/>
<feBlend mode="normal" in="SourceGraphic" in2="effect1_dropShadow_2330_60" result="shape"/>
</filter>
<filter id="filter3_d_2330_60" x="2.74194" y="52.5664" width="139.099" height="83.4043" filterUnits="userSpaceOnUse" color-interpolation-filters="sRGB">
<feFlood flood-opacity="0" result="BackgroundImageFix"/>
<feColorMatrix in="SourceAlpha" type="matrix" values="0 0 0 0 0 0 0 0 0 0 0 0 0 0 0 0 0 0 127 0" result="hardAlpha"/>
<feOffset dy="1"/>
<feGaussianBlur stdDeviation="2"/>
<feComposite in2="hardAlpha" operator="out"/>
<feColorMatrix type="matrix" values="0 0 0 0 0 0 0 0 0 0 0 0 0 0 0 0 0 0 0.25 0"/>
<feBlend mode="normal" in2="BackgroundImageFix" result="effect1_dropShadow_2330_60"/>
<feBlend mode="normal" in="SourceGraphic" in2="effect1_dropShadow_2330_60" result="shape"/>
</filter>
<filter id="filter4_d_2330_60" x="18.1675" y="41.0957" width="105.605" height="70.4785" filterUnits="userSpaceOnUse" color-interpolation-filters="sRGB">
<feFlood flood-opacity="0" result="BackgroundImageFix"/>
<feColorMatrix in="SourceAlpha" type="matrix" values="0 0 0 0 0 0 0 0 0 0 0 0 0 0 0 0 0 0 127 0" result="hardAlpha"/>
<feOffset dy="1"/>
<feGaussianBlur stdDeviation="2"/>
<feComposite in2="hardAlpha" operator="out"/>
<feColorMatrix type="matrix" values="0 0 0 0 0 0 0 0 0 0 0 0 0 0 0 0 0 0 0.25 0"/>
<feBlend mode="normal" in2="BackgroundImageFix" result="effect1_dropShadow_2330_60"/>
<feBlend mode="normal" in="SourceGraphic" in2="effect1_dropShadow_2330_60" result="shape"/>
</filter>
<filter id="filter5_d_2330_60" x="103.754" y="11.2598" width="76.626" height="78.7109" filterUnits="userSpaceOnUse" color-interpolation-filters="sRGB">
<feFlood flood-opacity="0" result="BackgroundImageFix"/>
<feColorMatrix in="SourceAlpha" type="matrix" values="0 0 0 0 0 0 0 0 0 0 0 0 0 0 0 0 0 0 127 0" result="hardAlpha"/>
<feOffset dy="1"/>
<feGaussianBlur stdDeviation="2"/>
<feComposite in2="hardAlpha" operator="out"/>
<feColorMatrix type="matrix" values="0 0 0 0 0 0 0 0 0 0 0 0 0 0 0 0 0 0 0.25 0"/>
<feBlend mode="normal" in2="BackgroundImageFix" result="effect1_dropShadow_2330_60"/>
<feBlend mode="normal" in="SourceGraphic" in2="effect1_dropShadow_2330_60" result="shape"/>
</filter>
<filter id="filter6_d_2330_60" x="74.3848" y="44.9043" width="75.3594" height="51.6719" filterUnits="userSpaceOnUse" color-interpolation-filters="sRGB">
<feFlood flood-opacity="0" result="BackgroundImageFix"/>
<feColorMatrix in="SourceAlpha" type="matrix" values="0 0 0 0 0 0 0 0 0 0 0 0 0 0 0 0 0 0 127 0" result="hardAlpha"/>
<feOffset/>
<feGaussianBlur stdDeviation="2"/>
<feComposite in2="hardAlpha" operator="out"/>
<feColorMatrix type="matrix" values="0 0 0 0 0 0 0 0 0 0 0 0 0 0 0 0 0 0 0.25 0"/>
<feBlend mode="normal" in2="BackgroundImageFix" result="effect1_dropShadow_2330_60"/>
<feBlend mode="normal" in="SourceGraphic" in2="effect1_dropShadow_2330_60" result="shape"/>
</filter>
<filter id="filter7_d_2330_60" x="2.87817" y="69.9043" width="151.335" height="73.1172" filterUnits="userSpaceOnUse" color-interpolation-filters="sRGB">
<feFlood flood-opacity="0" result="BackgroundImageFix"/>
<feColorMatrix in="SourceAlpha" type="matrix" values="0 0 0 0 0 0 0 0 0 0 0 0 0 0 0 0 0 0 127 0" result="hardAlpha"/>
<feOffset dy="1"/>
<feGaussianBlur stdDeviation="2"/>
<feComposite in2="hardAlpha" operator="out"/>
<feColorMatrix type="matrix" values="0 0 0 0 0 0 0 0 0 0 0 0 0 0 0 0 0 0 0.25 0"/>
<feBlend mode="normal" in2="BackgroundImageFix" result="effect1_dropShadow_2330_60"/>
<feBlend mode="normal" in="SourceGraphic" in2="effect1_dropShadow_2330_60" result="shape"/>
</filter>
<filter id="filter8_d_2330_60" x="107.763" y="29.3125" width="109.237" height="89.9336" filterUnits="userSpaceOnUse" color-interpolation-filters="sRGB">
<feFlood flood-opacity="0" result="BackgroundImageFix"/>
<feColorMatrix in="SourceAlpha" type="matrix" values="0 0 0 0 0 0 0 0 0 0 0 0 0 0 0 0 0 0 127 0" result="hardAlpha"/>
<feOffset dy="1"/>
<feGaussianBlur stdDeviation="2"/>
<feComposite in2="hardAlpha" operator="out"/>
<feColorMatrix type="matrix" values="0 0 0 0 0 0 0 0 0 0 0 0 0 0 0 0 0 0 0.2 0"/>
<feBlend mode="normal" in2="BackgroundImageFix" result="effect1_dropShadow_2330_60"/>
<feBlend mode="normal" in="SourceGraphic" in2="effect1_dropShadow_2330_60" result="shape"/>
</filter>
<filter id="filter9_d_2330_60" x="39.3096" y="77.875" width="94.6821" height="64.3145" filterUnits="userSpaceOnUse" color-interpolation-filters="sRGB">
<feFlood flood-opacity="0" result="BackgroundImageFix"/>
<feColorMatrix in="SourceAlpha" type="matrix" values="0 0 0 0 0 0 0 0 0 0 0 0 0 0 0 0 0 0 127 0" result="hardAlpha"/>
<feOffset dy="1"/>
<feGaussianBlur stdDeviation="2"/>
<feComposite in2="hardAlpha" operator="out"/>
<feColorMatrix type="matrix" values="0 0 0 0 0 0 0 0 0 0 0 0 0 0 0 0 0 0 0.2 0"/>
<feBlend mode="normal" in2="BackgroundImageFix" result="effect1_dropShadow_2330_60"/>
<feBlend mode="normal" in="SourceGraphic" in2="effect1_dropShadow_2330_60" result="shape"/>
</filter>
<filter id="filter10_d_2330_60" x="125.811" y="43.8301" width="75.7053" height="78.4766" filterUnits="userSpaceOnUse" color-interpolation-filters="sRGB">
<feFlood flood-opacity="0" result="BackgroundImageFix"/>
<feColorMatrix in="SourceAlpha" type="matrix" values="0 0 0 0 0 0 0 0 0 0 0 0 0 0 0 0 0 0 127 0" result="hardAlpha"/>
<feOffset dy="1"/>
<feGaussianBlur stdDeviation="2"/>
<feComposite in2="hardAlpha" operator="out"/>
<feColorMatrix type="matrix" values="0 0 0 0 0 0 0 0 0 0 0 0 0 0 0 0 0 0 0.2 0"/>
<feBlend mode="normal" in2="BackgroundImageFix" result="effect1_dropShadow_2330_60"/>
<feBlend mode="normal" in="SourceGraphic" in2="effect1_dropShadow_2330_60" result="shape"/>
</filter>
<filter id="filter11_d_2330_60" x="76.8989" y="64.918" width="92.7168" height="74.1699" filterUnits="userSpaceOnUse" color-interpolation-filters="sRGB">
<feFlood flood-opacity="0" result="BackgroundImageFix"/>
<feColorMatrix in="SourceAlpha" type="matrix" values="0 0 0 0 0 0 0 0 0 0 0 0 0 0 0 0 0 0 127 0" result="hardAlpha"/>
<feOffset dy="1"/>
<feGaussianBlur stdDeviation="2"/>
<feComposite in2="hardAlpha" operator="out"/>
<feColorMatrix type="matrix" values="0 0 0 0 0 0 0 0 0 0 0 0 0 0 0 0 0 0 0.2 0"/>
<feBlend mode="normal" in2="BackgroundImageFix" result="effect1_dropShadow_2330_60"/>
<feBlend mode="normal" in="SourceGraphic" in2="effect1_dropShadow_2330_60" result="shape"/>
</filter>
<linearGradient id="paint0_linear_2330_60" x1="63.204" y1="128.897" x2="139.912" y2="107.88" gradientUnits="userSpaceOnUse">
<stop offset="0.192308" stop-color="#F1AD24"/>
<stop offset="1" stop-color="#F17B23"/>
</linearGradient>
<linearGradient id="paint1_linear_2330_60" x1="63.204" y1="128.897" x2="139.912" y2="107.88" gradientUnits="userSpaceOnUse">
<stop stop-color="#FFDA09"/>
<stop offset="1" stop-opacity="0"/>
</linearGradient>
<linearGradient id="paint2_linear_2330_60" x1="193.561" y1="21.2837" x2="104.454" y2="124.264" gradientUnits="userSpaceOnUse">
<stop offset="0.192308" stop-color="#F1AD24"/>
<stop offset="1" stop-color="#F17B23"/>
</linearGradient>
<linearGradient id="paint3_linear_2330_60" x1="193.561" y1="21.2837" x2="104.454" y2="124.264" gradientUnits="userSpaceOnUse">
<stop stop-color="#FFDA09"/>
<stop offset="1" stop-opacity="0"/>
</linearGradient>
<linearGradient id="paint4_linear_2330_60" x1="90.4019" y1="21.2781" x2="127.086" y2="122.738" gradientUnits="userSpaceOnUse">
<stop offset="0.192308" stop-color="#F1AD24"/>
<stop offset="1" stop-color="#F17B23"/>
</linearGradient>
<linearGradient id="paint5_linear_2330_60" x1="90.4019" y1="21.2781" x2="127.086" y2="122.738" gradientUnits="userSpaceOnUse">
<stop stop-color="#FFDA09"/>
<stop offset="1" stop-opacity="0"/>
</linearGradient>
<linearGradient id="paint6_linear_2330_60" x1="6.83995" y1="84.1188" x2="137.603" y2="103.368" gradientUnits="userSpaceOnUse">
<stop offset="0.192308" stop-color="#F1AD24"/>
<stop offset="1" stop-color="#F17B23"/>
</linearGradient>
<linearGradient id="paint7_linear_2330_60" x1="6.83995" y1="84.1188" x2="137.603" y2="103.368" gradientUnits="userSpaceOnUse">
<stop stop-color="#FFDA09"/>
<stop offset="1" stop-opacity="0"/>
</linearGradient>
<linearGradient id="paint8_linear_2330_60" x1="22.3804" y1="65.0348" x2="119.403" y2="86.3442" gradientUnits="userSpaceOnUse">
<stop offset="0.192308" stop-color="#F1AD24"/>
<stop offset="1" stop-color="#F17B23"/>
</linearGradient>
<linearGradient id="paint9_linear_2330_60" x1="22.3804" y1="65.0348" x2="119.403" y2="86.3442" gradientUnits="userSpaceOnUse">
<stop stop-color="#FFDA09"/>
<stop offset="1" stop-opacity="0"/>
</linearGradient>
<linearGradient id="paint10_linear_2330_60" x1="171.233" y1="17.6182" x2="114.592" y2="83.0739" gradientUnits="userSpaceOnUse">
<stop offset="0.192308" stop-color="#F1AD24"/>
<stop offset="1" stop-color="#F17B23"/>
</linearGradient>
<linearGradient id="paint11_linear_2330_60" x1="171.233" y1="17.6182" x2="114.592" y2="83.0739" gradientUnits="userSpaceOnUse">
<stop stop-color="#FFDA09"/>
<stop offset="1" stop-opacity="0"/>
</linearGradient>
<linearGradient id="paint12_linear_2330_60" x1="117.629" y1="90.5597" x2="105.892" y2="51.1016" gradientUnits="userSpaceOnUse">
<stop stop-color="#F7DD90"/>
<stop offset="1" stop-color="#FAEE02"/>
</linearGradient>
<linearGradient id="paint13_linear_2330_60" x1="117.629" y1="90.5597" x2="110.9" y2="65.4572" gradientUnits="userSpaceOnUse">
<stop stop-color="white" stop-opacity="0.8"/>
<stop offset="1" stop-color="white" stop-opacity="0"/>
</linearGradient>
<linearGradient id="paint14_linear_2330_60" x1="7.03495" y1="119.486" x2="148.804" y2="86.1162" gradientUnits="userSpaceOnUse">
<stop offset="0.192308" stop-color="#F1AD24"/>
<stop offset="1" stop-color="#F17B23"/>
</linearGradient>
<linearGradient id="paint15_linear_2330_60" x1="7.03495" y1="119.486" x2="148.804" y2="86.1162" gradientUnits="userSpaceOnUse">
<stop stop-color="#FFDA09"/>
<stop offset="1" stop-opacity="0"/>
</linearGradient>
<linearGradient id="paint16_linear_2330_60" x1="210.429" y1="39.3018" x2="117.147" y2="110.923" gradientUnits="userSpaceOnUse">
<stop offset="0.192308" stop-color="#F1AD24"/>
<stop offset="1" stop-color="#F17B23"/>
</linearGradient>
<linearGradient id="paint17_linear_2330_60" x1="210.429" y1="39.3018" x2="117.147" y2="110.923" gradientUnits="userSpaceOnUse">
<stop stop-color="#FFDA09"/>
<stop offset="1" stop-opacity="0"/>
</linearGradient>
<linearGradient id="paint18_linear_2330_60" x1="43.5152" y1="117.38" x2="129.255" y2="98.3012" gradientUnits="userSpaceOnUse">
<stop offset="0.192308" stop-color="#F1AD24"/>
<stop offset="1" stop-color="#F17B23"/>
</linearGradient>
<linearGradient id="paint19_linear_2330_60" x1="43.5152" y1="117.38" x2="129.255" y2="98.3012" gradientUnits="userSpaceOnUse">
<stop stop-color="#FFDA09"/>
<stop offset="1" stop-opacity="0"/>
</linearGradient>
<linearGradient id="paint20_linear_2330_60" x1="191.234" y1="50.324" x2="137.847" y2="115.255" gradientUnits="userSpaceOnUse">
<stop offset="0.192308" stop-color="#F1AD24"/>
<stop offset="1" stop-color="#F17B23"/>
</linearGradient>
<linearGradient id="paint21_linear_2330_60" x1="191.234" y1="50.324" x2="137.847" y2="115.255" gradientUnits="userSpaceOnUse">
<stop stop-color="#FFDA09"/>
<stop offset="1" stop-opacity="0"/>
</linearGradient>
<linearGradient id="paint22_linear_2330_60" x1="112.14" y1="71.5839" x2="136.767" y2="129.404" gradientUnits="userSpaceOnUse">
<stop offset="0.192308" stop-color="#F1AD24"/>
<stop offset="1" stop-color="#F17B23"/>
</linearGradient>
<linearGradient id="paint23_linear_2330_60" x1="112.14" y1="71.5839" x2="136.767" y2="129.404" gradientUnits="userSpaceOnUse">
<stop stop-color="#FFDA09"/>
<stop offset="1" stop-opacity="0"/>
</linearGradient>
</defs>
</svg>
