<svg width="245" height="244" viewBox="0 0 245 244" fill="none" xmlns="http://www.w3.org/2000/svg">
<path d="M133.353 69.0015C133.392 68.9104 133.399 68.808 133.368 68.7156C133.337 68.6231 133.271 68.5483 133.185 68.5074C133.099 68.4665 132.999 68.4626 132.907 68.4963C132.814 68.5299 132.737 68.5987 132.69 68.686C132.69 68.686 132.69 68.686 132.69 68.686C132.228 69.5409 131.796 70.3822 131.378 71.2451C127.606 78.9992 125.471 87.6364 125.465 96.2449C125.466 104.831 127.409 113.424 131.647 120.698C132.125 121.498 132.644 122.288 133.196 123.022C133.254 123.098 133.339 123.15 133.434 123.165C133.53 123.179 133.628 123.154 133.708 123.096C133.787 123.038 133.843 122.951 133.862 122.853C133.881 122.755 133.862 122.656 133.811 122.574C133.811 122.574 133.811 122.574 133.811 122.574C133.344 121.816 132.907 121.006 132.508 120.191C128.974 112.779 127.452 104.456 127.447 96.1732C127.457 87.8672 129.162 79.5206 132.269 71.6219C132.614 70.7435 132.97 69.8817 133.353 69.0015Z" fill="#935713"/>
<path d="M138.926 140.914C138.366 140.009 137.821 139.118 137.28 138.23C132.368 130.175 127.737 122.235 123.398 114.138C119.113 106.03 114.908 97.8678 111.941 88.9187C111.626 87.9189 111.338 86.9222 111.11 85.8809C111.008 86.955 110.986 88.0253 111.011 89.1078C111.373 98.8858 114.56 108.254 119.019 116.661C123.531 125.09 129.531 132.568 136.551 138.863C137.326 139.556 138.114 140.236 138.926 140.914Z" fill="#096F1F"/>
<g filter="url(#filter0_d_2335_124)">
<path d="M130.759 108.665C131.609 109.588 137.58 112.249 149.03 110.687C151.401 110.364 159.099 111.385 179.457 95.3495C198.507 80.3447 198.163 71.6684 203.925 57.6576C208.328 46.9521 207.266 34.0587 206.834 36.8556C206.57 38.5686 213.599 31.1738 185.776 38.0944C167.38 42.6701 150.897 47.8894 142.987 59.6369C132.142 75.7434 133.972 68.6326 127.847 90.9919C124.815 102.061 127.121 104.714 130.759 108.665Z" fill="url(#paint0_linear_2335_124)"/>
<path d="M130.759 108.665C131.609 109.588 137.58 112.249 149.03 110.687C151.401 110.364 159.099 111.385 179.457 95.3495C198.507 80.3447 198.163 71.6684 203.925 57.6576C208.328 46.9521 207.266 34.0587 206.834 36.8556C206.57 38.5686 213.599 31.1738 185.776 38.0944C167.38 42.6701 150.897 47.8894 142.987 59.6369C132.142 75.7434 133.972 68.6326 127.847 90.9919C124.815 102.061 127.121 104.714 130.759 108.665Z" fill="url(#paint1_linear_2335_124)" fill-opacity="0.4"/>
</g>
<g filter="url(#filter1_d_2335_124)">
<path d="M111.899 109.674C112.767 108.77 115.215 102.474 113.549 90.5014C113.204 88.0225 114.06 79.942 98.4469 58.8582C83.8368 39.1293 75.5626 39.6226 62.1045 33.8004C51.8213 29.3517 39.5338 30.6609 42.2095 31.0707C43.8481 31.3217 36.684 24.0709 43.714 53.1144C48.3621 72.3172 53.5949 89.5065 64.9262 97.6139C80.462 108.73 73.6485 106.921 95.0788 112.996C105.688 116.004 108.185 113.547 111.899 109.674Z" fill="url(#paint2_linear_2335_124)"/>
<path d="M111.899 109.674C112.767 108.77 115.215 102.474 113.549 90.5014C113.204 88.0225 114.06 79.942 98.4469 58.8582C83.8368 39.1293 75.5626 39.6226 62.1045 33.8004C51.8213 29.3517 39.5338 30.6609 42.2095 31.0707C43.8481 31.3217 36.684 24.0709 43.714 53.1144C48.3621 72.3172 53.5949 89.5065 64.9262 97.6139C80.462 108.73 73.6485 106.921 95.0788 112.996C105.688 116.004 108.185 113.547 111.899 109.674Z" fill="url(#paint3_linear_2335_124)" fill-opacity="0.4"/>
</g>
<g filter="url(#filter2_d_2335_124)">
<path d="M137.61 122.814C138.031 124.018 142.468 128.979 153.545 132.395C155.838 133.102 162.487 137.293 187.292 131.239C210.502 125.573 213.532 117.49 224.203 107.11C232.356 99.1797 236.355 86.9354 234.882 89.3113C233.979 90.7664 243.26 86.9757 215.139 81.5338C196.547 77.9357 179.456 75.7356 167.692 83.1355C151.563 93.281 155.978 87.5504 141.757 105.413C134.717 114.256 135.804 117.66 137.61 122.814Z" fill="url(#paint4_linear_2335_124)"/>
<path d="M137.61 122.814C138.031 124.018 142.468 128.979 153.545 132.395C155.838 133.102 162.487 137.293 187.292 131.239C210.502 125.573 213.532 117.49 224.203 107.11C232.356 99.1797 236.355 86.9354 234.882 89.3113C233.979 90.7664 243.26 86.9757 215.139 81.5338C196.547 77.9357 179.456 75.7356 167.692 83.1355C151.563 93.281 155.978 87.5504 141.757 105.413C134.717 114.256 135.804 117.66 137.61 122.814Z" fill="url(#paint5_linear_2335_124)" fill-opacity="0.4"/>
</g>
<g filter="url(#filter3_d_2335_124)">
<path d="M115.614 134.216C114.538 134.826 110.491 140.14 108.857 152.117C108.518 154.597 105.516 162.094 114.802 186.944C123.491 210.197 131.56 212.175 142.897 221.748C151.56 229.062 163.699 231.448 161.243 230.262C159.739 229.535 164.654 238.613 165.75 208.672C166.475 188.876 166.095 170.838 157.414 159.703C145.513 144.438 151.56 148.191 132.644 136.014C123.28 129.986 120.222 131.602 115.614 134.216Z" fill="url(#paint6_linear_2335_124)"/>
<path d="M115.614 134.216C114.538 134.826 110.491 140.14 108.857 152.117C108.518 154.597 105.516 162.094 114.802 186.944C123.491 210.197 131.56 212.175 142.897 221.748C151.56 229.062 163.699 231.448 161.243 230.262C159.739 229.535 164.654 238.613 165.75 208.672C166.475 188.876 166.095 170.838 157.414 159.703C145.513 144.438 151.56 148.191 132.644 136.014C123.28 129.986 120.222 131.602 115.614 134.216Z" fill="url(#paint7_linear_2335_124)" fill-opacity="0.4"/>
</g>
<g filter="url(#filter4_d_2335_124)">
<path d="M107.597 130.504C106.958 129.41 101.679 125.459 90.1773 124.388C87.7959 124.166 80.4912 121.424 57.3039 132.464C35.6067 142.795 34.151 151.344 25.6325 163.716C19.1236 173.17 17.4972 185.999 18.4966 183.366C19.1086 181.754 10.7193 187.38 39.312 186.931C58.2166 186.634 75.387 185.275 85.5355 175.599C99.4496 162.333 96.1945 168.86 106.792 148.419C112.038 138.3 110.334 135.186 107.597 130.504Z" fill="url(#paint8_linear_2335_124)"/>
<path d="M107.597 130.504C106.958 129.41 101.679 125.459 90.1773 124.388C87.7959 124.166 80.4912 121.424 57.3039 132.464C35.6067 142.795 34.151 151.344 25.6325 163.716C19.1236 173.17 17.4972 185.999 18.4966 183.366C19.1086 181.754 10.7193 187.38 39.312 186.931C58.2166 186.634 75.387 185.275 85.5355 175.599C99.4496 162.333 96.1945 168.86 106.792 148.419C112.038 138.3 110.334 135.186 107.597 130.504Z" fill="url(#paint9_linear_2335_124)" fill-opacity="0.4"/>
</g>
<g filter="url(#filter5_d_2335_124)">
<path d="M124.56 111.205C125.784 111.19 131.726 108.46 138.492 98.6564C139.893 96.6265 145.88 91.4551 148.7 64.9325C151.338 40.1144 145.075 34.4276 139.292 20.4262C134.874 9.72786 125.189 1.6966 126.836 3.94391C127.845 5.32021 127.527 -5.11116 113.258 20.8549C103.823 38.0229 96.147 54.1736 98.8843 68.2617C102.637 87.5771 98.9523 81.3057 110.285 101.309C115.896 111.211 119.32 111.271 124.56 111.205Z" fill="url(#paint10_linear_2335_124)"/>
<path d="M124.56 111.205C125.784 111.19 131.726 108.46 138.492 98.6564C139.893 96.6265 145.88 91.4551 148.7 64.9325C151.338 40.1144 145.075 34.4276 139.292 20.4262C134.874 9.72786 125.189 1.6966 126.836 3.94391C127.845 5.32021 127.527 -5.11116 113.258 20.8549C103.823 38.0229 96.147 54.1736 98.8843 68.2617C102.637 87.5771 98.9523 81.3057 110.285 101.309C115.896 111.211 119.32 111.271 124.56 111.205Z" fill="url(#paint11_linear_2335_124)" fill-opacity="0.4"/>
</g>
<g filter="url(#filter6_d_2335_124)">
<path d="M131.325 131.416C130.862 132.603 130.951 139.401 136.939 149.746C138.179 151.888 140.397 159.678 162.62 172.716C183.415 184.915 190.851 181.081 205.41 180.944C216.535 180.84 227.363 174.615 224.747 175.331C223.144 175.769 232.439 179.519 215.159 155.646C203.734 139.861 192.519 126.17 179.068 123.333C160.626 119.443 167.573 118.325 145.578 121.486C134.689 123.05 133.304 126.332 131.325 131.416Z" fill="url(#paint12_linear_2335_124)"/>
<path d="M131.325 131.416C130.862 132.603 130.951 139.401 136.939 149.746C138.179 151.888 140.397 159.678 162.62 172.716C183.415 184.915 190.851 181.081 205.41 180.944C216.535 180.84 227.363 174.615 224.747 175.331C223.144 175.769 232.439 179.519 215.159 155.646C203.734 139.861 192.519 126.17 179.068 123.333C160.626 119.443 167.573 118.325 145.578 121.486C134.689 123.05 133.304 126.332 131.325 131.416Z" fill="url(#paint13_linear_2335_124)" fill-opacity="0.4"/>
</g>
<g filter="url(#filter7_d_2335_124)">
<path d="M106.691 121.36C106.786 120.082 104.721 113.636 96.0049 105.701C94.2002 104.058 89.8181 97.3486 64.8578 92.042C41.5016 87.0763 35.5377 93.1061 21.7129 97.8929C11.1495 101.55 2.65194 110.942 4.93495 109.424C6.33313 108.494 -3.61094 107.895 19.7997 125.102C35.2781 136.479 49.9462 145.929 63.5819 144.328C82.2772 142.133 75.9872 145.42 96.0116 135.376C105.925 130.403 106.287 126.834 106.691 121.36Z" fill="url(#paint14_linear_2335_124)"/>
<path d="M106.691 121.36C106.786 120.082 104.721 113.636 96.0049 105.701C94.2002 104.058 89.8181 97.3486 64.8578 92.042C41.5016 87.0763 35.5377 93.1061 21.7129 97.8929C11.1495 101.55 2.65194 110.942 4.93495 109.424C6.33313 108.494 -3.61094 107.895 19.7997 125.102C35.2781 136.479 49.9462 145.929 63.5819 144.328C82.2772 142.133 75.9872 145.42 96.0116 135.376C105.925 130.403 106.287 126.834 106.691 121.36Z" fill="url(#paint15_linear_2335_124)" fill-opacity="0.4"/>
</g>
<g filter="url(#filter8_d_2335_124)">
<path d="M115.17 128.453C113.981 128.15 107.578 129.252 98.7056 136.995C96.8686 138.598 89.8457 142.055 80.8456 167.02C72.4239 190.381 77.1482 197.515 79.4414 212.581C81.1937 224.093 88.6785 234.387 87.6142 231.782C86.9623 230.187 84.8047 240.376 104.767 218.921C117.965 204.736 129.219 191.08 129.896 176.721C130.825 157.033 132.913 164.066 126.661 141.745C123.566 130.695 120.262 129.748 115.17 128.453Z" fill="url(#paint16_linear_2335_124)"/>
<path d="M115.17 128.453C113.981 128.15 107.578 129.252 98.7056 136.995C96.8686 138.598 89.8457 142.055 80.8456 167.02C72.4239 190.381 77.1482 197.515 79.4414 212.581C81.1937 224.093 88.6785 234.387 87.6142 231.782C86.9623 230.187 84.8047 240.376 104.767 218.921C117.965 204.736 129.219 191.08 129.896 176.721C130.825 157.033 132.913 164.066 126.661 141.745C123.566 130.695 120.262 129.748 115.17 128.453Z" fill="url(#paint17_linear_2335_124)" fill-opacity="0.4"/>
</g>
<g opacity="0.99" filter="url(#filter9_d_2335_124)">
<path d="M153.409 112.796C153.505 114.306 153.562 120.508 148.541 129.126C143.488 137.796 134.66 145.783 122.93 147.073C111.199 148.364 101.488 142.417 95.414 134.971C89.377 127.57 88.6535 121.441 88.5578 119.931C88.4621 118.421 88.4041 112.219 93.4259 103.601C98.4783 94.931 107.307 86.9442 119.037 85.6535C130.767 84.363 140.479 90.3099 146.553 97.756C152.59 105.157 153.313 111.286 153.409 112.796Z" fill="#FFDA09"/>
<path d="M153.409 112.796C153.505 114.306 153.562 120.508 148.541 129.126C143.488 137.796 134.66 145.783 122.93 147.073C111.199 148.364 101.488 142.417 95.414 134.971C89.377 127.57 88.6535 121.441 88.5578 119.931C88.4621 118.421 88.4041 112.219 93.4259 103.601C98.4783 94.931 107.307 86.9442 119.037 85.6535C130.767 84.363 140.479 90.3099 146.553 97.756C152.59 105.157 153.313 111.286 153.409 112.796Z" fill="url(#paint18_linear_2335_124)" fill-opacity="0.2"/>
</g>
<defs>
<filter id="filter0_d_2335_124" x="122.445" y="32.0781" width="88.9963" height="84.0898" filterUnits="userSpaceOnUse" color-interpolation-filters="sRGB">
<feFlood flood-opacity="0" result="BackgroundImageFix"/>
<feColorMatrix in="SourceAlpha" type="matrix" values="0 0 0 0 0 0 0 0 0 0 0 0 0 0 0 0 0 0 127 0" result="hardAlpha"/>
<feOffset dy="1"/>
<feGaussianBlur stdDeviation="2"/>
<feComposite in2="hardAlpha" operator="out"/>
<feColorMatrix type="matrix" values="0 0 0 0 0 0 0 0 0 0 0 0 0 0 0 0 0 0 0.2 0"/>
<feBlend mode="normal" in2="BackgroundImageFix" result="effect1_dropShadow_2335_124"/>
<feBlend mode="normal" in="SourceGraphic" in2="effect1_dropShadow_2335_124" result="shape"/>
</filter>
<filter id="filter1_d_2335_124" x="36.5618" y="27.4414" width="81.5544" height="91.8965" filterUnits="userSpaceOnUse" color-interpolation-filters="sRGB">
<feFlood flood-opacity="0" result="BackgroundImageFix"/>
<feColorMatrix in="SourceAlpha" type="matrix" values="0 0 0 0 0 0 0 0 0 0 0 0 0 0 0 0 0 0 127 0" result="hardAlpha"/>
<feOffset dy="1"/>
<feGaussianBlur stdDeviation="2"/>
<feComposite in2="hardAlpha" operator="out"/>
<feColorMatrix type="matrix" values="0 0 0 0 0 0 0 0 0 0 0 0 0 0 0 0 0 0 0.2 0"/>
<feBlend mode="normal" in2="BackgroundImageFix" result="effect1_dropShadow_2335_124"/>
<feBlend mode="normal" in="SourceGraphic" in2="effect1_dropShadow_2335_124" result="shape"/>
</filter>
<filter id="filter2_d_2335_124" x="132.261" y="75.207" width="107.392" height="64.2578" filterUnits="userSpaceOnUse" color-interpolation-filters="sRGB">
<feFlood flood-opacity="0" result="BackgroundImageFix"/>
<feColorMatrix in="SourceAlpha" type="matrix" values="0 0 0 0 0 0 0 0 0 0 0 0 0 0 0 0 0 0 127 0" result="hardAlpha"/>
<feOffset dy="1"/>
<feGaussianBlur stdDeviation="2"/>
<feComposite in2="hardAlpha" operator="out"/>
<feColorMatrix type="matrix" values="0 0 0 0 0 0 0 0 0 0 0 0 0 0 0 0 0 0 0.2 0"/>
<feBlend mode="normal" in2="BackgroundImageFix" result="effect1_dropShadow_2335_124"/>
<feBlend mode="normal" in="SourceGraphic" in2="effect1_dropShadow_2335_124" result="shape"/>
</filter>
<filter id="filter3_d_2335_124" x="104.128" y="128.873" width="65.8669" height="107.139" filterUnits="userSpaceOnUse" color-interpolation-filters="sRGB">
<feFlood flood-opacity="0" result="BackgroundImageFix"/>
<feColorMatrix in="SourceAlpha" type="matrix" values="0 0 0 0 0 0 0 0 0 0 0 0 0 0 0 0 0 0 127 0" result="hardAlpha"/>
<feOffset dy="1"/>
<feGaussianBlur stdDeviation="2"/>
<feComposite in2="hardAlpha" operator="out"/>
<feColorMatrix type="matrix" values="0 0 0 0 0 0 0 0 0 0 0 0 0 0 0 0 0 0 0.2 0"/>
<feBlend mode="normal" in2="BackgroundImageFix" result="effect1_dropShadow_2335_124"/>
<feBlend mode="normal" in="SourceGraphic" in2="effect1_dropShadow_2335_124" result="shape"/>
</filter>
<filter id="filter4_d_2335_124" x="13.8025" y="120.928" width="100.395" height="71.0293" filterUnits="userSpaceOnUse" color-interpolation-filters="sRGB">
<feFlood flood-opacity="0" result="BackgroundImageFix"/>
<feColorMatrix in="SourceAlpha" type="matrix" values="0 0 0 0 0 0 0 0 0 0 0 0 0 0 0 0 0 0 127 0" result="hardAlpha"/>
<feOffset dy="1"/>
<feGaussianBlur stdDeviation="2"/>
<feComposite in2="hardAlpha" operator="out"/>
<feColorMatrix type="matrix" values="0 0 0 0 0 0 0 0 0 0 0 0 0 0 0 0 0 0 0.2 0"/>
<feBlend mode="normal" in2="BackgroundImageFix" result="effect1_dropShadow_2335_124"/>
<feBlend mode="normal" in="SourceGraphic" in2="effect1_dropShadow_2335_124" result="shape"/>
</filter>
<filter id="filter5_d_2335_124" x="94.3232" y="0" width="58.9978" height="116.215" filterUnits="userSpaceOnUse" color-interpolation-filters="sRGB">
<feFlood flood-opacity="0" result="BackgroundImageFix"/>
<feColorMatrix in="SourceAlpha" type="matrix" values="0 0 0 0 0 0 0 0 0 0 0 0 0 0 0 0 0 0 127 0" result="hardAlpha"/>
<feOffset dy="1"/>
<feGaussianBlur stdDeviation="2"/>
<feComposite in2="hardAlpha" operator="out"/>
<feColorMatrix type="matrix" values="0 0 0 0 0 0 0 0 0 0 0 0 0 0 0 0 0 0 0.2 0"/>
<feBlend mode="normal" in2="BackgroundImageFix" result="effect1_dropShadow_2335_124"/>
<feBlend mode="normal" in="SourceGraphic" in2="effect1_dropShadow_2335_124" result="shape"/>
</filter>
<filter id="filter6_d_2335_124" x="127.156" y="116.65" width="102.677" height="69.9707" filterUnits="userSpaceOnUse" color-interpolation-filters="sRGB">
<feFlood flood-opacity="0" result="BackgroundImageFix"/>
<feColorMatrix in="SourceAlpha" type="matrix" values="0 0 0 0 0 0 0 0 0 0 0 0 0 0 0 0 0 0 127 0" result="hardAlpha"/>
<feOffset dy="1"/>
<feGaussianBlur stdDeviation="2"/>
<feComposite in2="hardAlpha" operator="out"/>
<feColorMatrix type="matrix" values="0 0 0 0 0 0 0 0 0 0 0 0 0 0 0 0 0 0 0.2 0"/>
<feBlend mode="normal" in2="BackgroundImageFix" result="effect1_dropShadow_2335_124"/>
<feBlend mode="normal" in="SourceGraphic" in2="effect1_dropShadow_2335_124" result="shape"/>
</filter>
<filter id="filter7_d_2335_124" x="0" y="87.1836" width="110.695" height="62.3223" filterUnits="userSpaceOnUse" color-interpolation-filters="sRGB">
<feFlood flood-opacity="0" result="BackgroundImageFix"/>
<feColorMatrix in="SourceAlpha" type="matrix" values="0 0 0 0 0 0 0 0 0 0 0 0 0 0 0 0 0 0 127 0" result="hardAlpha"/>
<feOffset dy="1"/>
<feGaussianBlur stdDeviation="2"/>
<feComposite in2="hardAlpha" operator="out"/>
<feColorMatrix type="matrix" values="0 0 0 0 0 0 0 0 0 0 0 0 0 0 0 0 0 0 0.2 0"/>
<feBlend mode="normal" in2="BackgroundImageFix" result="effect1_dropShadow_2335_124"/>
<feBlend mode="normal" in="SourceGraphic" in2="effect1_dropShadow_2335_124" result="shape"/>
</filter>
<filter id="filter8_d_2335_124" x="72.0352" y="125.408" width="62.9543" height="112.426" filterUnits="userSpaceOnUse" color-interpolation-filters="sRGB">
<feFlood flood-opacity="0" result="BackgroundImageFix"/>
<feColorMatrix in="SourceAlpha" type="matrix" values="0 0 0 0 0 0 0 0 0 0 0 0 0 0 0 0 0 0 127 0" result="hardAlpha"/>
<feOffset dy="1"/>
<feGaussianBlur stdDeviation="2"/>
<feComposite in2="hardAlpha" operator="out"/>
<feColorMatrix type="matrix" values="0 0 0 0 0 0 0 0 0 0 0 0 0 0 0 0 0 0 0.2 0"/>
<feBlend mode="normal" in2="BackgroundImageFix" result="effect1_dropShadow_2335_124"/>
<feBlend mode="normal" in="SourceGraphic" in2="effect1_dropShadow_2335_124" result="shape"/>
</filter>
<filter id="filter9_d_2335_124" x="84.5334" y="81.4766" width="72.8999" height="69.7734" filterUnits="userSpaceOnUse" color-interpolation-filters="sRGB">
<feFlood flood-opacity="0" result="BackgroundImageFix"/>
<feColorMatrix in="SourceAlpha" type="matrix" values="0 0 0 0 0 0 0 0 0 0 0 0 0 0 0 0 0 0 127 0" result="hardAlpha"/>
<feOffset/>
<feGaussianBlur stdDeviation="2"/>
<feComposite in2="hardAlpha" operator="out"/>
<feColorMatrix type="matrix" values="0 0 0 0 0 0 0 0 0 0 0 0 0 0 0 0 0 0 0.25 0"/>
<feBlend mode="normal" in2="BackgroundImageFix" result="effect1_dropShadow_2335_124"/>
<feBlend mode="normal" in="SourceGraphic" in2="effect1_dropShadow_2335_124" result="shape"/>
</filter>
<linearGradient id="paint0_linear_2335_124" x1="129.183" y1="106.997" x2="205.896" y2="34.5076" gradientUnits="userSpaceOnUse">
<stop offset="0.0480769" stop-color="#FB79B9"/>
<stop offset="0.966346" stop-color="#F7DD90"/>
</linearGradient>
<linearGradient id="paint1_linear_2335_124" x1="122.147" y1="110.014" x2="202.237" y2="34.3325" gradientUnits="userSpaceOnUse">
<stop offset="0.192308" stop-color="#945758" stop-opacity="0.97"/>
<stop offset="0.610577" stop-color="#FB79B9"/>
<stop offset="1" stop-color="#FFDA09" stop-opacity="0.9"/>
</linearGradient>
<linearGradient id="paint2_linear_2335_124" x1="110.332" y1="111.351" x2="33.2492" y2="39.2936" gradientUnits="userSpaceOnUse">
<stop offset="0.0480769" stop-color="#FB79B9"/>
<stop offset="0.966346" stop-color="#F7DD90"/>
</linearGradient>
<linearGradient id="paint3_linear_2335_124" x1="113.318" y1="118.677" x2="32.8416" y2="43.4463" gradientUnits="userSpaceOnUse">
<stop offset="0.192308" stop-color="#945758" stop-opacity="0.97"/>
<stop offset="0.610577" stop-color="#FB79B9"/>
<stop offset="1" stop-color="#FFDA09" stop-opacity="0.9"/>
</linearGradient>
<linearGradient id="paint4_linear_2335_124" x1="136.81" y1="120.621" x2="234.317" y2="85.0906" gradientUnits="userSpaceOnUse">
<stop offset="0.0480769" stop-color="#FB79B9"/>
<stop offset="0.966346" stop-color="#F7DD90"/>
</linearGradient>
<linearGradient id="paint5_linear_2335_124" x1="129.211" y1="120.403" x2="231.011" y2="83.3086" gradientUnits="userSpaceOnUse">
<stop offset="0.192308" stop-color="#945758" stop-opacity="0.97"/>
<stop offset="0.610577" stop-color="#FB79B9"/>
<stop offset="1" stop-color="#FFDA09" stop-opacity="0.9"/>
</linearGradient>
<linearGradient id="paint6_linear_2335_124" x1="117.57" y1="133.072" x2="171.526" y2="225.34" gradientUnits="userSpaceOnUse">
<stop offset="0.0480769" stop-color="#FB79B9"/>
<stop offset="0.966346" stop-color="#F7DD90"/>
</linearGradient>
<linearGradient id="paint7_linear_2335_124" x1="116.683" y1="125.161" x2="173.014" y2="221.492" gradientUnits="userSpaceOnUse">
<stop offset="0.192308" stop-color="#945758" stop-opacity="0.97"/>
<stop offset="0.610577" stop-color="#FB79B9"/>
<stop offset="1" stop-color="#FFDA09" stop-opacity="0.9"/>
</linearGradient>
<linearGradient id="paint8_linear_2335_124" x1="108.792" y1="132.49" x2="19.2237" y2="186.363" gradientUnits="userSpaceOnUse">
<stop offset="0.0480769" stop-color="#FB79B9"/>
<stop offset="0.966346" stop-color="#F7DD90"/>
</linearGradient>
<linearGradient id="paint9_linear_2335_124" x1="116.284" y1="131.14" x2="22.7723" y2="187.385" gradientUnits="userSpaceOnUse">
<stop offset="0.192308" stop-color="#945758" stop-opacity="0.97"/>
<stop offset="0.610577" stop-color="#FB79B9"/>
<stop offset="1" stop-color="#FFDA09" stop-opacity="0.9"/>
</linearGradient>
<linearGradient id="paint10_linear_2335_124" x1="122.32" y1="111.264" x2="119.498" y2="3.18203" gradientUnits="userSpaceOnUse">
<stop offset="0.0480769" stop-color="#FB79B9"/>
<stop offset="0.966346" stop-color="#F7DD90"/>
</linearGradient>
<linearGradient id="paint11_linear_2335_124" x1="119.592" y1="118.699" x2="116.645" y2="5.85811" gradientUnits="userSpaceOnUse">
<stop offset="0.192308" stop-color="#945758" stop-opacity="0.97"/>
<stop offset="0.610577" stop-color="#FB79B9"/>
<stop offset="1" stop-color="#FFDA09" stop-opacity="0.9"/>
</linearGradient>
<linearGradient id="paint12_linear_2335_124" x1="132.144" y1="129.231" x2="229.339" y2="165.696" gradientUnits="userSpaceOnUse">
<stop offset="0.0480769" stop-color="#FB79B9"/>
<stop offset="0.966346" stop-color="#F7DD90"/>
</linearGradient>
<linearGradient id="paint13_linear_2335_124" x1="126.669" y1="123.706" x2="228.142" y2="161.776" gradientUnits="userSpaceOnUse">
<stop offset="0.192308" stop-color="#945758" stop-opacity="0.97"/>
<stop offset="0.610577" stop-color="#FB79B9"/>
<stop offset="1" stop-color="#FFDA09" stop-opacity="0.9"/>
</linearGradient>
<linearGradient id="paint14_linear_2335_124" x1="106.547" y1="123.703" x2="3.53483" y2="117.368" gradientUnits="userSpaceOnUse">
<stop offset="0.0480769" stop-color="#FB79B9"/>
<stop offset="0.966346" stop-color="#F7DD90"/>
</linearGradient>
<linearGradient id="paint15_linear_2335_124" x1="113.372" y1="127.213" x2="5.82336" y2="120.6" gradientUnits="userSpaceOnUse">
<stop offset="0.192308" stop-color="#945758" stop-opacity="0.97"/>
<stop offset="0.610577" stop-color="#FB79B9"/>
<stop offset="1" stop-color="#FFDA09" stop-opacity="0.9"/>
</linearGradient>
<linearGradient id="paint16_linear_2335_124" x1="117.353" y1="128.977" x2="92.1641" y2="233.853" gradientUnits="userSpaceOnUse">
<stop offset="0.0480769" stop-color="#FB79B9"/>
<stop offset="0.966346" stop-color="#F7DD90"/>
</linearGradient>
<linearGradient id="paint17_linear_2335_124" x1="121.754" y1="122.482" x2="95.456" y2="231.975" gradientUnits="userSpaceOnUse">
<stop offset="0.192308" stop-color="#945758" stop-opacity="0.97"/>
<stop offset="0.610577" stop-color="#FB79B9"/>
<stop offset="1" stop-color="#FFDA09" stop-opacity="0.9"/>
</linearGradient>
<linearGradient id="paint18_linear_2335_124" x1="119.037" y1="85.6535" x2="121.602" y2="124.419" gradientUnits="userSpaceOnUse">
<stop stop-color="white" stop-opacity="0.8"/>
<stop offset="1" stop-color="white" stop-opacity="0"/>
</linearGradient>
</defs>
</svg>
