<svg width="152" height="146" viewBox="0 0 152 146" fill="none" xmlns="http://www.w3.org/2000/svg">
<path d="M83.561 17.5708C83.6008 17.4796 83.6071 17.377 83.5759 17.2844C83.5447 17.1919 83.4791 17.1172 83.3929 17.0764C83.3067 17.0357 83.2066 17.0321 83.1141 17.0662C83.0215 17.1003 82.9445 17.1695 82.8975 17.2573C82.8975 17.2573 82.8975 17.2573 82.8975 17.2573C82.3984 18.1939 81.9318 19.1154 81.4799 20.0604C77.4028 28.5511 75.1032 37.9796 75.0985 47.3695C75.1013 56.7353 77.1947 66.1056 81.7721 74.0597C82.288 74.9349 82.8487 75.7994 83.4461 76.6023C83.5033 76.6792 83.5879 76.7314 83.6835 76.7457C83.7791 76.76 83.8775 76.7355 83.9575 76.6774C84.0374 76.6192 84.0929 76.5317 84.1122 76.4339C84.1315 76.336 84.1125 76.2361 84.0619 76.1544C84.0619 76.1544 84.0619 76.1544 84.0619 76.1544C83.55 75.3268 83.071 74.4429 82.6333 73.5528C78.76 65.4602 77.0864 56.3579 77.0793 47.2937C77.0888 38.2049 78.9588 29.0677 82.3712 20.4345C82.7496 19.4743 83.1402 18.5325 83.561 17.5708Z" fill="#935713"/>
<path d="M89.6506 96.1758C89.0305 95.1971 88.4263 94.2326 87.8279 93.2707C82.3916 84.5457 77.2935 75.8871 72.5672 67.0216C67.8995 58.1459 63.3721 49.1727 60.2598 39.3592C59.9307 38.2632 59.6308 37.1711 59.3976 36.0323C59.3006 37.2045 59.2906 38.3704 59.3299 39.5492C59.8373 50.1934 63.3444 60.3708 68.1849 69.5447C73.0829 78.7399 79.5496 86.9367 87.0975 93.9028C87.9305 94.6697 88.7783 95.4238 89.6506 96.1758Z" fill="#096F1F"/>
<path d="M94.943 89.1025C94.943 89.1025 94.943 89.1025 94.943 89.1025C95.9795 88.929 96.9847 88.7566 97.9595 88.585C106.786 87.0511 115.293 84.4102 123.243 81.7966C127.396 80.5049 130.354 79.5157 134.644 79.783C139.271 80.0019 144.07 78.9478 148.222 77.2793C149.217 76.9023 150.048 76.5177 151.041 76.0818C149.964 75.9745 149.066 75.8412 148.026 75.7253C143.564 75.1774 139.41 74.5114 135.389 73.2738C130.969 71.7098 125.074 72.4751 120.917 73.903C112.196 76.7807 104.551 81.5002 97.3646 87.1439C96.576 87.7713 95.7691 88.4241 94.943 89.1025Z" fill="#096F1F"/>
<path d="M21.8105 107.692C23.1483 107.584 24.3912 108.021 25.2575 109.021C26.1243 110.015 26.5436 111.489 26.4313 113.007C26.3191 114.524 25.687 115.929 24.6824 116.799C23.6773 117.676 22.382 117.946 21.0731 117.664C21.0731 117.664 21.0731 117.664 21.0731 117.664C20.7617 117.56 20.5194 117.485 20.2781 117.431C19.7559 117.318 19.4213 117.246 18.915 117.416C18.4172 117.585 17.786 118.101 17.2097 118.88C16.036 120.457 15.1292 122.774 14.366 125.151C12.7063 129.878 12.2116 135.497 8.89204 139.943C8.48979 140.385 8.00354 140.775 7.47437 141.004C7.91578 140.632 8.24272 140.155 8.48026 139.662C10.2348 134.952 9.20424 129.725 9.42739 124.39C9.50775 121.689 9.62743 118.911 10.6733 115.788C11.5145 112.783 14.8268 108.749 19.1531 108.012C20.0967 107.812 20.9117 107.718 21.8105 107.692Z" fill="#096F1F"/>
<g filter="url(#filter0_d_2335_137)">
<path d="M41.8226 126.151C35.58 125.185 26.1342 125.863 19.1849 121.537C13.3297 117.892 16.6826 112.217 23.7563 103.864C34.5677 91.096 42.063 90.0031 45.4336 88.2766C52.0883 84.8679 63.1065 84.6476 61.0289 85.0997C59.7566 85.3765 62.4711 80.5874 69.9577 98.0395C74.9076 109.578 75.5748 118.299 75.0686 126.15C74.379 136.844 71.8831 139.973 65.1226 139.972C46.7434 139.971 48.046 127.114 41.8226 126.151Z" fill="#FB79B9"/>
<path d="M41.8226 126.151C35.58 125.185 26.1342 125.863 19.1849 121.537C13.3297 117.892 16.6826 112.217 23.7563 103.864C34.5677 91.096 42.063 90.0031 45.4336 88.2766C52.0883 84.8679 63.1065 84.6476 61.0289 85.0997C59.7566 85.3765 62.4711 80.5874 69.9577 98.0395C74.9076 109.578 75.5748 118.299 75.0686 126.15C74.379 136.844 71.8831 139.973 65.1226 139.972C46.7434 139.971 48.046 127.114 41.8226 126.151Z" fill="url(#paint0_linear_2335_137)" fill-opacity="0.4"/>
<path d="M41.8226 126.151C35.58 125.185 26.1342 125.863 19.1849 121.537C13.3297 117.892 16.6826 112.217 23.7563 103.864C34.5677 91.096 42.063 90.0031 45.4336 88.2766C52.0883 84.8679 63.1065 84.6476 61.0289 85.0997C59.7566 85.3765 62.4711 80.5874 69.9577 98.0395C74.9076 109.578 75.5748 118.299 75.0686 126.15C74.379 136.844 71.8831 139.973 65.1226 139.972C46.7434 139.971 48.046 127.114 41.8226 126.151Z" fill="#FB79B9"/>
<path d="M41.8226 126.151C35.58 125.185 26.1342 125.863 19.1849 121.537C13.3297 117.892 16.6826 112.217 23.7563 103.864C34.5677 91.096 42.063 90.0031 45.4336 88.2766C52.0883 84.8679 63.1065 84.6476 61.0289 85.0997C59.7566 85.3765 62.4711 80.5874 69.9577 98.0395C74.9076 109.578 75.5748 118.299 75.0686 126.15C74.379 136.844 71.8831 139.973 65.1226 139.972C46.7434 139.971 48.046 127.114 41.8226 126.151Z" fill="url(#paint1_linear_2335_137)" fill-opacity="0.4"/>
</g>
<g filter="url(#filter1_d_2335_137)">
<path d="M110.163 109.867C107.57 115.535 105.547 124.725 99.7718 130.103C94.9058 134.634 90.7959 129.815 85.3399 120.686C77.0011 106.732 78.1134 99.2807 77.5163 95.5762C76.3374 88.2623 79.2041 77.7067 79.0283 79.8147C78.9207 81.1057 75.4201 77.1485 93.0068 75.0198C104.635 73.6124 112.569 75.4759 119.403 78.2075C128.713 81.9285 130.799 85.2017 128.919 91.6396C123.81 109.141 112.749 104.217 110.163 109.867Z" fill="#FB79B9"/>
<path d="M110.163 109.867C107.57 115.535 105.547 124.725 99.7718 130.103C94.9058 134.634 90.7959 129.815 85.3399 120.686C77.0011 106.732 78.1134 99.2807 77.5163 95.5762C76.3374 88.2623 79.2041 77.7067 79.0283 79.8147C78.9207 81.1057 75.4201 77.1485 93.0068 75.0198C104.635 73.6124 112.569 75.4759 119.403 78.2075C128.713 81.9285 130.799 85.2017 128.919 91.6396C123.81 109.141 112.749 104.217 110.163 109.867Z" fill="url(#paint2_linear_2335_137)" fill-opacity="0.4"/>
<path d="M110.163 109.867C107.57 115.535 105.547 124.725 99.7718 130.103C94.9058 134.634 90.7959 129.815 85.3399 120.686C77.0011 106.732 78.1134 99.2807 77.5163 95.5762C76.3374 88.2623 79.2041 77.7067 79.0283 79.8147C78.9207 81.1057 75.4201 77.1485 93.0068 75.0198C104.635 73.6124 112.569 75.4759 119.403 78.2075C128.713 81.9285 130.799 85.2017 128.919 91.6396C123.81 109.141 112.749 104.217 110.163 109.867Z" fill="#FB79B9"/>
<path d="M110.163 109.867C107.57 115.535 105.547 124.725 99.7718 130.103C94.9058 134.634 90.7959 129.815 85.3399 120.686C77.0011 106.732 78.1134 99.2807 77.5163 95.5762C76.3374 88.2623 79.2041 77.7067 79.0283 79.8147C78.9207 81.1057 75.4201 77.1485 93.0068 75.0198C104.635 73.6124 112.569 75.4759 119.403 78.2075C128.713 81.9285 130.799 85.2017 128.919 91.6396C123.81 109.141 112.749 104.217 110.163 109.867Z" fill="url(#paint3_linear_2335_137)" fill-opacity="0.4"/>
</g>
<g filter="url(#filter2_d_2335_137)">
<path d="M103.922 33.8725C109.029 37.2299 117.574 40.4253 122.019 47.0258C125.765 52.5871 120.658 56.2383 111.266 60.7546C96.911 67.6574 89.9191 65.6101 86.3036 65.7771C79.1656 66.1069 69.4164 61.8765 71.4114 62.3126C72.6331 62.5797 68.4247 65.7073 68.5163 47.3315C68.5768 35.182 71.3191 27.2337 74.7585 20.5232C79.4438 11.3819 82.8268 9.62918 88.757 12.3442C104.879 19.7252 98.8304 30.5253 103.922 33.8725Z" fill="#FB79B9"/>
<path d="M103.922 33.8725C109.029 37.2299 117.574 40.4253 122.019 47.0258C125.765 52.5871 120.658 56.2383 111.266 60.7546C96.911 67.6574 89.9191 65.6101 86.3036 65.7771C79.1656 66.1069 69.4164 61.8765 71.4114 62.3126C72.6331 62.5797 68.4247 65.7073 68.5163 47.3315C68.5768 35.182 71.3191 27.2337 74.7585 20.5232C79.4438 11.3819 82.8268 9.62918 88.757 12.3442C104.879 19.7252 98.8304 30.5253 103.922 33.8725Z" fill="url(#paint4_linear_2335_137)" fill-opacity="0.4"/>
<path d="M103.922 33.8725C109.029 37.2299 117.574 40.4253 122.019 47.0258C125.765 52.5871 120.658 56.2383 111.266 60.7546C96.911 67.6574 89.9191 65.6101 86.3036 65.7771C79.1656 66.1069 69.4164 61.8765 71.4114 62.3126C72.6331 62.5797 68.4247 65.7073 68.5163 47.3315C68.5768 35.182 71.3191 27.2337 74.7585 20.5232C79.4438 11.3819 82.8268 9.62918 88.757 12.3442C104.879 19.7252 98.8304 30.5253 103.922 33.8725Z" fill="#FB79B9"/>
<path d="M103.922 33.8725C109.029 37.2299 117.574 40.4253 122.019 47.0258C125.765 52.5871 120.658 56.2383 111.266 60.7546C96.911 67.6574 89.9191 65.6101 86.3036 65.7771C79.1656 66.1069 69.4164 61.8765 71.4114 62.3126C72.6331 62.5797 68.4247 65.7073 68.5163 47.3315C68.5768 35.182 71.3191 27.2337 74.7585 20.5232C79.4438 11.3819 82.8268 9.62918 88.757 12.3442C104.879 19.7252 98.8304 30.5253 103.922 33.8725Z" fill="url(#paint5_linear_2335_137)" fill-opacity="0.4"/>
</g>
<g filter="url(#filter3_d_2335_137)">
<path d="M26.3304 42.5783C28.8968 36.8972 30.8757 27.6975 36.6255 22.2899C41.47 17.7337 45.6027 22.5315 51.1019 31.6334C59.5069 45.5445 58.43 53.001 59.0447 56.7024C60.2583 64.0102 57.4417 74.5803 57.6075 72.4714C57.709 71.1799 61.2283 75.1192 43.6519 77.3378C32.0309 78.8047 24.0882 76.9817 17.2409 74.2851C7.91332 70.6118 5.8121 67.3493 7.66091 60.9019C12.687 43.3741 23.7718 48.242 26.3304 42.5783Z" fill="#FB79B9"/>
<path d="M26.3304 42.5783C28.8968 36.8972 30.8757 27.6975 36.6255 22.2899C41.47 17.7337 45.6027 22.5315 51.1019 31.6334C59.5069 45.5445 58.43 53.001 59.0447 56.7024C60.2583 64.0102 57.4417 74.5803 57.6075 72.4714C57.709 71.1799 61.2283 75.1192 43.6519 77.3378C32.0309 78.8047 24.0882 76.9817 17.2409 74.2851C7.91332 70.6118 5.8121 67.3493 7.66091 60.9019C12.687 43.3741 23.7718 48.242 26.3304 42.5783Z" fill="url(#paint6_linear_2335_137)" fill-opacity="0.4"/>
<path d="M26.3304 42.5783C28.8968 36.8972 30.8757 27.6975 36.6255 22.2899C41.47 17.7337 45.6027 22.5315 51.1019 31.6334C59.5069 45.5445 58.43 53.001 59.0447 56.7024C60.2583 64.0102 57.4417 74.5803 57.6075 72.4714C57.709 71.1799 61.2283 75.1192 43.6519 77.3378C32.0309 78.8047 24.0882 76.9817 17.2409 74.2851C7.91332 70.6118 5.8121 67.3493 7.66091 60.9019C12.687 43.3741 23.7718 48.242 26.3304 42.5783Z" fill="#FB79B9"/>
<path d="M26.3304 42.5783C28.8968 36.8972 30.8757 27.6975 36.6255 22.2899C41.47 17.7337 45.6027 22.5315 51.1019 31.6334C59.5069 45.5445 58.43 53.001 59.0447 56.7024C60.2583 64.0102 57.4417 74.5803 57.6075 72.4714C57.709 71.1799 61.2283 75.1192 43.6519 77.3378C32.0309 78.8047 24.0882 76.9817 17.2409 74.2851C7.91332 70.6118 5.8121 67.3493 7.66091 60.9019C12.687 43.3741 23.7718 48.242 26.3304 42.5783Z" fill="url(#paint7_linear_2335_137)" fill-opacity="0.4"/>
</g>
<g filter="url(#filter4_d_2335_137)">
<path d="M13.6449 88.2174C11.1682 83.5877 5.42037 77.5855 5.70124 70.9082C5.93788 65.2821 13.0561 64.8661 24.6924 65.6842C42.4771 66.9346 47.5562 71.4376 50.9944 72.8838C57.7826 75.7389 63.9534 83.0081 62.4061 81.8298C61.4586 81.1082 67.4037 80.6801 55.1472 93.8684C47.0436 102.588 39.2547 107.122 31.6441 110.462C21.2766 115.013 17.0019 114.809 13.3423 110.285C3.39333 97.987 16.1141 92.8329 13.6449 88.2174Z" fill="#FB79B9"/>
<path d="M13.6449 88.2174C11.1682 83.5877 5.42037 77.5855 5.70124 70.9082C5.93788 65.2821 13.0561 64.8661 24.6924 65.6842C42.4771 66.9346 47.5562 71.4376 50.9944 72.8838C57.7826 75.7389 63.9534 83.0081 62.4061 81.8298C61.4586 81.1082 67.4037 80.6801 55.1472 93.8684C47.0436 102.588 39.2547 107.122 31.6441 110.462C21.2766 115.013 17.0019 114.809 13.3423 110.285C3.39333 97.987 16.1141 92.8329 13.6449 88.2174Z" fill="url(#paint8_linear_2335_137)" fill-opacity="0.4"/>
<path d="M13.6449 88.2174C11.1682 83.5877 5.42037 77.5855 5.70124 70.9082C5.93788 65.2821 13.0561 64.8661 24.6924 65.6842C42.4771 66.9346 47.5562 71.4376 50.9944 72.8838C57.7826 75.7389 63.9534 83.0081 62.4061 81.8298C61.4586 81.1082 67.4037 80.6801 55.1472 93.8684C47.0436 102.588 39.2547 107.122 31.6441 110.462C21.2766 115.013 17.0019 114.809 13.3423 110.285C3.39333 97.987 16.1141 92.8329 13.6449 88.2174Z" fill="#FB79B9"/>
<path d="M13.6449 88.2174C11.1682 83.5877 5.42037 77.5855 5.70124 70.9082C5.93788 65.2821 13.0561 64.8661 24.6924 65.6842C42.4771 66.9346 47.5562 71.4376 50.9944 72.8838C57.7826 75.7389 63.9534 83.0081 62.4061 81.8298C61.4586 81.1082 67.4037 80.6801 55.1472 93.8684C47.0436 102.588 39.2547 107.122 31.6441 110.462C21.2766 115.013 17.0019 114.809 13.3423 110.285C3.39333 97.987 16.1141 92.8329 13.6449 88.2174Z" fill="url(#paint9_linear_2335_137)" fill-opacity="0.4"/>
</g>
<path d="M30.6675 40.1006C31.9777 40.3429 33.279 40.0376 34.2927 39.1631C35.3059 38.2938 35.9483 36.9267 36.0714 35.4513C36.1944 33.9758 35.7857 32.5384 34.9279 31.5438C34.0706 30.5441 32.8343 30.0689 31.4985 30.1341C31.4985 30.1341 31.4985 30.1341 31.4985 30.1341C30.8823 30.1758 30.3442 30.1973 29.791 30.1878C27.2756 30.1199 25.3985 29.5993 23.8866 27.979C22.355 26.3555 21.401 23.5001 20.8665 20.4674C19.5434 14.4759 20.7442 6.97783 16.5657 1.29915C16.0512 0.747359 15.4493 0.307566 14.7791 0C15.3616 0.451088 15.8167 0.995685 16.1621 1.60108C18.6853 7.45428 16.047 14.0076 15.869 20.8326C15.7239 24.2713 15.7721 28.1006 17.7709 31.9772C19.7494 35.94 24.107 38.5793 28.0336 39.5409C28.9201 39.7765 29.7488 39.9546 30.6675 40.1006Z" fill="#096F1F"/>
<g filter="url(#filter5_d_2335_137)">
<path d="M65.7374 17.5489C70.9748 15.5654 78.1095 10.4734 85.1398 11.4409C91.0631 12.2561 90.5363 19.3714 88.0891 30.8485C84.3489 48.3899 78.8921 52.972 76.894 56.2391C72.9492 62.6892 64.4159 68.0708 65.8734 66.655C66.766 65.7879 66.4114 71.7389 54.1162 58.2015C45.9869 49.251 42.2462 41.0448 39.7443 33.1387C36.336 22.3688 37.1327 18.1426 42.4186 14.9729C56.7887 6.35592 60.5161 19.5263 65.7374 17.5489Z" fill="#FB79B9"/>
<path d="M65.7374 17.5489C70.9748 15.5654 78.1095 10.4734 85.1398 11.4409C91.0631 12.2561 90.5363 19.3714 88.0891 30.8485C84.3489 48.3899 78.8921 52.972 76.894 56.2391C72.9492 62.6892 64.4159 68.0708 65.8734 66.655C66.766 65.7879 66.4114 71.7389 54.1162 58.2015C45.9869 49.251 42.2462 41.0448 39.7443 33.1387C36.336 22.3688 37.1327 18.1426 42.4186 14.9729C56.7887 6.35592 60.5161 19.5263 65.7374 17.5489Z" fill="url(#paint10_linear_2335_137)" fill-opacity="0.4"/>
<path d="M65.7374 17.5489C70.9748 15.5654 78.1095 10.4734 85.1398 11.4409C91.0631 12.2561 90.5363 19.3714 88.0891 30.8485C84.3489 48.3899 78.8921 52.972 76.894 56.2391C72.9492 62.6892 64.4159 68.0708 65.8734 66.655C66.766 65.7879 66.4114 71.7389 54.1162 58.2015C45.9869 49.251 42.2462 41.0448 39.7443 33.1387C36.336 22.3688 37.1327 18.1426 42.4186 14.9729C56.7887 6.35592 60.5161 19.5263 65.7374 17.5489Z" fill="#FB79B9"/>
<path d="M65.7374 17.5489C70.9748 15.5654 78.1095 10.4734 85.1398 11.4409C91.0631 12.2561 90.5363 19.3714 88.0891 30.8485C84.3489 48.3899 78.8921 52.972 76.894 56.2391C72.9492 62.6892 64.4159 68.0708 65.8734 66.655C66.766 65.7879 66.4114 71.7389 54.1162 58.2015C45.9869 49.251 42.2462 41.0448 39.7443 33.1387C36.336 22.3688 37.1327 18.1426 42.4186 14.9729C56.7887 6.35592 60.5161 19.5263 65.7374 17.5489Z" fill="url(#paint11_linear_2335_137)" fill-opacity="0.4"/>
</g>
<g filter="url(#filter6_d_2335_137)">
<path d="M118.247 76.6902C120.314 82.2775 125.52 89.8497 124.664 97.4094C123.943 103.779 116.82 103.331 105.304 100.893C87.7025 97.1685 83.0332 91.3884 79.7343 89.2982C73.2212 85.1713 67.7034 76.1032 69.1425 77.6438C70.0238 78.5874 64.0671 78.3048 77.4084 64.8887C86.2292 56.0184 94.3758 51.8695 102.242 49.0547C112.958 45.2203 117.197 46.0057 120.451 51.6256C129.297 66.9037 116.186 71.12 118.247 76.6902Z" fill="#FB79B9"/>
<path d="M118.247 76.6902C120.314 82.2775 125.52 89.8497 124.664 97.4094C123.943 103.779 116.82 103.331 105.304 100.893C87.7025 97.1685 83.0332 91.3884 79.7343 89.2982C73.2212 85.1713 67.7034 76.1032 69.1425 77.6438C70.0238 78.5874 64.0671 78.3048 77.4084 64.8887C86.2292 56.0184 94.3758 51.8695 102.242 49.0547C112.958 45.2203 117.197 46.0057 120.451 51.6256C129.297 66.9037 116.186 71.12 118.247 76.6902Z" fill="url(#paint12_linear_2335_137)" fill-opacity="0.4"/>
<path d="M118.247 76.6902C120.314 82.2775 125.52 89.8497 124.664 97.4094C123.943 103.779 116.82 103.331 105.304 100.893C87.7025 97.1685 83.0332 91.3884 79.7343 89.2982C73.2212 85.1713 67.7034 76.1032 69.1425 77.6438C70.0238 78.5874 64.0671 78.3048 77.4084 64.8887C86.2292 56.0184 94.3758 51.8695 102.242 49.0547C112.958 45.2203 117.197 46.0057 120.451 51.6256C129.297 66.9037 116.186 71.12 118.247 76.6902Z" fill="#FB79B9"/>
<path d="M118.247 76.6902C120.314 82.2775 125.52 89.8497 124.664 97.4094C123.943 103.779 116.82 103.331 105.304 100.893C87.7025 97.1685 83.0332 91.3884 79.7343 89.2982C73.2212 85.1713 67.7034 76.1032 69.1425 77.6438C70.0238 78.5874 64.0671 78.3048 77.4084 64.8887C86.2292 56.0184 94.3758 51.8695 102.242 49.0547C112.958 45.2203 117.197 46.0057 120.451 51.6256C129.297 66.9037 116.186 71.12 118.247 76.6902Z" fill="url(#paint13_linear_2335_137)" fill-opacity="0.4"/>
</g>
<g filter="url(#filter7_d_2335_137)">
<path d="M82.7619 131.322C78.7079 134.579 73.4558 139.337 67.0424 140.617C61.6387 141.696 60.1954 135.477 59.2657 124.967C57.8448 108.904 61.3954 103.367 62.27 99.9854C63.9969 93.3096 70.0267 86.1705 69.1297 87.8129C68.5804 88.8188 67.298 83.643 81.685 91.4946C91.1973 96.6859 96.6685 102.557 100.975 108.543C106.841 116.698 107.923 121.314 103.496 124.819C92.2406 133.732 86.8035 128.074 82.7619 131.322Z" fill="#FB79B9"/>
<path d="M82.7619 131.322C78.7079 134.579 73.4558 139.337 67.0424 140.617C61.6387 141.696 60.1954 135.477 59.2657 124.967C57.8448 108.904 61.3954 103.367 62.27 99.9854C63.9969 93.3096 70.0267 86.1705 69.1297 87.8129C68.5804 88.8188 67.298 83.643 81.685 91.4946C91.1973 96.6859 96.6685 102.557 100.975 108.543C106.841 116.698 107.923 121.314 103.496 124.819C92.2406 133.732 86.8035 128.074 82.7619 131.322Z" fill="url(#paint14_linear_2335_137)" fill-opacity="0.4"/>
<path d="M82.7619 131.322C78.7079 134.579 73.4558 139.337 67.0424 140.617C61.6387 141.696 60.1954 135.477 59.2657 124.967C57.8448 108.904 61.3954 103.367 62.27 99.9854C63.9969 93.3096 70.0267 86.1705 69.1297 87.8129C68.5804 88.8188 67.298 83.643 81.685 91.4946C91.1973 96.6859 96.6685 102.557 100.975 108.543C106.841 116.698 107.923 121.314 103.496 124.819C92.2406 133.732 86.8035 128.074 82.7619 131.322Z" fill="#FB79B9"/>
<path d="M82.7619 131.322C78.7079 134.579 73.4558 139.337 67.0424 140.617C61.6387 141.696 60.1954 135.477 59.2657 124.967C57.8448 108.904 61.3954 103.367 62.27 99.9854C63.9969 93.3096 70.0267 86.1705 69.1297 87.8129C68.5804 88.8188 67.298 83.643 81.685 91.4946C91.1973 96.6859 96.6685 102.557 100.975 108.543C106.841 116.698 107.923 121.314 103.496 124.819C92.2406 133.732 86.8035 128.074 82.7619 131.322Z" fill="url(#paint15_linear_2335_137)" fill-opacity="0.4"/>
</g>
<g filter="url(#filter8_d_2335_137)">
<path d="M20.4225 35.81C21.1632 34.7625 29.9275 23.3675 35.491 19.255C41.0887 15.1174 42.6482 15.0954 44.0535 20.778C46.2013 29.4631 43.5535 35.9991 43.0213 38.8564C41.9705 44.4975 37.3391 54.1974 37.9935 52.3957C38.3942 51.2922 39.7778 53.3678 27.2458 61.1264C18.9599 66.2561 14.0224 67.4229 10.0547 67.4974C4.64985 67.5989 4.63503 66.6595 6.97166 59.6452C9.29405 52.6735 17.2506 40.2955 20.4225 35.81Z" fill="#FB79B9"/>
<path d="M20.4225 35.81C21.1632 34.7625 29.9275 23.3675 35.491 19.255C41.0887 15.1174 42.6482 15.0954 44.0535 20.778C46.2013 29.4631 43.5535 35.9991 43.0213 38.8564C41.9705 44.4975 37.3391 54.1974 37.9935 52.3957C38.3942 51.2922 39.7778 53.3678 27.2458 61.1264C18.9599 66.2561 14.0224 67.4229 10.0547 67.4974C4.64985 67.5989 4.63503 66.6595 6.97166 59.6452C9.29405 52.6735 17.2506 40.2955 20.4225 35.81Z" fill="url(#paint16_linear_2335_137)" fill-opacity="0.4"/>
</g>
<g filter="url(#filter9_d_2335_137)">
<path d="M84.5812 135.243C83.6608 135.65 73.183 139.839 67.8191 140.558C62.4223 141.281 61.3853 140.78 62.8029 136.784C64.9696 130.677 69.4112 127.489 70.9406 125.888C73.9602 122.729 81.0144 118.229 79.8398 119.133C79.1204 119.687 79.0646 117.94 90.5261 117.255C98.1042 116.803 101.84 117.708 104.487 118.971C108.091 120.693 107.714 121.282 103.28 124.87C98.8733 128.436 88.5224 133.503 84.5812 135.243Z" fill="#FB79B9"/>
<path d="M84.5812 135.243C83.6608 135.65 73.183 139.839 67.8191 140.558C62.4223 141.281 61.3853 140.78 62.8029 136.784C64.9696 130.677 69.4112 127.489 70.9406 125.888C73.9602 122.729 81.0144 118.229 79.8398 119.133C79.1204 119.687 79.0646 117.94 90.5261 117.255C98.1042 116.803 101.84 117.708 104.487 118.971C108.091 120.693 107.714 121.282 103.28 124.87C98.8733 128.436 88.5224 133.503 84.5812 135.243Z" fill="url(#paint17_linear_2335_137)" fill-opacity="0.4"/>
</g>
<g filter="url(#filter10_d_2335_137)">
<path d="M110.982 26.705C111.804 27.5739 120.652 37.7123 123.529 43.7033C126.425 49.7309 126.239 51.249 121.069 51.804C113.166 52.6522 107.778 49.1482 105.341 48.2239C100.529 46.3989 92.6259 40.5168 94.1209 41.4094C95.0366 41.9561 93.0336 43.0042 87.8715 29.724C84.4584 20.9435 84.083 15.9807 84.5387 12.1157C85.1594 6.85078 85.9856 6.9703 91.8337 10.2402C97.6461 13.4902 107.463 22.9842 110.982 26.705Z" fill="#FB79B9"/>
<path d="M110.982 26.705C111.804 27.5739 120.652 37.7123 123.529 43.7033C126.425 49.7309 126.239 51.249 121.069 51.804C113.166 52.6522 107.778 49.1482 105.341 48.2239C100.529 46.3989 92.6259 40.5168 94.1209 41.4094C95.0366 41.9561 93.0336 43.0042 87.8715 29.724C84.4584 20.9435 84.083 15.9807 84.5387 12.1157C85.1594 6.85078 85.9856 6.9703 91.8337 10.2402C97.6461 13.4902 107.463 22.9842 110.982 26.705Z" fill="url(#paint18_linear_2335_137)" fill-opacity="0.4"/>
</g>
<g filter="url(#filter11_d_2335_137)">
<path d="M40.6869 132.625C39.5515 132.17 26.9486 126.659 21.5456 122.789C16.1095 118.895 15.536 117.675 19.7645 115.897C26.2274 113.178 32.6091 114.474 35.1763 114.55C40.2448 114.701 49.9656 117.175 48.2333 116.876C47.1723 116.694 48.407 115.362 59.3251 124.259C66.5439 130.142 69.2728 133.872 70.7473 136.973C72.7561 141.197 71.9796 141.321 65.3106 140.326C58.6822 139.337 45.5488 134.577 40.6869 132.625Z" fill="#FB79B9"/>
<path d="M40.6869 132.625C39.5515 132.17 26.9486 126.659 21.5456 122.789C16.1095 118.895 15.536 117.675 19.7645 115.897C26.2274 113.178 32.6091 114.474 35.1763 114.55C40.2448 114.701 49.9656 117.175 48.2333 116.876C47.1723 116.694 48.407 115.362 59.3251 124.259C66.5439 130.142 69.2728 133.872 70.7473 136.973C72.7561 141.197 71.9796 141.321 65.3106 140.326C58.6822 139.337 45.5488 134.577 40.6869 132.625Z" fill="url(#paint19_linear_2335_137)" fill-opacity="0.4"/>
</g>
<g filter="url(#filter12_d_2335_137)">
<path d="M65.173 9.90828C66.2917 9.78201 78.8932 8.82246 84.9078 9.88331C90.9592 10.9507 91.926 11.853 89.1708 15.7173C84.9598 21.6233 79.1855 23.5683 77.0433 24.7852C72.8138 27.1876 63.8154 29.6627 65.3611 29.0823C66.3077 28.7268 65.8331 30.6483 53.2421 27.4536C44.9173 25.3413 41.1585 23.0713 38.6869 20.7854C35.3201 17.6715 35.9084 17.1602 41.7968 14.7768C47.6493 12.408 60.3825 10.449 65.173 9.90828Z" fill="#FB79B9"/>
<path d="M65.173 9.90828C66.2917 9.78201 78.8932 8.82246 84.9078 9.88331C90.9592 10.9507 91.926 11.853 89.1708 15.7173C84.9598 21.6233 79.1855 23.5683 77.0433 24.7852C72.8138 27.1876 63.8154 29.6627 65.3611 29.0823C66.3077 28.7268 65.8331 30.6483 53.2421 27.4536C44.9173 25.3413 41.1585 23.0713 38.6869 20.7854C35.3201 17.6715 35.9084 17.1602 41.7968 14.7768C47.6493 12.408 60.3825 10.449 65.173 9.90828Z" fill="url(#paint20_linear_2335_137)" fill-opacity="0.4"/>
</g>
<g filter="url(#filter13_d_2335_137)">
<path d="M115.251 114.129C114.507 115.106 105.758 125.721 100.382 129.54C94.972 133.383 93.529 133.396 92.5525 128.074C91.0599 119.94 93.8786 113.84 94.5328 111.17C95.8243 105.899 100.656 96.8496 99.9492 98.5316C99.5161 99.5617 98.3549 97.6137 110.38 90.4181C118.331 85.6605 122.962 84.5932 126.634 84.5428C131.636 84.4741 131.597 85.3528 129.039 91.9019C126.496 98.4111 118.438 109.95 115.251 114.129Z" fill="#FB79B9"/>
<path d="M115.251 114.129C114.507 115.106 105.758 125.721 100.382 129.54C94.972 133.383 93.529 133.396 92.5525 128.074C91.0599 119.94 93.8786 113.84 94.5328 111.17C95.8243 105.899 100.656 96.8496 99.9492 98.5316C99.5161 99.5617 98.3549 97.6137 110.38 90.4181C118.331 85.6605 122.962 84.5932 126.634 84.5428C131.636 84.4741 131.597 85.3528 129.039 91.9019C126.496 98.4111 118.438 109.95 115.251 114.129Z" fill="url(#paint21_linear_2335_137)" fill-opacity="0.4"/>
</g>
<g filter="url(#filter14_d_2335_137)">
<path d="M127.865 75.1388C127.859 76.3503 127.367 89.9445 125.727 96.2639C124.077 102.622 123.136 103.556 119.862 100.177C114.858 95.0129 113.69 88.6161 112.799 86.1878C111.039 81.3936 109.733 71.4871 110.101 73.2061C110.327 74.2588 108.6 73.5369 112.935 60.4163C115.802 51.7413 118.314 47.9708 120.7 45.5799C123.95 42.3229 124.359 43.0095 125.919 49.5772C127.471 56.1049 127.889 69.9513 127.865 75.1388Z" fill="#FB79B9"/>
<path d="M127.865 75.1388C127.859 76.3503 127.367 89.9445 125.727 96.2639C124.077 102.622 123.136 103.556 119.862 100.177C114.858 95.0129 113.69 88.6161 112.799 86.1878C111.039 81.3936 109.733 71.4871 110.101 73.2061C110.327 74.2588 108.6 73.5369 112.935 60.4163C115.802 51.7413 118.314 47.9708 120.7 45.5799C123.95 42.3229 124.359 43.0095 125.919 49.5772C127.471 56.1049 127.889 69.9513 127.865 75.1388Z" fill="url(#paint22_linear_2335_137)" fill-opacity="0.4"/>
</g>
<g filter="url(#filter15_d_2335_137)">
<path d="M5.76395 88.5835C5.54708 87.563 3.55652 76.01 4.09068 70.3071C4.62811 64.5693 5.42918 63.5617 9.43561 65.6336C15.559 68.8003 17.9422 73.9071 19.3103 75.7402C22.0114 79.3593 25.182 87.3866 24.4856 86.027C24.0591 85.1944 25.9766 85.3953 23.9066 97.4547C22.5379 105.428 20.6337 109.192 18.6064 111.765C15.8447 115.271 15.2959 114.789 12.4748 109.631C9.67084 104.504 6.69259 92.9536 5.76395 88.5835Z" fill="#FB79B9"/>
<path d="M5.76395 88.5835C5.54708 87.563 3.55652 76.01 4.09068 70.3071C4.62811 64.5693 5.42918 63.5617 9.43561 65.6336C15.559 68.8003 17.9422 73.9071 19.3103 75.7402C22.0114 79.3593 25.182 87.3866 24.4856 86.027C24.0591 85.1944 25.9766 85.3953 23.9066 97.4547C22.5379 105.428 20.6337 109.192 18.6064 111.765C15.8447 115.271 15.2959 114.789 12.4748 109.631C9.67084 104.504 6.69259 92.9536 5.76395 88.5835Z" fill="url(#paint23_linear_2335_137)" fill-opacity="0.4"/>
</g>
<g filter="url(#filter16_d_2335_137)">
<path d="M95.5946 70.0149C95.6753 71.2949 95.7239 76.5515 91.4848 83.8558C87.2197 91.2047 79.7671 97.9746 69.8657 99.0693C59.9642 100.164 51.7668 95.1242 46.6401 88.8136C41.5447 82.5412 40.9342 77.3469 40.8534 76.0668C40.7727 74.7867 40.724 69.5302 44.9632 62.2258C49.2283 54.8769 56.6808 48.1069 66.5823 47.0123C76.4838 45.9177 84.6812 50.9574 89.8079 57.268C94.9032 63.5403 95.5138 68.7348 95.5946 70.0149Z" fill="#FFDA09"/>
<path d="M95.5946 70.0149C95.6753 71.2949 95.7239 76.5515 91.4848 83.8558C87.2197 91.2047 79.7671 97.9746 69.8657 99.0693C59.9642 100.164 51.7668 95.1242 46.6401 88.8136C41.5447 82.5412 40.9342 77.3469 40.8534 76.0668C40.7727 74.7867 40.724 69.5302 44.9632 62.2258C49.2283 54.8769 56.6808 48.1069 66.5823 47.0123C76.4838 45.9177 84.6812 50.9574 89.8079 57.268C94.9032 63.5403 95.5138 68.7348 95.5946 70.0149Z" fill="url(#paint24_linear_2335_137)" fill-opacity="0.2"/>
</g>
<defs>
<filter id="filter0_d_2335_137" x="12.1848" y="81.6992" width="67.0251" height="63.2734" filterUnits="userSpaceOnUse" color-interpolation-filters="sRGB">
<feFlood flood-opacity="0" result="BackgroundImageFix"/>
<feColorMatrix in="SourceAlpha" type="matrix" values="0 0 0 0 0 0 0 0 0 0 0 0 0 0 0 0 0 0 127 0" result="hardAlpha"/>
<feOffset dy="1"/>
<feGaussianBlur stdDeviation="2"/>
<feComposite in2="hardAlpha" operator="out"/>
<feColorMatrix type="matrix" values="0 0 0 0 0 0 0 0 0 0 0 0 0 0 0 0 0 0 0.2 0"/>
<feBlend mode="normal" in2="BackgroundImageFix" result="effect1_dropShadow_2335_137"/>
<feBlend mode="normal" in="SourceGraphic" in2="effect1_dropShadow_2335_137" result="shape"/>
</filter>
<filter id="filter1_d_2335_137" x="73.231" y="71.5391" width="60.3184" height="65.291" filterUnits="userSpaceOnUse" color-interpolation-filters="sRGB">
<feFlood flood-opacity="0" result="BackgroundImageFix"/>
<feColorMatrix in="SourceAlpha" type="matrix" values="0 0 0 0 0 0 0 0 0 0 0 0 0 0 0 0 0 0 127 0" result="hardAlpha"/>
<feOffset dy="1"/>
<feGaussianBlur stdDeviation="2"/>
<feComposite in2="hardAlpha" operator="out"/>
<feColorMatrix type="matrix" values="0 0 0 0 0 0 0 0 0 0 0 0 0 0 0 0 0 0 0.2 0"/>
<feBlend mode="normal" in2="BackgroundImageFix" result="effect1_dropShadow_2335_137"/>
<feBlend mode="normal" in="SourceGraphic" in2="effect1_dropShadow_2335_137" result="shape"/>
</filter>
<filter id="filter2_d_2335_137" x="64.5149" y="8.17773" width="62.7402" height="62.7598" filterUnits="userSpaceOnUse" color-interpolation-filters="sRGB">
<feFlood flood-opacity="0" result="BackgroundImageFix"/>
<feColorMatrix in="SourceAlpha" type="matrix" values="0 0 0 0 0 0 0 0 0 0 0 0 0 0 0 0 0 0 127 0" result="hardAlpha"/>
<feOffset dy="1"/>
<feGaussianBlur stdDeviation="2"/>
<feComposite in2="hardAlpha" operator="out"/>
<feColorMatrix type="matrix" values="0 0 0 0 0 0 0 0 0 0 0 0 0 0 0 0 0 0 0.2 0"/>
<feBlend mode="normal" in2="BackgroundImageFix" result="effect1_dropShadow_2335_137"/>
<feBlend mode="normal" in="SourceGraphic" in2="effect1_dropShadow_2335_137" result="shape"/>
</filter>
<filter id="filter3_d_2335_137" x="3.04883" y="17.5449" width="60.3003" height="65.3145" filterUnits="userSpaceOnUse" color-interpolation-filters="sRGB">
<feFlood flood-opacity="0" result="BackgroundImageFix"/>
<feColorMatrix in="SourceAlpha" type="matrix" values="0 0 0 0 0 0 0 0 0 0 0 0 0 0 0 0 0 0 127 0" result="hardAlpha"/>
<feOffset dy="1"/>
<feGaussianBlur stdDeviation="2"/>
<feComposite in2="hardAlpha" operator="out"/>
<feColorMatrix type="matrix" values="0 0 0 0 0 0 0 0 0 0 0 0 0 0 0 0 0 0 0.2 0"/>
<feBlend mode="normal" in2="BackgroundImageFix" result="effect1_dropShadow_2335_137"/>
<feBlend mode="normal" in="SourceGraphic" in2="effect1_dropShadow_2335_137" result="shape"/>
</filter>
<filter id="filter4_d_2335_137" x="1.69141" y="62.3633" width="65.3411" height="56.4141" filterUnits="userSpaceOnUse" color-interpolation-filters="sRGB">
<feFlood flood-opacity="0" result="BackgroundImageFix"/>
<feColorMatrix in="SourceAlpha" type="matrix" values="0 0 0 0 0 0 0 0 0 0 0 0 0 0 0 0 0 0 127 0" result="hardAlpha"/>
<feOffset dy="1"/>
<feGaussianBlur stdDeviation="2"/>
<feComposite in2="hardAlpha" operator="out"/>
<feColorMatrix type="matrix" values="0 0 0 0 0 0 0 0 0 0 0 0 0 0 0 0 0 0 0.2 0"/>
<feBlend mode="normal" in2="BackgroundImageFix" result="effect1_dropShadow_2335_137"/>
<feBlend mode="normal" in="SourceGraphic" in2="effect1_dropShadow_2335_137" result="shape"/>
</filter>
<filter id="filter5_d_2335_137" x="33.6909" y="8.32031" width="60.1301" height="63.9102" filterUnits="userSpaceOnUse" color-interpolation-filters="sRGB">
<feFlood flood-opacity="0" result="BackgroundImageFix"/>
<feColorMatrix in="SourceAlpha" type="matrix" values="0 0 0 0 0 0 0 0 0 0 0 0 0 0 0 0 0 0 127 0" result="hardAlpha"/>
<feOffset dy="1"/>
<feGaussianBlur stdDeviation="2"/>
<feComposite in2="hardAlpha" operator="out"/>
<feColorMatrix type="matrix" values="0 0 0 0 0 0 0 0 0 0 0 0 0 0 0 0 0 0 0.2 0"/>
<feBlend mode="normal" in2="BackgroundImageFix" result="effect1_dropShadow_2335_137"/>
<feBlend mode="normal" in="SourceGraphic" in2="effect1_dropShadow_2335_137" result="shape"/>
</filter>
<filter id="filter6_d_2335_137" x="64.5598" y="43.6836" width="64.1985" height="63.8711" filterUnits="userSpaceOnUse" color-interpolation-filters="sRGB">
<feFlood flood-opacity="0" result="BackgroundImageFix"/>
<feColorMatrix in="SourceAlpha" type="matrix" values="0 0 0 0 0 0 0 0 0 0 0 0 0 0 0 0 0 0 127 0" result="hardAlpha"/>
<feOffset dy="1"/>
<feGaussianBlur stdDeviation="2"/>
<feComposite in2="hardAlpha" operator="out"/>
<feColorMatrix type="matrix" values="0 0 0 0 0 0 0 0 0 0 0 0 0 0 0 0 0 0 0.2 0"/>
<feBlend mode="normal" in2="BackgroundImageFix" result="effect1_dropShadow_2335_137"/>
<feBlend mode="normal" in="SourceGraphic" in2="effect1_dropShadow_2335_137" result="shape"/>
</filter>
<filter id="filter7_d_2335_137" x="54.9341" y="84.0586" width="55.2791" height="61.6797" filterUnits="userSpaceOnUse" color-interpolation-filters="sRGB">
<feFlood flood-opacity="0" result="BackgroundImageFix"/>
<feColorMatrix in="SourceAlpha" type="matrix" values="0 0 0 0 0 0 0 0 0 0 0 0 0 0 0 0 0 0 127 0" result="hardAlpha"/>
<feOffset dy="1"/>
<feGaussianBlur stdDeviation="2"/>
<feComposite in2="hardAlpha" operator="out"/>
<feColorMatrix type="matrix" values="0 0 0 0 0 0 0 0 0 0 0 0 0 0 0 0 0 0 0.2 0"/>
<feBlend mode="normal" in2="BackgroundImageFix" result="effect1_dropShadow_2335_137"/>
<feBlend mode="normal" in="SourceGraphic" in2="effect1_dropShadow_2335_137" result="shape"/>
</filter>
<filter id="filter8_d_2335_137" x="1.49072" y="13.3125" width="47.3906" height="59.1914" filterUnits="userSpaceOnUse" color-interpolation-filters="sRGB">
<feFlood flood-opacity="0" result="BackgroundImageFix"/>
<feColorMatrix in="SourceAlpha" type="matrix" values="0 0 0 0 0 0 0 0 0 0 0 0 0 0 0 0 0 0 127 0" result="hardAlpha"/>
<feOffset dy="1"/>
<feGaussianBlur stdDeviation="2"/>
<feComposite in2="hardAlpha" operator="out"/>
<feColorMatrix type="matrix" values="0 0 0 0 0 0 0 0 0 0 0 0 0 0 0 0 0 0 0.2 0"/>
<feBlend mode="normal" in2="BackgroundImageFix" result="effect1_dropShadow_2335_137"/>
<feBlend mode="normal" in="SourceGraphic" in2="effect1_dropShadow_2335_137" result="shape"/>
</filter>
<filter id="filter9_d_2335_137" x="58.2285" y="114.137" width="52.6985" height="31.6992" filterUnits="userSpaceOnUse" color-interpolation-filters="sRGB">
<feFlood flood-opacity="0" result="BackgroundImageFix"/>
<feColorMatrix in="SourceAlpha" type="matrix" values="0 0 0 0 0 0 0 0 0 0 0 0 0 0 0 0 0 0 127 0" result="hardAlpha"/>
<feOffset dy="1"/>
<feGaussianBlur stdDeviation="2"/>
<feComposite in2="hardAlpha" operator="out"/>
<feColorMatrix type="matrix" values="0 0 0 0 0 0 0 0 0 0 0 0 0 0 0 0 0 0 0.2 0"/>
<feBlend mode="normal" in2="BackgroundImageFix" result="effect1_dropShadow_2335_137"/>
<feBlend mode="normal" in="SourceGraphic" in2="effect1_dropShadow_2335_137" result="shape"/>
</filter>
<filter id="filter10_d_2335_137" x="80.3818" y="4.94336" width="49.0247" height="51.9922" filterUnits="userSpaceOnUse" color-interpolation-filters="sRGB">
<feFlood flood-opacity="0" result="BackgroundImageFix"/>
<feColorMatrix in="SourceAlpha" type="matrix" values="0 0 0 0 0 0 0 0 0 0 0 0 0 0 0 0 0 0 127 0" result="hardAlpha"/>
<feOffset dy="1"/>
<feGaussianBlur stdDeviation="2"/>
<feComposite in2="hardAlpha" operator="out"/>
<feColorMatrix type="matrix" values="0 0 0 0 0 0 0 0 0 0 0 0 0 0 0 0 0 0 0.2 0"/>
<feBlend mode="normal" in2="BackgroundImageFix" result="effect1_dropShadow_2335_137"/>
<feBlend mode="normal" in="SourceGraphic" in2="effect1_dropShadow_2335_137" result="shape"/>
</filter>
<filter id="filter11_d_2335_137" x="12.9771" y="111.176" width="62.7429" height="34.6641" filterUnits="userSpaceOnUse" color-interpolation-filters="sRGB">
<feFlood flood-opacity="0" result="BackgroundImageFix"/>
<feColorMatrix in="SourceAlpha" type="matrix" values="0 0 0 0 0 0 0 0 0 0 0 0 0 0 0 0 0 0 127 0" result="hardAlpha"/>
<feOffset dy="1"/>
<feGaussianBlur stdDeviation="2"/>
<feComposite in2="hardAlpha" operator="out"/>
<feColorMatrix type="matrix" values="0 0 0 0 0 0 0 0 0 0 0 0 0 0 0 0 0 0 0.2 0"/>
<feBlend mode="normal" in2="BackgroundImageFix" result="effect1_dropShadow_2335_137"/>
<feBlend mode="normal" in="SourceGraphic" in2="effect1_dropShadow_2335_137" result="shape"/>
</filter>
<filter id="filter12_d_2335_137" x="32.6311" y="6.38867" width="62.0063" height="27.9473" filterUnits="userSpaceOnUse" color-interpolation-filters="sRGB">
<feFlood flood-opacity="0" result="BackgroundImageFix"/>
<feColorMatrix in="SourceAlpha" type="matrix" values="0 0 0 0 0 0 0 0 0 0 0 0 0 0 0 0 0 0 127 0" result="hardAlpha"/>
<feOffset dy="1"/>
<feGaussianBlur stdDeviation="2"/>
<feComposite in2="hardAlpha" operator="out"/>
<feColorMatrix type="matrix" values="0 0 0 0 0 0 0 0 0 0 0 0 0 0 0 0 0 0 0.2 0"/>
<feBlend mode="normal" in2="BackgroundImageFix" result="effect1_dropShadow_2335_137"/>
<feBlend mode="normal" in="SourceGraphic" in2="effect1_dropShadow_2335_137" result="shape"/>
</filter>
<filter id="filter13_d_2335_137" x="88.1223" y="81.5391" width="46.6199" height="55.7266" filterUnits="userSpaceOnUse" color-interpolation-filters="sRGB">
<feFlood flood-opacity="0" result="BackgroundImageFix"/>
<feColorMatrix in="SourceAlpha" type="matrix" values="0 0 0 0 0 0 0 0 0 0 0 0 0 0 0 0 0 0 127 0" result="hardAlpha"/>
<feOffset dy="1"/>
<feGaussianBlur stdDeviation="2"/>
<feComposite in2="hardAlpha" operator="out"/>
<feColorMatrix type="matrix" values="0 0 0 0 0 0 0 0 0 0 0 0 0 0 0 0 0 0 0.2 0"/>
<feBlend mode="normal" in2="BackgroundImageFix" result="effect1_dropShadow_2335_137"/>
<feBlend mode="normal" in="SourceGraphic" in2="effect1_dropShadow_2335_137" result="shape"/>
</filter>
<filter id="filter14_d_2335_137" x="105.946" y="40.6816" width="25.9199" height="66.418" filterUnits="userSpaceOnUse" color-interpolation-filters="sRGB">
<feFlood flood-opacity="0" result="BackgroundImageFix"/>
<feColorMatrix in="SourceAlpha" type="matrix" values="0 0 0 0 0 0 0 0 0 0 0 0 0 0 0 0 0 0 127 0" result="hardAlpha"/>
<feOffset dy="1"/>
<feGaussianBlur stdDeviation="2"/>
<feComposite in2="hardAlpha" operator="out"/>
<feColorMatrix type="matrix" values="0 0 0 0 0 0 0 0 0 0 0 0 0 0 0 0 0 0 0.2 0"/>
<feBlend mode="normal" in2="BackgroundImageFix" result="effect1_dropShadow_2335_137"/>
<feBlend mode="normal" in="SourceGraphic" in2="effect1_dropShadow_2335_137" result="shape"/>
</filter>
<filter id="filter15_d_2335_137" x="0" y="61.6445" width="28.8875" height="57.377" filterUnits="userSpaceOnUse" color-interpolation-filters="sRGB">
<feFlood flood-opacity="0" result="BackgroundImageFix"/>
<feColorMatrix in="SourceAlpha" type="matrix" values="0 0 0 0 0 0 0 0 0 0 0 0 0 0 0 0 0 0 127 0" result="hardAlpha"/>
<feOffset dy="1"/>
<feGaussianBlur stdDeviation="2"/>
<feComposite in2="hardAlpha" operator="out"/>
<feColorMatrix type="matrix" values="0 0 0 0 0 0 0 0 0 0 0 0 0 0 0 0 0 0 0.2 0"/>
<feBlend mode="normal" in2="BackgroundImageFix" result="effect1_dropShadow_2335_137"/>
<feBlend mode="normal" in="SourceGraphic" in2="effect1_dropShadow_2335_137" result="shape"/>
</filter>
<filter id="filter16_d_2335_137" x="36.833" y="42.8613" width="62.782" height="60.3574" filterUnits="userSpaceOnUse" color-interpolation-filters="sRGB">
<feFlood flood-opacity="0" result="BackgroundImageFix"/>
<feColorMatrix in="SourceAlpha" type="matrix" values="0 0 0 0 0 0 0 0 0 0 0 0 0 0 0 0 0 0 127 0" result="hardAlpha"/>
<feOffset/>
<feGaussianBlur stdDeviation="2"/>
<feComposite in2="hardAlpha" operator="out"/>
<feColorMatrix type="matrix" values="0 0 0 0 0 0 0 0 0 0 0 0 0 0 0 0 0 0 0.25 0"/>
<feBlend mode="normal" in2="BackgroundImageFix" result="effect1_dropShadow_2335_137"/>
<feBlend mode="normal" in="SourceGraphic" in2="effect1_dropShadow_2335_137" result="shape"/>
</filter>
<linearGradient id="paint0_linear_2335_137" x1="36.5108" y1="138.433" x2="58.615" y2="83.7021" gradientUnits="userSpaceOnUse">
<stop offset="0.403846" stop-color="#FFDA09"/>
<stop offset="0.740385" stop-color="#945758"/>
</linearGradient>
<linearGradient id="paint1_linear_2335_137" x1="36.5108" y1="138.433" x2="58.615" y2="83.7021" gradientUnits="userSpaceOnUse">
<stop offset="0.403846" stop-color="#FFDA09"/>
<stop offset="0.740385" stop-color="#945758"/>
</linearGradient>
<linearGradient id="paint2_linear_2335_137" x1="119.599" y1="118.445" x2="74.9979" y2="84.4952" gradientUnits="userSpaceOnUse">
<stop offset="0.403846" stop-color="#FFDA09"/>
<stop offset="0.740385" stop-color="white"/>
</linearGradient>
<linearGradient id="paint3_linear_2335_137" x1="119.599" y1="118.445" x2="74.9979" y2="84.4952" gradientUnits="userSpaceOnUse">
<stop offset="0.403846" stop-color="#FFDA09"/>
<stop offset="0.740385" stop-color="white"/>
</linearGradient>
<linearGradient id="paint4_linear_2335_137" x1="113.268" y1="25.1892" x2="72.5628" y2="64.0594" gradientUnits="userSpaceOnUse">
<stop offset="0.403846" stop-color="#FFDA09"/>
<stop offset="0.740385" stop-color="#945758" stop-opacity="0.97"/>
</linearGradient>
<linearGradient id="paint5_linear_2335_137" x1="113.268" y1="25.1892" x2="72.5628" y2="64.0594" gradientUnits="userSpaceOnUse">
<stop offset="0.403846" stop-color="#FFDA09"/>
<stop offset="0.740385" stop-color="#945758" stop-opacity="0.97"/>
</linearGradient>
<linearGradient id="paint6_linear_2335_137" x1="16.854" y1="34.0491" x2="61.6123" y2="67.7748" gradientUnits="userSpaceOnUse">
<stop offset="0.403846" stop-color="#FFDA09"/>
<stop offset="0.740385" stop-color="#945758" stop-opacity="0.97"/>
</linearGradient>
<linearGradient id="paint7_linear_2335_137" x1="16.854" y1="34.0491" x2="61.6123" y2="67.7748" gradientUnits="userSpaceOnUse">
<stop offset="0.403846" stop-color="#FFDA09"/>
<stop offset="0.740385" stop-color="#945758" stop-opacity="0.97"/>
</linearGradient>
<linearGradient id="paint8_linear_2335_137" x1="-0.708459" y1="90.4192" x2="62.1853" y2="78.4073" gradientUnits="userSpaceOnUse">
<stop offset="0.403846" stop-color="#FFDA09"/>
<stop offset="0.740385" stop-color="#945758" stop-opacity="0.97"/>
</linearGradient>
<linearGradient id="paint9_linear_2335_137" x1="-0.708459" y1="90.4192" x2="62.1853" y2="78.4073" gradientUnits="userSpaceOnUse">
<stop offset="0.403846" stop-color="#FFDA09"/>
<stop offset="0.740385" stop-color="#945758" stop-opacity="0.97"/>
</linearGradient>
<linearGradient id="paint10_linear_2335_137" x1="65.3571" y1="3.06079" x2="70.4432" y2="66.7152" gradientUnits="userSpaceOnUse">
<stop offset="0.403846" stop-color="#FFDA09"/>
<stop offset="0.740385" stop-color="#945758" stop-opacity="0.97"/>
</linearGradient>
<linearGradient id="paint11_linear_2335_137" x1="65.3571" y1="3.06079" x2="70.4432" y2="66.7152" gradientUnits="userSpaceOnUse">
<stop offset="0.403846" stop-color="#FFDA09"/>
<stop offset="0.740385" stop-color="#945758" stop-opacity="0.97"/>
</linearGradient>
<linearGradient id="paint12_linear_2335_137" x1="132.729" y1="76.0438" x2="69.0826" y2="81.7363" gradientUnits="userSpaceOnUse">
<stop offset="0.403846" stop-color="#FFDA09"/>
<stop offset="0.740385" stop-color="#945758" stop-opacity="0.97"/>
</linearGradient>
<linearGradient id="paint13_linear_2335_137" x1="132.729" y1="76.0438" x2="69.0826" y2="81.7363" gradientUnits="userSpaceOnUse">
<stop offset="0.403846" stop-color="#FFDA09"/>
<stop offset="0.740385" stop-color="#945758" stop-opacity="0.97"/>
</linearGradient>
<linearGradient id="paint14_linear_2335_137" x1="86.6037" y1="141.833" x2="64.1136" y2="89.559" gradientUnits="userSpaceOnUse">
<stop offset="0.403846" stop-color="#FFDA09"/>
<stop offset="0.740385" stop-color="#945758" stop-opacity="0.97"/>
</linearGradient>
<linearGradient id="paint15_linear_2335_137" x1="86.6037" y1="141.833" x2="64.1136" y2="89.559" gradientUnits="userSpaceOnUse">
<stop offset="0.403846" stop-color="#FFDA09"/>
<stop offset="0.740385" stop-color="#945758" stop-opacity="0.97"/>
</linearGradient>
<linearGradient id="paint16_linear_2335_137" x1="19.3421" y1="31.8255" x2="39.8822" y2="46.439" gradientUnits="userSpaceOnUse">
<stop offset="0.403846" stop-color="#FFDA09"/>
<stop offset="0.740385" stop-color="white"/>
</linearGradient>
<linearGradient id="paint17_linear_2335_137" x1="83.6498" y1="138.077" x2="76.602" y2="122.008" gradientUnits="userSpaceOnUse">
<stop offset="0.403846" stop-color="#FFDA09"/>
<stop offset="0.740385" stop-color="white"/>
</linearGradient>
<linearGradient id="paint18_linear_2335_137" x1="114.62" y1="26.2235" x2="97.4657" y2="42.3558" gradientUnits="userSpaceOnUse">
<stop offset="0.403846" stop-color="#FFDA09"/>
<stop offset="0.740385" stop-color="white"/>
</linearGradient>
<linearGradient id="paint19_linear_2335_137" x1="37.7557" y1="133.947" x2="44.6306" y2="116.925" gradientUnits="userSpaceOnUse">
<stop offset="0.403846" stop-color="#FFDA09"/>
<stop offset="0.740385" stop-color="white"/>
</linearGradient>
<linearGradient id="paint20_linear_2335_137" x1="67.0468" y1="7.14305" x2="69.2486" y2="27.1185" gradientUnits="userSpaceOnUse">
<stop offset="0.403846" stop-color="#FFDA09"/>
<stop offset="0.740385" stop-color="white"/>
</linearGradient>
<linearGradient id="paint21_linear_2335_137" x1="116.024" y1="117.861" x2="97.94" y2="103.996" gradientUnits="userSpaceOnUse">
<stop offset="0.403846" stop-color="#FFDA09"/>
<stop offset="0.740385" stop-color="white"/>
</linearGradient>
<linearGradient id="paint22_linear_2335_137" x1="130.219" y1="77.4522" x2="111.495" y2="77.3225" gradientUnits="userSpaceOnUse">
<stop offset="0.403846" stop-color="#FFDA09"/>
<stop offset="0.740385" stop-color="white"/>
</linearGradient>
<linearGradient id="paint23_linear_2335_137" x1="2.90513" y1="87.1915" x2="22.3358" y2="83.119" gradientUnits="userSpaceOnUse">
<stop offset="0.403846" stop-color="#FFDA09"/>
<stop offset="0.740385" stop-color="white"/>
</linearGradient>
<linearGradient id="paint24_linear_2335_137" x1="66.5823" y1="47.0123" x2="68.7681" y2="79.8672" gradientUnits="userSpaceOnUse">
<stop stop-color="white" stop-opacity="0.8"/>
<stop offset="1" stop-color="white" stop-opacity="0"/>
</linearGradient>
</defs>
</svg>
