<svg width="245" height="244" viewBox="0 0 245 244" fill="none" xmlns="http://www.w3.org/2000/svg">
<path d="M133.352 69.0015C133.392 68.9104 133.398 68.808 133.367 68.7156C133.336 68.6231 133.27 68.5483 133.184 68.5074C133.098 68.4665 132.998 68.4626 132.906 68.4963C132.813 68.5299 132.736 68.5987 132.689 68.686C132.689 68.686 132.689 68.686 132.689 68.686C132.227 69.5409 131.796 70.3822 131.377 71.2451C127.605 78.9992 125.47 87.6364 125.465 96.2449C125.465 104.831 127.408 113.424 131.646 120.698C132.124 121.498 132.643 122.288 133.195 123.022C133.253 123.098 133.338 123.15 133.433 123.165C133.529 123.179 133.627 123.154 133.707 123.096C133.787 123.038 133.842 122.951 133.861 122.853C133.88 122.755 133.861 122.656 133.811 122.574C133.811 122.574 133.811 122.574 133.811 122.574C133.343 121.816 132.906 121.006 132.507 120.191C128.973 112.779 127.451 104.456 127.446 96.1732C127.457 87.8672 129.161 79.5206 132.269 71.6219C132.613 70.7435 132.969 69.8817 133.352 69.0015Z" fill="#935713"/>
<path d="M138.925 140.914C138.365 140.009 137.82 139.118 137.279 138.23C132.368 130.175 127.736 122.235 123.397 114.138C119.113 106.03 114.908 97.8678 111.94 88.9187C111.626 87.9189 111.337 86.9222 111.109 85.8809C111.007 86.955 110.985 88.0253 111.01 89.1078C111.372 98.8858 114.56 108.254 119.018 116.661C123.53 125.09 129.531 132.568 136.55 138.863C137.325 139.556 138.114 140.236 138.925 140.914Z" fill="#096F1F"/>
<g filter="url(#filter0_d_2330_66)">
<path d="M130.759 108.665C131.609 109.588 137.58 112.249 149.03 110.687C151.401 110.364 159.099 111.385 179.457 95.3495C198.507 80.3447 198.163 71.6684 203.925 57.6576C208.328 46.9521 207.266 34.0587 206.834 36.8556C206.57 38.5686 213.599 31.1738 185.776 38.0944C167.38 42.6701 150.897 47.8894 142.987 59.6369C132.142 75.7434 133.972 68.6326 127.847 90.9919C124.815 102.061 127.121 104.714 130.759 108.665Z" fill="url(#paint0_linear_2330_66)"/>
<path d="M130.759 108.665C131.609 109.588 137.58 112.249 149.03 110.687C151.401 110.364 159.099 111.385 179.457 95.3495C198.507 80.3447 198.163 71.6684 203.925 57.6576C208.328 46.9521 207.266 34.0587 206.834 36.8556C206.57 38.5686 213.599 31.1738 185.776 38.0944C167.38 42.6701 150.897 47.8894 142.987 59.6369C132.142 75.7434 133.972 68.6326 127.847 90.9919C124.815 102.061 127.121 104.714 130.759 108.665Z" fill="url(#paint1_linear_2330_66)" fill-opacity="0.4"/>
</g>
<g filter="url(#filter1_d_2330_66)">
<path d="M111.899 109.674C112.767 108.77 115.215 102.474 113.549 90.5014C113.204 88.0225 114.06 79.942 98.4469 58.8582C83.8368 39.1293 75.5626 39.6226 62.1045 33.8004C51.8213 29.3517 39.5338 30.6609 42.2095 31.0707C43.8481 31.3217 36.684 24.0709 43.714 53.1144C48.3621 72.3172 53.5949 89.5065 64.9262 97.6139C80.462 108.73 73.6485 106.921 95.0788 112.996C105.688 116.004 108.185 113.547 111.899 109.674Z" fill="url(#paint2_linear_2330_66)"/>
<path d="M111.899 109.674C112.767 108.77 115.215 102.474 113.549 90.5014C113.204 88.0225 114.06 79.942 98.4469 58.8582C83.8368 39.1293 75.5626 39.6226 62.1045 33.8004C51.8213 29.3517 39.5338 30.6609 42.2095 31.0707C43.8481 31.3217 36.684 24.0709 43.714 53.1144C48.3621 72.3172 53.5949 89.5065 64.9262 97.6139C80.462 108.73 73.6485 106.921 95.0788 112.996C105.688 116.004 108.185 113.547 111.899 109.674Z" fill="url(#paint3_linear_2330_66)" fill-opacity="0.4"/>
</g>
<g filter="url(#filter2_d_2330_66)">
<path d="M137.61 122.814C138.031 124.018 142.468 128.979 153.545 132.395C155.838 133.102 162.487 137.293 187.292 131.239C210.502 125.573 213.532 117.49 224.203 107.11C232.356 99.1797 236.355 86.9354 234.882 89.3113C233.979 90.7664 243.26 86.9757 215.139 81.5338C196.547 77.9357 179.456 75.7356 167.692 83.1355C151.563 93.281 155.978 87.5504 141.757 105.413C134.717 114.256 135.804 117.66 137.61 122.814Z" fill="url(#paint4_linear_2330_66)"/>
<path d="M137.61 122.814C138.031 124.018 142.468 128.979 153.545 132.395C155.838 133.102 162.487 137.293 187.292 131.239C210.502 125.573 213.532 117.49 224.203 107.11C232.356 99.1797 236.355 86.9354 234.882 89.3113C233.979 90.7664 243.26 86.9757 215.139 81.5338C196.547 77.9357 179.456 75.7356 167.692 83.1355C151.563 93.281 155.978 87.5504 141.757 105.413C134.717 114.256 135.804 117.66 137.61 122.814Z" fill="url(#paint5_linear_2330_66)" fill-opacity="0.4"/>
</g>
<g filter="url(#filter3_d_2330_66)">
<path d="M115.613 134.216C114.537 134.826 110.49 140.14 108.856 152.117C108.518 154.597 105.516 162.094 114.801 186.944C123.49 210.197 131.559 212.175 142.897 221.748C151.559 229.062 163.698 231.448 161.243 230.262C159.739 229.535 164.653 238.613 165.749 208.672C166.474 188.876 166.094 170.838 157.414 159.703C145.512 144.438 151.559 148.191 132.644 136.014C123.28 129.986 120.222 131.602 115.613 134.216Z" fill="url(#paint6_linear_2330_66)"/>
<path d="M115.613 134.216C114.537 134.826 110.49 140.14 108.856 152.117C108.518 154.597 105.516 162.094 114.801 186.944C123.49 210.197 131.559 212.175 142.897 221.748C151.559 229.062 163.698 231.448 161.243 230.262C159.739 229.535 164.653 238.613 165.749 208.672C166.474 188.876 166.094 170.838 157.414 159.703C145.512 144.438 151.559 148.191 132.644 136.014C123.28 129.986 120.222 131.602 115.613 134.216Z" fill="url(#paint7_linear_2330_66)" fill-opacity="0.4"/>
</g>
<g filter="url(#filter4_d_2330_66)">
<path d="M107.597 130.506C106.958 129.412 101.679 125.461 90.1773 124.39C87.7959 124.168 80.4912 121.426 57.3039 132.466C35.6067 142.797 34.151 151.346 25.6325 163.718C19.1236 173.172 17.4972 186.001 18.4966 183.368C19.1086 181.756 10.7193 187.382 39.312 186.933C58.2166 186.636 75.387 185.277 85.5355 175.601C99.4496 162.335 96.1945 168.862 106.792 148.421C112.038 138.302 110.334 135.188 107.597 130.506Z" fill="url(#paint8_linear_2330_66)"/>
<path d="M107.597 130.506C106.958 129.412 101.679 125.461 90.1773 124.39C87.7959 124.168 80.4912 121.426 57.3039 132.466C35.6067 142.797 34.151 151.346 25.6325 163.718C19.1236 173.172 17.4972 186.001 18.4966 183.368C19.1086 181.756 10.7193 187.382 39.312 186.933C58.2166 186.636 75.387 185.277 85.5355 175.601C99.4496 162.335 96.1945 168.862 106.792 148.421C112.038 138.302 110.334 135.188 107.597 130.506Z" fill="url(#paint9_linear_2330_66)" fill-opacity="0.4"/>
</g>
<g filter="url(#filter5_d_2330_66)">
<path d="M124.56 111.205C125.784 111.19 131.726 108.46 138.492 98.6564C139.893 96.6265 145.88 91.4551 148.7 64.9325C151.338 40.1144 145.075 34.4276 139.292 20.4262C134.874 9.72786 125.189 1.6966 126.836 3.94391C127.845 5.32021 127.527 -5.11116 113.258 20.8549C103.823 38.0229 96.147 54.1736 98.8843 68.2617C102.637 87.5771 98.9523 81.3057 110.285 101.309C115.896 111.211 119.32 111.271 124.56 111.205Z" fill="url(#paint10_linear_2330_66)"/>
<path d="M124.56 111.205C125.784 111.19 131.726 108.46 138.492 98.6564C139.893 96.6265 145.88 91.4551 148.7 64.9325C151.338 40.1144 145.075 34.4276 139.292 20.4262C134.874 9.72786 125.189 1.6966 126.836 3.94391C127.845 5.32021 127.527 -5.11116 113.258 20.8549C103.823 38.0229 96.147 54.1736 98.8843 68.2617C102.637 87.5771 98.9523 81.3057 110.285 101.309C115.896 111.211 119.32 111.271 124.56 111.205Z" fill="url(#paint11_linear_2330_66)" fill-opacity="0.4"/>
</g>
<g filter="url(#filter6_d_2330_66)">
<path d="M131.324 131.416C130.862 132.603 130.95 139.401 136.938 149.746C138.178 151.888 140.396 159.678 162.619 172.716C183.414 184.915 190.85 181.081 205.409 180.944C216.534 180.84 227.362 174.615 224.746 175.331C223.143 175.769 232.439 179.519 215.158 155.646C203.733 139.861 192.518 126.17 179.067 123.333C160.625 119.443 167.572 118.325 145.577 121.486C134.689 123.05 133.304 126.332 131.324 131.416Z" fill="url(#paint12_linear_2330_66)"/>
<path d="M131.324 131.416C130.862 132.603 130.95 139.401 136.938 149.746C138.178 151.888 140.396 159.678 162.619 172.716C183.414 184.915 190.85 181.081 205.409 180.944C216.534 180.84 227.362 174.615 224.746 175.331C223.143 175.769 232.439 179.519 215.158 155.646C203.733 139.861 192.518 126.17 179.067 123.333C160.625 119.443 167.572 118.325 145.577 121.486C134.689 123.05 133.304 126.332 131.324 131.416Z" fill="url(#paint13_linear_2330_66)" fill-opacity="0.4"/>
</g>
<g filter="url(#filter7_d_2330_66)">
<path d="M106.691 121.362C106.786 120.083 104.721 113.638 96.0049 105.703C94.2002 104.06 89.8181 97.3506 64.8578 92.0439C41.5016 87.0783 35.5377 93.1081 21.7129 97.8948C11.1495 101.552 2.65194 110.944 4.93495 109.425C6.33313 108.496 -3.61094 107.897 19.7997 125.104C35.2781 136.481 49.9462 145.931 63.5819 144.33C82.2772 142.135 75.9872 145.422 96.0116 135.377C105.925 130.405 106.287 126.836 106.691 121.362Z" fill="url(#paint14_linear_2330_66)"/>
<path d="M106.691 121.362C106.786 120.083 104.721 113.638 96.0049 105.703C94.2002 104.06 89.8181 97.3506 64.8578 92.0439C41.5016 87.0783 35.5377 93.1081 21.7129 97.8948C11.1495 101.552 2.65194 110.944 4.93495 109.425C6.33313 108.496 -3.61094 107.897 19.7997 125.104C35.2781 136.481 49.9462 145.931 63.5819 144.33C82.2772 142.135 75.9872 145.422 96.0116 135.377C105.925 130.405 106.287 126.836 106.691 121.362Z" fill="url(#paint15_linear_2330_66)" fill-opacity="0.4"/>
</g>
<g filter="url(#filter8_d_2330_66)">
<path d="M115.169 128.454C113.98 128.152 107.577 129.254 98.7049 136.997C96.8678 138.6 89.8449 142.057 80.8449 167.022C72.4232 190.382 77.1474 197.517 79.4407 212.583C81.1929 224.095 88.6778 234.389 87.6134 231.784C86.9616 230.189 84.804 240.378 104.766 218.923C117.964 204.738 129.218 191.082 129.896 176.723C130.825 157.035 132.913 164.067 126.66 141.747C123.565 130.697 120.261 129.75 115.169 128.454Z" fill="url(#paint16_linear_2330_66)"/>
<path d="M115.169 128.454C113.98 128.152 107.577 129.254 98.7049 136.997C96.8678 138.6 89.8449 142.057 80.8449 167.022C72.4232 190.382 77.1474 197.517 79.4407 212.583C81.1929 224.095 88.6778 234.389 87.6134 231.784C86.9616 230.189 84.804 240.378 104.766 218.923C117.964 204.738 129.218 191.082 129.896 176.723C130.825 157.035 132.913 164.067 126.66 141.747C123.565 130.697 120.261 129.75 115.169 128.454Z" fill="url(#paint17_linear_2330_66)" fill-opacity="0.4"/>
</g>
<g opacity="0.99" filter="url(#filter9_d_2330_66)">
<path d="M153.408 112.796C153.504 114.306 153.562 120.508 148.54 129.126C143.488 137.796 134.659 145.783 122.929 147.073C111.199 148.364 101.487 142.417 95.4132 134.971C89.3763 127.57 88.6528 121.441 88.5571 119.931C88.4614 118.421 88.4034 112.219 93.4251 103.601C98.4776 94.931 107.306 86.9442 119.036 85.6535C130.766 84.363 140.478 90.3099 146.552 97.756C152.589 105.157 153.312 111.286 153.408 112.796Z" fill="#972F50"/>
<path d="M153.408 112.796C153.504 114.306 153.562 120.508 148.54 129.126C143.488 137.796 134.659 145.783 122.929 147.073C111.199 148.364 101.487 142.417 95.4132 134.971C89.3763 127.57 88.6528 121.441 88.5571 119.931C88.4614 118.421 88.4034 112.219 93.4251 103.601C98.4776 94.931 107.306 86.9442 119.036 85.6535C130.766 84.363 140.478 90.3099 146.552 97.756C152.589 105.157 153.312 111.286 153.408 112.796Z" fill="url(#paint18_linear_2330_66)" fill-opacity="0.2"/>
</g>
<defs>
<filter id="filter0_d_2330_66" x="122.445" y="32.0781" width="88.9963" height="84.0898" filterUnits="userSpaceOnUse" color-interpolation-filters="sRGB">
<feFlood flood-opacity="0" result="BackgroundImageFix"/>
<feColorMatrix in="SourceAlpha" type="matrix" values="0 0 0 0 0 0 0 0 0 0 0 0 0 0 0 0 0 0 127 0" result="hardAlpha"/>
<feOffset dy="1"/>
<feGaussianBlur stdDeviation="2"/>
<feComposite in2="hardAlpha" operator="out"/>
<feColorMatrix type="matrix" values="0 0 0 0 0 0 0 0 0 0 0 0 0 0 0 0 0 0 0.2 0"/>
<feBlend mode="normal" in2="BackgroundImageFix" result="effect1_dropShadow_2330_66"/>
<feBlend mode="normal" in="SourceGraphic" in2="effect1_dropShadow_2330_66" result="shape"/>
</filter>
<filter id="filter1_d_2330_66" x="36.5618" y="27.4414" width="81.5544" height="91.8965" filterUnits="userSpaceOnUse" color-interpolation-filters="sRGB">
<feFlood flood-opacity="0" result="BackgroundImageFix"/>
<feColorMatrix in="SourceAlpha" type="matrix" values="0 0 0 0 0 0 0 0 0 0 0 0 0 0 0 0 0 0 127 0" result="hardAlpha"/>
<feOffset dy="1"/>
<feGaussianBlur stdDeviation="2"/>
<feComposite in2="hardAlpha" operator="out"/>
<feColorMatrix type="matrix" values="0 0 0 0 0 0 0 0 0 0 0 0 0 0 0 0 0 0 0.2 0"/>
<feBlend mode="normal" in2="BackgroundImageFix" result="effect1_dropShadow_2330_66"/>
<feBlend mode="normal" in="SourceGraphic" in2="effect1_dropShadow_2330_66" result="shape"/>
</filter>
<filter id="filter2_d_2330_66" x="132.261" y="75.207" width="107.392" height="64.2578" filterUnits="userSpaceOnUse" color-interpolation-filters="sRGB">
<feFlood flood-opacity="0" result="BackgroundImageFix"/>
<feColorMatrix in="SourceAlpha" type="matrix" values="0 0 0 0 0 0 0 0 0 0 0 0 0 0 0 0 0 0 127 0" result="hardAlpha"/>
<feOffset dy="1"/>
<feGaussianBlur stdDeviation="2"/>
<feComposite in2="hardAlpha" operator="out"/>
<feColorMatrix type="matrix" values="0 0 0 0 0 0 0 0 0 0 0 0 0 0 0 0 0 0 0.2 0"/>
<feBlend mode="normal" in2="BackgroundImageFix" result="effect1_dropShadow_2330_66"/>
<feBlend mode="normal" in="SourceGraphic" in2="effect1_dropShadow_2330_66" result="shape"/>
</filter>
<filter id="filter3_d_2330_66" x="104.127" y="128.873" width="65.8669" height="107.139" filterUnits="userSpaceOnUse" color-interpolation-filters="sRGB">
<feFlood flood-opacity="0" result="BackgroundImageFix"/>
<feColorMatrix in="SourceAlpha" type="matrix" values="0 0 0 0 0 0 0 0 0 0 0 0 0 0 0 0 0 0 127 0" result="hardAlpha"/>
<feOffset dy="1"/>
<feGaussianBlur stdDeviation="2"/>
<feComposite in2="hardAlpha" operator="out"/>
<feColorMatrix type="matrix" values="0 0 0 0 0 0 0 0 0 0 0 0 0 0 0 0 0 0 0.2 0"/>
<feBlend mode="normal" in2="BackgroundImageFix" result="effect1_dropShadow_2330_66"/>
<feBlend mode="normal" in="SourceGraphic" in2="effect1_dropShadow_2330_66" result="shape"/>
</filter>
<filter id="filter4_d_2330_66" x="13.8025" y="120.93" width="100.395" height="71.0293" filterUnits="userSpaceOnUse" color-interpolation-filters="sRGB">
<feFlood flood-opacity="0" result="BackgroundImageFix"/>
<feColorMatrix in="SourceAlpha" type="matrix" values="0 0 0 0 0 0 0 0 0 0 0 0 0 0 0 0 0 0 127 0" result="hardAlpha"/>
<feOffset dy="1"/>
<feGaussianBlur stdDeviation="2"/>
<feComposite in2="hardAlpha" operator="out"/>
<feColorMatrix type="matrix" values="0 0 0 0 0 0 0 0 0 0 0 0 0 0 0 0 0 0 0.2 0"/>
<feBlend mode="normal" in2="BackgroundImageFix" result="effect1_dropShadow_2330_66"/>
<feBlend mode="normal" in="SourceGraphic" in2="effect1_dropShadow_2330_66" result="shape"/>
</filter>
<filter id="filter5_d_2330_66" x="94.3232" y="0" width="58.9978" height="116.215" filterUnits="userSpaceOnUse" color-interpolation-filters="sRGB">
<feFlood flood-opacity="0" result="BackgroundImageFix"/>
<feColorMatrix in="SourceAlpha" type="matrix" values="0 0 0 0 0 0 0 0 0 0 0 0 0 0 0 0 0 0 127 0" result="hardAlpha"/>
<feOffset dy="1"/>
<feGaussianBlur stdDeviation="2"/>
<feComposite in2="hardAlpha" operator="out"/>
<feColorMatrix type="matrix" values="0 0 0 0 0 0 0 0 0 0 0 0 0 0 0 0 0 0 0.2 0"/>
<feBlend mode="normal" in2="BackgroundImageFix" result="effect1_dropShadow_2330_66"/>
<feBlend mode="normal" in="SourceGraphic" in2="effect1_dropShadow_2330_66" result="shape"/>
</filter>
<filter id="filter6_d_2330_66" x="127.155" y="116.65" width="102.677" height="69.9707" filterUnits="userSpaceOnUse" color-interpolation-filters="sRGB">
<feFlood flood-opacity="0" result="BackgroundImageFix"/>
<feColorMatrix in="SourceAlpha" type="matrix" values="0 0 0 0 0 0 0 0 0 0 0 0 0 0 0 0 0 0 127 0" result="hardAlpha"/>
<feOffset dy="1"/>
<feGaussianBlur stdDeviation="2"/>
<feComposite in2="hardAlpha" operator="out"/>
<feColorMatrix type="matrix" values="0 0 0 0 0 0 0 0 0 0 0 0 0 0 0 0 0 0 0.2 0"/>
<feBlend mode="normal" in2="BackgroundImageFix" result="effect1_dropShadow_2330_66"/>
<feBlend mode="normal" in="SourceGraphic" in2="effect1_dropShadow_2330_66" result="shape"/>
</filter>
<filter id="filter7_d_2330_66" x="0" y="87.1855" width="110.695" height="62.3223" filterUnits="userSpaceOnUse" color-interpolation-filters="sRGB">
<feFlood flood-opacity="0" result="BackgroundImageFix"/>
<feColorMatrix in="SourceAlpha" type="matrix" values="0 0 0 0 0 0 0 0 0 0 0 0 0 0 0 0 0 0 127 0" result="hardAlpha"/>
<feOffset dy="1"/>
<feGaussianBlur stdDeviation="2"/>
<feComposite in2="hardAlpha" operator="out"/>
<feColorMatrix type="matrix" values="0 0 0 0 0 0 0 0 0 0 0 0 0 0 0 0 0 0 0.2 0"/>
<feBlend mode="normal" in2="BackgroundImageFix" result="effect1_dropShadow_2330_66"/>
<feBlend mode="normal" in="SourceGraphic" in2="effect1_dropShadow_2330_66" result="shape"/>
</filter>
<filter id="filter8_d_2330_66" x="72.0344" y="125.41" width="62.9543" height="112.426" filterUnits="userSpaceOnUse" color-interpolation-filters="sRGB">
<feFlood flood-opacity="0" result="BackgroundImageFix"/>
<feColorMatrix in="SourceAlpha" type="matrix" values="0 0 0 0 0 0 0 0 0 0 0 0 0 0 0 0 0 0 127 0" result="hardAlpha"/>
<feOffset dy="1"/>
<feGaussianBlur stdDeviation="2"/>
<feComposite in2="hardAlpha" operator="out"/>
<feColorMatrix type="matrix" values="0 0 0 0 0 0 0 0 0 0 0 0 0 0 0 0 0 0 0.2 0"/>
<feBlend mode="normal" in2="BackgroundImageFix" result="effect1_dropShadow_2330_66"/>
<feBlend mode="normal" in="SourceGraphic" in2="effect1_dropShadow_2330_66" result="shape"/>
</filter>
<filter id="filter9_d_2330_66" x="84.5327" y="81.4766" width="72.8999" height="69.7734" filterUnits="userSpaceOnUse" color-interpolation-filters="sRGB">
<feFlood flood-opacity="0" result="BackgroundImageFix"/>
<feColorMatrix in="SourceAlpha" type="matrix" values="0 0 0 0 0 0 0 0 0 0 0 0 0 0 0 0 0 0 127 0" result="hardAlpha"/>
<feOffset/>
<feGaussianBlur stdDeviation="2"/>
<feComposite in2="hardAlpha" operator="out"/>
<feColorMatrix type="matrix" values="0 0 0 0 0 0 0 0 0 0 0 0 0 0 0 0 0 0 0.25 0"/>
<feBlend mode="normal" in2="BackgroundImageFix" result="effect1_dropShadow_2330_66"/>
<feBlend mode="normal" in="SourceGraphic" in2="effect1_dropShadow_2330_66" result="shape"/>
</filter>
<linearGradient id="paint0_linear_2330_66" x1="129.183" y1="106.997" x2="205.896" y2="34.5076" gradientUnits="userSpaceOnUse">
<stop offset="0.0480769" stop-color="#FAEE02"/>
<stop offset="0.966346" stop-color="#F7DD90"/>
</linearGradient>
<linearGradient id="paint1_linear_2330_66" x1="122.147" y1="110.014" x2="202.237" y2="34.3325" gradientUnits="userSpaceOnUse">
<stop offset="0.0288462" stop-color="#945758" stop-opacity="0.97"/>
<stop offset="0.403846" stop-color="#FFDA09"/>
<stop offset="0.740385" stop-color="white"/>
</linearGradient>
<linearGradient id="paint2_linear_2330_66" x1="110.332" y1="111.351" x2="33.2492" y2="39.2936" gradientUnits="userSpaceOnUse">
<stop offset="0.0480769" stop-color="#FAEE02"/>
<stop offset="0.966346" stop-color="#F7DD90"/>
</linearGradient>
<linearGradient id="paint3_linear_2330_66" x1="113.318" y1="118.677" x2="32.8416" y2="43.4463" gradientUnits="userSpaceOnUse">
<stop offset="0.0288462" stop-color="#945758" stop-opacity="0.97"/>
<stop offset="0.403846" stop-color="#FFDA09"/>
<stop offset="0.740385" stop-color="white"/>
</linearGradient>
<linearGradient id="paint4_linear_2330_66" x1="136.81" y1="120.621" x2="234.317" y2="85.0906" gradientUnits="userSpaceOnUse">
<stop offset="0.0480769" stop-color="#FAEE02"/>
<stop offset="0.966346" stop-color="#F7DD90"/>
</linearGradient>
<linearGradient id="paint5_linear_2330_66" x1="129.211" y1="120.403" x2="231.011" y2="83.3086" gradientUnits="userSpaceOnUse">
<stop offset="0.0288462" stop-color="#945758" stop-opacity="0.97"/>
<stop offset="0.403846" stop-color="#FFDA09"/>
<stop offset="0.740385" stop-color="white"/>
</linearGradient>
<linearGradient id="paint6_linear_2330_66" x1="117.57" y1="133.072" x2="171.525" y2="225.34" gradientUnits="userSpaceOnUse">
<stop offset="0.0480769" stop-color="#FAEE02"/>
<stop offset="0.966346" stop-color="#F7DD90"/>
</linearGradient>
<linearGradient id="paint7_linear_2330_66" x1="116.682" y1="125.161" x2="173.014" y2="221.492" gradientUnits="userSpaceOnUse">
<stop offset="0.0288462" stop-color="#945758" stop-opacity="0.97"/>
<stop offset="0.403846" stop-color="#FFDA09"/>
<stop offset="0.740385" stop-color="white"/>
</linearGradient>
<linearGradient id="paint8_linear_2330_66" x1="108.792" y1="132.492" x2="19.2237" y2="186.365" gradientUnits="userSpaceOnUse">
<stop offset="0.0480769" stop-color="#FAEE02"/>
<stop offset="0.966346" stop-color="#F7DD90"/>
</linearGradient>
<linearGradient id="paint9_linear_2330_66" x1="116.284" y1="131.142" x2="22.7723" y2="187.387" gradientUnits="userSpaceOnUse">
<stop offset="0.0288462" stop-color="#945758" stop-opacity="0.97"/>
<stop offset="0.403846" stop-color="#FFDA09"/>
<stop offset="0.740385" stop-color="white"/>
</linearGradient>
<linearGradient id="paint10_linear_2330_66" x1="122.32" y1="111.264" x2="119.498" y2="3.18203" gradientUnits="userSpaceOnUse">
<stop offset="0.0480769" stop-color="#FAEE02"/>
<stop offset="0.966346" stop-color="#F7DD90"/>
</linearGradient>
<linearGradient id="paint11_linear_2330_66" x1="119.592" y1="118.699" x2="116.645" y2="5.85811" gradientUnits="userSpaceOnUse">
<stop offset="0.0288462" stop-color="#945758" stop-opacity="0.97"/>
<stop offset="0.403846" stop-color="#FFDA09"/>
<stop offset="0.740385" stop-color="white"/>
</linearGradient>
<linearGradient id="paint12_linear_2330_66" x1="132.143" y1="129.231" x2="229.338" y2="165.696" gradientUnits="userSpaceOnUse">
<stop offset="0.0480769" stop-color="#FAEE02"/>
<stop offset="0.966346" stop-color="#F7DD90"/>
</linearGradient>
<linearGradient id="paint13_linear_2330_66" x1="126.668" y1="123.706" x2="228.142" y2="161.776" gradientUnits="userSpaceOnUse">
<stop offset="0.0288462" stop-color="#945758" stop-opacity="0.97"/>
<stop offset="0.403846" stop-color="#FFDA09"/>
<stop offset="0.740385" stop-color="white"/>
</linearGradient>
<linearGradient id="paint14_linear_2330_66" x1="106.547" y1="123.705" x2="3.53483" y2="117.37" gradientUnits="userSpaceOnUse">
<stop offset="0.0480769" stop-color="#FAEE02"/>
<stop offset="0.966346" stop-color="#F7DD90"/>
</linearGradient>
<linearGradient id="paint15_linear_2330_66" x1="113.372" y1="127.215" x2="5.82336" y2="120.602" gradientUnits="userSpaceOnUse">
<stop offset="0.0288462" stop-color="#945758" stop-opacity="0.97"/>
<stop offset="0.403846" stop-color="#FFDA09"/>
<stop offset="0.740385" stop-color="white"/>
</linearGradient>
<linearGradient id="paint16_linear_2330_66" x1="117.353" y1="128.979" x2="92.1634" y2="233.855" gradientUnits="userSpaceOnUse">
<stop offset="0.0480769" stop-color="#FAEE02"/>
<stop offset="0.966346" stop-color="#F7DD90"/>
</linearGradient>
<linearGradient id="paint17_linear_2330_66" x1="121.754" y1="122.484" x2="95.4552" y2="231.977" gradientUnits="userSpaceOnUse">
<stop offset="0.0288462" stop-color="#945758" stop-opacity="0.97"/>
<stop offset="0.403846" stop-color="#FFDA09"/>
<stop offset="0.740385" stop-color="white"/>
</linearGradient>
<linearGradient id="paint18_linear_2330_66" x1="119.036" y1="85.6535" x2="121.602" y2="124.419" gradientUnits="userSpaceOnUse">
<stop stop-color="white" stop-opacity="0.8"/>
<stop offset="1" stop-color="white" stop-opacity="0"/>
</linearGradient>
</defs>
</svg>
