<svg width="73" height="79" viewBox="0 0 73 79" fill="none" xmlns="http://www.w3.org/2000/svg">
<path d="M51.3469 48.3652C50.8668 47.5665 50.3976 46.7822 49.9346 46.0083C45.7023 38.9691 41.5774 32.3743 37.4589 25.8391C33.3928 19.2838 29.1175 12.905 25.6546 5.63979C25.2849 4.82523 24.9351 4.00721 24.6401 3.13713C24.4671 4.03062 24.3796 4.93948 24.3423 5.86096C24.1493 14.229 27.1356 22.4256 31.5133 29.4332C35.9454 36.4759 41.9859 42.4068 48.9821 46.9164C49.7523 47.4101 50.5394 47.892 51.3469 48.3652Z" fill="#096F1F"/>
<g filter="url(#filter0_d_2330_64)">
<path d="M65.8513 39.9289C66.0133 40.4051 66.9983 45.9367 64.7124 49.1272C62.4125 52.3372 60.717 53.1152 53.8704 53.2296C43.4061 53.4046 40.2232 51.4152 38.1437 50.8566C34.0381 49.7537 30.0868 46.4522 31.0473 46.963C31.6356 47.2759 28.1772 47.7506 34.7298 40.7188C39.0622 36.0696 43.4069 33.4936 47.7031 31.5123C53.5556 28.8134 54.448 28.9027 58.4196 30.7865C62.3669 32.6588 65.1576 37.8898 65.8513 39.9289Z" fill="#FCE580"/>
<path d="M65.8513 39.9289C66.0133 40.4051 66.9983 45.9367 64.7124 49.1272C62.4125 52.3372 60.717 53.1152 53.8704 53.2296C43.4061 53.4046 40.2232 51.4152 38.1437 50.8566C34.0381 49.7537 30.0868 46.4522 31.0473 46.963C31.6356 47.2759 28.1772 47.7506 34.7298 40.7188C39.0622 36.0696 43.4069 33.4936 47.7031 31.5123C53.5556 28.8134 54.448 28.9027 58.4196 30.7865C62.3669 32.6588 65.1576 37.8898 65.8513 39.9289Z" fill="url(#paint0_linear_2330_64)" fill-opacity="0.4"/>
</g>
<g filter="url(#filter1_d_2330_64)">
<path d="M68.2292 37.7961C68.3912 38.2723 69.3762 43.8039 67.0903 46.9944C64.7904 50.2044 63.095 50.9823 56.2483 51.0968C45.7841 51.2718 42.6011 49.2824 40.5216 48.7238C36.4161 47.6209 32.4647 44.3194 33.4252 44.8302C34.0135 45.1431 30.5551 45.6178 37.1078 38.586C41.4402 33.9368 45.7848 31.3608 50.081 29.3795C55.9335 26.6806 56.826 26.7698 60.7975 28.6536C64.7448 30.526 67.5355 35.757 68.2292 37.7961Z" fill="#FCE580"/>
<path d="M68.2292 37.7961C68.3912 38.2723 69.3762 43.8039 67.0903 46.9944C64.7904 50.2044 63.095 50.9823 56.2483 51.0968C45.7841 51.2718 42.6011 49.2824 40.5216 48.7238C36.4161 47.6209 32.4647 44.3194 33.4252 44.8302C34.0135 45.1431 30.5551 45.6178 37.1078 38.586C41.4402 33.9368 45.7848 31.3608 50.081 29.3795C55.9335 26.6806 56.826 26.7698 60.7975 28.6536C64.7448 30.526 67.5355 35.757 68.2292 37.7961Z" fill="url(#paint1_linear_2330_64)" fill-opacity="0.4"/>
</g>
<g filter="url(#filter2_d_2330_64)">
<path d="M4.01901 40.9696C4.05176 40.4726 5.27299 34.979 8.65328 32.7003C12.0543 30.4078 13.9456 30.207 20.4095 32.2345C30.2886 35.3332 32.5016 38.1909 34.2348 39.3631C37.6565 41.6773 40.0812 46.0049 39.3787 45.2265C38.9485 44.7497 42.3751 45.383 33.5049 49.9328C27.6402 52.941 22.5678 54.0017 17.7714 54.5197C11.2377 55.2254 10.4355 54.8634 7.44218 51.8588C4.46711 48.8725 3.87876 43.0978 4.01901 40.9696Z" fill="#FCE580"/>
<path d="M4.01901 40.9696C4.05176 40.4726 5.27299 34.979 8.65328 32.7003C12.0543 30.4078 13.9456 30.207 20.4095 32.2345C30.2886 35.3332 32.5016 38.1909 34.2348 39.3631C37.6565 41.6773 40.0812 46.0049 39.3787 45.2265C38.9485 44.7497 42.3751 45.383 33.5049 49.9328C27.6402 52.941 22.5678 54.0017 17.7714 54.5197C11.2377 55.2254 10.4355 54.8634 7.44218 51.8588C4.46711 48.8725 3.87876 43.0978 4.01901 40.9696Z" fill="url(#paint2_linear_2330_64)" fill-opacity="0.4"/>
</g>
<g filter="url(#filter3_d_2330_64)">
<path d="M35.6479 12.7317C36.2848 12.727 43.4003 13.4426 46.6011 16.3105C49.8216 19.1959 50.242 20.8742 48.2164 26.7962C45.1205 35.8472 41.6665 38.0231 40.3214 39.654C37.6657 42.8741 32.3546 45.3403 33.2869 44.6583C33.8578 44.2407 33.3474 47.3498 26.7719 39.7262C22.4244 34.6857 20.6307 30.2205 19.5532 25.965C18.0854 20.168 18.4776 19.4255 22.0513 16.5414C25.6032 13.6748 32.9203 12.7523 35.6479 12.7317Z" fill="#FCE580"/>
<path d="M35.6479 12.7317C36.2848 12.727 43.4003 13.4426 46.6011 16.3105C49.8216 19.1959 50.242 20.8742 48.2164 26.7962C45.1205 35.8472 41.6665 38.0231 40.3214 39.654C37.6657 42.8741 32.3546 45.3403 33.2869 44.6583C33.8578 44.2407 33.3474 47.3498 26.7719 39.7262C22.4244 34.6857 20.6307 30.2205 19.5532 25.965C18.0854 20.168 18.4776 19.4255 22.0513 16.5414C25.6032 13.6748 32.9203 12.7523 35.6479 12.7317Z" fill="url(#paint3_linear_2330_64)" fill-opacity="0.4"/>
</g>
<g filter="url(#filter4_d_2330_64)">
<path d="M13.7562 66.1303C13.2773 65.8783 8.36716 62.4168 7.61133 58.7172C6.85085 54.9948 7.49443 53.4135 12.3882 49.2439C19.8678 42.871 23.6914 42.4279 25.6276 41.5958C29.4504 39.9531 34.8277 40.0119 33.7417 40.2112C33.0766 40.3332 35.2325 37.9219 35.7966 46.9797C36.1696 52.9685 34.9621 57.447 33.3388 61.4612C31.1275 66.9295 30.4106 67.3968 26.0934 68.3879C21.8024 69.3729 15.8067 67.209 13.7562 66.1303Z" fill="#FCE580"/>
<path d="M13.7562 66.1303C13.2773 65.8783 8.36716 62.4168 7.61133 58.7172C6.85085 54.9948 7.49443 53.4135 12.3882 49.2439C19.8678 42.871 23.6914 42.4279 25.6276 41.5958C29.4504 39.9531 34.8277 40.0119 33.7417 40.2112C33.0766 40.3332 35.2325 37.9219 35.7966 46.9797C36.1696 52.9685 34.9621 57.447 33.3388 61.4612C31.1275 66.9295 30.4106 67.3968 26.0934 68.3879C21.8024 69.3729 15.8067 67.209 13.7562 66.1303Z" fill="url(#paint4_linear_2330_64)" fill-opacity="0.4"/>
</g>
<g filter="url(#filter5_d_2330_64)">
<path d="M59.9869 64.3824C59.6264 64.761 54.9556 68.4805 50.7268 68.4681C46.4721 68.4555 44.8289 67.5921 41.0392 62.4773C35.2472 54.66 35.4058 51.1837 34.8127 49.3111C33.6417 45.6139 34.6206 40.851 34.6569 41.852C34.6791 42.4649 32.373 40.1056 42.5077 41.2781C49.2085 42.0533 53.9668 43.9527 58.1399 46.1353C63.8247 49.1086 64.2207 49.8314 64.5855 53.8471C64.9481 57.8383 61.531 62.7614 59.9869 64.3824Z" fill="#FCE580"/>
<path d="M59.9869 64.3824C59.6264 64.761 54.9556 68.4805 50.7268 68.4681C46.4721 68.4555 44.8289 67.5921 41.0392 62.4773C35.2472 54.66 35.4058 51.1837 34.8127 49.3111C33.6417 45.6139 34.6206 40.851 34.6569 41.852C34.6791 42.4649 32.373 40.1056 42.5077 41.2781C49.2085 42.0533 53.9668 43.9527 58.1399 46.1353C63.8247 49.1086 64.2207 49.8314 64.5855 53.8471C64.9481 57.8383 61.531 62.7614 59.9869 64.3824Z" fill="url(#paint5_linear_2330_64)" fill-opacity="0.4"/>
</g>
<path d="M27.6283 72.5192C28.2914 72.5114 28.9118 72.2364 29.351 71.7219C29.7903 71.2094 30.0124 70.4995 29.9705 69.7811C29.9286 69.0626 29.6265 68.4038 29.1327 67.982C28.6387 67.5583 27.9934 67.4064 27.3369 67.527C27.3369 67.527 27.3369 67.527 27.3369 67.527C26.8516 67.6161 26.3859 67.6942 25.939 67.7622C21.8641 68.3486 17.4865 68.3745 15.4499 65.141C13.1823 62.1509 14.1307 55.7696 9.40246 53.8633C8.92603 53.6982 8.45696 53.6063 7.94165 53.5527C8.43886 53.6884 8.8743 53.8604 9.29421 54.0932C13.265 56.5467 11.2226 61.8277 13.2345 66.3738C15.3503 71.5164 21.5771 72.4369 26.034 72.5189C26.5466 72.5307 27.0778 72.5309 27.6283 72.5192Z" fill="#096F1F"/>
<path d="M44.3034 23.8124C43.2401 23.938 42.3102 24.4795 41.7349 25.3958C41.1586 26.3076 40.9841 27.5194 41.233 28.6864C41.482 29.8535 42.1293 30.8579 43.0158 31.4006C43.9033 31.9478 44.9575 31.9887 45.963 31.5922C45.963 31.5922 45.963 31.5922 45.963 31.5922C46.4415 31.4032 46.9071 31.2235 47.3603 31.0529C51.4543 29.5498 55.8655 28.2753 59.5308 28.99C63.2867 29.3442 64.6598 34.5805 62.3416 38.707C62.0848 39.1585 61.7922 39.5856 61.404 39.9414C61.404 39.9414 61.404 39.9414 61.404 39.9414C61.8677 39.6938 62.2787 39.3371 62.6575 38.9394C64.3048 37.1283 65.4226 34.7318 65.4589 32.0312C65.5746 29.2946 63.6157 26.4577 61.1272 25.2546C56.1115 22.8089 50.8708 23.2034 45.9672 23.6182C45.4261 23.6728 44.8715 23.7374 44.3034 23.8124Z" fill="#096F1F"/>
<g filter="url(#filter6_d_2330_64)">
<path d="M8.70699 23.7099C9.01205 23.294 13.0697 19.0405 17.0463 18.4275C21.0472 17.8108 22.6694 18.3951 26.6904 22.7349C32.836 29.3677 32.9984 32.7213 33.7238 34.4275C35.156 37.7962 34.6625 42.5036 34.5387 41.5501C34.4629 40.9662 36.8423 42.8856 27.2096 43.2601C20.8407 43.5077 16.1972 42.3913 12.0785 40.9171C6.46786 38.9089 6.03078 38.275 5.32799 34.482C4.62948 30.7121 7.40071 25.491 8.70699 23.7099Z" fill="#FCE580"/>
<path d="M8.70699 23.7099C9.01205 23.294 13.0697 19.0405 17.0463 18.4275C21.0472 17.8108 22.6694 18.3951 26.6904 22.7349C32.836 29.3677 32.9984 32.7213 33.7238 34.4275C35.156 37.7962 34.6625 42.5036 34.5387 41.5501C34.4629 40.9662 36.8423 42.8856 27.2096 43.2601C20.8407 43.5077 16.1972 42.3913 12.0785 40.9171C6.46786 38.9089 6.03078 38.275 5.32799 34.482C4.62948 30.7121 7.40071 25.491 8.70699 23.7099Z" fill="url(#paint6_linear_2330_64)" fill-opacity="0.4"/>
</g>
<g filter="url(#filter7_d_2330_64)">
<path d="M60.4194 20.028C60.8139 20.3783 64.6067 24.8292 64.2817 28.6102C63.9547 32.4144 62.8735 33.8204 56.9065 36.8333C47.7867 41.438 43.9324 41.0404 41.8062 41.4331C37.6085 42.2083 32.3836 40.9824 33.4994 41.0236C34.1828 41.0488 31.3892 42.9376 33.4389 33.9601C34.7941 28.0244 37.2565 23.9087 39.9909 20.3372C43.7158 15.4719 44.5487 15.1709 49.0414 15.1401C53.5068 15.1096 58.7303 18.5278 60.4194 20.028Z" fill="#FCE580"/>
<path d="M60.4194 20.028C60.8139 20.3783 64.6067 24.8292 64.2817 28.6102C63.9547 32.4144 62.8735 33.8204 56.9065 36.8333C47.7867 41.438 43.9324 41.0404 41.8062 41.4331C37.6085 42.2083 32.3836 40.9824 33.4994 41.0236C34.1828 41.0488 31.3892 42.9376 33.4389 33.9601C34.7941 28.0244 37.2565 23.9087 39.9909 20.3372C43.7158 15.4719 44.5487 15.1709 49.0414 15.1401C53.5068 15.1096 58.7303 18.5278 60.4194 20.028Z" fill="url(#paint7_linear_2330_64)" fill-opacity="0.4"/>
</g>
<g filter="url(#filter8_d_2330_64)">
<path d="M33.2263 73.7317C32.6711 73.7313 26.4844 72.9574 23.7512 70.0637C21.0013 67.1523 20.6678 65.4707 22.549 59.5661C25.4243 50.5417 28.477 48.3944 29.6811 46.7747C32.0584 43.5768 36.7351 41.1545 35.9093 41.8287C35.4036 42.2416 35.9093 39.1371 41.4901 46.8135C45.18 51.889 46.6556 56.3683 47.5112 60.6321C48.6767 66.4404 48.3204 67.1796 45.1496 70.034C41.9981 72.8711 35.6036 73.7335 33.2263 73.7317Z" fill="#FCE580"/>
<path d="M33.2263 73.7317C32.6711 73.7313 26.4844 72.9574 23.7512 70.0637C21.0013 67.1523 20.6678 65.4707 22.549 59.5661C25.4243 50.5417 28.477 48.3944 29.6811 46.7747C32.0584 43.5768 36.7351 41.1545 35.9093 41.8287C35.4036 42.2416 35.9093 39.1371 41.4901 46.8135C45.18 51.889 46.6556 56.3683 47.5112 60.6321C48.6767 66.4404 48.3204 67.1796 45.1496 70.034C41.9981 72.8711 35.6036 73.7335 33.2263 73.7317Z" fill="url(#paint8_linear_2330_64)" fill-opacity="0.4"/>
</g>
<defs>
<filter id="filter0_d_2330_64" x="26.6511" y="26.4219" width="43.5496" height="31.8184" filterUnits="userSpaceOnUse" color-interpolation-filters="sRGB">
<feFlood flood-opacity="0" result="BackgroundImageFix"/>
<feColorMatrix in="SourceAlpha" type="matrix" values="0 0 0 0 0 0 0 0 0 0 0 0 0 0 0 0 0 0 127 0" result="hardAlpha"/>
<feOffset dy="1"/>
<feGaussianBlur stdDeviation="2"/>
<feComposite in2="hardAlpha" operator="out"/>
<feColorMatrix type="matrix" values="0 0 0 0 0 0 0 0 0 0 0 0 0 0 0 0 0 0 0.2 0"/>
<feBlend mode="normal" in2="BackgroundImageFix" result="effect1_dropShadow_2330_64"/>
<feBlend mode="normal" in="SourceGraphic" in2="effect1_dropShadow_2330_64" result="shape"/>
</filter>
<filter id="filter1_d_2330_64" x="29.0291" y="24.2891" width="43.5496" height="31.8184" filterUnits="userSpaceOnUse" color-interpolation-filters="sRGB">
<feFlood flood-opacity="0" result="BackgroundImageFix"/>
<feColorMatrix in="SourceAlpha" type="matrix" values="0 0 0 0 0 0 0 0 0 0 0 0 0 0 0 0 0 0 127 0" result="hardAlpha"/>
<feOffset dy="1"/>
<feGaussianBlur stdDeviation="2"/>
<feComposite in2="hardAlpha" operator="out"/>
<feColorMatrix type="matrix" values="0 0 0 0 0 0 0 0 0 0 0 0 0 0 0 0 0 0 0.2 0"/>
<feBlend mode="normal" in2="BackgroundImageFix" result="effect1_dropShadow_2330_64"/>
<feBlend mode="normal" in="SourceGraphic" in2="effect1_dropShadow_2330_64" result="shape"/>
</filter>
<filter id="filter2_d_2330_64" x="0" y="27.8379" width="43.6814" height="31.9883" filterUnits="userSpaceOnUse" color-interpolation-filters="sRGB">
<feFlood flood-opacity="0" result="BackgroundImageFix"/>
<feColorMatrix in="SourceAlpha" type="matrix" values="0 0 0 0 0 0 0 0 0 0 0 0 0 0 0 0 0 0 127 0" result="hardAlpha"/>
<feOffset dy="1"/>
<feGaussianBlur stdDeviation="2"/>
<feComposite in2="hardAlpha" operator="out"/>
<feColorMatrix type="matrix" values="0 0 0 0 0 0 0 0 0 0 0 0 0 0 0 0 0 0 0.2 0"/>
<feBlend mode="normal" in2="BackgroundImageFix" result="effect1_dropShadow_2330_64"/>
<feBlend mode="normal" in="SourceGraphic" in2="effect1_dropShadow_2330_64" result="shape"/>
</filter>
<filter id="filter3_d_2330_64" x="14.7522" y="9.73242" width="38.6982" height="40.209" filterUnits="userSpaceOnUse" color-interpolation-filters="sRGB">
<feFlood flood-opacity="0" result="BackgroundImageFix"/>
<feColorMatrix in="SourceAlpha" type="matrix" values="0 0 0 0 0 0 0 0 0 0 0 0 0 0 0 0 0 0 127 0" result="hardAlpha"/>
<feOffset dy="1"/>
<feGaussianBlur stdDeviation="2"/>
<feComposite in2="hardAlpha" operator="out"/>
<feColorMatrix type="matrix" values="0 0 0 0 0 0 0 0 0 0 0 0 0 0 0 0 0 0 0.2 0"/>
<feBlend mode="normal" in2="BackgroundImageFix" result="effect1_dropShadow_2330_64"/>
<feBlend mode="normal" in="SourceGraphic" in2="effect1_dropShadow_2330_64" result="shape"/>
</filter>
<filter id="filter4_d_2330_64" x="3.34351" y="37.0078" width="36.5212" height="36.6309" filterUnits="userSpaceOnUse" color-interpolation-filters="sRGB">
<feFlood flood-opacity="0" result="BackgroundImageFix"/>
<feColorMatrix in="SourceAlpha" type="matrix" values="0 0 0 0 0 0 0 0 0 0 0 0 0 0 0 0 0 0 127 0" result="hardAlpha"/>
<feOffset dy="1"/>
<feGaussianBlur stdDeviation="2"/>
<feComposite in2="hardAlpha" operator="out"/>
<feColorMatrix type="matrix" values="0 0 0 0 0 0 0 0 0 0 0 0 0 0 0 0 0 0 0.2 0"/>
<feBlend mode="normal" in2="BackgroundImageFix" result="effect1_dropShadow_2330_64"/>
<feBlend mode="normal" in="SourceGraphic" in2="effect1_dropShadow_2330_64" result="shape"/>
</filter>
<filter id="filter5_d_2330_64" x="30.2393" y="37.9453" width="38.373" height="35.5234" filterUnits="userSpaceOnUse" color-interpolation-filters="sRGB">
<feFlood flood-opacity="0" result="BackgroundImageFix"/>
<feColorMatrix in="SourceAlpha" type="matrix" values="0 0 0 0 0 0 0 0 0 0 0 0 0 0 0 0 0 0 127 0" result="hardAlpha"/>
<feOffset dy="1"/>
<feGaussianBlur stdDeviation="2"/>
<feComposite in2="hardAlpha" operator="out"/>
<feColorMatrix type="matrix" values="0 0 0 0 0 0 0 0 0 0 0 0 0 0 0 0 0 0 0.2 0"/>
<feBlend mode="normal" in2="BackgroundImageFix" result="effect1_dropShadow_2330_64"/>
<feBlend mode="normal" in="SourceGraphic" in2="effect1_dropShadow_2330_64" result="shape"/>
</filter>
<filter id="filter6_d_2330_64" x="1.2168" y="15.2207" width="37.5293" height="33.0742" filterUnits="userSpaceOnUse" color-interpolation-filters="sRGB">
<feFlood flood-opacity="0" result="BackgroundImageFix"/>
<feColorMatrix in="SourceAlpha" type="matrix" values="0 0 0 0 0 0 0 0 0 0 0 0 0 0 0 0 0 0 127 0" result="hardAlpha"/>
<feOffset dy="1"/>
<feGaussianBlur stdDeviation="2"/>
<feComposite in2="hardAlpha" operator="out"/>
<feColorMatrix type="matrix" values="0 0 0 0 0 0 0 0 0 0 0 0 0 0 0 0 0 0 0.2 0"/>
<feBlend mode="normal" in2="BackgroundImageFix" result="effect1_dropShadow_2330_64"/>
<feBlend mode="normal" in="SourceGraphic" in2="effect1_dropShadow_2330_64" result="shape"/>
</filter>
<filter id="filter7_d_2330_64" x="28.6736" y="12.1406" width="39.6279" height="34.5508" filterUnits="userSpaceOnUse" color-interpolation-filters="sRGB">
<feFlood flood-opacity="0" result="BackgroundImageFix"/>
<feColorMatrix in="SourceAlpha" type="matrix" values="0 0 0 0 0 0 0 0 0 0 0 0 0 0 0 0 0 0 127 0" result="hardAlpha"/>
<feOffset dy="1"/>
<feGaussianBlur stdDeviation="2"/>
<feComposite in2="hardAlpha" operator="out"/>
<feColorMatrix type="matrix" values="0 0 0 0 0 0 0 0 0 0 0 0 0 0 0 0 0 0 0.2 0"/>
<feBlend mode="normal" in2="BackgroundImageFix" result="effect1_dropShadow_2330_64"/>
<feBlend mode="normal" in="SourceGraphic" in2="effect1_dropShadow_2330_64" result="shape"/>
</filter>
<filter id="filter8_d_2330_64" x="17.3655" y="38.5469" width="34.7561" height="40.1855" filterUnits="userSpaceOnUse" color-interpolation-filters="sRGB">
<feFlood flood-opacity="0" result="BackgroundImageFix"/>
<feColorMatrix in="SourceAlpha" type="matrix" values="0 0 0 0 0 0 0 0 0 0 0 0 0 0 0 0 0 0 127 0" result="hardAlpha"/>
<feOffset dy="1"/>
<feGaussianBlur stdDeviation="2"/>
<feComposite in2="hardAlpha" operator="out"/>
<feColorMatrix type="matrix" values="0 0 0 0 0 0 0 0 0 0 0 0 0 0 0 0 0 0 0.2 0"/>
<feBlend mode="normal" in2="BackgroundImageFix" result="effect1_dropShadow_2330_64"/>
<feBlend mode="normal" in="SourceGraphic" in2="effect1_dropShadow_2330_64" result="shape"/>
</filter>
<linearGradient id="paint0_linear_2330_64" x1="70.7566" y1="39.8014" x2="35.4661" y2="51.3826" gradientUnits="userSpaceOnUse">
<stop offset="0.403846" stop-color="#FFDA09"/>
<stop offset="0.740385" stop-color="white"/>
</linearGradient>
<linearGradient id="paint1_linear_2330_64" x1="73.1345" y1="37.6686" x2="37.8441" y2="49.2498" gradientUnits="userSpaceOnUse">
<stop offset="0.403846" stop-color="#FFDA09"/>
<stop offset="0.740385" stop-color="white"/>
</linearGradient>
<linearGradient id="paint2_linear_2330_64" x1="-0.629658" y1="39.5597" x2="36.739" y2="42.4358" gradientUnits="userSpaceOnUse">
<stop offset="0.403846" stop-color="#FFDA09"/>
<stop offset="0.740385" stop-color="white"/>
</linearGradient>
<linearGradient id="paint3_linear_2330_64" x1="37.0431" y1="8.47609" x2="37.0365" y2="42.1054" gradientUnits="userSpaceOnUse">
<stop offset="0.403846" stop-color="#FFDA09"/>
<stop offset="0.740385" stop-color="white"/>
</linearGradient>
<linearGradient id="paint4_linear_2330_64" x1="10.2845" y1="69.1509" x2="26.3981" y2="39.1941" gradientUnits="userSpaceOnUse">
<stop offset="0.403846" stop-color="#FFDA09"/>
<stop offset="0.740385" stop-color="white"/>
</linearGradient>
<linearGradient id="paint5_linear_2330_64" x1="62.7448" y1="68.0225" x2="37.1608" y2="43.1623" gradientUnits="userSpaceOnUse">
<stop offset="0.403846" stop-color="#FFDA09"/>
<stop offset="0.740385" stop-color="white"/>
</linearGradient>
<linearGradient id="paint6_linear_2330_64" x1="5.78812" y1="20.6304" x2="32.2494" y2="40.4214" gradientUnits="userSpaceOnUse">
<stop offset="0.403846" stop-color="#FFDA09"/>
<stop offset="0.740385" stop-color="white"/>
</linearGradient>
<linearGradient id="paint7_linear_2330_64" x1="64.6704" y1="17.8293" x2="40.8869" y2="44.0855" gradientUnits="userSpaceOnUse">
<stop offset="0.403846" stop-color="#FFDA09"/>
<stop offset="0.740385" stop-color="white"/>
</linearGradient>
<linearGradient id="paint8_linear_2330_64" x1="31.927" y1="77.9754" x2="32.2508" y2="44.3473" gradientUnits="userSpaceOnUse">
<stop offset="0.403846" stop-color="#FFDA09"/>
<stop offset="0.740385" stop-color="white"/>
</linearGradient>
</defs>
</svg>
