<svg width="143" height="170" viewBox="0 0 143 170" fill="none" xmlns="http://www.w3.org/2000/svg">
<path d="M36.9839 65.3853C52.4175 75.896 57.9112 90.5147 58.7289 96.5102" stroke="#096F1F" stroke-width="3"/>
<path d="M35.9332 66.5492C36.6784 65.8852 37.4236 65.2212 38.1689 64.5573C37.7143 64.0844 37.269 63.5933 36.8387 63.0927C29.1434 53.8837 25.0433 41.7361 23.1013 29.6246C23.0055 28.9614 22.9174 28.2542 22.8497 27.5905C22.8675 28.2572 22.9059 28.9699 22.9521 29.6399C24.0408 41.9122 27.1286 54.4004 34.6128 64.8639C35.0354 65.4349 35.4773 65.9998 35.9332 66.5492Z" fill="#096F1F"/>
<path d="M77.5689 112.606C60.2714 111.258 59.0611 96.5071 58.6138 94.2866" stroke="#096F1F" stroke-width="3"/>
<path d="M54.5647 101.285C54.4776 101.319 54.3797 101.327 54.2885 101.299C54.1973 101.27 54.1208 101.21 54.0749 101.128C54.029 101.047 54.0167 100.95 54.0399 100.858C54.0631 100.765 54.1203 100.685 54.1951 100.629C54.1951 100.629 54.1951 100.629 54.1951 100.629C54.4573 100.434 54.7175 100.25 54.987 100.071C57.4064 98.457 60.32 97.4612 63.3033 97.3437C66.2783 97.2254 69.314 97.9191 71.8389 99.5184C72.1171 99.6984 72.3916 99.8939 72.6464 100.103C72.7189 100.163 72.7729 100.246 72.7924 100.34C72.812 100.433 72.7959 100.529 72.7469 100.608C72.6978 100.687 72.619 100.744 72.5268 100.767C72.4346 100.79 72.337 100.778 72.2515 100.738C72.2515 100.738 72.2515 100.738 72.2515 100.738C71.9793 100.617 71.6923 100.504 71.4058 100.404C68.8023 99.5207 66.0727 99.2425 63.3995 99.3444C60.7188 99.4548 58.0571 100.004 55.4369 100.954C55.1458 101.059 54.8588 101.168 54.5647 101.285Z" fill="#935713"/>
<path d="M75.4823 102.241C75.5144 102.153 75.5196 102.054 75.4894 101.964C75.4592 101.874 75.3971 101.8 75.3151 101.757C75.2332 101.714 75.1366 101.705 75.0451 101.732C74.9536 101.758 74.8755 101.819 74.8209 101.895C74.8209 101.895 74.8209 101.895 74.8209 101.895C74.6369 102.157 74.4637 102.416 74.296 102.683C72.7801 105.087 71.8724 107.964 71.8628 110.88C71.8504 113.785 72.6784 116.714 74.3966 119.034C74.5895 119.29 74.7978 119.54 75.0185 119.769C75.0836 119.836 75.1696 119.882 75.2639 119.894C75.3582 119.905 75.4523 119.88 75.527 119.825C75.6018 119.769 75.6522 119.685 75.6689 119.591C75.6855 119.497 75.6661 119.401 75.6215 119.318C75.6215 119.318 75.6215 119.318 75.6215 119.318C75.487 119.065 75.3613 118.797 75.2475 118.528C74.2432 116.08 73.8528 113.457 73.8587 110.874C73.8719 108.28 74.3354 105.683 75.1856 103.101C75.2796 102.815 75.3768 102.532 75.4823 102.241Z" fill="#935713"/>
<path d="M83.4998 119.461C83.5318 119.683 83.5176 119.916 83.428 120.125C83.3386 120.333 83.1837 120.499 82.9875 120.589C82.7912 120.68 82.5649 120.69 82.3483 120.622C82.1316 120.555 81.9449 120.414 81.797 120.246C81.797 120.246 81.797 120.246 81.797 120.246C81.3054 119.677 80.835 119.115 80.3859 118.56C78.5698 116.3 77.0166 113.983 75.6735 111.561C70.8814 103.451 65.9013 93.5902 57.5141 90.9828C56.9425 90.9 56.3728 90.9198 55.8904 91.0776C55.6672 91.1603 55.4185 91.168 55.192 91.0852C54.9656 91.0026 54.781 90.8382 54.6774 90.6253C54.5737 90.4124 54.5583 90.1657 54.633 89.9366C54.7076 89.7073 54.8671 89.5163 55.0698 89.3917C55.0698 89.3917 55.0698 89.3917 55.0698 89.3917C55.8583 88.9325 56.7416 88.7457 57.5834 88.7061C69.3148 90.3262 74.9249 100.744 80.0459 109.136C81.4484 111.665 82.4595 114.389 83.0941 117.27C83.2479 117.98 83.3833 118.711 83.4998 119.461Z" fill="#096F1F"/>
<path d="M73.4456 119.611C73.2418 120.522 73.4065 121.474 73.9157 122.258C74.4241 123.043 75.2355 123.596 76.1588 123.794C77.0821 123.992 78.0382 123.817 78.8043 123.305C79.5712 122.794 80.0852 121.988 80.2458 121.067C80.2458 121.067 80.2458 121.067 80.2458 121.067C80.5133 119.536 80.7876 118.032 81.0748 116.522C86.3646 89.3764 94.8064 62.472 108.68 38.6016C109.476 37.2957 110.285 36.032 111.15 34.8044C111.347 34.5271 111.426 34.1767 111.374 33.8333C111.322 33.4897 111.144 33.1812 110.875 32.9727C110.605 32.7643 110.266 32.6722 109.928 32.7138C109.59 32.7555 109.28 32.9276 109.071 33.195C108.096 34.4478 107.2 35.7121 106.317 37.0173C91.0105 60.7238 81.2175 87.5138 74.5085 115.007C74.1432 116.535 73.7911 118.059 73.4456 119.611Z" fill="#096F1F"/>
<path d="M86.1637 79.2233C85.3956 79.4386 84.7622 79.948 84.412 80.6671C84.0614 81.3846 84.0228 82.2529 84.2954 83.0533C84.5679 83.8537 85.1266 84.5127 85.839 84.8577C86.5519 85.2042 87.3603 85.2083 88.0956 84.8968C88.0956 84.8968 88.0956 84.8968 88.0956 84.8968C88.9808 84.5325 89.7672 84.1493 90.5879 83.6841C107.926 73.0153 93.6305 53.3122 101.735 42.9231C102.088 42.7846 102.455 42.6898 102.866 42.6297C103.228 42.5742 103.623 42.5479 104.051 42.5533C103.627 42.4979 103.229 42.4737 102.855 42.48C102.43 42.4911 102.039 42.5381 101.647 42.6368C97.6148 43.8764 97.6757 48.8578 97.3656 52.1972C97.1718 55.8229 97.1989 59.4088 96.8813 62.8959C96.4116 69.8508 93.8085 76.5392 88.0828 78.5779C87.4582 78.8338 86.8524 79.0339 86.1637 79.2233Z" fill="#096F1F"/>
<path d="M73.7473 130.838C74.929 130.877 76.0568 130.431 76.8823 129.563C77.7078 128.697 78.1634 127.48 78.1492 126.215C78.135 124.95 77.6523 123.749 76.8076 122.912C75.963 122.073 74.8256 121.666 73.6453 121.746C73.6453 121.746 73.6453 121.746 73.6453 121.746C72.106 121.849 70.6108 121.931 69.158 121.995C55.8942 122.477 42.1534 121.865 30.6364 115.727C18.4492 110 14.1323 95.1964 4.23927 85.3108C3.09312 84.2739 1.87132 83.3542 0.550931 82.5532C1.78902 83.4809 2.90367 84.5099 3.92721 85.6368C12.6166 95.9984 15.3443 111.604 28.3233 119.625C40.5088 127.734 55.155 129.733 69.0421 130.633C70.5665 130.721 72.1344 130.79 73.7473 130.838Z" fill="#096F1F"/>
<path d="M110.05 36.805C109.8 37.1122 109.439 37.3024 109.043 37.3302C108.648 37.3582 108.25 37.2215 107.941 36.9537C107.632 36.6859 107.438 36.3101 107.407 35.9124C107.376 35.5146 107.509 35.1275 107.774 34.8327C107.774 34.8327 107.774 34.8327 107.774 34.8327C108.223 34.3326 108.659 33.8389 109.081 33.3515C116.17 24.7983 125.253 13.0881 119.412 2.38878C119.055 1.8726 118.644 1.39218 118.189 0.980773C118.08 0.882933 118.014 0.744271 118.003 0.596814C117.992 0.449269 118.038 0.305005 118.132 0.194249C118.226 0.0834889 118.36 0.0148687 118.507 0.00196515C118.653 -0.0108547 118.8 0.0330981 118.913 0.125669C118.913 0.125669 118.913 0.125669 118.913 0.125669C119.467 0.580916 119.958 1.10588 120.391 1.67246C127.427 13.5824 118.08 26.0728 111.32 35.221C110.911 35.7427 110.487 36.2706 110.05 36.805Z" fill="#096F1F"/>
<path d="M79.5773 121.393C79.5341 121.519 79.5426 121.656 79.6015 121.775C79.6603 121.893 79.7646 121.984 79.891 122.027C80.0174 122.07 80.1554 122.061 80.2743 122.002C80.3931 121.943 80.483 121.839 80.5247 121.713C80.8101 120.851 81.0513 120.094 81.3131 119.234C82.6582 114.666 83.9312 109.926 83.5271 105.046C83.0663 100.114 80.0609 96.0144 80.684 91.1918C81.4199 85.4281 85.1798 80.4093 88.6097 75.6845C89.1264 75.0049 89.6531 74.33 90.1942 73.6743C90.2259 73.6364 90.2412 73.5873 90.2369 73.5379C90.2326 73.4885 90.2091 73.4429 90.1714 73.4109C90.1336 73.379 90.0848 73.3634 90.0353 73.3674C89.9859 73.3713 89.94 73.3946 89.9079 73.4321C89.3507 74.0908 88.8159 74.7594 88.2877 75.4369C84.7838 80.1726 80.9388 85.0425 80.0632 91.1552C79.3663 96.1068 82.4069 100.53 82.7349 105.117C83.0698 109.777 81.7774 114.446 80.388 118.947C80.1189 119.794 79.8701 120.542 79.5773 121.393Z" fill="#935713"/>
<path d="M71.6239 118.877C71.8882 118.855 72.1494 118.94 72.3502 119.113C72.5509 119.286 72.6747 119.534 72.6943 119.801C72.7138 120.068 72.6275 120.331 72.4542 120.532C72.2808 120.733 72.0347 120.855 71.77 120.872C71.77 120.872 71.77 120.872 71.77 120.872C70.6079 120.947 69.4856 121.059 68.3633 121.211C60.9 121.803 54.2368 126.517 45.984 125.677C37.9134 124.11 32.5705 117.907 27.3257 112.505C23.4271 108.469 18.2924 105.63 13.2196 103.035C12.1876 102.52 11.1381 102.016 10.0914 101.55C10.0011 101.51 9.93002 101.436 9.89355 101.344C9.8571 101.252 9.85827 101.15 9.89699 101.059C9.93572 100.969 10.0089 100.897 10.1006 100.86C10.1924 100.822 10.2951 100.822 10.3861 100.86C10.3861 100.86 10.3861 100.86 10.3861 100.86C11.4658 101.318 12.5245 101.804 13.5765 102.305C18.7474 104.844 23.9436 107.555 28.1435 111.737C33.3925 117.016 38.9816 122.961 46.2003 124.163C53.3926 124.888 60.3554 120.109 68.0862 119.294C69.2508 119.115 70.4167 118.977 71.6239 118.877Z" fill="#935713"/>
<path d="M80.8317 127.415C80.8311 127.282 80.8833 127.155 80.9771 127.061C81.0709 126.968 81.1986 126.915 81.3318 126.915C81.4651 126.915 81.5928 126.968 81.6866 127.062C81.7804 127.155 81.8325 127.282 81.8319 127.415C81.8319 127.415 81.8319 127.415 81.8319 127.415C81.8268 128.641 81.6995 129.854 81.4193 131.042C80.6992 134.992 77.3274 137.793 76.0523 141C75.2886 144.496 79.1214 147.266 81.7834 149.637C94.0677 157.507 107.244 142.845 121.106 146.136C122.276 146.376 123.413 146.721 124.527 147.179C124.573 147.198 124.609 147.234 124.628 147.28C124.647 147.326 124.648 147.377 124.629 147.423C124.61 147.469 124.574 147.506 124.529 147.525C124.483 147.544 124.431 147.545 124.386 147.527C124.386 147.527 124.386 147.527 124.386 147.527C123.29 147.087 122.174 146.759 121.026 146.535C107.369 143.298 94.7211 158.34 81.2969 150.232C78.6341 147.786 74.4653 145.313 75.2153 140.768C76.7577 136.955 79.8322 134.561 80.4753 130.823C80.7269 129.713 80.8369 128.575 80.8317 127.415Z" fill="#935713"/>
<path d="M83.0509 83.5531C90.1614 72.0324 90.1158 74.022 94.3555 68.655C96.9306 65.3953 99.7627 56.5534 99.7627 56.5534" stroke="#935713" stroke-width="0.5" stroke-linecap="round" stroke-linejoin="round"/>
<path d="M78.2484 123.105C78.6776 123.612 78.8808 124.262 78.8024 124.921C78.7246 125.579 78.3717 126.192 77.8321 126.616C77.2925 127.04 76.6135 127.238 75.9555 127.159C75.2968 127.08 74.7129 126.729 74.3215 126.192C74.3215 126.192 74.3215 126.192 74.3215 126.192C73.7331 125.378 73.0784 124.649 72.3301 123.977C56.4224 112.057 32.1315 124.861 12.3462 117.19C11.3887 116.505 10.5849 115.608 10.0509 114.553C10.6587 115.568 11.5105 116.386 12.4847 116.982C32.4908 123.425 53.927 107.636 75.35 120.316C76.409 121.137 77.3716 122.059 78.2484 123.105Z" fill="#096F1F"/>
<path d="M79.2702 119.916C78.6127 120.037 78.0667 120.411 77.7686 121.004C77.4695 121.594 77.4427 122.356 77.678 123.072C77.9132 123.789 78.3864 124.386 78.9774 124.685C79.5694 124.986 80.2306 124.964 80.8318 124.672C80.8318 124.672 80.8318 124.672 80.8318 124.672C81.1019 124.539 81.3694 124.411 81.6343 124.286C86.4435 122.099 91.8987 120.409 97.3588 121.698C97.6539 121.785 97.946 121.887 98.2289 122.023C97.9913 121.817 97.7302 121.636 97.4603 121.47C92.3519 118.669 86.0479 118.79 80.2454 119.739C79.9243 119.793 79.5992 119.852 79.2702 119.916Z" fill="#096F1F"/>
<path d="M82.296 126.043C81.7204 126.779 80.8921 127.237 79.9671 127.29C79.0436 127.345 78.0991 126.992 77.3675 126.332C76.6359 125.672 76.1848 124.766 76.1397 123.837C76.0929 122.907 76.4559 122.03 77.1225 121.375C77.1225 121.375 77.1225 121.375 77.1225 121.375C77.7634 120.745 78.3889 120.121 78.9995 119.504C89.4477 108.29 102.099 95.334 100.672 79.106C100.458 78.2551 100.136 77.4185 99.6311 76.6904C100.228 77.345 100.67 78.1523 101.004 78.9952C104.688 95.6371 93.2468 110.907 83.9827 123.861C83.4366 124.58 82.8744 125.308 82.296 126.043Z" fill="#096F1F"/>
<path d="M77.2122 125.412C77.0971 125.044 76.9844 124.685 76.8711 124.333C75.8323 121.141 74.6656 118.424 73.2149 115.921C71.7837 113.404 69.9921 111.172 68.1007 108.522C67.8958 108.222 67.6931 107.92 67.505 107.587C67.3609 107.945 67.2523 108.316 67.1669 108.696C66.449 112.153 67.2651 115.632 68.8925 118.461C70.5395 121.31 73.0766 123.561 76.1639 124.973C76.5047 125.127 76.8534 125.273 77.2122 125.412Z" fill="#096F1F"/>
<path d="M54.456 90.8111C54.5089 90.8876 54.5392 90.9804 54.5337 91.0754C54.5283 91.1703 54.4884 91.2587 54.4213 91.3227C54.3541 91.3867 54.2641 91.422 54.1694 91.4224C54.0747 91.4229 53.984 91.3876 53.9107 91.3305C53.9107 91.3305 53.9107 91.3305 53.9107 91.3305C53.6852 91.1526 53.4686 90.9729 53.2537 90.7834C51.3243 89.0892 49.8128 86.8682 48.8943 84.4324C47.9776 81.9915 47.5946 79.3448 47.9407 76.7462C47.9817 76.4583 48.0339 76.1668 48.1014 75.8852C48.1237 75.7943 48.1732 75.7094 48.2476 75.65C48.322 75.5906 48.4141 75.5615 48.5059 75.5692C48.5977 75.5769 48.6832 75.621 48.7456 75.6919C48.8081 75.7628 48.8414 75.8546 48.8468 75.9479C48.8468 75.9479 48.8468 75.9479 48.8468 75.9479C48.8644 76.2113 48.8921 76.4831 48.9262 76.7501C49.2568 79.1623 49.9261 81.4777 50.761 83.7068C51.6043 85.9317 52.6598 88.0745 53.9982 90.1288C54.1479 90.3581 54.298 90.5829 54.456 90.8111Z" fill="#935713"/>
<path d="M54.1833 91.0708C53.9431 90.9139 53.7119 90.7536 53.4827 90.582C51.4237 89.0505 49.8117 86.8687 48.8943 84.4324C47.9764 81.9944 47.6939 79.2976 48.2438 76.7474C48.3072 76.4662 48.3829 76.1836 48.4741 75.9166C48.5154 76.1945 48.5666 76.4753 48.6231 76.7489C49.1575 79.2095 49.9273 81.4748 50.761 83.7068C51.6054 85.9312 52.5604 88.1132 53.7692 90.3302C53.9046 90.5774 54.0401 90.8216 54.1833 91.0708Z" fill="#935713"/>
<path d="M33.7222 47.5996C33.7383 48.7971 33.7733 49.9708 33.8265 51.1209C34.3508 61.5943 36.5668 72.3754 42.1283 81.7631C47.4455 91.0315 57.7156 98.8473 68.4875 97.7214C69.6553 97.6008 70.795 97.3728 71.8819 97.0214C70.7428 97.1084 69.608 97.076 68.4812 96.9548C58.2198 95.7284 50.5515 88.1889 45.5097 79.6874C40.3858 71.0544 37.2004 61.1295 34.5711 51.0113C34.2837 49.9026 34.0006 48.7657 33.7222 47.5996Z" fill="#096F1F"/>
<path d="M36.1805 47.3046C36.1216 46.6375 35.8042 46.029 35.2842 45.6147C34.7651 45.2003 34.086 45.014 33.41 45.0951C32.7341 45.1763 32.1208 45.5177 31.7187 46.0427C31.3158 46.5677 31.1572 47.2333 31.2639 47.8947C31.2639 47.8947 31.2639 47.8947 31.2639 47.8947C31.4548 49.0929 31.6577 50.264 31.872 51.4085C35.3759 71.1909 45.8506 97.1117 68.4854 97.4642C69.6394 97.4225 70.7771 97.2819 71.8819 97.0214C70.7607 97.1993 69.6238 97.2543 68.4833 97.212C46.4443 95.1015 38.6497 70.031 36.5256 50.7237C36.3993 49.6094 36.2841 48.4699 36.1805 47.3046Z" fill="#096F1F"/>
<path d="M29.3731 68.72C29.6482 68.7675 29.9141 68.816 30.1709 68.8657C32.4879 69.3164 34.3031 70.1271 35.6759 71.2122C36.3658 71.7536 36.9491 72.3695 37.4542 72.9951C37.7027 73.3049 37.9348 73.6131 38.1183 73.8874C38.2123 74.0247 38.2831 74.1562 38.3715 74.2815C38.4565 74.4049 38.6074 74.5207 38.8313 74.4766C39.0265 74.4414 39.2411 74.2942 39.4227 74.0888C39.5705 74.3177 39.6763 74.6056 39.6525 74.9496C39.6423 75.7941 38.5627 76.4842 37.8082 76.5948C37.0186 76.7564 36.321 76.6973 35.6937 76.5834C34.4324 76.336 33.4239 75.8141 32.5748 75.1509C30.8905 73.8168 29.8745 71.8756 29.4861 69.5276C29.4437 69.2669 29.406 68.9976 29.3731 68.72Z" fill="#096F1F"/>
<path d="M105.249 156.116C105.201 155.942 105.153 155.774 105.104 155.611C104.666 154.147 104.025 152.986 103.243 152.092C102.856 151.647 102.421 151.256 101.999 150.916C101.79 150.748 101.586 150.59 101.414 150.464C101.267 150.33 101.01 150.305 101.092 149.993C101.132 149.869 101.238 149.739 101.375 149.63C101.223 149.541 101.04 149.478 100.823 149.489C100.291 149.472 99.8284 150.2 99.8001 150.7C99.7314 151.225 99.8053 151.668 99.9106 152.072C100.132 152.878 100.524 153.525 100.987 154.06C101.925 155.13 103.215 155.779 104.729 156.039C104.897 156.067 105.07 156.093 105.249 156.116Z" fill="#096F1F"/>
<path d="M124.051 144.553C123.968 144.661 123.886 144.765 123.806 144.865C123.083 145.766 122.279 146.439 121.446 146.919C121.031 147.16 120.598 147.357 120.196 147.53C119.996 147.615 119.803 147.702 119.663 147.761C119.593 147.791 119.54 147.792 119.483 147.81C119.423 147.827 119.398 147.926 119.45 148.037C119.492 148.135 119.572 148.236 119.667 148.329C119.538 148.364 119.4 148.383 119.247 148.357C119.079 148.33 118.864 148.224 118.745 147.985C118.626 147.75 118.641 147.483 118.682 147.284C118.776 146.874 118.953 146.59 119.138 146.331C119.513 145.824 119.963 145.463 120.439 145.186C121.395 144.636 122.494 144.428 123.654 144.516C123.783 144.525 123.916 144.538 124.051 144.553Z" fill="#096F1F"/>
<path d="M142.247 144.306C142.128 144.406 142.011 144.502 141.896 144.594C140.868 145.426 139.782 146.024 138.701 146.436C138.16 146.644 137.61 146.806 137.101 146.958C136.848 147.033 136.595 147.12 136.429 147.181C136.345 147.216 136.296 147.204 136.238 147.219C136.175 147.237 136.176 147.371 136.247 147.495C136.307 147.609 136.402 147.723 136.51 147.83C136.359 147.848 136.202 147.85 136.035 147.81C135.855 147.766 135.622 147.66 135.495 147.374C135.37 147.085 135.448 146.762 135.539 146.551C135.731 146.118 136.001 145.842 136.264 145.596C136.795 145.116 137.379 144.798 137.981 144.565C139.183 144.109 140.484 144.015 141.798 144.226C141.945 144.25 142.095 144.276 142.247 144.306Z" fill="#096F1F"/>
<path d="M140.473 147.333C140.381 147.372 140.291 147.409 140.202 147.444C139.408 147.757 138.635 147.872 137.889 147.793C137.516 147.753 137.151 147.665 136.79 147.534C136.613 147.469 136.43 147.391 136.262 147.31C136.223 147.29 136.178 147.27 136.152 147.251C136.147 147.246 136.14 147.241 136.143 147.236C136.144 147.233 136.147 147.23 136.162 147.224C136.189 147.201 136.157 147.261 136.311 147.114C136.389 147.032 136.385 146.837 136.337 146.777C136.297 146.707 136.257 146.686 136.251 146.682C136.228 146.669 136.218 146.667 136.213 146.668C136.204 146.67 136.206 146.677 136.21 146.684C136.252 146.746 136.344 146.817 136.421 146.885C136.491 146.947 136.564 147.01 136.638 147.076C136.545 147.109 136.453 147.138 136.36 147.164C136.254 147.191 136.155 147.219 136.022 147.221C136.001 147.22 135.982 147.218 135.953 147.211C135.935 147.205 135.914 147.197 135.884 147.179C135.875 147.173 135.827 147.144 135.785 147.07C135.735 147.006 135.73 146.805 135.812 146.719C135.977 146.561 135.952 146.621 135.991 146.594C136.018 146.584 136.036 146.579 136.045 146.575C136.067 146.567 136.095 146.559 136.108 146.554C136.174 146.529 136.229 146.511 136.279 146.493C136.489 146.423 136.688 146.376 136.883 146.341C137.277 146.272 137.66 146.26 138.04 146.3C138.798 146.38 139.532 146.669 140.235 147.161C140.313 147.216 140.392 147.273 140.473 147.333Z" fill="#096F1F"/>
<path d="M94.3598 139.316C94.1835 139.507 94.0106 139.691 93.8411 139.868C92.3085 141.466 90.7043 142.587 89.084 143.33C87.5323 144.16 85.5194 144.205 84.8492 145.174C84.8183 145.36 84.869 145.599 84.981 145.831C84.7277 145.822 84.4509 145.75 84.1984 145.556C83.5667 145.111 83.5301 144.013 83.7724 143.36C83.9956 142.666 84.3641 142.122 84.7477 141.658C85.5317 140.734 86.4416 140.114 87.4003 139.668C89.3126 138.794 91.4347 138.659 93.6184 139.135C93.8604 139.189 94.1076 139.249 94.3598 139.316Z" fill="#096F1F"/>
<path d="M90.2591 59.8275C90.3316 59.984 90.4006 60.1364 90.4658 60.2846C91.0524 61.6329 91.3018 62.8398 91.2671 63.9651C91.2822 65.0858 90.7607 66.1096 90.7775 67.1398C90.8064 67.2562 90.8881 67.3816 91.0429 67.4512C90.9329 67.5812 90.7295 67.6614 90.5199 67.6538C88.5595 67.0714 88.3098 65.1556 88.293 63.9055C88.3361 62.5414 88.9102 61.2937 89.9088 60.1923C90.0197 60.0714 90.1365 59.9497 90.2591 59.8275Z" fill="#096F1F"/>
<path d="M77.4792 92.0637C77.5808 92.2474 77.6781 92.4267 77.7712 92.602C78.6102 94.1824 79.097 95.7256 79.319 97.1959C79.4319 97.9252 79.4794 98.6587 79.5185 99.3405C79.5382 99.6785 79.5588 100.005 79.5915 100.274C79.6434 100.53 79.5751 100.78 79.9322 100.889C80.0817 100.928 80.2741 100.911 80.4667 100.855C80.4145 101.052 80.3204 101.254 80.1438 101.425C79.7513 101.875 78.8233 101.719 78.3807 101.358C77.8909 101.012 77.5708 100.599 77.3057 100.187C76.785 99.3538 76.5159 98.4864 76.3834 97.6405C76.1272 95.9354 76.443 94.2294 77.2068 92.6106C77.292 92.431 77.3828 92.2487 77.4792 92.0637Z" fill="#096F1F"/>
<path d="M92.2782 85.5531C92.1111 85.5595 91.9492 85.5675 91.7922 85.5773C90.3683 85.674 89.2177 86.0245 88.2849 86.6255C87.3283 87.2124 86.6903 88.1337 85.8584 89.0612C85.7575 89.1509 85.6554 89.2585 85.4927 89.2629C85.5385 89.4334 85.7225 89.5502 85.8766 89.6325C87.411 90.2482 88.8235 89.8076 89.8765 89.1572C90.9373 88.4734 91.6971 87.4034 92.1404 86.0257C92.1885 85.8734 92.2344 85.7159 92.2782 85.5531Z" fill="#096F1F"/>
<path d="M114.082 35.902C113.95 35.8782 113.821 35.8568 113.695 35.8379C112.548 35.6718 111.491 35.7552 110.524 36.0835C109.547 36.4123 108.674 36.9941 107.837 37.7914C107.743 37.8782 107.651 37.9708 107.551 38.053C107.673 38.1025 107.805 38.1309 107.932 38.1594C109.086 38.3951 110.156 38.3165 111.143 37.9843C112.123 37.6517 113.018 37.0532 113.818 36.1974C113.905 36.1027 113.993 36.0042 114.082 35.902Z" fill="#096F1F"/>
<path d="M81.2487 129.596C81.7449 128.974 81.9678 128.185 81.8594 127.397C81.7516 126.609 81.3215 125.886 80.6724 125.393C80.0234 124.9 79.2111 124.681 78.4231 124.789C77.6345 124.897 76.9348 125.324 76.4691 125.969C76.4691 125.969 76.4691 125.969 76.4691 125.969C75.5667 127.218 74.8924 128.248 74.1178 129.629C72.5872 132.461 71.0828 135.961 71.8677 140.007C72.7026 144.184 76.1831 146.783 79.1118 148.111C85.2264 150.798 91.3965 151.194 97.4209 151.45C109.512 151.755 121.402 150.418 133.161 148.459C134.44 148.24 135.794 147.999 137.058 147.758C137.344 147.704 137.6 147.536 137.769 147.294C137.938 147.052 138.006 146.757 137.959 146.47C137.912 146.182 137.752 145.925 137.514 145.75C137.277 145.575 136.981 145.498 136.692 145.538C136.692 145.538 136.692 145.538 136.692 145.538C135.432 145.715 134.082 145.892 132.808 146.047C121.106 147.435 109.252 148.181 97.6451 147.331C86.8755 146.772 71.1881 142.54 79.1415 132.553C79.8091 131.477 80.4226 130.64 81.2487 129.596Z" fill="#096F1F"/>
</svg>
