<svg width="277" height="192" viewBox="0 0 277 192" fill="none" xmlns="http://www.w3.org/2000/svg">
<path d="M102.022 65.3853C117.456 75.896 122.95 90.5147 123.767 96.5102" stroke="#096F1F" stroke-width="3"/>
<path d="M100.971 66.5492C101.717 65.8852 102.462 65.2212 103.207 64.5573C102.753 64.0844 102.307 63.5933 101.877 63.0927C94.1817 53.8837 90.0816 41.7361 88.1396 29.6246C88.0438 28.9614 87.9557 28.2542 87.888 27.5905C87.9059 28.2572 87.9443 28.9699 87.9905 29.6399C89.0791 41.9122 92.1669 54.4004 99.6511 64.8639C100.074 65.4349 100.516 65.9998 100.971 66.5492Z" fill="#096F1F"/>
<path d="M142.607 112.606C125.31 111.259 124.099 96.5076 123.652 94.2871" stroke="#096F1F" stroke-width="3"/>
<path d="M119.603 101.285C119.516 101.32 119.418 101.327 119.327 101.299C119.236 101.271 119.159 101.21 119.113 101.129C119.067 101.047 119.055 100.951 119.078 100.858C119.101 100.766 119.159 100.686 119.233 100.63C119.233 100.63 119.233 100.63 119.233 100.63C119.496 100.435 119.756 100.251 120.025 100.072C122.445 98.4575 125.358 97.4617 128.342 97.3442C131.317 97.2259 134.352 97.9196 136.877 99.5189C137.155 99.6989 137.43 99.8944 137.685 100.104C137.757 100.164 137.811 100.246 137.831 100.34C137.85 100.434 137.834 100.53 137.785 100.609C137.736 100.687 137.657 100.744 137.565 100.767C137.473 100.791 137.375 100.778 137.29 100.739C137.29 100.739 137.29 100.739 137.29 100.739C137.018 100.617 136.731 100.505 136.444 100.404C133.841 99.5212 131.111 99.243 128.438 99.3448C125.757 99.4553 123.095 100.004 120.475 100.955C120.184 101.06 119.897 101.168 119.603 101.285Z" fill="#935713"/>
<path d="M137.7 149.416C137.678 149.506 137.681 149.604 137.718 149.691C137.755 149.777 137.822 149.846 137.906 149.882C137.99 149.918 138.086 149.92 138.174 149.887C138.263 149.855 138.337 149.79 138.387 149.712C138.387 149.712 138.387 149.712 138.387 149.712C138.531 149.484 138.666 149.259 138.796 149.025C139.97 146.929 140.586 144.469 140.525 142.028C140.463 139.588 139.782 137.161 138.423 135.141C138.27 134.919 138.105 134.699 137.93 134.495C137.869 134.425 137.788 134.372 137.695 134.354C137.603 134.335 137.508 134.352 137.43 134.401C137.352 134.449 137.296 134.528 137.271 134.619C137.247 134.711 137.258 134.807 137.293 134.893C137.293 134.893 137.293 134.893 137.293 134.893C137.382 135.118 137.465 135.353 137.54 135.588C138.198 137.72 138.47 139.914 138.529 142.088C138.578 144.265 138.372 146.451 137.877 148.673C137.821 148.921 137.764 149.165 137.7 149.416Z" fill="#935713"/>
<path d="M140.521 102.242C140.553 102.153 140.558 102.055 140.528 101.965C140.498 101.874 140.435 101.8 140.353 101.757C140.271 101.714 140.175 101.706 140.083 101.732C139.992 101.759 139.914 101.819 139.859 101.896C139.859 101.896 139.859 101.896 139.859 101.896C139.675 102.157 139.502 102.416 139.334 102.684C137.818 105.088 136.911 107.964 136.901 110.881C136.889 113.785 137.717 116.714 139.435 119.035C139.628 119.29 139.836 119.54 140.057 119.769C140.122 119.836 140.208 119.883 140.302 119.894C140.396 119.905 140.491 119.881 140.565 119.825C140.64 119.769 140.691 119.686 140.707 119.592C140.724 119.497 140.704 119.401 140.66 119.319C140.66 119.319 140.66 119.319 140.66 119.319C140.525 119.066 140.4 118.797 140.286 118.528C139.281 116.08 138.891 113.458 138.897 110.874C138.91 108.281 139.374 105.683 140.224 103.102C140.318 102.816 140.415 102.532 140.521 102.242Z" fill="#935713"/>
<path d="M148.538 119.462C148.57 119.683 148.556 119.917 148.466 120.125C148.377 120.334 148.222 120.499 148.026 120.59C147.83 120.68 147.603 120.69 147.387 120.623C147.17 120.556 146.983 120.415 146.835 120.246C146.835 120.246 146.835 120.246 146.835 120.246C146.344 119.677 145.873 119.116 145.424 118.561C143.608 116.3 142.055 113.984 140.712 111.562C135.92 103.451 130.94 93.5907 122.552 90.9833C121.981 90.9005 121.411 90.9203 120.929 91.0781C120.706 91.1607 120.457 91.1685 120.23 91.0857C120.004 91.0031 119.819 90.8387 119.716 90.6258C119.612 90.4129 119.597 90.1662 119.671 89.9371C119.746 89.7078 119.905 89.5168 120.108 89.3922C120.108 89.3922 120.108 89.3922 120.108 89.3922C120.897 88.933 121.78 88.7462 122.622 88.7066C134.353 90.3267 139.963 100.745 145.084 109.137C146.487 111.666 147.498 114.389 148.132 117.27C148.286 117.98 148.422 118.711 148.538 119.462Z" fill="#096F1F"/>
<path d="M138.484 119.61C138.28 120.522 138.445 121.473 138.954 122.258C139.462 123.042 140.274 123.596 141.197 123.793C142.12 123.991 143.077 123.816 143.843 123.305C144.609 122.794 145.124 121.988 145.284 121.067C145.284 121.067 145.284 121.067 145.284 121.067C145.552 119.536 145.826 118.031 146.113 116.521C151.403 89.3759 159.845 62.4716 173.718 38.6011C174.515 37.2952 175.323 36.0315 176.189 34.804C176.385 34.5266 176.464 34.1762 176.412 33.8328C176.36 33.4892 176.182 33.1807 175.913 32.9722C175.644 32.7638 175.304 32.6717 174.966 32.7133C174.628 32.755 174.319 32.9271 174.11 33.1945C173.134 34.4473 172.238 35.7116 171.355 37.0168C156.049 60.7233 146.256 87.5133 139.547 115.007C139.182 116.535 138.829 118.058 138.484 119.61Z" fill="#096F1F"/>
<path d="M151.191 79.2271C150.428 79.4561 149.799 79.9772 149.452 80.6974C149.104 81.4164 149.065 82.2755 149.337 83.0642C149.609 83.8529 150.167 84.5004 150.881 84.8428C151.595 85.1864 152.407 85.1967 153.145 84.893C153.145 84.893 153.145 84.893 153.145 84.893C154.259 84.4431 155.241 83.97 156.273 83.3857C177.6 70.0648 159.933 45.0949 170.186 31.3791C170.653 31.1977 171.111 31.0836 171.65 31.0122C172.115 30.9485 172.622 30.9244 173.172 30.9434C173.172 30.9434 173.172 30.9434 173.172 30.9434C172.626 30.8745 172.117 30.8479 171.639 30.8625C171.085 30.8849 170.602 30.9514 170.094 31.0941C165.065 32.8716 165.37 39.1639 165.039 43.4519C164.884 48.0943 165 52.6986 164.693 57.2122C164.276 66.1369 161.302 75.3183 153.715 78.3066C152.89 78.6727 152.097 78.9573 151.191 79.2271Z" fill="#096F1F"/>
<path d="M137.012 129.392C138.186 129.526 139.35 129.173 140.249 128.386C141.148 127.6 141.71 126.444 141.808 125.197C141.906 123.951 141.532 122.723 140.767 121.81C140.001 120.896 138.907 120.37 137.726 120.324C137.726 120.324 137.726 120.324 137.726 120.324C135.644 120.241 133.623 120.134 131.661 120.004C113.741 118.731 95.3538 115.417 80.5163 105.167C65.0502 95.3517 58.609 76.1645 45.5169 62.6516C44.0208 61.2081 42.4347 59.8854 40.7308 58.6903C42.3459 60.0074 43.8234 61.4367 45.1987 62.9714C57.1266 77.08 62.0346 96.88 77.8597 108.831C93.0107 121.013 112.271 125.896 130.748 128.596C132.775 128.886 134.863 129.151 137.012 129.392Z" fill="#096F1F"/>
<path d="M175.089 36.805C174.838 37.1122 174.477 37.3024 174.082 37.3302C173.686 37.3582 173.288 37.2215 172.979 36.9537C172.67 36.6859 172.476 36.3101 172.445 35.9124C172.414 35.5146 172.548 35.1275 172.813 34.8327C172.813 34.8327 172.813 34.8327 172.813 34.8327C173.261 34.3326 173.697 33.8389 174.119 33.3515C181.208 24.7983 190.291 13.0881 184.45 2.38878C184.093 1.8726 183.683 1.39218 183.227 0.980773C183.118 0.882933 183.052 0.744271 183.041 0.596814C183.031 0.449269 183.077 0.305005 183.171 0.194249C183.264 0.0834889 183.399 0.0148687 183.545 0.00196515C183.692 -0.0108547 183.838 0.0330981 183.952 0.125669C183.952 0.125669 183.952 0.125669 183.952 0.125669C184.506 0.580916 184.996 1.10588 185.429 1.67246C192.465 13.5824 183.119 26.0728 176.359 35.221C175.949 35.7427 175.526 36.2706 175.089 36.805Z" fill="#096F1F"/>
<path d="M144.616 121.393C144.572 121.519 144.581 121.656 144.64 121.775C144.699 121.893 144.803 121.984 144.929 122.027C145.056 122.07 145.194 122.061 145.313 122.002C145.431 121.943 145.521 121.839 145.563 121.713C145.848 120.851 146.09 120.094 146.351 119.234C147.697 114.666 148.969 109.926 148.565 105.046C148.105 100.114 145.099 96.0144 145.722 91.1918C146.458 85.4281 150.218 80.4093 153.648 75.6845C154.165 75.0049 154.691 74.33 155.233 73.6743C155.264 73.6364 155.28 73.5873 155.275 73.5379C155.271 73.4885 155.247 73.4429 155.21 73.4109C155.172 73.379 155.123 73.3634 155.074 73.3674C155.024 73.3713 154.978 73.3946 154.946 73.4321C154.389 74.0908 153.854 74.7594 153.326 75.4369C149.822 80.1726 145.977 85.0425 145.102 91.1552C144.405 96.1068 147.445 100.53 147.773 105.117C148.108 109.777 146.816 114.446 145.426 118.947C145.157 119.794 144.908 120.542 144.616 121.393Z" fill="#935713"/>
<path d="M136.361 118.553C136.626 118.559 136.877 118.671 137.059 118.864C137.24 119.057 137.338 119.316 137.329 119.583C137.321 119.85 137.208 120.102 137.014 120.284C136.821 120.466 136.564 120.562 136.299 120.552C136.299 120.552 136.299 120.552 136.299 120.552C134.702 120.492 133.16 120.483 131.606 120.521C121.346 120.279 111.503 125.064 100.678 123.174C90.0464 120.559 82.8737 112.101 75.9624 104.511C70.7853 98.8706 63.9877 94.7712 57.2755 90.9294C55.9014 90.1618 54.5086 89.4078 53.1143 88.7002C53.026 88.656 52.9587 88.5782 52.9271 88.4843C52.8955 88.3904 52.9021 88.288 52.9458 88.1993C52.9895 88.1107 53.0666 88.043 53.1603 88.0107C53.2541 87.9784 53.3568 87.9843 53.4457 88.0273C53.4457 88.0273 53.4457 88.0273 53.4457 88.0273C54.8711 88.7271 56.2741 89.4632 57.6678 90.2177C64.478 94.0064 71.3321 97.9779 76.8018 103.769C83.7332 111.236 91.1016 119.439 100.991 121.677C110.908 123.372 121.027 118.522 131.546 118.584C133.14 118.524 134.723 118.513 136.361 118.553Z" fill="#935713"/>
<path d="M146.461 127.729C146.282 127.644 146.144 127.491 146.078 127.303C146.012 127.116 146.024 126.909 146.11 126.729C146.197 126.549 146.351 126.411 146.538 126.345C146.726 126.279 146.932 126.291 147.111 126.377C147.111 126.377 147.111 126.377 147.111 126.377C149.052 127.292 150.741 128.857 151.741 130.757C155.064 137.838 153.364 145.936 158.405 151.37C163.204 156.699 170.965 158.14 178.139 158.887C188.976 160.393 198.215 153.479 208.311 149.949C218.528 146.251 229.696 146.374 240.194 148.133C242.222 148.468 244.112 148.835 246.148 149.279C246.221 149.295 246.284 149.339 246.325 149.401C246.365 149.464 246.379 149.54 246.363 149.612C246.348 149.685 246.304 149.748 246.241 149.789C246.179 149.83 246.103 149.844 246.03 149.829C246.03 149.829 246.03 149.829 246.03 149.829C243.999 149.402 242.115 149.053 240.097 148.734C229.637 147.066 218.615 147.044 208.598 150.759C198.746 154.256 189.317 161.443 178.039 159.991C170.762 159.266 162.768 157.977 157.444 152.218C151.953 146.29 153.56 137.612 150.465 131.454C149.574 129.807 148.175 128.529 146.461 127.729Z" fill="#935713"/>
<path d="M148.089 83.5531C155.2 72.0324 155.154 74.022 159.394 68.655C161.969 65.3953 164.801 56.5534 164.801 56.5534" stroke="#935713" stroke-width="0.5" stroke-linecap="round" stroke-linejoin="round"/>
<path d="M144.024 122.428C144.632 123.131 144.929 124.041 144.839 124.965C144.751 125.888 144.283 126.751 143.549 127.354C142.816 127.958 141.879 128.25 140.956 128.159C140.031 128.069 139.196 127.602 138.623 126.87C138.623 126.87 138.623 126.87 138.623 126.87C137.24 125.097 135.733 123.509 134.074 122.089C98.5096 100.128 50.0435 124.703 7.31773 117.067C4.88679 116.783 2.50777 116.45 0.0894501 116.053C2.52368 116.334 4.91306 116.551 7.34928 116.718C51.0219 122.759 94.0305 93.922 138.254 116.925C140.349 118.548 142.268 120.386 144.024 122.428Z" fill="#096F1F"/>
<path d="M148.644 121.583C147.856 121.684 147.146 122.095 146.674 122.735C146.201 123.374 146.005 124.191 146.125 124.996C146.246 125.8 146.673 126.524 147.313 126.997C147.952 127.472 148.751 127.657 149.534 127.523C149.534 127.523 149.534 127.523 149.534 127.523C150.962 127.28 152.27 127.11 153.69 126.998C180 124.115 195.587 155.235 222.442 161.883C223.899 162.35 225.296 162.752 226.788 163.138C227.071 163.21 227.374 163.166 227.629 163.019C227.884 162.871 228.071 162.632 228.15 162.35C228.228 162.069 228.191 161.767 228.049 161.508C227.907 161.249 227.67 161.054 227.391 160.969C227.391 160.969 227.391 160.969 227.391 160.969C225.957 160.534 224.621 160.086 223.229 159.576C197.437 152.506 184.938 120.378 153.361 121.19C151.74 121.25 150.254 121.376 148.644 121.583Z" fill="#096F1F"/>
<path d="M147.334 126.042C146.759 126.779 145.93 127.236 145.005 127.29C144.082 127.344 143.137 126.991 142.406 126.331C141.674 125.671 141.223 124.765 141.178 123.836C141.131 122.906 141.494 122.029 142.161 121.375C142.161 121.375 142.161 121.375 142.161 121.375C142.802 120.744 143.427 120.121 144.038 119.504C154.486 108.29 167.138 95.3335 165.71 79.1055C165.496 78.2546 165.174 77.4181 164.669 76.6899C165.266 77.3445 165.709 78.1518 166.042 78.9947C169.727 95.6366 158.285 110.907 149.021 123.86C148.475 124.58 147.913 125.307 147.334 126.042Z" fill="#096F1F"/>
<path d="M142.25 125.413C142.135 125.044 142.023 124.685 141.909 124.334C140.871 121.141 139.704 118.425 138.253 115.921C136.822 113.404 135.03 111.173 133.139 108.522C132.934 108.223 132.731 107.92 132.543 107.588C132.399 107.945 132.291 108.317 132.205 108.696C131.487 112.153 132.303 115.633 133.931 118.461C135.578 121.31 138.115 123.562 141.202 124.973C141.543 125.128 141.892 125.274 142.25 125.413Z" fill="#096F1F"/>
<path d="M119.494 90.8111C119.547 90.8876 119.578 90.9804 119.572 91.0754C119.567 91.1703 119.527 91.2587 119.46 91.3227C119.392 91.3867 119.302 91.422 119.208 91.4224C119.113 91.4229 119.022 91.3876 118.949 91.3305C118.949 91.3305 118.949 91.3305 118.949 91.3305C118.724 91.1526 118.507 90.9729 118.292 90.7834C116.363 89.0892 114.851 86.8682 113.933 84.4324C113.016 81.9915 112.633 79.3448 112.979 76.7462C113.02 76.4583 113.072 76.1668 113.14 75.8852C113.162 75.7943 113.211 75.7094 113.286 75.65C113.36 75.5906 113.452 75.5615 113.544 75.5692C113.636 75.5769 113.722 75.621 113.784 75.6919C113.846 75.7628 113.88 75.8546 113.885 75.9479C113.885 75.9479 113.885 75.9479 113.885 75.9479C113.903 76.2113 113.93 76.4831 113.965 76.7501C114.295 79.1623 114.964 81.4777 115.799 83.7068C116.643 85.9317 117.698 88.0745 119.037 90.1288C119.186 90.3581 119.336 90.5829 119.494 90.8111Z" fill="#935713"/>
<path d="M119.222 91.0708C118.981 90.9139 118.75 90.7536 118.521 90.582C116.462 89.0505 114.85 86.8687 113.933 84.4324C113.015 81.9944 112.732 79.2976 113.282 76.7474C113.346 76.4662 113.421 76.1836 113.512 75.9166C113.554 76.1945 113.605 76.4753 113.661 76.7489C114.196 79.2095 114.966 81.4748 115.799 83.7068C116.644 85.9312 117.599 88.1132 118.808 90.3302C118.943 90.5774 119.078 90.8216 119.222 91.0708Z" fill="#935713"/>
<path d="M98.7605 47.5996C98.7767 48.7971 98.8116 49.9708 98.8648 51.1209C99.3891 61.5943 101.605 72.3754 107.167 81.7631C112.484 91.0315 122.754 98.8473 133.526 97.7214C134.694 97.6008 135.833 97.3728 136.92 97.0214C135.781 97.1084 134.646 97.076 133.52 96.9548C123.258 95.7284 115.59 88.1889 110.548 79.6874C105.424 71.0544 102.239 61.1295 99.6094 51.0113C99.3221 49.9026 99.0389 48.7657 98.7605 47.5996Z" fill="#096F1F"/>
<path d="M101.219 47.3046C101.16 46.6375 100.843 46.029 100.323 45.6147C99.8034 45.2003 99.1243 45.014 98.4484 45.0951C97.7725 45.1763 97.1591 45.5177 96.757 46.0427C96.3541 46.5677 96.1955 47.2333 96.3022 47.8947C96.3022 47.8947 96.3022 47.8947 96.3022 47.8947C96.4931 49.0929 96.696 50.264 96.9103 51.4085C100.414 71.1909 110.889 97.1117 133.524 97.4642C134.678 97.4225 135.815 97.2819 136.92 97.0214C135.799 97.1993 134.662 97.2543 133.522 97.212C111.483 95.1015 103.688 70.031 101.564 50.7237C101.438 49.6094 101.322 48.4699 101.219 47.3046Z" fill="#096F1F"/>
<path d="M106.425 41.6632C106.189 41.7772 105.962 41.8898 105.744 42.001C103.781 43.001 102.41 44.2017 101.57 45.5313C101.15 46.1914 100.851 46.9042 100.659 47.588C100.566 47.9285 100.491 48.2556 100.493 48.5288C100.493 48.6659 100.548 48.7868 100.571 48.942C100.599 49.0987 100.469 49.2554 100.248 49.2412C100.055 49.2357 99.8306 49.138 99.6181 48.9972C99.513 49.2315 99.4439 49.4993 99.4835 49.8092C99.5191 50.1494 99.7694 50.5853 100.233 50.8137C100.691 51.0456 101.193 51.0564 101.591 51.0148C102.411 50.9103 102.987 50.649 103.513 50.3588C104.543 49.7687 105.261 49.0149 105.784 48.1979C106.822 46.5515 107.067 44.5671 106.602 42.4036C106.55 42.1629 106.491 41.9161 106.425 41.6632Z" fill="#096F1F"/>
<path d="M94.4115 68.72C94.6866 68.7675 94.9525 68.816 95.2092 68.8657C97.5262 69.3164 99.3414 70.1271 100.714 71.2122C101.404 71.7536 101.987 72.3695 102.493 72.9951C102.741 73.3049 102.973 73.6131 103.157 73.8874C103.251 74.0247 103.321 74.1562 103.41 74.2815C103.495 74.4049 103.646 74.5207 103.87 74.4766C104.065 74.4414 104.279 74.2942 104.461 74.0888C104.609 74.3177 104.715 74.6056 104.691 74.9496C104.681 75.7941 103.601 76.4842 102.846 76.5948C102.057 76.7564 101.359 76.6973 100.732 76.5834C99.4707 76.336 98.4622 75.8141 97.6132 75.1509C95.9288 73.8168 94.9129 71.8756 94.5244 69.5276C94.482 69.2669 94.4443 68.9976 94.4115 68.72Z" fill="#096F1F"/>
<path d="M192.089 159.553C191.991 159.326 191.893 159.107 191.796 158.896C190.929 156.994 189.811 155.517 188.545 154.426C187.914 153.879 187.23 153.417 186.581 153.03C186.258 152.84 185.945 152.648 185.713 152.555C185.597 152.504 185.498 152.537 185.371 152.521C185.239 152.503 185.215 152.309 185.338 152.129C185.44 151.967 185.611 151.811 185.807 151.672C185.601 151.546 185.369 151.443 185.091 151.409C184.788 151.371 184.353 151.438 184.016 151.829C183.682 152.218 183.61 152.738 183.613 153.118C183.633 153.901 183.847 154.471 184.077 154.995C184.551 156.024 185.205 156.809 185.939 157.449C187.413 158.718 189.277 159.394 191.37 159.523C191.603 159.537 191.843 159.547 192.089 159.553Z" fill="#096F1F"/>
<path d="M229.089 141.43C228.95 141.653 228.812 141.868 228.676 142.076C227.455 143.948 226.055 145.372 224.568 146.421C223.831 146.944 223.05 147.388 222.317 147.78C221.954 147.975 221.605 148.16 221.325 148.317C221.186 148.396 221.067 148.45 220.959 148.522C220.85 148.59 220.765 148.746 220.823 148.965C220.87 149.157 221.004 149.365 221.179 149.553C220.931 149.619 220.653 149.644 220.353 149.56C220.019 149.475 219.643 149.184 219.46 148.761C219.272 148.342 219.258 147.893 219.299 147.513C219.395 146.74 219.666 146.147 219.968 145.611C220.586 144.55 221.388 143.765 222.248 143.151C223.987 141.926 226.067 141.373 228.319 141.403C228.57 141.407 228.826 141.416 229.089 141.43Z" fill="#096F1F"/>
<path d="M261.622 146.327C261.459 146.21 261.3 146.098 261.144 145.991C259.744 145.025 258.323 144.433 256.927 144.153C256.224 144.009 255.535 143.95 254.867 143.917C254.545 143.905 254.212 143.879 254.02 143.902C253.918 143.897 253.928 144.048 253.811 144.127C253.692 144.171 253.693 143.966 253.768 143.804C253.831 143.651 253.934 143.492 254.051 143.336C253.857 143.308 253.657 143.298 253.443 143.334C253.214 143.383 252.91 143.451 252.7 143.864C252.486 144.32 252.732 144.843 252.9 145.086C253.269 145.616 253.648 145.891 254.026 146.151C254.796 146.651 255.553 146.927 256.342 147.089C257.902 147.402 259.507 147.198 261.084 146.557C261.26 146.485 261.439 146.409 261.622 146.327Z" fill="#096F1F"/>
<path d="M231.595 163.174C231.466 163.095 231.342 163.019 231.221 162.945C230.097 162.281 229.029 161.842 227.992 161.53C226.965 161.235 225.858 160.942 224.53 160.893C224.384 160.889 224.239 160.89 224.089 160.893C224.183 161.01 224.273 161.123 224.365 161.234C225.166 162.222 226.161 163.075 227.42 163.443C228.658 163.814 229.94 163.73 231.182 163.323C231.317 163.277 231.454 163.227 231.595 163.174Z" fill="#096F1F"/>
<path d="M209.544 150.978C209.544 150.978 209.544 150.978 209.544 150.978C209.444 150.908 209.347 150.841 209.252 150.777C208.385 150.199 207.566 149.86 206.761 149.711C205.973 149.526 205.147 149.719 204.483 149.476C204.413 149.428 204.352 149.34 204.338 149.221C204.233 149.277 204.142 149.397 204.108 149.543C204.014 150.27 204.577 150.765 204.986 151.079C205.432 151.398 205.91 151.581 206.389 151.672C207.353 151.85 208.311 151.653 209.235 151.156C209.337 151.1 209.44 151.041 209.544 150.978Z" fill="#096F1F"/>
<path d="M264.089 135.151C264.181 135.194 264.27 135.235 264.358 135.274C265.157 135.632 265.939 135.884 266.714 136.075C267.468 136.294 268.315 136.314 268.884 136.776C268.936 136.836 268.978 136.917 268.974 137.015C269.041 136.943 269.072 136.826 269.064 136.714C268.781 135.682 267.756 135.338 266.958 135.107C266.109 134.898 265.241 134.909 264.379 135.086C264.284 135.106 264.187 135.128 264.089 135.151Z" fill="#096F1F"/>
<path d="M264.089 136.151C264.181 136.194 264.27 136.235 264.358 136.274C265.157 136.632 265.939 136.884 266.714 137.075C267.468 137.294 268.315 137.314 268.884 137.776C268.936 137.836 268.978 137.917 268.974 138.015C269.041 137.943 269.072 137.826 269.064 137.714C268.781 136.682 267.756 136.338 266.958 136.107C266.109 135.898 265.241 135.909 264.379 136.086C264.284 136.106 264.187 136.128 264.089 136.151Z" fill="#096F1F"/>
<path d="M266.089 140.397C266.131 140.305 266.172 140.215 266.213 140.128C266.584 139.334 267.012 138.632 267.474 137.979C267.9 137.321 268.531 136.75 268.644 136.026C268.643 135.946 268.619 135.858 268.55 135.786C268.648 135.796 268.75 135.863 268.819 135.953C269.3 136.925 268.743 137.862 268.291 138.558C267.786 139.273 267.12 139.831 266.351 140.258C266.267 140.305 266.179 140.351 266.089 140.397Z" fill="#096F1F"/>
<path d="M268.08 141.893C268.052 141.789 268.026 141.687 268.002 141.588C267.78 140.689 267.719 139.866 267.779 139.088C267.806 138.316 268.119 137.571 268.004 136.868C267.977 136.794 267.925 136.716 267.827 136.673C267.915 136.614 268.051 136.604 268.172 136.64C269.243 137.204 269.308 138.364 269.277 139.204C269.208 140.096 268.854 140.915 268.281 141.649C268.217 141.73 268.15 141.811 268.08 141.893Z" fill="#096F1F"/>
<path d="M159.398 139.316C159.222 139.507 159.049 139.691 158.879 139.868C157.347 141.467 155.743 142.588 154.122 143.33C152.571 144.16 150.558 144.206 149.887 145.174C149.857 145.361 149.907 145.6 150.019 145.831C149.766 145.822 149.489 145.75 149.237 145.556C148.605 145.112 148.568 144.014 148.811 143.361C149.034 142.667 149.402 142.122 149.786 141.659C150.57 140.735 151.48 140.114 152.439 139.669C154.351 138.795 156.473 138.659 158.657 139.136C158.899 139.189 159.146 139.25 159.398 139.316Z" fill="#096F1F"/>
<path d="M165.089 126.064C165.339 126.136 165.581 126.204 165.816 126.268C167.933 126.851 170.026 127.029 171.969 126.969C172.45 126.958 172.918 126.936 173.325 126.926C173.757 126.922 173.998 126.901 174.478 126.997C175.547 127.275 176.822 127.255 177.868 126.993C178.124 126.94 178.338 126.872 178.594 126.802C178.36 126.674 178.172 126.555 177.947 126.433C176.981 125.885 176.209 125.403 175.409 124.812C174.33 124.079 172.907 123.966 171.872 123.99C169.689 124.059 167.688 124.688 165.748 125.705C165.534 125.819 165.314 125.938 165.089 126.064Z" fill="#096F1F"/>
<path d="M186.48 137.553C186.514 137.731 186.547 137.902 186.58 138.067C186.893 139.577 187.463 140.965 188.186 142.182C188.892 143.394 189.819 144.579 191.007 145.594C191.135 145.701 191.269 145.812 191.41 145.927C191.385 145.748 191.361 145.576 191.338 145.412C191.083 143.871 190.666 142.494 189.903 141.183C189.14 139.901 188.127 138.817 186.901 137.867C186.766 137.766 186.626 137.661 186.48 137.553Z" fill="#096F1F"/>
<path d="M225.247 161.265C225.247 161.265 225.247 161.265 225.247 161.265C225.334 161.304 225.418 161.34 225.499 161.375C226.228 161.686 226.984 161.867 227.744 161.891C228.482 161.842 229.212 161.827 229.987 161.607C230.071 161.584 230.158 161.559 230.249 161.533C230.162 161.493 230.079 161.455 230 161.418C229.273 161.102 228.517 160.845 227.756 160.893C227.033 160.871 226.257 160.959 225.508 161.186C225.424 161.211 225.337 161.237 225.247 161.265Z" fill="#096F1F"/>
<path d="M155.297 59.8275C155.37 59.984 155.439 60.1364 155.504 60.2846C156.091 61.6329 156.34 62.8398 156.305 63.9651C156.321 65.0858 155.799 66.1096 155.816 67.1398C155.845 67.2562 155.926 67.3816 156.081 67.4512C155.971 67.5812 155.768 67.6614 155.558 67.6538C153.598 67.0714 153.348 65.1556 153.331 63.9055C153.374 62.5414 153.948 61.2937 154.947 60.1923C155.058 60.0714 155.175 59.9497 155.297 59.8275Z" fill="#096F1F"/>
<path d="M142.518 92.0642C142.619 92.2478 142.716 92.4272 142.809 92.6025C143.648 94.1828 144.135 95.7261 144.357 97.1964C144.47 97.9257 144.518 98.6592 144.557 99.341C144.577 99.6789 144.597 100.005 144.63 100.275C144.682 100.53 144.613 100.78 144.971 100.89C145.12 100.928 145.312 100.911 145.505 100.855C145.453 101.053 145.359 101.254 145.182 101.425C144.79 101.876 143.862 101.72 143.419 101.359C142.929 101.013 142.609 100.6 142.344 100.188C141.823 99.3543 141.554 98.4869 141.422 97.641C141.166 95.9359 141.481 94.2299 142.245 92.6111C142.33 92.4315 142.421 92.2492 142.518 92.0642Z" fill="#096F1F"/>
<path d="M157.317 85.5531C157.149 85.5595 156.988 85.5675 156.831 85.5773C155.407 85.674 154.256 86.0245 153.323 86.6255C152.367 87.2124 151.729 88.1337 150.897 89.0612C150.796 89.1509 150.694 89.2585 150.531 89.2629C150.577 89.4334 150.761 89.5502 150.915 89.6325C152.449 90.2482 153.862 89.8076 154.915 89.1572C155.976 88.4734 156.735 87.4034 157.179 86.0257C157.227 85.8734 157.273 85.7159 157.317 85.5531Z" fill="#096F1F"/>
<path d="M179.12 35.902C178.989 35.8782 178.86 35.8568 178.733 35.8379C177.586 35.6718 176.53 35.7552 175.562 36.0835C174.585 36.4123 173.712 36.9941 172.875 37.7914C172.781 37.8782 172.689 37.9708 172.589 38.053C172.712 38.1025 172.843 38.1309 172.97 38.1594C174.124 38.3951 175.195 38.3165 176.181 37.9843C177.162 37.6517 178.056 37.0532 178.856 36.1974C178.944 36.1027 179.032 36.0042 179.12 35.902Z" fill="#096F1F"/>
<path d="M146.39 130.409C147.16 129.679 147.603 128.677 147.613 127.616C147.623 126.555 147.2 125.522 146.445 124.752C145.689 123.982 144.664 123.539 143.604 123.529C142.543 123.519 141.532 123.942 140.788 124.698C140.788 124.698 140.788 124.698 140.788 124.698C138.712 126.854 136.883 128.999 135.778 132.467C134.384 136.325 136.222 141.385 138.847 143.713C141.456 146.276 144.209 147.635 147.019 148.84C152.569 151.116 158.187 152.286 163.797 153.169C175.03 154.856 186.217 155.138 197.345 154.741C219.576 153.755 241.93 150.42 262.588 141.646C264.817 140.669 267.15 139.544 269.283 138.383C269.626 138.197 269.883 137.878 269.998 137.501C270.114 137.123 270.078 136.718 269.897 136.372C269.716 136.025 269.405 135.763 269.03 135.642C268.654 135.52 268.246 135.548 267.896 135.723C267.896 135.723 267.896 135.723 267.896 135.723C265.808 136.766 263.522 137.779 261.333 138.648C241.053 146.47 218.949 149.028 197.231 149.242C186.373 149.263 175.474 148.597 164.91 146.638C159.661 145.638 154.439 144.313 149.89 142.251C147.608 141.206 145.539 139.953 144.218 138.524C142.911 137.023 142.748 136.158 143.184 134.753C143.64 133.428 144.772 131.938 146.39 130.409Z" fill="#096F1F"/>
<path d="M267.549 136.123C267.526 136.109 267.451 136.024 267.616 135.498C267.781 134.969 268.154 134.148 268.758 133.193C269.361 132.238 269.943 131.549 270.349 131.172C270.754 130.798 270.863 130.829 270.886 130.843C270.908 130.858 270.983 130.943 270.818 131.469C270.653 131.998 270.28 132.819 269.676 133.774C269.073 134.729 268.492 135.418 268.085 135.794C267.68 136.169 267.571 136.138 267.549 136.123Z" fill="#096F1F"/>
<path d="M268.674 135.334C268.64 135.298 268.529 135.126 268.819 134.515C269.111 133.901 269.743 133.032 270.742 132.143C271.741 131.254 272.687 130.719 273.343 130.49C273.995 130.262 274.162 130.385 274.196 130.421C274.23 130.457 274.341 130.63 274.051 131.24C273.759 131.854 273.127 132.723 272.128 133.612C271.129 134.501 270.183 135.037 269.527 135.265C268.875 135.493 268.708 135.371 268.674 135.334Z" fill="#096F1F"/>
<mask id="path-46-inside-1_2194_3811" fill="white">
<path d="M267.063 135.483C267.073 135.44 267.158 135.276 267.925 135.213C268.696 135.151 269.938 135.229 271.449 135.579C272.961 135.929 274.108 136.402 274.77 136.797C275.429 137.189 275.43 137.373 275.42 137.416C275.409 137.459 275.325 137.624 274.558 137.686C273.787 137.749 272.545 137.67 271.034 137.32C269.522 136.971 268.375 136.497 267.712 136.103C267.054 135.711 267.053 135.526 267.063 135.483Z"/>
</mask>
<path d="M267.063 135.483C267.073 135.44 267.158 135.276 267.925 135.213C268.696 135.151 269.938 135.229 271.449 135.579C272.961 135.929 274.108 136.402 274.77 136.797C275.429 137.189 275.43 137.373 275.42 137.416C275.409 137.459 275.325 137.624 274.558 137.686C273.787 137.749 272.545 137.67 271.034 137.32C269.522 136.971 268.375 136.497 267.712 136.103C267.054 135.711 267.053 135.526 267.063 135.483Z" fill="#096F1F"/>
<path d="M266.576 135.371C266.901 135.446 267.226 135.521 267.55 135.596C267.48 135.804 267.43 135.785 267.418 135.804C267.404 135.812 267.41 135.806 267.422 135.8C267.448 135.787 267.498 135.769 267.552 135.755C267.663 135.726 267.795 135.704 267.93 135.689C267.94 135.687 267.95 135.686 267.96 135.685C269.05 135.579 270.23 135.72 271.362 135.944C272.494 136.177 273.633 136.5 274.628 137.033C274.756 137.105 274.881 137.181 274.99 137.262C275.044 137.302 275.094 137.344 275.132 137.383C275.173 137.405 275.173 137.51 275.176 137.36C275.245 137.226 275.198 137.326 275.151 137.332C275.101 137.355 275.037 137.375 274.97 137.391C274.836 137.425 274.69 137.447 274.541 137.463C273.401 137.571 272.213 137.426 271.063 137.199C269.913 136.96 268.764 136.638 267.726 136.08C267.716 136.075 267.706 136.07 267.697 136.064C267.457 135.911 267.132 135.777 267.063 135.483C267.117 135.786 267.438 135.939 267.671 136.107C267.68 136.113 267.689 136.119 267.699 136.125C268.714 136.746 269.854 137.136 271.005 137.442C272.161 137.736 273.343 137.956 274.575 137.909C274.737 137.9 274.899 137.886 275.069 137.854C275.154 137.837 275.24 137.817 275.334 137.782C275.425 137.727 275.541 137.757 275.663 137.472C275.687 137.164 275.572 137.135 275.518 137.043C275.452 136.966 275.387 136.906 275.319 136.85C275.186 136.739 275.051 136.647 274.913 136.56C273.854 135.915 272.705 135.526 271.536 135.214C270.361 134.917 269.17 134.693 267.889 134.741C267.877 134.742 267.865 134.743 267.852 134.744C267.69 134.754 267.525 134.769 267.342 134.806C267.251 134.824 267.156 134.847 267.043 134.892C266.986 134.915 266.924 134.942 266.849 134.994C266.777 135.055 266.666 135.09 266.576 135.371ZM267.55 135.596L266.576 135.371L267.063 135.483L267.55 135.596Z" fill="#096F1F" mask="url(#path-46-inside-1_2194_3811)"/>
<path d="M268.23 135.709C268.223 135.675 268.234 135.526 268.856 135.219C269.481 134.91 270.553 134.543 271.949 134.28C273.345 134.017 274.481 133.969 275.18 134.029C275.875 134.088 275.942 134.221 275.949 134.256C275.956 134.29 275.945 134.439 275.323 134.746C274.698 135.055 273.626 135.422 272.23 135.685C270.833 135.948 269.698 135.996 268.999 135.937C268.304 135.877 268.237 135.744 268.23 135.709Z" fill="#096F1F"/>
</svg>
