<svg width="354" height="218" viewBox="0 0 354 218" fill="none" xmlns="http://www.w3.org/2000/svg">
<path d="M141.774 65.3857C157.207 75.8965 162.701 90.5152 163.519 96.5107" stroke="#096F1F" stroke-width="3"/>
<path d="M140.723 66.5496C141.468 65.8857 142.213 65.2217 142.959 64.5578C142.504 64.0849 142.059 63.5937 141.628 63.0932C133.933 53.8842 129.833 41.7366 127.891 29.6251C127.795 28.9619 127.707 28.2547 127.639 27.591C127.657 28.2577 127.696 28.9704 127.742 29.6404C128.831 41.9126 131.918 54.4008 139.403 64.8644C139.825 65.4354 140.267 66.0003 140.723 66.5496Z" fill="#096F1F"/>
<path d="M182.359 112.607C165.061 111.259 163.851 96.5081 163.404 94.2875" stroke="#096F1F" stroke-width="3"/>
<path d="M197.877 123.935C197.784 123.93 197.692 123.896 197.621 123.834C197.55 123.771 197.505 123.685 197.496 123.593C197.487 123.501 197.515 123.408 197.573 123.333C197.631 123.259 197.715 123.209 197.805 123.186C197.805 123.186 197.805 123.186 197.805 123.186C198.078 123.118 198.34 123.05 198.591 122.98C200.978 122.353 203.01 121.525 205 120.209C207.028 118.695 210.173 118.28 212.546 118.918C212.818 118.977 213.082 119.043 213.364 119.118C213.454 119.143 213.537 119.194 213.594 119.27C213.651 119.346 213.677 119.44 213.667 119.532C213.657 119.624 213.611 119.708 213.539 119.769C213.466 119.831 213.374 119.862 213.281 119.866C213.281 119.866 213.281 119.866 213.281 119.866C212.998 119.875 212.736 119.889 212.47 119.905C209.984 120.019 208.026 120.526 206.044 121.921C203.944 123.335 201.215 124.031 198.715 123.964C198.444 123.959 198.165 123.95 197.877 123.935Z" fill="#935713"/>
<path d="M177.452 149.417C177.429 149.507 177.432 149.604 177.469 149.691C177.506 149.778 177.573 149.847 177.657 149.883C177.741 149.919 177.837 149.92 177.926 149.888C178.015 149.855 178.088 149.791 178.138 149.712C178.138 149.712 178.138 149.712 178.138 149.712C178.282 149.485 178.417 149.259 178.548 149.025C179.721 146.929 180.338 144.47 180.277 142.029C180.215 139.589 179.534 137.161 178.175 135.142C178.022 134.919 177.857 134.699 177.682 134.495C177.621 134.425 177.539 134.373 177.447 134.354C177.354 134.336 177.26 134.352 177.182 134.401C177.104 134.45 177.047 134.528 177.023 134.62C176.998 134.711 177.009 134.808 177.044 134.894C177.044 134.894 177.044 134.894 177.044 134.894C177.134 135.118 177.217 135.354 177.292 135.589C177.95 137.72 178.222 139.914 178.28 142.088C178.33 144.265 178.123 146.452 177.628 148.674C177.573 148.922 177.515 149.166 177.452 149.417Z" fill="#935713"/>
<path d="M180.272 102.242C180.304 102.154 180.309 102.055 180.279 101.965C180.249 101.875 180.187 101.801 180.105 101.758C180.023 101.715 179.926 101.706 179.835 101.733C179.743 101.759 179.665 101.82 179.611 101.896C179.611 101.896 179.611 101.896 179.611 101.896C179.427 102.158 179.253 102.417 179.086 102.684C177.57 105.088 176.662 107.965 176.653 110.881C176.64 113.786 177.468 116.715 179.186 119.035C179.379 119.291 179.588 119.541 179.808 119.77C179.873 119.837 179.959 119.883 180.054 119.895C180.148 119.906 180.242 119.881 180.317 119.826C180.392 119.77 180.442 119.686 180.459 119.592C180.475 119.498 180.456 119.402 180.411 119.319C180.411 119.319 180.411 119.319 180.411 119.319C180.277 119.066 180.151 118.798 180.037 118.529C179.033 116.081 178.643 113.458 178.648 110.875C178.662 108.281 179.125 105.684 179.975 103.102C180.069 102.816 180.167 102.533 180.272 102.242Z" fill="#935713"/>
<path d="M188.29 119.462C188.322 119.684 188.307 119.917 188.218 120.126C188.128 120.334 187.974 120.5 187.777 120.59C187.581 120.68 187.355 120.691 187.138 120.623C186.921 120.556 186.735 120.415 186.587 120.247C186.587 120.247 186.587 120.247 186.587 120.247C186.095 119.678 185.625 119.116 185.176 118.561C183.36 116.301 181.806 113.984 180.463 111.562C175.671 103.452 170.691 93.5912 162.304 90.9838C161.732 90.901 161.163 90.9207 160.68 91.0786C160.457 91.1612 160.208 91.169 159.982 91.0862C159.755 91.0036 159.571 90.8392 159.467 90.6263C159.364 90.4134 159.348 90.1667 159.423 89.9375C159.497 89.7083 159.657 89.5173 159.86 89.3927C159.86 89.3927 159.86 89.3927 159.86 89.3927C160.648 88.9334 161.531 88.7467 162.373 88.7071C174.105 90.3272 179.715 100.745 184.836 109.137C186.238 111.666 187.249 114.39 187.884 117.271C188.038 117.981 188.173 118.712 188.29 119.462Z" fill="#096F1F"/>
<path d="M178.235 119.611C178.032 120.522 178.196 121.474 178.705 122.258C179.214 123.043 180.025 123.596 180.949 123.794C181.872 123.992 182.828 123.817 183.594 123.305C184.361 122.794 184.875 121.988 185.036 121.067C185.036 121.067 185.036 121.067 185.036 121.067C185.303 119.536 185.577 118.032 185.865 116.522C191.154 89.3764 199.596 62.472 213.469 38.6016C214.266 37.2957 215.075 36.032 215.94 34.8044C216.136 34.5271 216.215 34.1767 216.164 33.8333C216.112 33.4897 215.934 33.1812 215.664 32.9727C215.395 32.7643 215.056 32.6722 214.717 32.7138C214.379 32.7555 214.07 32.9276 213.861 33.195C212.886 34.4478 211.99 35.7121 211.107 37.0173C195.8 60.7238 186.007 87.5138 179.298 115.007C178.933 116.535 178.581 118.059 178.235 119.611Z" fill="#096F1F"/>
<path d="M190.943 79.2276C190.179 79.4566 189.551 79.9777 189.203 80.6979C188.855 81.4169 188.817 82.276 189.089 83.0647C189.361 83.8534 189.919 84.5009 190.633 84.8432C191.347 85.1868 192.158 85.1972 192.896 84.8935C192.896 84.8935 192.896 84.8935 192.896 84.8935C194.01 84.4435 194.993 83.9705 196.025 83.3862C217.352 70.0653 199.685 45.0954 209.938 31.3796C210.404 31.1982 210.862 31.0841 211.402 31.0127C211.866 30.949 212.373 30.9249 212.923 30.9439C212.923 30.9439 212.923 30.9439 212.923 30.9439C212.378 30.875 211.868 30.8484 211.391 30.863C210.837 30.8854 210.354 30.9518 209.845 31.0946C204.816 32.8721 205.122 39.1644 204.791 43.4524C204.635 48.0948 204.751 52.6991 204.445 57.2127C204.028 66.1374 201.053 75.3188 193.466 78.3071C192.641 78.6732 191.849 78.9578 190.943 79.2276Z" fill="#096F1F"/>
<path d="M176.764 129.392C177.938 129.526 179.101 129.173 180.001 128.386C180.9 127.6 181.461 126.444 181.559 125.198C181.658 123.951 181.284 122.724 180.518 121.811C179.753 120.896 178.658 120.371 177.477 120.325C177.477 120.325 177.477 120.325 177.477 120.325C175.396 120.242 173.375 120.134 171.412 120.004C153.493 118.731 135.105 115.417 120.268 105.167C104.802 95.3522 98.3604 76.165 85.2684 62.6521C83.7722 61.2086 82.1862 59.8859 80.4822 58.6907C82.0974 60.0079 83.5749 61.4372 84.9502 62.9719C96.878 77.0805 101.786 96.8805 117.611 108.831C132.762 121.014 152.022 125.896 170.499 128.597C172.527 128.886 174.614 129.152 176.764 129.392Z" fill="#096F1F"/>
<path d="M214.84 36.8055C214.59 37.1127 214.229 37.3029 213.833 37.3307C213.438 37.3587 213.039 37.2219 212.73 36.9542C212.421 36.6864 212.228 36.3106 212.197 35.9129C212.166 35.5151 212.299 35.128 212.564 34.8332C212.564 34.8332 212.564 34.8332 212.564 34.8332C213.013 34.3331 213.448 33.8394 213.871 33.352C220.96 24.7988 230.043 13.0886 224.202 2.38927C223.845 1.87309 223.434 1.39267 222.979 0.981262C222.87 0.883421 222.804 0.744759 222.793 0.597302C222.782 0.449757 222.828 0.305493 222.922 0.194737C223.016 0.0839772 223.15 0.0153569 223.297 0.00245343C223.443 -0.0103664 223.59 0.0335864 223.703 0.126157C223.703 0.126157 223.703 0.126157 223.703 0.126157C224.257 0.581404 224.748 1.10637 225.181 1.67295C232.217 13.5829 222.87 26.0732 216.11 35.2215C215.7 35.7432 215.277 36.2711 214.84 36.8055Z" fill="#096F1F"/>
<path d="M184.367 121.394C184.324 121.519 184.332 121.656 184.391 121.775C184.45 121.894 184.554 121.985 184.681 122.027C184.807 122.07 184.945 122.061 185.064 122.002C185.183 121.943 185.273 121.84 185.315 121.714C185.6 120.852 185.841 120.094 186.103 119.235C187.448 114.666 188.721 109.926 188.317 105.046C187.856 100.115 184.851 96.0149 185.474 91.1923C186.21 85.4285 189.97 80.4098 193.399 75.685C193.916 75.0054 194.443 74.3305 194.984 73.6748C195.016 73.6369 195.031 73.5877 195.027 73.5384C195.022 73.489 194.999 73.4433 194.961 73.4114C194.923 73.3795 194.875 73.3639 194.825 73.3678C194.776 73.3718 194.73 73.3951 194.698 73.4326C194.14 74.0913 193.606 74.7599 193.077 75.4374C189.574 80.1731 185.729 85.043 184.853 91.1557C184.156 96.1073 187.197 100.531 187.525 105.117C187.86 109.778 186.567 114.446 185.178 118.947C184.909 119.795 184.66 120.542 184.367 121.394Z" fill="#935713"/>
<path d="M176.112 118.553C176.377 118.56 176.628 118.671 176.81 118.864C176.992 119.057 177.089 119.316 177.081 119.583C177.072 119.85 176.959 120.103 176.766 120.284C176.573 120.466 176.315 120.562 176.05 120.552C176.05 120.552 176.05 120.552 176.05 120.552C174.453 120.493 172.912 120.483 171.357 120.521C161.097 120.28 151.254 125.065 140.43 123.174C129.798 120.56 122.625 112.101 115.714 104.512C110.537 98.8711 103.739 94.7717 97.0269 90.9299C95.6529 90.1623 94.26 89.4083 92.8658 88.7007C92.7774 88.6565 92.7101 88.5787 92.6785 88.4848C92.6469 88.3908 92.6536 88.2885 92.6973 88.1998C92.7409 88.1112 92.818 88.0434 92.9118 88.0112C93.0055 87.9789 93.1083 87.9848 93.1972 88.0278C93.1972 88.0278 93.1972 88.0278 93.1972 88.0278C94.6225 88.7276 96.0255 89.4637 97.4192 90.2182C104.229 94.0069 111.084 97.9783 116.553 103.769C123.485 111.236 130.853 119.44 140.742 121.678C150.659 123.373 160.778 118.522 171.297 118.585C172.892 118.525 174.474 118.514 176.112 118.553Z" fill="#935713"/>
<path d="M186.167 127.871C185.927 127.759 185.741 127.556 185.651 127.307C185.562 127.057 185.575 126.781 185.688 126.54C185.802 126.299 186.006 126.113 186.256 126.023C186.505 125.934 186.78 125.948 187.019 126.062C189.488 127.204 191.301 129.354 192.486 131.598C196.172 139.108 196.96 147.378 202.177 153.326C207.196 159.353 215.41 161.6 223.248 162.098C249.9 158.938 271.26 132.317 300.639 136.192C303.06 136.379 305.479 136.71 307.911 137.185C308.009 137.205 308.094 137.262 308.15 137.344C308.206 137.426 308.226 137.527 308.208 137.624C308.189 137.721 308.133 137.807 308.051 137.863C307.969 137.919 307.868 137.94 307.77 137.922C305.362 137.472 302.97 137.166 300.58 137.002C271.409 133.423 251.474 159.821 223.152 163.619C215.142 163.177 206.391 160.953 200.864 154.455C195.216 148.079 194.27 139.342 190.782 132.523C189.681 130.492 188.173 128.783 186.167 127.871Z" fill="#935713"/>
<path d="M187.841 83.5541C194.951 72.0334 194.906 74.023 199.145 68.656C201.72 65.3963 204.553 56.5544 204.553 56.5544" stroke="#935713" stroke-width="0.5" stroke-linecap="round" stroke-linejoin="round"/>
<path d="M183.639 122.75C184.426 123.819 184.75 125.15 184.529 126.457C184.308 127.764 183.561 128.939 182.462 129.719C181.363 130.498 180.005 130.814 178.698 130.59C177.39 130.367 176.239 129.623 175.488 128.528C175.488 128.528 175.488 128.528 175.488 128.528C173.79 126.058 172.084 123.984 170.033 121.975C124.44 88.6692 69.5486 149.02 11.6971 145.508C8.39062 144.916 5.17972 143.882 2.1903 142.303C1.75754 142.073 1.43149 141.678 1.28173 141.208C1.13209 140.738 1.17102 140.231 1.39205 139.795C1.6131 139.36 1.99877 139.029 2.46637 138.873C2.93385 138.716 3.44494 138.747 3.8851 138.961C3.8851 138.961 3.8851 138.961 3.8851 138.961C6.53868 140.252 9.37649 141.068 12.3446 141.5C66.956 144.739 116.022 77.8378 176.666 114.927C179.32 117.362 181.505 119.847 183.639 122.75Z" fill="#096F1F"/>
<path d="M190.302 122.417C189.233 122.554 188.263 123.098 187.606 123.938C186.949 124.778 186.658 125.845 186.797 126.895C186.936 127.945 187.493 128.891 188.344 129.515C189.195 130.139 190.27 130.391 191.335 130.223C191.335 130.223 191.335 130.223 191.335 130.223C194.011 129.799 196.651 129.633 199.296 129.727C247.979 138.718 276.648 193.649 325.564 213.489C328.207 214.758 330.817 215.94 333.536 217.098C333.897 217.252 334.312 217.257 334.688 217.117C335.064 216.976 335.37 216.701 335.54 216.348C335.71 215.996 335.731 215.594 335.599 215.229C335.467 214.863 335.193 214.564 334.836 214.4C334.836 214.4 334.836 214.4 334.836 214.4C332.197 213.187 329.667 211.95 327.108 210.63C278.698 189.706 256.641 135.515 199.856 122.094C196.686 121.89 193.503 122 190.302 122.417Z" fill="#096F1F"/>
<path d="M187.086 126.043C186.51 126.779 185.682 127.237 184.757 127.29C183.833 127.345 182.889 126.992 182.157 126.332C181.426 125.672 180.975 124.766 180.929 123.837C180.883 122.907 181.246 122.03 181.912 121.375C181.912 121.375 181.912 121.375 181.912 121.375C182.553 120.745 183.179 120.121 183.789 119.504C194.237 108.29 206.889 95.334 205.462 79.106C205.248 78.2551 204.925 77.4185 204.421 76.6904C205.017 77.345 205.46 78.1523 205.794 78.9952C209.478 95.6371 198.037 110.907 188.772 123.861C188.226 124.58 187.664 125.308 187.086 126.043Z" fill="#096F1F"/>
<path d="M184.881 137.213C184.591 136.332 183.965 135.63 183.101 135.28C182.239 134.928 181.208 134.956 180.277 135.341C179.346 135.725 178.602 136.43 178.249 137.284C177.894 138.139 177.959 139.072 178.389 139.895C178.389 139.895 178.389 139.895 178.389 139.895C178.726 140.543 179.055 141.181 179.376 141.808C184.509 153.079 192.384 165.66 188.129 177.755C187.715 178.306 187.135 178.781 186.434 178.979C187.158 178.898 187.855 178.503 188.392 177.987C195.017 165.748 188.876 151.677 185.57 139.323C185.349 138.631 185.119 137.927 184.881 137.213Z" fill="#096F1F"/>
<path d="M182.002 125.413C181.887 125.045 181.774 124.686 181.661 124.334C180.622 121.142 179.455 118.425 178.005 115.922C176.574 113.405 174.782 111.173 172.89 108.523C172.686 108.223 172.483 107.921 172.295 107.588C172.151 107.946 172.042 108.317 171.957 108.697C171.239 112.154 172.055 115.633 173.682 118.462C175.329 121.311 177.866 123.562 180.954 124.974C181.295 125.128 181.643 125.274 182.002 125.413Z" fill="#096F1F"/>
<path d="M159.246 90.8116C159.299 90.8881 159.329 90.9809 159.324 91.0759C159.318 91.1708 159.278 91.2592 159.211 91.3232C159.144 91.3871 159.054 91.4225 158.959 91.4229C158.865 91.4234 158.774 91.3881 158.701 91.331C158.701 91.331 158.701 91.331 158.701 91.331C158.475 91.1531 158.258 90.9734 158.043 90.7839C156.114 89.0897 154.603 86.8687 153.684 84.4329C152.767 81.992 152.384 79.3452 152.73 76.7467C152.771 76.4588 152.824 76.1673 152.891 75.8857C152.914 75.7948 152.963 75.7099 153.037 75.6505C153.112 75.5911 153.204 75.562 153.296 75.5697C153.388 75.5774 153.473 75.6215 153.535 75.6924C153.598 75.7632 153.631 75.8551 153.637 75.9484C153.637 75.9484 153.637 75.9484 153.637 75.9484C153.654 76.2118 153.682 76.4836 153.716 76.7506C154.047 79.1628 154.716 81.4782 155.551 83.7073C156.394 85.9322 157.45 88.075 158.788 90.1293C158.938 90.3586 159.088 90.5834 159.246 90.8116Z" fill="#935713"/>
<path d="M158.973 91.0713C158.733 90.9144 158.502 90.7541 158.272 90.5825C156.213 89.0509 154.601 86.8692 153.684 84.4329C152.766 81.9949 152.484 79.2981 153.034 76.7479C153.097 76.4667 153.173 76.1841 153.264 75.917C153.305 76.195 153.356 76.4757 153.413 76.7494C153.947 79.2099 154.717 81.4753 155.551 83.7073C156.395 85.9317 157.35 88.1137 158.559 90.3307C158.694 90.5779 158.83 90.8221 158.973 91.0713Z" fill="#935713"/>
<path d="M138.512 47.6006C138.528 48.7981 138.563 49.9718 138.616 51.1219C139.141 61.5953 141.357 72.3763 146.918 81.7641C152.235 91.0325 162.505 98.8482 173.277 97.7224C174.445 97.6018 175.585 97.3738 176.672 97.0224C175.533 97.1094 174.398 97.077 173.271 96.9558C163.01 95.7294 155.341 88.1899 150.3 79.6884C145.176 71.0554 141.99 61.1305 139.361 51.0123C139.074 49.9036 138.79 48.7666 138.512 47.6006Z" fill="#096F1F"/>
<path d="M140.97 47.3055C140.911 46.6384 140.594 46.03 140.074 45.6157C139.555 45.2013 138.876 45.015 138.2 45.0961C137.524 45.1772 136.911 45.5187 136.508 46.0436C136.106 46.5687 135.947 47.2343 136.054 47.8956C136.054 47.8956 136.054 47.8956 136.054 47.8956C136.245 49.0939 136.447 50.265 136.662 51.4095C140.166 71.1918 150.64 97.1127 173.275 97.4652C174.429 97.4235 175.567 97.2829 176.672 97.0224C175.551 97.2003 174.414 97.2553 173.273 97.213C151.234 95.1025 143.439 70.032 141.315 50.7247C141.189 49.6104 141.074 48.4709 140.97 47.3055Z" fill="#096F1F"/>
<path d="M146.176 41.6637C145.941 41.7777 145.714 41.8902 145.496 42.0015C143.532 43.0015 142.161 44.2022 141.321 45.5318C140.902 46.1919 140.603 46.9046 140.411 47.5885C140.317 47.9289 140.242 48.2561 140.244 48.5293C140.244 48.6664 140.299 48.7873 140.322 48.9425C140.351 49.0991 140.221 49.2559 139.999 49.2417C139.807 49.2362 139.582 49.1385 139.37 48.9977C139.264 49.232 139.195 49.4998 139.235 49.8097C139.271 50.1499 139.521 50.5858 139.984 50.8142C140.442 51.0461 140.944 51.0569 141.343 51.0153C142.162 50.9108 142.739 50.6495 143.264 50.3593C144.295 49.7692 145.013 49.0154 145.536 48.1984C146.573 46.552 146.818 44.5675 146.354 42.4041C146.302 42.1634 146.243 41.9166 146.176 41.6637Z" fill="#096F1F"/>
<path d="M136.841 98.1304C137.124 98.3949 137.403 98.65 137.677 98.8958C140.136 101.108 142.759 102.724 145.446 103.841C146.798 104.408 148.169 104.843 149.489 105.238C150.134 105.43 150.793 105.644 151.206 105.768C151.303 105.79 151.369 105.796 151.42 105.727C151.463 105.662 151.565 105.489 151.66 105.497C151.85 105.53 151.641 105.905 151.385 106.148C151.15 106.383 150.856 106.605 150.545 106.815C150.904 106.934 151.277 107.025 151.685 107.051C152.136 107.054 152.675 107.107 153.283 106.493C153.581 106.177 153.731 105.606 153.675 105.165C153.636 104.742 153.494 104.398 153.368 104.126C152.804 103.036 152.188 102.438 151.535 101.827C150.222 100.654 148.825 99.8488 147.352 99.229C144.431 98.0163 141.255 97.6415 137.965 97.9921C137.598 98.0312 137.224 98.0773 136.841 98.1304Z" fill="#096F1F"/>
<path d="M84.807 131.663C84.9117 131.343 85.0168 131.033 85.1224 130.733C86.0657 128.035 87.4116 125.819 89.0461 124.046C89.8663 123.15 90.7605 122.372 91.6472 121.663C92.0811 121.322 92.5172 120.955 92.8061 120.79C92.8788 120.757 92.9346 120.754 93.0139 120.811C93.0864 120.868 93.2466 120.986 93.3506 120.959C93.5585 120.89 93.3007 120.626 93.0272 120.498C92.7736 120.368 92.468 120.269 92.1489 120.187C92.3771 119.95 92.6311 119.73 92.9448 119.553C93.2989 119.378 93.7314 119.128 94.4714 119.431C94.8374 119.592 95.1694 120 95.3011 120.374C95.4401 120.735 95.469 121.063 95.4785 121.34C95.4778 122.439 95.2378 123.151 94.9748 123.877C94.4214 125.298 93.6574 126.426 92.7463 127.424C90.9336 129.389 88.5542 130.713 85.7672 131.433C85.4567 131.513 85.1366 131.59 84.807 131.663Z" fill="#096F1F"/>
<path d="M134.841 69.6897C135.116 69.7372 135.382 69.7857 135.639 69.8354C137.956 70.2861 139.771 71.0968 141.144 72.1819C141.834 72.7233 142.417 73.3393 142.922 73.9648C143.17 74.2746 143.403 74.5828 143.586 74.8572C143.68 74.9944 143.751 75.1259 143.839 75.2512C143.924 75.3746 144.075 75.4905 144.299 75.4464C144.494 75.4111 144.709 75.2639 144.89 75.0585C145.038 75.2874 145.144 75.5753 145.12 75.9193C145.11 76.7638 144.03 77.4539 143.276 77.5645C142.486 77.7261 141.789 77.667 141.161 77.5532C139.9 77.3057 138.892 76.7839 138.043 76.1207C136.358 74.7865 135.342 72.8454 134.954 70.4973C134.911 70.2366 134.874 69.9674 134.841 69.6897Z" fill="#096F1F"/>
<path d="M230.123 166.434C230.025 166.207 229.927 165.988 229.83 165.777C228.963 163.876 227.845 162.398 226.579 161.307C225.948 160.76 225.264 160.298 224.615 159.912C224.292 159.721 223.979 159.529 223.747 159.436C223.631 159.385 223.532 159.419 223.405 159.402C223.273 159.384 223.249 159.19 223.372 159.01C223.474 158.848 223.645 158.692 223.841 158.553C223.635 158.427 223.403 158.324 223.125 158.29C222.822 158.253 222.386 158.32 222.05 158.711C221.716 159.1 221.644 159.62 221.647 159.999C221.667 160.782 221.881 161.352 222.111 161.876C222.585 162.905 223.238 163.69 223.973 164.33C225.447 165.599 227.311 166.275 229.404 166.404C229.637 166.419 229.877 166.429 230.123 166.434Z" fill="#096F1F"/>
<path d="M294.214 134.43C294.076 134.701 293.939 134.964 293.804 135.219C292.575 137.524 291.146 139.409 289.583 140.999C288.146 142.636 285.927 143.758 285.584 145.463C285.604 145.685 285.723 145.937 285.93 146.153C285.636 146.188 285.295 146.13 284.986 145.929C284.255 145.458 284.032 144.441 284.058 143.67C284.076 142.88 284.276 142.153 284.53 141.498C285.05 140.19 285.826 139.113 286.72 138.193C288.514 136.369 290.782 135.213 293.342 134.613C293.625 134.548 293.916 134.487 294.214 134.43Z" fill="#096F1F"/>
<path d="M309.841 136.42C310.141 136.493 310.434 136.563 310.721 136.63C313.294 137.231 315.844 137.485 318.29 137.52C319.52 137.543 320.724 137.504 321.882 137.514C322.449 137.519 323.038 137.551 323.44 137.637C323.646 137.689 323.743 137.688 323.837 137.744C323.942 137.815 323.93 138.111 323.818 138.383C323.722 138.631 323.572 138.884 323.401 139.128C323.689 139.045 323.976 138.933 324.25 138.756C324.545 138.557 324.898 138.268 324.978 137.698C325.053 137.107 324.665 136.574 324.35 136.285C323.695 135.687 322.996 135.408 322.328 135.169C320.976 134.714 319.655 134.553 318.332 134.527C315.705 134.489 313.118 135.053 310.672 136.063C310.4 136.176 310.122 136.295 309.841 136.42Z" fill="#096F1F"/>
<path d="M199.15 141.317C198.973 141.508 198.8 141.692 198.631 141.869C197.098 143.467 195.494 144.588 193.874 145.331C192.322 146.161 190.309 146.206 189.639 147.175C189.608 147.361 189.659 147.6 189.771 147.832C189.518 147.823 189.241 147.751 188.988 147.557C188.357 147.112 188.32 146.014 188.562 145.361C188.785 144.667 189.154 144.123 189.538 143.659C190.322 142.735 191.231 142.115 192.19 141.669C194.102 140.795 196.224 140.66 198.408 141.136C198.65 141.19 198.897 141.25 199.15 141.317Z" fill="#096F1F"/>
<path d="M211.841 127.413C211.841 127.413 211.841 127.413 211.841 127.413C212.207 127.438 212.56 127.46 212.902 127.479C215.991 127.649 218.861 127.18 221.284 126.449C221.879 126.274 222.449 126.093 222.902 125.956C223.37 125.817 223.673 125.712 224.44 125.65C226.023 125.556 227.668 124.98 228.962 124.147C229.275 123.959 229.534 123.766 229.841 123.554C229.841 123.554 229.841 123.554 229.841 123.554C229.485 123.439 229.189 123.32 228.851 123.21C227.384 122.708 226.167 122.248 224.993 121.727C224.373 121.463 223.277 121.231 222.344 121.278C221.418 121.307 220.606 121.477 219.865 121.692C216.928 122.585 214.598 124.306 212.531 126.611C212.305 126.867 212.075 127.134 211.841 127.413Z" fill="#096F1F"/>
<path d="M231.242 141.554C231.216 141.761 231.19 141.959 231.167 142.147C230.963 143.868 231.141 145.302 231.249 146.047C231.308 146.429 231.587 147.623 232.142 148.273C232.683 148.976 233.374 149.446 234.184 149.823C234.361 149.9 234.547 149.977 234.742 150.054C234.779 149.849 234.815 149.654 234.851 149.47C234.999 148.613 235.075 147.849 235.14 147.235C235.193 146.586 235.335 146.382 235.183 145.397C234.775 143.395 233.431 142.41 231.812 141.756C231.63 141.688 231.441 141.621 231.242 141.554Z" fill="#096F1F"/>
<path d="M286.841 171.027C286.59 170.99 286.349 170.955 286.119 170.921C284.016 170.623 282.112 170.767 280.909 170.756C280.307 170.747 278.816 170.8 277.852 171.294C276.831 171.759 276.033 172.437 275.306 173.255C275.155 173.433 275 173.623 274.841 173.822C274.841 173.822 274.841 173.822 274.841 173.822C275.09 173.872 275.326 173.921 275.55 173.969C276.597 174.173 277.564 174.299 278.392 174.42C279.254 174.529 279.644 174.724 280.895 174.743C283.439 174.659 285.063 173.288 286.404 171.62C286.547 171.432 286.692 171.234 286.841 171.027Z" fill="#096F1F"/>
<path d="M290.185 196.411C290.145 196.243 290.106 196.081 290.069 195.926C289.728 194.505 289.643 193.118 289.391 192.093C289.255 191.583 289.032 190.646 289.15 189.903C289.241 189.134 289.491 188.453 289.825 187.788C289.899 187.648 289.978 187.503 290.063 187.352C290.112 187.518 290.159 187.676 290.206 187.827C290.412 188.534 290.578 189.207 290.751 189.82C290.917 190.449 291.132 190.838 291.349 191.653C291.715 193.326 291.165 194.716 290.447 195.987C290.365 196.124 290.277 196.266 290.185 196.411Z" fill="#096F1F"/>
<path d="M195.049 59.8275C195.121 59.984 195.19 60.1364 195.256 60.2846C195.842 61.6329 196.092 62.8398 196.057 63.9651C196.072 65.0858 195.551 66.1096 195.567 67.1398C195.596 67.2562 195.678 67.3816 195.833 67.4512C195.723 67.5812 195.519 67.6614 195.31 67.6538C193.349 67.0714 193.1 65.1556 193.083 63.9055C193.126 62.5414 193.7 61.2937 194.699 60.1923C194.81 60.0714 194.926 59.9497 195.049 59.8275Z" fill="#096F1F"/>
<path d="M182.269 92.0647C182.371 92.2483 182.468 92.4277 182.561 92.603C183.4 94.1833 183.887 95.7266 184.109 97.1969C184.222 97.9262 184.269 98.6597 184.308 99.3415C184.328 99.6794 184.349 100.006 184.381 100.275C184.433 100.531 184.365 100.781 184.722 100.89C184.872 100.929 185.064 100.912 185.257 100.856C185.204 101.053 185.11 101.255 184.934 101.425C184.541 101.876 183.613 101.72 183.171 101.359C182.681 101.013 182.361 100.6 182.096 100.188C181.575 99.3548 181.306 98.4874 181.173 97.6415C180.917 95.9363 181.233 94.2304 181.997 92.6116C182.082 92.432 182.173 92.2497 182.269 92.0647Z" fill="#096F1F"/>
<path d="M197.068 85.5541C196.901 85.5604 196.739 85.5685 196.582 85.5783C195.158 85.6749 194.007 86.0255 193.075 86.6265C192.118 87.2134 191.48 88.1347 190.648 89.0622C190.547 89.1518 190.445 89.2595 190.282 89.2639C190.328 89.4344 190.512 89.5512 190.666 89.6335C192.201 90.2492 193.613 89.8085 194.666 89.1582C195.727 88.4744 196.487 87.4043 196.93 86.0267C196.978 85.8744 197.024 85.7169 197.068 85.5541Z" fill="#096F1F"/>
<path d="M218.872 35.9025C218.74 35.8786 218.611 35.8573 218.485 35.8384C217.338 35.6723 216.281 35.7557 215.314 36.084C214.337 36.4127 213.464 36.9946 212.626 37.7919C212.532 37.8787 212.441 37.9713 212.341 38.0535C212.463 38.103 212.595 38.1314 212.722 38.1599C213.876 38.3956 214.946 38.317 215.933 37.9847C216.913 37.6521 217.808 37.0537 218.607 36.1979C218.695 36.1032 218.783 36.0047 218.872 35.9025Z" fill="#096F1F"/>
<path d="M187.291 129.708C187.878 128.669 188.024 127.445 187.687 126.3C187.351 125.155 186.559 124.183 185.495 123.603C184.432 123.023 183.186 122.883 182.042 123.22C180.896 123.557 179.946 124.342 179.39 125.399C179.39 125.399 179.39 125.399 179.39 125.399C177.598 128.838 176.331 132.518 176.655 136.971C177.732 147.444 186.878 152.226 193.781 154.815C201.027 157.424 208.417 158.503 215.759 159.038C230.425 160.011 244.996 158.609 259.162 155.851C287.449 150.166 315.116 138.93 337.061 119.892C339.472 117.779 341.816 115.551 344.039 113.242C344.345 112.924 344.512 112.494 344.507 112.05C344.502 111.606 344.325 111.183 344.011 110.873C343.698 110.562 343.274 110.389 342.83 110.387C342.386 110.386 341.957 110.557 341.642 110.866C341.642 110.866 341.642 110.866 341.642 110.866C339.423 113.039 337.089 115.13 334.692 117.108C312.898 134.923 285.63 145.072 258.056 149.763C244.271 152.03 230.129 152.939 216.384 151.611C203.549 150.414 186.098 145.951 185.351 136.348C185.26 134.27 185.937 132.109 187.291 129.708Z" fill="#096F1F"/>
<path d="M319.709 130.596C319.586 130.723 319.437 130.831 319.267 130.884C319.096 130.936 318.92 130.929 318.766 130.86C318.613 130.79 318.491 130.662 318.418 130.5C318.345 130.337 318.328 130.153 318.343 129.977C318.343 129.977 318.343 129.977 318.343 129.977C318.39 129.468 318.446 128.975 318.51 128.497C318.781 126.555 319.233 124.761 319.89 123.02C321.929 117.106 325.011 110.31 323.093 105.132C322.913 104.837 322.685 104.601 322.429 104.469C322.255 104.395 322.106 104.266 322.017 104.096C321.928 103.926 321.908 103.731 321.96 103.551C322.013 103.371 322.135 103.217 322.301 103.122C322.467 103.026 322.663 102.998 322.849 103.029C322.849 103.029 322.849 103.029 322.849 103.029C323.5 103.16 324.065 103.535 324.488 103.96C328.82 110.982 325.632 118.164 323.633 124.431C322.946 126.253 321.969 127.917 320.707 129.463C320.395 129.842 320.062 130.22 319.709 130.596Z" fill="#096F1F"/>
<path d="M319.14 129.313C319.008 129.438 318.9 129.59 318.855 129.76C318.81 129.93 318.83 130.101 318.915 130.244C319.001 130.387 319.146 130.493 319.324 130.546C319.502 130.599 319.697 130.593 319.88 130.552C319.88 130.552 319.88 130.552 319.88 130.552C320.503 130.407 321.102 130.257 321.677 130.103C324.031 129.46 326.231 128.63 328.324 127.627C331.977 125.92 335.664 124.047 339.177 123.558C342.595 123.136 347.021 124.276 351.191 124.189C351.825 124.197 352.373 124.189 353.008 124.178C353.207 124.174 353.404 124.108 353.558 123.985C353.713 123.862 353.811 123.693 353.832 123.513C353.853 123.332 353.795 123.152 353.672 123.011C353.548 122.869 353.369 122.779 353.175 122.748C353.175 122.748 353.175 122.748 353.175 122.748C352.566 122.654 352.046 122.561 351.445 122.456C347.4 121.881 343.903 120.213 338.99 120.267C334.163 120.582 330.294 122.509 326.495 124.251C324.332 125.287 322.35 126.581 320.503 128.115C320.055 128.492 319.6 128.891 319.14 129.313Z" fill="#096F1F"/>
<mask id="path-44-inside-1_2194_3815" fill="white">
<path d="M7.65159 142.531C7.64322 142.557 7.57064 142.651 6.8884 142.567C6.20197 142.482 5.09392 142.23 3.74071 141.758C2.38749 141.285 1.35667 140.791 0.759551 140.428C0.166061 140.066 0.161839 139.946 0.170209 139.92C0.178579 139.894 0.251135 139.8 0.933397 139.884C1.61983 139.969 2.72787 140.221 4.08109 140.693C5.4343 141.166 6.46513 141.66 7.06225 142.023C7.65572 142.385 7.65996 142.505 7.65159 142.531Z"/>
</mask>
<path d="M7.65159 142.531C7.64322 142.557 7.57064 142.651 6.8884 142.567C6.20197 142.482 5.09392 142.23 3.74071 141.758C2.38749 141.285 1.35667 140.791 0.759551 140.428C0.166061 140.066 0.161839 139.946 0.170209 139.92C0.178579 139.894 0.251135 139.8 0.933397 139.884C1.61983 139.969 2.72787 140.221 4.08109 140.693C5.4343 141.166 6.46513 141.66 7.06225 142.023C7.65572 142.385 7.65996 142.505 7.65159 142.531Z" fill="#096F1F"/>
<path d="M8.12366 142.696C7.80894 142.586 7.49423 142.476 7.17952 142.366C7.28298 142.123 7.35891 142.141 7.38866 142.113C7.42116 142.098 7.43239 142.097 7.43833 142.095C7.44862 142.094 7.4362 142.098 7.4208 142.1C7.38798 142.105 7.33686 142.108 7.2844 142.108C7.17713 142.109 7.05749 142.102 6.93537 142.091C6.92918 142.09 6.92294 142.09 6.91665 142.089C5.91072 141.985 4.86682 141.715 3.85495 141.4C2.83723 141.077 1.81869 140.7 0.895861 140.191C0.784631 140.128 0.676724 140.064 0.577822 139.996C0.529098 139.962 0.481891 139.927 0.444358 139.895C0.426037 139.879 0.409599 139.863 0.402276 139.855C0.386312 139.864 0.427388 139.789 0.406244 140.002C0.298847 140.184 0.309288 140.096 0.316608 140.112C0.327046 140.108 0.34968 140.103 0.373545 140.1C0.422602 140.093 0.481036 140.091 0.539855 140.091C0.659188 140.09 0.78421 140.098 0.911112 140.11C1.95651 140.217 3.01256 140.492 4.04301 140.812C5.06637 141.139 6.08304 141.514 7.03234 142.034C7.03831 142.038 7.04425 142.041 7.05014 142.044C7.26723 142.183 7.54644 142.29 7.65159 142.531C7.55904 142.28 7.28437 142.155 7.07435 142.002C7.06862 141.999 7.06285 141.995 7.05704 141.991C6.13314 141.408 5.13257 140.968 4.11917 140.574C3.09488 140.186 2.05539 139.842 0.955683 139.658C0.820908 139.638 0.68671 139.62 0.544541 139.611C0.473629 139.607 0.401153 139.605 0.319986 139.61C0.279363 139.613 0.23645 139.617 0.184514 139.63C0.131202 139.663 0.0697535 139.593 -0.0658264 139.837C-0.100072 140.118 -0.0123133 140.103 0.00985936 140.165C0.0430158 140.209 0.0738028 140.241 0.103566 140.27C0.163372 140.329 0.220775 140.376 0.277978 140.421C0.393014 140.511 0.506988 140.588 0.62324 140.664C1.58193 141.27 2.5947 141.714 3.62647 142.115C4.65641 142.504 5.6938 142.849 6.81983 143.039C6.82706 143.041 6.83426 143.042 6.84142 143.043C6.98098 143.064 7.12056 143.082 7.27479 143.091C7.35207 143.096 7.43185 143.098 7.52926 143.092C7.57835 143.088 7.63147 143.083 7.70414 143.065C7.74167 143.056 7.78394 143.044 7.84515 143.014C7.90357 142.971 8.00896 142.97 8.12366 142.696ZM7.17952 142.366L8.12366 142.696L7.65159 142.531L7.17952 142.366Z" fill="#096F1F" mask="url(#path-44-inside-1_2194_3815)"/>
</svg>
