<svg width="88" height="82" viewBox="0 0 88 82" fill="none" xmlns="http://www.w3.org/2000/svg">
<path d="M15.8423 26C30.0374 35.4555 35.0903 48.6065 35.8423 54" stroke="#096F1F"/>
<path d="M16.4556 26.0779C8.68826 17.6458 7.47696 8.5126 7.84222 5" stroke="#096F1F"/>
<path d="M8.16067 1.7151C8.21588 1.68387 8.47311 1.61271 9.29507 2.38262C10.1221 3.15727 11.264 4.58171 12.3866 6.56641C13.5093 8.55112 14.1419 10.2637 14.3797 11.3716C14.6162 12.4727 14.4227 12.6565 14.3674 12.6877C14.3122 12.719 14.055 12.7901 13.233 12.0202C12.406 11.2455 11.2641 9.82112 10.1415 7.83641C9.01881 5.85171 8.38624 4.13916 8.14837 3.03127C7.91195 1.93014 8.10546 1.74633 8.16067 1.7151Z" fill="#096F1F"/>
<path d="M12.8137 3.66124C12.8762 3.65683 13.1347 3.68673 13.5222 4.45909C13.9122 5.2362 14.2946 6.55003 14.4138 8.23824C14.5331 9.92647 14.3391 11.281 14.0622 12.1052C13.7871 12.9244 13.5354 12.9903 13.4729 12.9947C13.4104 12.9991 13.152 12.9692 12.7644 12.1969C12.3745 11.4197 11.992 10.1059 11.8728 8.41771C11.7536 6.72949 11.9476 5.37495 12.2244 4.55075C12.4996 3.73159 12.7512 3.66566 12.8137 3.66124Z" fill="#096F1F"/>
<path d="M53.1704 68.4799C37.261 67.2678 36.1477 53.9977 35.7364 52.0001" stroke="#096F1F"/>
<path d="M32.0228 58.3287C31.9352 58.3614 31.8375 58.3678 31.7469 58.3389C31.6564 58.31 31.581 58.2492 31.5364 58.168C31.4918 58.0868 31.4809 57.9906 31.5051 57.8987C31.5293 57.8068 31.5871 57.7277 31.6617 57.6713C31.6617 57.6713 31.6617 57.6713 31.6617 57.6713C31.9035 57.491 32.1436 57.321 32.3925 57.1557C34.6258 55.6649 37.3207 54.7528 40.0694 54.6495C42.8118 54.5455 45.6007 55.1877 47.9169 56.6599C48.1721 56.8256 48.424 57.0056 48.6577 57.1981C48.7295 57.2581 48.7834 57.3399 48.803 57.4329C48.8227 57.5258 48.8071 57.6214 48.7586 57.7003C48.7101 57.7793 48.6318 57.8363 48.54 57.8607C48.4482 57.8852 48.3508 57.8741 48.2649 57.837C48.2649 57.837 48.2649 57.837 48.2649 57.837C48.0137 57.7316 47.7492 57.6346 47.4854 57.5481C45.0884 56.79 42.5951 56.5594 40.1489 56.648C37.6965 56.745 35.2561 57.2145 32.831 58.0406C32.5614 58.1323 32.2955 58.2265 32.0228 58.3287Z" fill="#935713"/>
<path d="M51.2777 59.1773C51.3089 59.0894 51.3141 58.9918 51.2842 58.9018C51.2544 58.8118 51.193 58.7373 51.1117 58.6936C51.0303 58.65 50.9343 58.64 50.8428 58.6649C50.7513 58.6898 50.6728 58.7481 50.6168 58.8227C50.6168 58.8227 50.6168 58.8227 50.6168 58.8227C50.4452 59.0545 50.2834 59.2846 50.1269 59.522C48.7109 61.6595 47.8518 64.2549 47.8404 66.902C47.8252 69.537 48.6085 72.2039 50.2204 74.2881C50.4012 74.5175 50.5962 74.7416 50.8026 74.9464C50.8693 75.0116 50.9557 75.0572 51.05 75.0679C51.1442 75.0786 51.2376 75.0541 51.3113 74.9985C51.3851 74.943 51.4344 74.86 51.4501 74.7665C51.4659 74.673 51.4459 74.5773 51.4017 74.4952C51.4017 74.4952 51.4017 74.4952 51.4017 74.4952C51.2815 74.2664 51.1694 74.0242 51.068 73.7814C50.1727 71.5724 49.8326 69.2235 49.8403 66.9153C49.855 64.5969 50.2657 62.2765 51.0159 59.9519C51.0988 59.6945 51.1845 59.4392 51.2777 59.1773Z" fill="#935713"/>
<path d="M58.6903 74.6003C58.7179 74.8213 58.703 75.0528 58.615 75.2598C58.527 75.4667 58.3755 75.6311 58.1826 75.722C57.9897 75.8129 57.7664 75.8252 57.5508 75.7613C57.3351 75.6975 57.1471 75.5616 56.9942 75.3997C56.9942 75.3997 56.9942 75.3997 56.9942 75.3997C56.5262 74.8952 56.0793 74.3967 55.6535 73.9033C53.9322 71.8935 52.4772 69.8217 51.2382 67.6386C46.8309 60.3257 42.2268 51.4818 34.7052 49.1417C34.1944 49.0632 33.6865 49.0735 33.257 49.2014C33.0333 49.2795 32.7853 49.2843 32.5604 49.1995C32.3356 49.1147 32.1533 48.9495 32.052 48.7367C31.9507 48.5239 31.9374 48.2782 32.0134 48.0502C32.0894 47.8222 32.2494 47.6327 32.4512 47.5084C32.4512 47.5084 32.4512 47.5084 32.4512 47.5084C33.1811 47.0859 33.9909 46.9102 34.7642 46.8647C45.5651 48.1644 50.8525 57.5727 55.5863 65.17C56.8869 67.4614 57.8046 69.9477 58.3504 72.5892C58.4823 73.2405 58.5957 73.911 58.6903 74.6003Z" fill="#096F1F"/>
<path d="M50.3326 75.3072C50.1998 76.092 50.3872 76.889 50.8661 77.5247C51.3442 78.1603 52.0747 78.5825 52.8843 78.6967C53.6939 78.8108 54.5127 78.6071 55.148 78.1285C55.784 77.65 56.1845 76.9359 56.2738 76.145C56.2738 76.145 56.2738 76.145 56.2738 76.145C56.4026 75.0082 56.5383 73.8908 56.6839 72.7703C59.4024 52.6191 64.7123 32.4049 74.7159 14.5898C75.2926 13.6181 75.8819 12.6783 76.5173 11.7713C76.6844 11.5337 76.7501 11.2354 76.7036 10.9448C76.657 10.654 76.5021 10.3947 76.2692 10.2213C76.0364 10.0478 75.7436 9.97352 75.4517 10.012C75.1599 10.0507 74.8929 10.199 74.713 10.4271C74.713 10.4271 74.713 10.4271 74.713 10.4271C73.9768 11.3651 73.3086 12.3119 72.6542 13.2895C61.3712 31.0608 54.8786 51.2851 50.9428 71.8619C50.7303 73.0049 50.528 74.1456 50.3326 75.3072Z" fill="#096F1F"/>
<path d="M73.1107 18.1853C72.9158 18.5328 72.5939 18.7807 72.2056 18.8682C71.8178 18.9561 71.3954 18.8763 71.0415 18.6529C70.6876 18.4294 70.4339 18.0824 70.3465 17.6946C70.2586 17.3063 70.344 16.9091 70.5739 16.5837C70.5739 16.5837 70.5739 16.5837 70.5739 16.5837C70.7468 16.3391 70.9155 16.0972 71.0833 15.8526C74.0827 11.4409 76.6563 6.61496 78.1624 1.47041C78.24 1.18475 78.3107 0.903573 78.3693 0.622682C78.3979 0.483686 78.4832 0.359174 78.6024 0.275898C78.7218 0.192657 78.8653 0.157474 79.0055 0.178725C79.1457 0.199975 79.2723 0.276104 79.3617 0.391002C79.4509 0.505862 79.4955 0.650081 79.4816 0.791294C79.4816 0.791294 79.4816 0.791294 79.4816 0.791294C79.4487 1.11082 79.4046 1.41761 79.3535 1.72825C78.3354 7.24571 76.2169 12.4356 73.5632 17.3679C73.4146 17.641 73.265 17.9115 73.1107 18.1853Z" fill="#096F1F"/>
<path d="M54.3731 76.8271C54.3265 76.9512 54.3312 77.0885 54.3867 77.2089C54.4423 77.3293 54.5441 77.423 54.6694 77.4691C54.7946 77.5153 54.9329 77.5101 55.0533 77.4546C55.1737 77.399 55.2664 77.2976 55.3114 77.1729C55.3114 77.1729 55.3114 77.1729 55.3114 77.1729C55.5979 76.3797 55.8395 75.6837 56.1028 74.8911C57.441 70.7188 58.7267 66.3629 58.3175 61.8497C57.8411 57.2853 54.8619 53.6176 55.4766 49.172C56.2488 43.7925 60.0412 39.2169 63.4322 34.9271C63.9368 34.3192 64.4515 33.7147 64.9801 33.1272C65.0133 33.0906 65.0307 33.0422 65.0286 32.9927C65.0264 32.9432 65.0049 32.8966 64.9686 32.8631C64.9323 32.8296 64.8842 32.8119 64.8346 32.8137C64.7851 32.8155 64.7382 32.8368 64.7045 32.8728C64.7045 32.8728 64.7045 32.8728 64.7045 32.8728C64.1597 33.4627 63.6373 34.0605 63.1211 34.6658C59.6556 38.9677 55.7804 43.3699 54.8532 49.1318C54.1626 53.7216 57.1941 57.7351 57.5246 61.9277C57.8628 66.1994 56.5655 70.4798 55.1853 74.5804C54.9153 75.3602 54.6665 76.0452 54.3731 76.8271Z" fill="#935713"/>
<path d="M57.8422 42C64.2237 31.7589 64.928 33.781 68.7597 29.027C71.087 26.1395 72.8422 18 72.8422 18" stroke="#935713" stroke-width="0.5" stroke-linecap="round" stroke-linejoin="round"/>
<path d="M51.8423 80C52.1637 79.4756 52.4783 78.9629 52.7868 78.4618C55.6148 73.8909 58.5265 69.7497 61.3607 65.6665C64.0445 61.5619 67.2747 57.7269 67.7978 52.7601C67.8119 52.2073 67.7611 51.6347 67.5537 51.073C68.0325 51.4366 68.4228 51.9619 68.7192 52.5288C71.0967 58.0983 68.4308 64.1185 65.4751 68.5075C62.3328 73.0316 58.1591 76.5067 53.4421 79.1495C52.9233 79.4367 52.39 79.7202 51.8423 80Z" fill="#096F1F"/>
<path d="M52.8423 80C52.7457 79.6574 52.6509 79.3243 52.5555 78.9983C51.678 76.04 50.6609 73.5753 49.3369 71.3433C48.0306 69.0959 46.3468 67.154 44.5003 64.8011C44.3 64.5344 44.1008 64.2643 43.9141 63.9648C43.768 64.287 43.6556 64.6251 43.5655 64.9703C42.8019 68.1242 43.5242 71.3276 45.0337 73.8894C46.5613 76.4722 48.9487 78.4696 51.8553 79.6403C52.1761 79.7683 52.5046 79.8876 52.8423 80Z" fill="#096F1F"/>
<path d="M31.9314 48.8464C31.9839 48.923 32.0147 49.0152 32.0103 49.1095C32.0058 49.2037 31.9673 49.2915 31.9013 49.3552C31.8354 49.4188 31.7463 49.4543 31.652 49.4555C31.5576 49.4566 31.4665 49.4226 31.3919 49.3674C31.3919 49.3674 31.3919 49.3674 31.3919 49.3674C31.1826 49.2107 30.9816 49.0521 30.782 48.8843C28.9899 47.3849 27.5771 45.3835 26.726 43.1777C25.8761 40.9678 25.5331 38.5631 25.8794 36.2161C25.9202 35.9561 25.9716 35.6931 26.0372 35.4392C26.061 35.3495 26.1109 35.266 26.1853 35.208C26.2597 35.15 26.3515 35.1221 26.4427 35.1306C26.534 35.1392 26.6189 35.1836 26.6813 35.2545C26.7436 35.3253 26.7771 35.4166 26.7839 35.5092C26.7839 35.5092 26.7839 35.5092 26.7839 35.5092C26.8036 35.7454 26.8324 35.9892 26.8669 36.2285C27.1987 38.3918 27.8263 40.4608 28.5908 42.4549C29.3634 44.4456 30.3154 46.3667 31.5196 48.2277C31.6542 48.4354 31.7892 48.6392 31.9314 48.8464Z" fill="#935713"/>
<path d="M31.6616 49.1069C31.438 48.9713 31.2225 48.8321 31.0089 48.6823C29.0892 47.3461 27.576 45.3841 26.726 43.1777C25.8749 40.9707 25.6325 38.516 26.1832 36.22C26.2463 35.9669 26.3212 35.7131 26.4105 35.4742C26.4105 35.4742 26.4105 35.4742 26.4105 35.4742C26.454 35.7254 26.5062 35.9784 26.5631 36.2247C27.0992 38.4389 27.8275 40.4578 28.5908 42.4549C29.3645 44.4451 30.2161 46.4055 31.2927 48.4297C31.4133 48.6554 31.5339 48.8786 31.6616 49.1069Z" fill="#935713"/>
<path d="M12.8423 10C12.8459 11.0835 12.8675 12.1455 12.9066 13.1864C13.2996 22.6634 15.3099 32.4249 20.4511 40.8898C25.3693 49.2511 34.8787 56.2346 44.8121 55.1248C45.8889 55.0053 46.9393 54.7885 47.9398 54.4598C46.8892 54.5264 45.8462 54.4851 44.8126 54.3648C35.4127 53.148 28.4983 46.4067 23.8609 38.7985C19.1603 31.0743 16.1746 22.1748 13.6577 13.0705C13.3825 12.073 13.1105 11.0498 12.8423 10Z" fill="#096F1F"/>
<path d="M14.8262 9.74721C14.7761 9.21887 14.5177 8.73898 14.0979 8.41436C13.6787 8.08967 13.1326 7.94684 12.5895 8.01604C12.0464 8.08524 11.5535 8.36046 11.2291 8.7799C10.9042 9.1994 10.7743 9.72877 10.8583 10.2528C11.0295 11.3322 11.2117 12.3872 11.4044 13.4181C14.5644 31.2678 24.077 54.4383 44.8123 54.8448C45.8732 54.8119 46.9205 54.6902 47.9398 54.4598C46.908 54.6247 45.8619 54.6785 44.8124 54.6448C24.5618 52.8466 17.2027 30.3165 15.16 12.8388C15.0383 11.8314 14.9269 10.801 14.8262 9.74721Z" fill="#096F1F"/>
<path d="M20.7927 12.0001C20.6219 12.0779 20.4568 12.1549 20.2974 12.2311C18.8566 12.9228 17.7461 13.762 16.9053 14.7024C16.0146 15.5898 15.6015 16.9 14.7942 17.2964C14.6618 17.3014 14.501 17.2398 14.3561 17.1266C14.3131 17.3044 14.3176 17.5156 14.4179 17.7245C14.649 18.2319 15.3556 18.4241 15.8461 18.4011C16.3563 18.3917 16.8095 18.2579 17.2084 18.0945C18.0038 17.7611 18.6275 17.2713 19.1377 16.7064C20.1411 15.5823 20.6667 14.1542 20.7708 12.5485C20.7817 12.3706 20.7891 12.1878 20.7927 12.0001Z" fill="#096F1F"/>
<path d="M10.8422 29.7973C11.0274 29.8545 11.2068 29.9117 11.3803 29.9689C12.9457 30.4848 14.2152 31.2086 15.2288 32.0664C15.7337 32.4906 16.1877 32.962 16.5971 33.4114C16.7999 33.6341 16.9946 33.85 17.1595 34.025C17.3314 34.1765 17.4034 34.4189 17.729 34.3009C17.8603 34.2456 17.9925 34.1218 18.1018 33.9676C18.1905 34.1345 18.2522 34.333 18.2344 34.5645C18.2379 35.1305 17.4776 35.6113 16.9448 35.6439C16.3871 35.7174 15.9092 35.6374 15.4726 35.5232C14.6003 35.2824 13.8913 34.8589 13.2954 34.3602C12.1028 33.3493 11.335 31.9673 10.9585 30.3522C10.917 30.1727 10.8783 29.9878 10.8422 29.7973Z" fill="#096F1F"/>
<path d="M64.5067 23.0001C64.5666 23.0953 64.6237 23.1882 64.678 23.2787C65.1671 24.1028 65.4192 24.8593 65.4679 25.5826C65.5439 26.3067 65.2772 26.9874 65.2707 27.718C65.2839 27.7978 65.3153 27.8881 65.4131 27.9437C65.3349 28.0251 65.1878 28.0516 65.0566 28.0319C63.8667 27.6333 63.5561 26.5375 63.4726 25.7201C63.4148 24.8532 63.7098 24.0193 64.2988 23.2544C64.3643 23.1704 64.4336 23.0856 64.5067 23.0001Z" fill="#096F1F"/>
<path d="M53.088 50.0001C53.1903 50.1647 53.2883 50.3254 53.3819 50.4824C54.2257 51.8982 54.7097 53.2771 54.9128 54.5893C55.0159 55.2407 55.0497 55.8942 55.0642 56.502C55.0713 56.8032 55.0768 57.0938 55.0866 57.3341C55.117 57.5611 55.0125 57.7913 55.3357 57.9157C55.4711 57.9601 55.6522 57.9533 55.8357 57.9085C55.7933 58.0927 55.7097 58.283 55.5445 58.4461C55.1761 58.8758 54.2868 58.7404 53.863 58.4157C53.3938 58.1056 53.0853 57.7318 52.8306 57.3594C52.3297 56.6057 52.072 55.821 51.949 55.0538C51.7112 53.5087 52.0375 51.9617 52.812 50.4953C52.8984 50.3326 52.9904 50.1675 53.088 50.0001Z" fill="#096F1F"/>
<path d="M64.4895 45C64.3307 44.9975 64.1769 44.9968 64.028 44.9982C62.6774 45.0179 61.602 45.2969 60.7486 45.8346C59.8721 46.3604 59.3156 47.217 58.5823 48.1281C58.492 48.2172 58.4025 48.3251 58.2485 48.3373C58.2884 48.5002 58.4623 48.6151 58.6064 48.6975C60.0465 49.3274 61.3735 48.9616 62.3455 48.3743C63.3254 47.7566 64.0083 46.757 64.3767 45.4491C64.4166 45.3045 64.4542 45.1548 64.4895 45Z" fill="#096F1F"/>
<path d="M75.894 16.9999C75.7706 16.9722 75.65 16.9471 75.532 16.9245C74.4604 16.7243 73.4805 16.7738 72.5911 17.0691C71.6932 17.3647 70.8993 17.9132 70.1446 18.6815C70.0599 18.7654 69.9774 18.8546 69.887 18.935C70.0008 18.986 70.1239 19.0175 70.2422 19.0488C71.3194 19.3119 72.313 19.2663 73.2209 18.9673C74.1227 18.668 74.9375 18.1041 75.6565 17.2835C75.7353 17.1927 75.8144 17.0982 75.894 16.9999Z" fill="#096F1F"/>
</svg>
