<svg width="409" height="423" viewBox="0 0 409 423" fill="none" xmlns="http://www.w3.org/2000/svg">
<path d="M162.893 129.242C180.754 141.752 187.112 159.151 188.058 166.287" stroke="#096F1F" stroke-width="3"/>
<path d="M161.842 130.419C162.594 129.767 163.347 129.115 164.099 128.463C163.568 127.888 163.049 127.291 162.548 126.684C153.603 115.511 148.99 101.039 146.814 86.6704C146.707 85.8832 146.61 85.0453 146.536 84.2588C146.56 85.0481 146.608 85.891 146.665 86.6846C147.987 101.208 151.584 115.995 160.302 128.419C160.794 129.096 161.31 129.768 161.842 130.419Z" fill="#096F1F"/>
<path d="M203.053 204.832C204.264 205.038 205.505 204.729 206.503 203.962C207.501 203.197 208.175 202.037 208.375 200.747C208.575 199.457 208.285 198.146 207.566 197.109C206.847 196.072 205.76 195.396 204.544 195.219C204.544 195.219 204.544 195.219 204.544 195.219C200.35 194.609 196.361 193.903 192.568 193.106C156.634 187.039 124.212 161.906 118.59 123.006C109.839 86.7781 121.351 41.1158 91.9191 10.9425C88.6721 8.02825 85.1334 5.64488 81.1917 3.63411C80.7835 3.42666 80.3088 3.39926 79.8732 3.55503C79.4376 3.71096 79.0769 4.03727 78.8691 4.46512C78.6613 4.89297 78.623 5.38813 78.7612 5.8446C78.8994 6.30089 79.2029 6.68111 79.6061 6.89868C79.6061 6.89868 79.6061 6.89868 79.6061 6.89868C83.2642 8.87468 86.4882 11.17 89.4143 13.9247C115.896 41.7156 104.469 86.2854 112.339 124.404C116.838 165.509 153.318 195.612 190.588 202.316C194.548 203.254 198.7 204.094 203.053 204.832Z" fill="#096F1F"/>
<path d="M209.861 185.445C189.843 183.841 188.442 166.285 187.925 163.642" stroke="#096F1F" stroke-width="3"/>
<path d="M227.867 198.849C227.773 198.868 227.675 198.85 227.592 198.797C227.51 198.744 227.45 198.66 227.427 198.564C227.404 198.468 227.418 198.366 227.468 198.281C227.517 198.196 227.597 198.135 227.689 198.108C227.689 198.108 227.689 198.108 227.689 198.108C228.691 197.82 229.647 197.529 230.583 197.229C239.299 194.532 247.235 190.283 254.283 184.491C261.139 178.427 270.427 174.449 279.639 174.705C280.684 174.691 281.644 174.705 282.711 174.74C282.807 174.744 282.9 174.783 282.969 174.854C283.039 174.925 283.078 175.019 283.08 175.118C283.082 175.217 283.046 175.313 282.979 175.384C282.913 175.456 282.822 175.497 282.726 175.501C282.726 175.501 282.726 175.501 282.726 175.501C281.67 175.551 280.724 175.617 279.7 175.706C270.549 176.222 262.413 180.077 255.484 186.116C248.362 191.989 239.798 196.169 230.848 198.197C229.882 198.426 228.897 198.642 227.867 198.849Z" fill="#935713"/>
<path d="M309.649 185.919C309.722 185.91 309.789 185.874 309.837 185.818C309.884 185.761 309.907 185.689 309.901 185.616C309.895 185.543 309.86 185.475 309.804 185.427C309.748 185.379 309.676 185.355 309.602 185.359C309.602 185.359 309.602 185.359 309.602 185.359C308.679 185.405 307.779 185.445 306.904 185.482C299.071 185.774 290.964 186.035 283.201 185.07C279.345 184.57 275.532 183.61 272.232 181.515C268.686 178.844 263.944 180.275 260.341 181.434C259.422 181.735 258.711 181.992 257.799 182.325C257.73 182.35 257.672 182.401 257.639 182.467C257.607 182.533 257.601 182.609 257.624 182.678C257.647 182.748 257.697 182.805 257.763 182.839C257.828 182.872 257.905 182.879 257.975 182.858C257.975 182.858 257.975 182.858 257.975 182.858C258.902 182.586 259.626 182.387 260.55 182.143C268.705 178.009 274.533 186.557 283.002 186.554C290.988 187.544 299.134 187.015 306.957 186.219C307.831 186.127 308.728 186.027 309.649 185.919Z" fill="#935713"/>
<path d="M195.688 244.355C195.619 244.422 195.574 244.512 195.567 244.609C195.559 244.706 195.589 244.802 195.651 244.875C195.713 244.949 195.801 244.995 195.898 245.004C195.995 245.014 196.092 244.985 196.17 244.928C196.17 244.928 196.17 244.928 196.17 244.928C196.677 244.556 197.167 244.181 197.64 243.803C201.972 240.336 205.734 235.842 207.629 230.425C209.542 225.048 209.337 218.818 206.562 213.855C206.253 213.309 205.906 212.774 205.527 212.282C205.468 212.206 205.383 212.152 205.288 212.134C205.192 212.117 205.094 212.137 205.014 212.19C204.934 212.244 204.878 212.327 204.858 212.423C204.838 212.518 204.855 212.617 204.903 212.7C204.903 212.7 204.903 212.7 204.903 212.7C205.191 213.206 205.45 213.746 205.675 214.291C207.676 219.254 207.486 224.816 205.741 229.77C203.998 234.753 200.781 239.173 196.979 243.072C196.565 243.497 196.135 243.925 195.688 244.355Z" fill="#935713"/>
<path d="M207.395 173.07C207.428 172.98 207.433 172.881 207.403 172.79C207.372 172.7 207.309 172.626 207.226 172.584C207.143 172.542 207.046 172.535 206.954 172.564C206.863 172.593 206.785 172.655 206.732 172.735C206.732 172.735 206.732 172.735 206.732 172.735C206.524 173.052 206.329 173.365 206.14 173.688C204.43 176.592 203.424 179.998 203.417 183.427C203.408 186.844 204.327 190.278 206.255 193.047C206.471 193.352 206.706 193.651 206.954 193.926C207.017 193.995 207.103 194.043 207.197 194.055C207.292 194.067 207.387 194.043 207.463 193.987C207.539 193.93 207.591 193.846 207.609 193.751C207.626 193.656 207.608 193.559 207.562 193.477C207.562 193.477 207.562 193.477 207.562 193.477C207.4 193.177 207.248 192.859 207.11 192.54C205.892 189.64 205.404 186.499 205.407 183.396C205.419 180.282 205.986 177.16 207.03 174.091C207.146 173.75 207.265 173.414 207.395 173.07Z" fill="#935713"/>
<path d="M216.595 193.688C216.634 193.911 216.621 194.147 216.53 194.358C216.439 194.569 216.279 194.736 216.078 194.827C215.877 194.917 215.646 194.925 215.428 194.852C215.209 194.78 215.024 194.632 214.884 194.455C214.884 194.455 214.884 194.455 214.884 194.455C214.346 193.764 213.829 193.083 213.334 192.411C211.332 189.675 209.585 186.896 208.037 184.019C202.484 174.391 196.762 162.61 186.687 159.494C185.996 159.403 185.304 159.442 184.718 159.658C184.495 159.747 184.245 159.758 184.017 159.678C183.788 159.598 183.601 159.435 183.494 159.222C183.387 159.009 183.369 158.761 183.442 158.53C183.515 158.299 183.674 158.106 183.878 157.981C183.878 157.981 183.878 157.981 183.878 157.981C184.778 157.455 185.799 157.247 186.77 157.218C200.27 159.417 206.554 171.742 212.439 181.648C214.044 184.63 215.243 187.808 216.056 191.15C216.254 191.973 216.434 192.82 216.595 193.688Z" fill="#096F1F"/>
<path d="M205.182 193.767C204.955 194.819 205.143 195.92 205.719 196.832C206.295 197.744 207.211 198.393 208.254 198.631C209.296 198.87 210.375 198.678 211.239 198.096C212.105 197.513 212.685 196.588 212.865 195.526C212.865 195.526 212.865 195.526 212.865 195.526C213.176 193.701 213.495 191.908 213.829 190.108C219.978 157.756 229.77 125.741 245.838 97.3416C246.761 95.7876 247.698 94.2838 248.701 92.8224C248.921 92.5029 249.008 92.0983 248.947 91.701C248.886 91.3035 248.683 90.9458 248.377 90.7034C248.071 90.4609 247.687 90.3526 247.305 90.3991C246.923 90.4458 246.575 90.6434 246.341 90.9517C246.341 90.9517 246.341 90.9517 246.341 90.9517C245.215 92.4407 244.18 93.944 243.16 95.4962C225.477 123.689 214.16 155.554 206.41 188.286C205.988 190.106 205.581 191.92 205.182 193.767Z" fill="#096F1F"/>
<path d="M219.956 146.256C219.196 146.498 218.57 147.03 218.222 147.755C217.874 148.479 217.832 149.335 218.1 150.118C218.368 150.9 218.921 151.54 219.633 151.877C220.344 152.215 221.156 152.223 221.894 151.918C221.894 151.918 221.894 151.918 221.894 151.918C223.192 151.389 224.33 150.835 225.532 150.142C249.949 134.393 229.805 105.34 241.715 88.7592C242.275 88.5362 242.803 88.4031 243.443 88.319C243.993 88.2451 244.585 88.2206 245.232 88.2487C245.232 88.2487 245.232 88.2487 245.232 88.2487C244.59 88.1706 243.996 88.1442 243.432 88.1689C242.778 88.2042 242.224 88.2897 241.621 88.4753C235.826 90.7665 236.321 98.116 235.953 103.182C235.81 108.655 235.974 114.09 235.661 119.443C235.243 129.971 232.025 141.23 222.961 145.089C221.976 145.554 221.036 145.913 219.956 146.256Z" fill="#096F1F"/>
<path d="M247.622 94.995C247.39 95.3931 247.009 95.6752 246.56 95.7771C246.112 95.8791 245.633 95.7924 245.232 95.5385C244.831 95.2846 244.542 94.8849 244.432 94.4296C244.322 93.9742 244.4 93.5005 244.646 93.1105C244.646 93.1105 244.646 93.1105 244.646 93.1105C245.266 92.1246 245.868 91.1525 246.454 90.1939C256.394 72.8934 268.29 53.2694 263.597 32.9639C263.215 31.9236 262.718 30.9039 262.086 30.0589C261.982 29.9205 261.935 29.7456 261.956 29.5737C261.976 29.4018 262.062 29.2469 262.195 29.1421C262.328 29.0374 262.498 28.9911 262.669 29.0126C262.84 29.034 262.997 29.1214 263.106 29.2565C263.106 29.2565 263.106 29.2565 263.106 29.2565C263.882 30.2306 264.459 31.3435 264.914 32.4692C270.522 54.051 258.828 74.0342 249.361 91.9805C248.799 92.9716 248.22 93.9764 247.622 94.995Z" fill="#096F1F"/>
<path d="M211.77 195.957C211.684 196.208 211.7 196.482 211.818 196.719C211.937 196.957 212.146 197.138 212.4 197.223C212.654 197.309 212.931 197.29 213.169 197.172C213.406 197.054 213.585 196.846 213.667 196.593C213.667 196.593 213.667 196.593 213.667 196.593C214.006 195.548 214.292 194.629 214.603 193.586C216.2 188.037 217.719 182.283 217.207 176.302C216.602 170.211 213.007 165.377 213.726 159.603C214.551 152.786 219.025 146.661 223.115 140.952C223.732 140.129 224.362 139.309 225.006 138.517C225.068 138.441 225.098 138.342 225.089 138.244C225.08 138.145 225.033 138.054 224.957 137.991C224.882 137.928 224.784 137.897 224.686 137.905C224.587 137.913 224.495 137.959 224.431 138.034C224.431 138.034 224.431 138.034 224.431 138.034C223.755 138.833 223.109 139.64 222.469 140.459C218.232 146.19 213.587 152.021 212.485 159.53C211.619 165.56 215.282 171.037 215.622 176.443C215.996 181.987 214.438 187.6 212.752 193.015C212.426 194.034 212.125 194.933 211.77 195.957Z" fill="#935713"/>
<path d="M203.688 185.092C204.085 185.077 204.472 185.22 204.764 185.492C205.057 185.764 205.231 186.142 205.248 186.542C205.265 186.942 205.123 187.331 204.854 187.622C204.586 187.914 204.212 188.083 203.815 188.095C203.815 188.095 203.815 188.095 203.815 188.095C200.464 188.194 197.178 188.535 193.927 189.11C180.202 190.429 167.273 202.394 151.94 195.823C138.544 188.321 131.683 174.883 124.209 162.675C115.827 148.997 103.464 137.639 89.7585 129.176C76.7003 120.989 56.8802 115.382 46.2164 128.935C44.0481 131.537 42.4545 134.323 41.0722 137.485C41.0132 137.621 40.9022 137.728 40.7641 137.782C40.6259 137.836 40.4719 137.832 40.3357 137.773C40.1994 137.713 40.0918 137.602 40.0363 137.463C39.9808 137.324 39.9818 137.169 40.0396 137.033C40.0396 137.033 40.0396 137.033 40.0396 137.033C41.4274 133.78 43.04 130.887 45.2787 128.149C56.4406 113.741 77.3418 119.557 90.5988 127.741C104.65 136.264 117.194 147.516 126.032 161.616C133.463 173.646 140.82 186.982 152.995 193.55C165.933 199.414 179.097 188.015 193.388 186.246C196.767 185.616 200.195 185.228 203.688 185.092Z" fill="#935713"/>
<path d="M135.668 184.008C135.931 184.033 136.194 183.952 136.398 183.782C136.602 183.612 136.731 183.366 136.757 183.101C136.783 182.835 136.703 182.57 136.535 182.366C136.367 182.161 136.125 182.034 135.861 182.01C135.861 182.01 135.861 182.01 135.861 182.01C132.968 181.757 130.246 181.67 127.381 181.758C108.542 181.936 91.5004 192.585 78.6858 205.643C66.0397 217.284 52.6163 237.988 34.0559 229.298C27.9671 226.579 21.9488 222.927 18.8846 217.013C15.721 211.065 17.5666 203.731 21.1614 198.162C22.6262 195.835 24.3852 193.606 26.3206 191.698C26.393 191.63 26.4357 191.535 26.4396 191.436C26.4434 191.336 26.408 191.24 26.341 191.167C26.2741 191.094 26.181 191.052 26.0821 191.048C25.9832 191.044 25.8867 191.08 25.8138 191.148C25.8138 191.148 25.8138 191.148 25.8138 191.148C23.7854 193.118 22.0021 195.351 20.4786 197.727C16.7667 203.372 14.7048 211.083 18.0255 217.452C21.2416 223.745 27.4312 227.502 33.6014 230.322C42.1537 234.751 52.7392 231.769 59.7379 225.819C67.0551 220.056 73.1118 213.065 79.7394 206.742C92.5885 193.866 109.157 183.75 127.423 183.701C130.206 183.636 132.852 183.74 135.668 184.008Z" fill="#935713"/>
<path d="M214.347 203.446C214.108 203.331 213.923 203.125 213.833 202.873C213.742 202.62 213.754 202.341 213.864 202.098C213.975 201.855 214.175 201.668 214.421 201.578C214.667 201.488 214.939 201.503 215.177 201.619C215.177 201.619 215.177 201.619 215.177 201.619C218.014 202.968 220.092 205.511 221.454 208.17C225.686 217.036 226.605 226.866 232.67 233.996C238.518 241.221 248.093 243.896 257.165 244.481C288.217 240.642 312.562 209.062 346.71 213.584C349.516 213.804 352.323 214.196 355.145 214.761C355.241 214.781 355.327 214.838 355.382 214.922C355.438 215.005 355.46 215.107 355.442 215.205C355.425 215.303 355.37 215.39 355.289 215.447C355.208 215.503 355.109 215.525 355.013 215.506C355.013 215.506 355.013 215.506 355.013 215.506C352.215 214.967 349.435 214.599 346.66 214.403C312.726 210.179 289.782 241.537 257.086 246.021C247.845 245.492 237.729 242.838 231.373 235.124C224.878 227.553 223.806 217.252 219.769 209.084C218.488 206.641 216.716 204.556 214.347 203.446Z" fill="#935713"/>
<path d="M205.452 221.897C205.143 221.645 204.751 221.528 204.36 221.575C203.97 221.621 203.614 221.826 203.371 222.144C203.128 222.461 203.019 222.865 203.069 223.264C203.118 223.664 203.322 224.027 203.635 224.274C203.635 224.274 203.635 224.274 203.635 224.274C205.551 225.82 207.935 226.623 210.184 226.893C217.916 227.551 224.877 225.491 231.507 227.786C238.107 229.85 243.261 235.335 247.136 241.388C256.16 262.18 245.797 290.082 261.441 310.402C262.628 312.198 263.904 313.931 265.29 315.634C265.384 315.749 265.52 315.823 265.666 315.838C265.812 315.853 265.958 315.809 266.07 315.715C266.183 315.62 266.254 315.484 266.269 315.334C266.283 315.185 266.239 315.035 266.147 314.918C266.147 314.918 266.147 314.918 266.147 314.918C264.808 313.224 263.58 311.505 262.442 309.727C247.302 289.389 258.437 263.609 249.01 240.16C245.087 233.842 239.661 227.752 232.269 225.3C224.917 222.671 217.163 224.731 210.528 223.98C208.613 223.714 206.869 223.068 205.452 221.897Z" fill="#935713"/>
<path d="M250.626 260.659C250.782 260.445 251.017 260.302 251.278 260.263C251.54 260.224 251.807 260.292 252.021 260.451C252.235 260.611 252.377 260.848 252.416 261.111C252.455 261.374 252.388 261.641 252.229 261.854C252.229 261.854 252.229 261.854 252.229 261.854C250.926 263.61 249.377 265.147 247.723 266.501C236.431 273.75 227.148 283.016 222.654 295.648C210.78 319.167 239.325 341.939 226.455 366.344C225.676 368.296 224.809 370.162 223.811 372.081C223.765 372.169 223.686 372.235 223.592 372.265C223.497 372.295 223.395 372.286 223.308 372.24C223.22 372.194 223.154 372.116 223.124 372.021C223.093 371.926 223.101 371.823 223.146 371.735C223.146 371.735 223.146 371.735 223.146 371.735C224.116 369.827 224.953 367.975 225.701 366.044C238.243 342.112 209.406 320.063 221.225 295.076C225.505 282.299 235.663 272.005 246.492 265.002C248.046 263.702 249.45 262.276 250.626 260.659Z" fill="#935713"/>
<path d="M216.205 150.867C224.434 137.155 224.381 139.523 229.288 133.135C232.268 129.255 235.545 118.732 235.545 118.732" stroke="#935713" stroke-linecap="round" stroke-linejoin="round"/>
<path d="M210.741 198.1C211.509 199.178 211.811 200.514 211.571 201.82C211.332 203.125 210.571 204.294 209.464 205.062C208.357 205.831 206.997 206.134 205.694 205.899C204.39 205.665 203.249 204.911 202.512 203.811C202.512 203.811 202.512 203.811 202.512 203.811C200.537 200.873 198.568 198.415 196.172 195.997C142.632 155.796 79.2402 228.313 12.3716 224.219C8.56498 223.527 4.88351 222.311 1.46376 220.463C1.03338 220.23 0.712308 219.832 0.569256 219.36C0.426334 218.888 0.473143 218.38 0.701324 217.945C0.929489 217.51 1.32086 217.183 1.79124 217.031C2.26152 216.879 2.77226 216.916 3.20921 217.136C3.20921 217.136 3.20921 217.136 3.20921 217.136C6.29533 218.691 9.59945 219.682 13.0607 220.211C76.5592 224.106 134.206 144.841 202.939 189.038C205.92 191.882 208.345 194.739 210.741 198.1Z" fill="#096F1F"/>
<path d="M219.083 197.821C218.027 197.963 217.074 198.515 216.435 199.364C215.796 200.213 215.523 201.288 215.675 202.346C215.828 203.405 216.393 204.357 217.245 204.986C218.097 205.616 219.166 205.87 220.219 205.702C220.219 205.702 220.219 205.702 220.219 205.702C223.346 205.201 226.433 205.007 229.527 205.127C286.503 216.171 319.104 281.488 375.721 305.243C378.775 306.76 381.791 308.173 384.933 309.557C385.293 309.716 385.705 309.725 386.077 309.585C386.449 309.446 386.75 309.169 386.916 308.813C387.082 308.457 387.1 308.051 386.966 307.681C386.832 307.311 386.557 307.008 386.201 306.84C386.201 306.84 386.201 306.84 386.201 306.84C383.138 305.4 380.202 303.933 377.231 302.365C321.106 277.529 295.149 213.017 229.979 197.419C226.36 197.188 222.73 197.326 219.083 197.821Z" fill="#096F1F"/>
<path d="M214.92 200.958C214.343 201.702 213.515 202.17 212.594 202.24C211.675 202.31 210.74 201.977 210.016 201.332C209.293 200.688 208.847 199.791 208.798 198.858C208.749 197.925 209.101 197.033 209.755 196.358C210.497 195.592 211.22 194.835 211.925 194.086C224.006 180.499 238.517 164.699 236.615 145.536C236.358 144.533 235.979 143.551 235.393 142.697C236.072 143.477 236.571 144.429 236.946 145.421C241.095 164.945 227.806 183.053 216.901 198.376C216.259 199.228 215.599 200.088 214.92 200.958Z" fill="#096F1F"/>
<path d="M213.351 215.219C213.079 214.048 212.36 213.042 211.345 212.424C210.331 211.805 209.105 211.625 207.943 211.922C206.781 212.218 205.782 212.966 205.173 213.999C204.564 215.032 204.395 216.265 204.695 217.429C204.695 217.429 204.695 217.429 204.695 217.429C205.708 221.364 206.679 225.224 207.606 229.012C215.864 263.611 223.347 298.976 222.432 334.377C221.737 351.721 218.534 370.189 207.157 382.878C195.796 395.778 177.236 399.123 160.116 398.492C156.245 398.368 152.436 398.075 148.488 397.632C148.052 397.583 147.613 397.714 147.267 397.992C146.92 398.271 146.696 398.675 146.642 399.117C146.588 399.56 146.709 400.007 146.978 400.362C147.248 400.717 147.643 400.952 148.077 401.011C148.077 401.011 148.077 401.011 148.077 401.011C152.09 401.558 155.978 401.953 159.956 402.176C177.436 403.222 197.519 400.449 210.708 386.277C223.76 372.308 227.384 352.621 228.558 334.682C230.337 298.019 223.529 262.146 216.017 226.979C215.172 223.132 214.283 219.213 213.351 215.219Z" fill="#096F1F"/>
<path d="M257.687 213.41C256.803 213.682 255.851 213.587 255.039 213.135C254.227 212.683 253.621 211.912 253.357 211C253.093 210.089 253.193 209.114 253.639 208.301C254.084 207.488 254.839 206.903 255.733 206.664C255.733 206.664 255.733 206.664 255.733 206.664C258.727 205.865 261.665 205.055 264.547 204.235C314.905 188.254 375.512 169.7 396.595 116.936C397.233 113.961 397.48 110.868 397.073 107.81C397.596 110.851 397.468 113.977 396.937 117.005C377.593 171.309 316.832 192.5 266.512 210.611C263.627 211.554 260.686 212.488 257.687 213.41Z" fill="#096F1F"/>
<path d="M315.086 186.821C314.845 187.439 314.864 188.119 315.153 188.715C315.442 189.312 315.978 189.775 316.629 190C317.279 190.225 317.987 190.19 318.583 189.9C319.18 189.609 319.616 189.086 319.809 188.451C319.809 188.451 319.809 188.451 319.809 188.451C320.129 187.4 320.45 186.37 320.772 185.361C327.046 167.766 333.509 146.446 351.986 138.945C353.033 138.73 354.13 138.656 355.188 138.864C354.149 138.574 353.03 138.561 351.945 138.699C332.378 144.955 324.076 166.324 316.308 183.747C315.9 184.75 315.493 185.775 315.086 186.821Z" fill="#096F1F"/>
<path d="M294.593 233.965C294.235 233.404 293.674 233.014 293.023 232.888C292.373 232.761 291.687 232.909 291.126 233.291C290.564 233.673 290.175 234.258 290.052 234.91C289.93 235.562 290.084 236.229 290.473 236.769C290.473 236.769 290.473 236.769 290.473 236.769C291.354 237.996 292.211 239.21 293.042 240.41C307.421 262.064 322.691 287.69 316.633 314.417C316.155 315.826 315.547 317.198 314.717 318.424C315.615 317.247 316.305 315.9 316.867 314.505C324.535 287.783 310.43 260.665 297.004 237.818C296.226 236.548 295.423 235.264 294.593 233.965Z" fill="#096F1F"/>
<path d="M113.634 188.616C114.345 187.813 115.332 187.331 116.389 187.286C117.445 187.24 118.484 187.634 119.267 188.371C120.05 189.108 120.51 190.126 120.535 191.189C120.56 192.254 120.148 193.277 119.4 194.045C119.4 194.045 119.4 194.045 119.4 194.045C117.403 196.098 115.525 198.065 113.602 200.132C96.7564 218.474 80.4539 238.945 75.2908 263.327C69.8136 287.898 80.8634 312.753 95.5258 332.544C97.2017 334.842 98.8094 336.956 100.579 339.19C98.707 337.043 96.9938 335.013 95.2086 332.794C79.6601 313.758 66.8626 289.048 71.3697 262.691C75.6435 236.643 91.6865 214.657 108.002 195.11C109.87 192.904 111.692 190.803 113.634 188.616Z" fill="#096F1F"/>
<path d="M57.9808 214.824C58.6721 215.429 59.5724 215.72 60.4937 215.619C61.4144 215.519 62.2807 215.036 62.8919 214.288C63.5031 213.54 63.8061 212.593 63.7241 211.667C63.6427 210.74 63.1829 209.911 62.4562 209.348C62.4562 209.348 62.4562 209.348 62.4562 209.348C60.9108 208.151 59.4238 206.968 57.9252 205.738C31.5971 183.935 7.9681 153.731 7.12291 117.436C7.13113 115.457 7.2341 113.456 7.43944 111.491C7.11893 113.443 6.89919 115.443 6.77448 117.431C5.43144 154.051 27.7133 186.74 53.5327 210.82C55.0018 212.181 56.4604 213.495 57.9808 214.824Z" fill="#096F1F"/>
<path d="M113.421 124.177C113.878 124.658 114.503 124.93 115.166 124.925C115.829 124.921 116.477 124.64 116.957 124.154C117.438 123.667 117.71 123.017 117.706 122.354C117.702 121.691 117.422 121.07 116.935 120.62C116.935 120.62 116.935 120.62 116.935 120.62C115.903 119.66 114.893 118.737 113.906 117.848C98.3551 99.7708 65.2596 94.6059 70.7727 65.5803C70.6986 64.2411 70.6321 62.9533 70.5674 61.5338C70.5674 61.5338 70.5674 61.5338 70.5674 61.5338C70.5487 62.9547 70.5319 64.2443 70.5226 65.5865C70.5446 71.7077 70.356 77.6747 71.6707 83.8056C72.7369 90.2212 78.5715 94.4908 83.3145 97.8601C93.2216 104.835 102.211 112.668 110.617 121.277C111.53 122.209 112.464 123.175 113.421 124.177Z" fill="#096F1F"/>
<path d="M221.414 259.84C221.887 258.889 221.952 257.804 221.573 256.812C221.195 255.822 220.403 255.006 219.395 254.555C218.387 254.105 217.252 254.059 216.261 254.438C215.27 254.816 214.504 255.588 214.111 256.574C214.111 256.574 214.111 256.574 214.111 256.574C213.537 258.023 212.902 259.486 212.236 260.913C199.609 286.794 177.208 307.812 153.722 325.784C152.423 326.754 151.025 327.772 149.736 328.673C151.097 327.884 152.571 326.975 153.948 326.114C178.879 309.948 203.055 291.129 218.981 264.415C219.829 262.927 220.651 261.384 221.414 259.84Z" fill="#096F1F"/>
<path d="M240.106 306.06C239.68 305.739 239.4 305.266 239.33 304.74C239.26 304.215 239.405 303.681 239.732 303.258C240.059 302.835 240.539 302.559 241.066 302.493C241.593 302.427 242.122 302.577 242.541 302.907C242.541 302.907 242.541 302.907 242.541 302.907C244.803 304.692 247.082 306.387 249.404 308.018C291.796 337.831 347.174 344.289 397.912 336.186C400.654 335.722 403.649 335.161 406.332 334.531C406.332 334.531 406.332 334.531 406.332 334.531C403.665 335.226 400.681 335.853 397.949 336.382C347.385 345.633 291.468 340.67 247.264 311.139C244.846 309.522 242.469 307.838 240.106 306.06Z" fill="#096F1F"/>
<path d="M211.222 197.514C212.249 197.034 213.406 196.987 214.446 197.394C215.485 197.801 216.322 198.629 216.766 199.684C217.21 200.74 217.223 201.932 216.799 202.988C216.375 204.044 215.548 204.876 214.504 205.314C214.504 205.314 214.504 205.314 214.504 205.314C211.028 206.785 208.212 208.103 205.131 209.776C191.31 216.541 181.479 230.1 188.899 244.238C195.138 257.924 206.768 269.384 217.812 280.463C239.317 302.975 268.426 322.138 276.452 354.259C276.961 357.855 276.849 361.433 275.991 364.957C275.991 364.957 275.991 364.957 275.991 364.957C276.711 361.404 276.674 357.858 276.034 354.336C266.911 323.106 237.445 305.331 214.883 283.6C203.299 272.81 191.056 262.05 183.315 246.916C179.545 239.49 178.007 229.221 182.515 220.813C186.76 212.547 194.22 207.009 201.262 202.747C204.584 200.774 207.566 199.22 211.222 197.514Z" fill="#096F1F"/>
<path d="M209.448 200.685C209.296 200.267 209.148 199.86 208.999 199.459C207.639 195.823 206.179 192.629 204.482 189.614C202.808 186.586 200.809 183.81 198.829 180.593C198.615 180.23 198.405 179.865 198.214 179.47C198.074 179.893 197.973 180.329 197.896 180.772C197.269 184.804 198.276 188.812 200.137 192.146C202.021 195.502 204.851 198.233 208.283 200.096C208.662 200.3 209.049 200.496 209.448 200.685Z" fill="#096F1F"/>
<path d="M183.073 159.552C183.127 159.628 183.157 159.722 183.15 159.818C183.144 159.914 183.102 160.003 183.033 160.067C182.965 160.132 182.873 160.167 182.778 160.167C182.683 160.166 182.593 160.129 182.521 160.069C182.521 160.069 182.521 160.069 182.521 160.069C182.264 159.852 182.018 159.632 181.773 159.402C179.578 157.341 177.87 154.704 176.818 151.83C175.768 148.95 175.305 145.842 175.652 142.767C175.693 142.427 175.747 142.081 175.818 141.748C175.838 141.655 175.887 141.568 175.962 141.507C176.036 141.446 176.129 141.415 176.222 141.422C176.314 141.428 176.4 141.472 176.463 141.543C176.526 141.614 176.559 141.706 176.562 141.801C176.562 141.801 176.562 141.801 176.562 141.801C176.576 142.116 176.601 142.441 176.635 142.76C176.963 145.645 177.714 148.427 178.686 151.101C179.668 153.768 180.925 156.33 182.526 158.75C182.705 159.02 182.885 159.284 183.073 159.552Z" fill="#935713"/>
<path d="M182.797 159.811C182.525 159.614 182.264 159.414 182.005 159.201C179.677 157.302 177.869 154.704 176.818 151.83C175.767 148.953 175.405 145.795 175.954 142.765C176.018 142.431 176.095 142.094 176.19 141.774C176.227 142.103 176.277 142.437 176.332 142.763C176.864 145.692 177.715 148.425 178.686 151.101C179.669 153.768 180.826 156.369 182.294 158.95C182.459 159.238 182.624 159.522 182.797 159.811Z" fill="#935713"/>
<path d="M159.118 108.074C159.158 109.489 159.219 110.876 159.299 112.234C160.076 124.606 162.698 137.323 169.087 148.452C175.192 159.432 186.938 168.806 199.359 167.66C200.706 167.538 202.022 167.289 203.279 166.895C201.967 167.022 200.653 167.007 199.344 166.885C187.405 165.647 178.269 156.593 172.432 146.398C166.477 136.041 162.893 124.172 160.035 112.133C159.723 110.813 159.417 109.461 159.118 108.074Z" fill="#096F1F"/>
<path d="M161.549 107.806C161.487 107.132 161.171 106.513 160.657 106.088C160.144 105.663 159.476 105.466 158.811 105.539C158.146 105.613 157.542 105.95 157.144 106.475C156.746 107.001 156.586 107.672 156.687 108.342C156.687 108.342 156.687 108.342 156.687 108.342C156.9 109.76 157.127 111.146 157.366 112.5C161.282 135.869 173.129 166.814 199.354 167.4C200.688 167.357 202.003 167.197 203.279 166.895C201.986 167.114 200.671 167.187 199.349 167.145C173.707 164.778 164.524 134.748 161.968 111.866C161.815 110.543 161.675 109.19 161.549 107.806Z" fill="#096F1F"/>
<path d="M217.669 303.752C217.851 303.56 218.102 303.449 218.367 303.445C218.631 303.441 218.888 303.543 219.079 303.729C219.27 303.915 219.38 304.169 219.385 304.435C219.39 304.7 219.288 304.956 219.104 305.147C219.104 305.147 219.104 305.147 219.104 305.147C217.537 306.763 216.122 308.35 214.737 310.067C207.103 319.307 202.629 331.276 203.536 343.35C203.835 355.588 210.57 366.44 210.896 379.227C209.086 394.987 195.4 408.895 179.459 409.337C177.201 409.301 174.925 408.865 172.864 407.893C172.775 407.85 172.705 407.774 172.671 407.681C172.637 407.587 172.642 407.484 172.683 407.394C172.724 407.304 172.8 407.234 172.893 407.2C172.985 407.165 173.088 407.169 173.178 407.21C175.134 408.111 177.302 408.508 179.468 408.523C194.829 407.984 208.108 394.238 209.658 379.083C209.302 367.307 202.404 355.948 201.95 343.45C200.882 331.012 205.453 318.419 213.229 308.85C214.639 307.069 216.077 305.424 217.669 303.752Z" fill="#935713"/>
<path d="M157.009 110.617C157.043 111.29 157.335 111.906 157.834 112.327C158.333 112.749 158.997 112.943 159.668 112.867C160.339 112.791 160.958 112.452 161.378 111.926C161.797 111.4 161.983 110.73 161.905 110.062C161.905 110.062 161.905 110.062 161.905 110.062C161.811 109.243 161.709 108.439 161.598 107.634C159.522 93.1551 154.868 78.9411 146.02 67.5425C145.506 66.9186 144.98 66.3217 144.404 65.7441C144.236 65.5764 144.004 65.4858 143.764 65.4889C143.524 65.4922 143.294 65.589 143.122 65.7614C142.951 65.9337 142.85 66.1684 142.839 66.4172C142.829 66.6658 142.91 66.9081 143.066 67.0875C143.066 67.0875 143.066 67.0875 143.066 67.0875C143.549 67.642 144.003 68.233 144.446 68.8521C152.166 80.2934 155.794 94.383 156.865 108.285C156.921 109.059 156.969 109.831 157.009 110.617Z" fill="#096F1F"/>
<path d="M167.988 101.008C167.739 101.159 167.498 101.307 167.267 101.453C165.186 102.763 163.688 104.271 162.7 105.882C162.205 106.683 161.826 107.533 161.537 108.336C161.394 108.735 161.265 109.117 161.206 109.42C161.175 109.572 161.203 109.699 161.196 109.85C161.195 110.003 161.024 110.132 160.78 110.081C160.567 110.043 160.331 109.911 160.111 109.737C160.013 110.005 159.954 110.303 160.006 110.64C160.057 111.009 160.322 111.477 160.832 111.72C161.334 111.965 161.889 111.957 162.325 111.892C163.22 111.737 163.849 111.409 164.423 111.053C165.55 110.33 166.345 109.435 166.94 108.477C168.119 106.549 168.484 104.279 168.128 101.842C168.089 101.571 168.042 101.293 167.988 101.008Z" fill="#096F1F"/>
<path d="M78.4442 1.30345C78.4442 1.30345 78.4442 1.30345 78.4442 1.30345C78.5486 1.53017 78.6527 1.75057 78.7563 1.96472C79.6891 3.89376 80.857 5.54296 82.1834 6.93641C82.8437 7.63311 83.5592 8.27951 84.2656 8.88046C84.9279 9.45647 85.8582 10.1957 85.8205 10.4498C85.7212 10.5833 85.4908 10.6815 85.2648 10.7484C85.2648 10.7484 85.2648 10.7484 85.2648 10.7484C85.4712 10.8747 85.6964 10.9982 86.0143 10.9904C86.1885 10.9856 86.4212 10.8992 86.5771 10.7002C86.7323 10.5069 86.7907 10.2763 86.8161 10.0833C86.8603 9.68842 86.8095 9.37356 86.7487 9.07053C86.6148 8.46279 86.4006 7.94001 86.1556 7.44448C85.6692 6.46894 85.034 5.61502 84.3276 4.86915C82.9076 3.37795 81.138 2.27105 79.1319 1.54087C78.9089 1.45991 78.6797 1.38077 78.4442 1.30345Z" fill="#096F1F"/>
<path d="M157.184 168.214C157.52 168.499 157.849 168.774 158.174 169.039C161.081 171.429 164.163 173.236 167.295 174.575C168.87 175.256 170.455 175.807 171.983 176.353C172.729 176.619 173.485 176.91 173.972 177.143C174.087 177.192 174.17 177.227 174.231 177.197C174.287 177.171 174.38 177.053 174.456 177.088C174.61 177.174 174.354 177.576 174.041 177.842C173.757 178.097 173.41 178.331 173.043 178.55C173.457 178.661 173.887 178.739 174.349 178.742C174.858 178.721 175.47 178.73 176.095 178.052C176.4 177.706 176.548 177.124 176.494 176.662C176.456 176.214 176.31 175.844 176.168 175.541C175.549 174.339 174.834 173.658 174.083 172.97C172.567 171.642 170.956 170.719 169.258 169.983C165.888 168.542 162.236 167.971 158.471 168.138C158.051 168.156 157.622 168.182 157.184 168.214Z" fill="#096F1F"/>
<path d="M154.209 88.1487C154.089 87.9197 153.971 87.6981 153.854 87.4839C152.778 85.5436 151.52 84.0634 150.068 82.9621C148.628 81.8193 146.906 81.242 145.207 80.3278C145.035 80.2088 144.841 80.0923 144.77 79.8511C144.571 80.0338 144.531 80.3648 144.517 80.6353C144.649 83.1908 146.132 84.9767 147.694 86.2096C149.304 87.4308 151.265 88.0658 153.463 88.1424C153.706 88.1496 153.954 88.1517 154.209 88.1487Z" fill="#096F1F"/>
<path d="M85.0586 8.47625C84.9028 8.27092 84.749 8.07281 84.5973 7.88189C83.2114 6.1541 81.7248 4.91088 80.1117 4.07404C78.5031 3.19418 76.7126 2.92024 74.8897 2.30801C74.7006 2.21996 74.4899 2.13788 74.3798 1.91202C74.2146 2.12447 74.2289 2.4576 74.2602 2.72648C74.8171 5.22261 76.5798 6.73002 78.3235 7.67832C80.1141 8.60693 82.1498 8.89764 84.3245 8.59742C84.5641 8.56306 84.8088 8.52268 85.0586 8.47625Z" fill="#096F1F"/>
<path d="M154.87 134.364C155.17 134.442 155.46 134.521 155.742 134.601C158.278 135.318 160.32 136.391 161.934 137.705C162.742 138.359 163.454 139.085 164.097 139.793C164.414 140.143 164.718 140.486 164.975 140.77C165.105 140.913 165.211 141.043 165.332 141.155C165.449 141.266 165.636 141.351 165.88 141.262C166.094 141.188 166.316 140.998 166.5 140.754C166.645 141.019 166.744 141.341 166.708 141.718C166.683 142.639 165.48 143.392 164.634 143.478C163.749 143.624 162.976 143.523 162.274 143.364C160.867 143.025 159.731 142.388 158.767 141.612C156.849 140.047 155.626 137.854 155.047 135.256C154.983 134.968 154.924 134.67 154.87 134.364Z" fill="#096F1F"/>
<path d="M265.138 249.51C265.012 249.261 264.888 249.021 264.765 248.788C263.665 246.697 262.311 245.016 260.829 243.701C260.092 243.042 259.302 242.461 258.566 241.94C258.2 241.682 257.847 241.421 257.594 241.243C257.468 241.151 257.365 241.13 257.26 241.071C257.149 241.012 257.151 240.801 257.305 240.606C257.435 240.432 257.639 240.27 257.867 240.13C257.627 240.005 257.359 239.907 257.046 239.889C256.705 239.866 256.236 239.971 255.895 240.393C255.556 240.811 255.482 241.356 255.489 241.771C255.519 242.626 255.767 243.265 256.037 243.857C256.592 245.02 257.35 245.926 258.192 246.682C259.884 248.182 261.993 249.074 264.333 249.41C264.594 249.447 264.863 249.48 265.138 249.51Z" fill="#096F1F"/>
<path d="M339.309 211.416C339.137 211.718 338.967 212.012 338.8 212.297C337.276 214.881 335.558 217.054 333.728 218.973C332.06 220.928 329.462 222.437 329.273 224.59C329.317 224.851 329.471 225.133 329.722 225.368C329.384 225.384 329.001 225.29 328.667 225.043C327.882 224.465 327.673 223.349 327.717 222.478C327.754 221.592 327.991 220.768 328.291 220.022C328.901 218.529 329.796 217.28 330.82 216.197C332.877 214.042 335.445 212.587 338.327 211.696C338.646 211.599 338.973 211.506 339.309 211.416Z" fill="#096F1F"/>
<path d="M357.393 213.786C357.738 213.856 358.076 213.922 358.406 213.985C361.369 214.555 364.324 214.783 367.171 214.827C368.602 214.855 370.01 214.827 371.363 214.879C372.027 214.907 372.718 214.968 373.204 215.116C373.451 215.199 373.592 215.249 373.686 215.364C373.793 215.492 373.752 215.84 373.608 216.156C373.481 216.444 373.295 216.733 373.086 217.01C373.411 216.895 373.732 216.747 374.035 216.528C374.362 216.283 374.741 215.929 374.816 215.3C374.886 214.653 374.477 214.077 374.126 213.753C373.399 213.089 372.601 212.777 371.839 212.512C370.299 212.009 368.776 211.834 367.252 211.803C364.224 211.757 361.221 212.355 358.365 213.412C358.046 213.53 357.722 213.655 357.393 213.786Z" fill="#096F1F"/>
<path d="M393.268 188.941C393.273 188.823 393.278 188.707 393.283 188.595C393.334 187.569 393.469 186.601 393.642 185.659C393.775 184.73 394.145 183.773 393.866 182.934C393.82 182.849 393.748 182.77 393.64 182.732C393.75 182.701 393.886 182.729 393.996 182.795C394.911 183.604 394.763 184.856 394.623 185.83C394.436 186.846 394.026 187.787 393.463 188.653C393.401 188.748 393.336 188.844 393.268 188.941Z" fill="#096F1F"/>
<path d="M229.293 219.613C229.084 219.817 228.879 220.014 228.678 220.204C226.86 221.917 224.965 223.162 223.065 224.059C221.267 225.051 218.825 225.26 218.232 226.623C218.218 226.843 218.295 227.112 218.439 227.367C218.155 227.334 217.851 227.228 217.582 226.992C216.915 226.448 216.905 225.268 217.178 224.543C217.434 223.778 217.855 223.169 218.293 222.65C219.188 221.616 220.23 220.906 221.329 220.38C223.518 219.349 225.946 219.094 228.444 219.467C228.721 219.509 229.004 219.558 229.293 219.613Z" fill="#096F1F"/>
<path d="M235.973 317.957C235.723 317.807 235.48 317.658 235.246 317.512C233.127 316.189 231.441 314.673 230.091 313.063C228.675 311.576 227.851 309.267 226.383 309.04C226.166 309.083 225.926 309.225 225.715 309.43C225.675 309.147 225.7 308.826 225.86 308.506C226.217 307.722 227.356 307.412 228.126 307.492C228.931 307.546 229.627 307.798 230.241 308.09C231.468 308.692 232.42 309.52 233.208 310.45C234.761 312.305 235.624 314.588 235.899 317.099C235.928 317.378 235.953 317.664 235.973 317.957Z" fill="#096F1F"/>
<path d="M243.98 203.064C243.98 203.064 243.98 203.064 243.98 203.064C244.392 203.068 244.791 203.069 245.178 203.066C248.669 203.052 251.944 202.385 254.792 201.499C255.494 201.288 256.175 201.073 256.741 200.918C257.323 200.76 257.738 200.664 258.613 200.618C260.411 200.562 262.278 199.968 263.786 199.094C264.151 198.898 264.452 198.695 264.811 198.471C264.402 198.364 264.061 198.25 263.671 198.145C261.983 197.666 260.534 197.209 259.134 196.643C258.4 196.356 257.192 196.113 256.154 196.178C255.122 196.223 254.204 196.427 253.36 196.679C250.009 197.728 247.274 199.664 244.806 202.187C244.536 202.467 244.261 202.76 243.98 203.064Z" fill="#096F1F"/>
<path d="M209.719 362.822C209.719 362.822 209.719 362.822 209.719 362.822C210.058 362.587 210.385 362.358 210.699 362.134C213.546 360.112 215.84 357.682 217.659 355.318C218.111 354.741 218.544 354.173 218.917 353.721C219.303 353.257 219.587 352.939 220.276 352.398C221.714 351.317 222.899 349.757 223.629 348.174C223.814 347.804 223.944 347.465 224.109 347.075C223.712 347.222 223.368 347.325 222.989 347.464C221.332 348.044 219.885 348.505 218.414 348.848C217.649 349.036 216.521 349.532 215.71 350.183C214.891 350.814 214.258 351.509 213.713 352.201C211.577 354.988 210.455 358.145 209.889 361.629C209.83 362.013 209.773 362.411 209.719 362.822Z" fill="#096F1F"/>
<path d="M121.277 149.046C121.277 149.046 121.277 149.046 121.277 149.046C121.698 148.631 122.105 148.226 122.498 147.83C126.033 144.293 129.039 140.31 131.603 136.356C132.918 134.396 133.972 132.471 135.399 131.196C137.336 129.671 139.115 127.348 140.197 125.134C140.481 124.601 140.68 124.139 140.94 123.586C140.94 123.586 140.94 123.586 140.94 123.586C140.428 123.92 139.995 124.169 139.497 124.491C137.34 125.845 135.452 126.919 133.198 127.866C130.473 129.209 128.789 131.588 127.422 133.607C124.686 137.831 122.858 142.491 121.669 147.365C121.538 147.909 121.407 148.469 121.277 149.046Z" fill="#096F1F"/>
<path d="M266.432 219.897C266.432 219.897 266.432 219.897 266.432 219.897C266.419 220.129 266.407 220.351 266.395 220.563C266.299 222.502 266.596 224.156 266.75 225.172C266.827 225.691 267.112 226.998 267.704 227.774C268.281 228.602 269.022 229.196 269.888 229.7C270.076 229.803 270.274 229.907 270.483 230.014C270.483 230.014 270.483 230.014 270.483 230.014C270.508 229.783 270.533 229.563 270.558 229.355C270.656 228.387 270.684 227.509 270.711 226.772C270.724 226.003 270.852 225.655 270.686 224.555C270.25 222.312 268.784 221.077 267.044 220.181C266.85 220.087 266.646 219.992 266.432 219.897Z" fill="#096F1F"/>
<path d="M335.405 257.98C335.063 257.857 334.735 257.739 334.42 257.628C331.507 256.617 328.775 256.229 326.44 255.941C323.808 255.478 320.351 256.129 317.775 257.742C317.49 257.917 317.195 258.102 316.889 258.299C316.889 258.299 316.889 258.299 316.889 258.299C317.226 258.434 317.548 258.564 317.854 258.688C320.862 259.786 322.985 260.44 325.853 260.905C329.049 261.272 331.946 260.227 334.535 258.57C334.817 258.384 335.106 258.187 335.405 257.98Z" fill="#096F1F"/>
<path d="M332.752 286.617C332.752 286.617 332.752 286.617 332.752 286.617C332.684 286.414 332.618 286.219 332.555 286.033C331.987 284.324 331.784 282.681 331.509 281.561C331.363 281 331.108 279.806 331.29 278.901C331.439 277.96 331.797 277.144 332.272 276.352C332.378 276.185 332.49 276.013 332.61 275.834C332.61 275.834 332.61 275.834 332.61 275.834C332.689 276.034 332.765 276.223 332.838 276.402C333.167 277.246 333.427 278.043 333.671 278.745C333.91 279.472 334.16 279.851 334.421 280.862C334.863 282.945 334.124 284.613 333.117 286.116C333.002 286.278 332.881 286.445 332.752 286.617Z" fill="#096F1F"/>
<path d="M224.547 122.624C224.614 122.806 224.679 122.983 224.739 123.157C225.285 124.731 225.504 126.168 225.464 127.529C225.481 128.875 224.944 130.179 225.127 131.372C225.175 131.501 225.278 131.633 225.454 131.697C225.32 131.834 225.092 131.91 224.864 131.891C222.769 131.167 222.54 128.986 222.521 127.508C222.57 125.907 223.165 124.417 224.188 123.071C224.302 122.923 224.421 122.774 224.547 122.624Z" fill="#096F1F"/>
<path d="M209.757 160.996C209.858 161.215 209.955 161.429 210.047 161.639C210.882 163.528 211.377 165.381 211.636 167.152C211.768 168.03 211.842 168.914 211.928 169.738C211.971 170.146 212.02 170.542 212.097 170.868C212.19 171.18 212.193 171.467 212.613 171.547C212.789 171.574 213.004 171.537 213.215 171.459C213.143 171.68 213.028 171.903 212.828 172.088C212.384 172.577 211.383 172.381 210.902 171.954C210.372 171.543 210.028 171.057 209.742 170.57C209.18 169.588 208.888 168.566 208.737 167.57C208.444 165.563 208.742 163.554 209.49 161.642C209.573 161.43 209.662 161.214 209.757 160.996Z" fill="#096F1F"/>
<path d="M226.884 153.244C226.7 153.267 226.522 153.292 226.349 153.317C224.781 153.558 223.482 154.044 222.393 154.765C221.279 155.469 220.481 156.515 219.458 157.473C219.336 157.564 219.21 157.67 219.031 157.66C219.09 157.845 219.294 157.965 219.468 158.047C221.189 158.635 222.767 158.055 223.979 157.286C225.197 156.478 226.107 155.274 226.697 153.762C226.761 153.595 226.823 153.423 226.884 153.244Z" fill="#096F1F"/>
<path d="M252.117 94.1514C251.968 94.135 251.822 94.1209 251.68 94.1091C250.383 94.0079 249.174 94.1557 248.054 94.5467C246.923 94.9383 245.896 95.583 244.898 96.4347C244.786 96.5273 244.676 96.626 244.558 96.7116C244.697 96.7582 244.846 96.7806 244.99 96.8036C246.297 96.9869 247.519 96.8457 248.66 96.4505C249.794 96.0549 250.844 95.3912 251.8 94.4691C251.905 94.3671 252.01 94.2612 252.117 94.1514Z" fill="#096F1F"/>
<path d="M214.964 205.324C215.539 204.273 215.671 203.045 215.324 201.904C214.977 200.764 214.179 199.805 213.113 199.243C212.047 198.682 210.804 198.564 209.663 198.92C208.522 199.275 207.578 200.076 207.031 201.141C207.031 201.141 207.031 201.141 207.031 201.141C205.023 205.082 203.648 209.24 203.931 214.151C204.8 225.673 214.833 231.665 222.753 234.754C231.102 237.951 239.588 239.275 248.097 239.963C265.038 241.216 282.018 239.606 298.456 236.369C331.321 229.7 363.46 216.305 388.753 193.803C391.535 191.304 394.23 188.679 396.792 185.954C397.096 185.63 397.26 185.198 397.251 184.753C397.242 184.308 397.06 183.887 396.744 183.581C396.427 183.275 396.001 183.108 395.557 183.114C395.113 183.121 394.686 183.301 394.375 183.616C394.375 183.616 394.375 183.616 394.375 183.616C391.815 186.204 389.129 188.692 386.36 191.054C361.214 212.324 329.49 224.613 297.37 230.279C281.328 233.023 264.798 234.134 248.813 232.533C233.837 231.007 213.593 225.974 212.628 213.598C212.538 210.926 213.377 208.239 214.964 205.324Z" fill="#096F1F"/>
<path d="M368.696 206.799C368.58 206.936 368.434 207.051 368.263 207.106C368.093 207.162 367.915 207.155 367.76 207.083C367.605 207.011 367.483 206.878 367.411 206.71C367.339 206.542 367.326 206.353 367.349 206.173C367.349 206.173 367.349 206.173 367.349 206.173C367.43 205.58 367.519 205.003 367.615 204.442C368.013 202.166 368.582 200.042 369.345 197.963C371.701 190.892 375.276 182.768 372.849 176.445C372.62 176.082 372.326 175.789 371.997 175.632C371.823 175.56 371.674 175.429 371.586 175.256C371.498 175.083 371.477 174.884 371.529 174.7C371.582 174.515 371.704 174.359 371.869 174.262C372.034 174.165 372.228 174.137 372.412 174.172C373.132 174.328 373.756 174.761 374.224 175.256C379.031 183.445 375.352 191.961 373.034 199.391C372.242 201.552 371.156 203.544 369.781 205.42C369.44 205.88 369.079 206.34 368.696 206.799Z" fill="#096F1F"/>
<path d="M368.211 205.437C368.075 205.559 367.966 205.714 367.921 205.888C367.876 206.062 367.898 206.239 367.985 206.387C368.073 206.534 368.221 206.644 368.4 206.697C368.58 206.75 368.775 206.741 368.955 206.692C368.955 206.692 368.955 206.692 368.955 206.692C369.662 206.496 370.342 206.297 370.997 206.094C373.676 205.254 376.198 204.229 378.62 203.035C382.848 201.005 387.123 198.772 391.301 198.19C395.378 197.702 400.443 199.119 405.271 199.074C406.004 199.093 406.637 199.093 407.371 199.089C407.569 199.087 407.764 199.022 407.917 198.897C408.069 198.772 408.165 198.6 408.184 198.415C408.203 198.231 408.144 198.048 408.02 197.904C407.895 197.76 407.716 197.669 407.521 197.64C407.521 197.64 407.521 197.64 407.521 197.64C406.813 197.537 406.207 197.436 405.506 197.319C400.798 196.694 396.646 194.737 391.068 194.857C385.594 195.267 381.149 197.549 376.777 199.614C374.287 200.842 371.985 202.337 369.816 204.08C369.289 204.508 368.755 204.96 368.211 205.437Z" fill="#096F1F"/>
<path d="M196.345 211.796C196.608 211.832 196.869 211.761 197.072 211.585C197.275 211.41 197.403 211.145 197.428 210.861C197.452 210.576 197.37 210.298 197.198 210.1C197.027 209.902 196.781 209.799 196.514 209.803C196.514 209.803 196.514 209.803 196.514 209.803C196.296 209.806 196.088 209.805 195.889 209.801C194.064 209.761 192.211 209.303 191.669 207.563C190.997 205.948 191.76 203.36 189.962 202.045C189.772 201.927 189.573 201.842 189.354 201.774C189.561 201.873 189.739 201.987 189.901 202.126C191.36 203.574 190.264 205.74 190.699 207.834C190.999 210.215 193.674 211.401 195.642 211.687C195.867 211.728 196.101 211.764 196.345 211.796Z" fill="#096F1F"/>
<path d="M193.873 184.308C193.628 184.415 193.449 184.611 193.386 184.872C193.323 185.133 193.381 185.437 193.537 185.699C193.692 185.96 193.929 186.153 194.184 186.214C194.439 186.276 194.69 186.202 194.895 186.027C194.895 186.027 194.895 186.027 194.895 186.027C194.979 185.955 195.06 185.886 195.138 185.822C195.865 185.238 196.634 184.736 197.304 184.97C198.039 185.132 198.67 186.647 199.888 186.394C200.005 186.367 200.109 186.327 200.219 186.275C200.099 186.295 199.992 186.301 199.881 186.294C198.806 186.198 198.843 184.909 197.81 184.096C196.629 183.237 195.217 183.766 194.222 184.155C194.108 184.202 193.992 184.253 193.873 184.308Z" fill="#096F1F"/>
<path d="M213.467 193.063C213.837 192.881 214.085 192.579 214.116 192.177C214.15 191.778 213.964 191.312 213.641 190.927C213.317 190.543 212.893 190.286 212.502 190.26C212.108 190.231 211.778 190.435 211.547 190.781C211.547 190.781 211.547 190.781 211.547 190.781C211.504 190.851 211.463 190.918 211.423 190.983C211.039 191.572 210.645 192.048 210.045 192.243C209.743 192.341 209.37 192.345 208.958 192.284C208.56 192.251 208.049 192.028 207.582 192.297C207.489 192.36 207.427 192.439 207.377 192.527C207.462 192.474 207.548 192.444 207.633 192.438C208.331 192.536 208.833 193.491 209.935 193.754C211.03 194.066 212.236 193.696 213.156 193.228C213.259 193.177 213.363 193.122 213.467 193.063Z" fill="#096F1F"/>
</svg>
