<svg width="58" height="47" viewBox="0 0 58 47" fill="none" xmlns="http://www.w3.org/2000/svg">
<path d="M7.15552 2.76562C13.9877 8.92004 16.0753 17.9966 16.2651 21.7656" stroke="#096F1F"/>
<path d="M30.7621 27.7832C19.4612 30.6704 15.9612 21.1421 15.265 19.7657" stroke="#096F1F"/>
<path d="M12.4457 26.0943C12.3581 26.1271 12.2603 26.1334 12.1698 26.1045C12.0793 26.0756 12.0039 26.0148 11.9593 25.9336C11.9147 25.8524 11.9038 25.7562 11.928 25.6643C11.9521 25.5724 12.01 25.4933 12.0846 25.4369C12.0846 25.4369 12.0846 25.4369 12.0846 25.4369C12.3264 25.2566 12.5664 25.0866 12.8153 24.9214C15.0487 23.4305 17.7436 22.5184 20.4923 22.4152C23.2346 22.3111 26.0236 22.9533 28.3398 24.4255C28.595 24.5912 28.8469 24.7712 29.0806 24.9638C29.1524 25.0237 29.2063 25.1055 29.2259 25.1985C29.2456 25.2915 29.23 25.3871 29.1814 25.466C29.1329 25.5449 29.0547 25.602 28.9629 25.6264C28.871 25.6508 28.7737 25.6397 28.6878 25.6027C28.6878 25.6027 28.6878 25.6027 28.6878 25.6027C28.4366 25.4972 28.1721 25.4002 27.9082 25.3137C25.5113 24.5556 23.0179 24.325 20.5717 24.4136C18.1194 24.5106 15.6789 24.9801 13.2538 25.8062C12.9842 25.898 12.7183 25.9921 12.4457 26.0943Z" fill="#935713"/>
<path d="M31.7006 26.9429C31.7318 26.855 31.7369 26.7574 31.7071 26.6674C31.6773 26.5774 31.6159 26.5029 31.5345 26.4592C31.4532 26.4156 31.3571 26.4056 31.2657 26.4306C31.1741 26.4555 31.0957 26.5137 31.0397 26.5883C31.0397 26.5883 31.0397 26.5883 31.0397 26.5883C30.8681 26.8201 30.7063 27.0502 30.5498 27.2876C29.1338 29.4251 28.2747 32.0205 28.2632 34.6676C28.2481 37.3027 29.0313 39.9695 30.6432 42.0538C30.824 42.2831 31.0191 42.5073 31.2254 42.712C31.2922 42.7772 31.3786 42.8229 31.4728 42.8335C31.567 42.8442 31.6604 42.8197 31.7342 42.7642C31.8079 42.7086 31.8572 42.6256 31.873 42.5321C31.8887 42.4386 31.8687 42.3429 31.8245 42.2608C31.8245 42.2608 31.8245 42.2608 31.8245 42.2608C31.7044 42.0321 31.5922 41.7898 31.4908 41.5471C30.5955 39.338 30.2554 36.9891 30.2632 34.6809C30.2779 32.3626 30.6886 30.0421 31.4388 27.7176C31.5216 27.4601 31.6073 27.2049 31.7006 26.9429Z" fill="#935713"/>
<path d="M37.0927 37.3252C37.1206 37.5442 37.1121 37.7729 37.0336 37.9801C36.9551 38.1871 36.8148 38.3547 36.6308 38.4527C36.4468 38.5506 36.2293 38.5734 36.0138 38.5228C35.7981 38.4723 35.6036 38.3515 35.4375 38.2061C35.4375 38.2061 35.4375 38.2061 35.4375 38.2061C34.9883 37.8054 34.5601 37.4085 34.1527 37.0143C32.5056 35.4064 31.1229 33.72 29.9548 31.9094C25.8413 25.8354 21.4251 18.7032 14.9001 16.9058C14.4574 16.8383 14.0169 16.8355 13.6412 16.9186C13.4145 16.9823 13.1681 16.9745 12.9487 16.8793C12.7294 16.7844 12.5561 16.6123 12.4654 16.3969C12.3746 16.1815 12.3723 15.9373 12.4575 15.714C12.5426 15.4906 12.709 15.3087 12.9129 15.1909C12.9129 15.1909 12.9129 15.1909 12.9129 15.1909C13.5581 14.8459 14.246 14.6904 14.9127 14.6281C24.3484 15.1317 29.7224 22.8187 34.1559 29.1982C35.3985 31.124 36.2729 33.2641 36.7804 35.5669C36.903 36.1347 37.0072 36.721 37.0927 37.3252Z" fill="#096F1F"/>
<path d="M31.2026 46.007C31.2403 46.1843 31.3212 46.3559 31.4527 46.4848C31.5841 46.6138 31.753 46.6894 31.9296 46.6955C32.1061 46.7015 32.2799 46.6374 32.4197 46.5177C32.5597 46.398 32.652 46.2323 32.7017 46.058C32.7017 46.058 32.7017 46.058 32.7017 46.058C32.8915 45.381 33.0712 44.7175 33.2404 44.0665C33.9195 41.4222 34.4407 38.8242 34.8298 36.2135C36.2628 27.172 38.5747 17.835 44.4542 10.8483C44.883 10.3805 45.3417 9.93504 45.8261 9.5608C45.9789 9.44519 46.09 9.27864 46.1295 9.08884C46.169 8.89912 46.1344 8.70303 46.0321 8.54184C45.9298 8.38065 45.7671 8.26583 45.5786 8.22078C45.3901 8.17565 45.1921 8.20531 45.0224 8.29429C45.0224 8.29429 45.0224 8.29429 45.0224 8.29429C44.3667 8.6464 43.7735 9.0664 43.2151 9.51221C35.6079 16.1731 32.3748 26.1189 30.8736 35.6234C30.4638 38.371 30.4614 41.1658 30.8439 43.9353C30.9401 44.6176 31.0596 45.3084 31.2026 46.007Z" fill="#096F1F"/>
<path d="M33.1907 46.4401C33.0429 46.5364 32.8757 46.6105 32.6996 46.627C32.5236 46.6436 32.3543 46.6021 32.2194 46.5049C32.0845 46.4076 31.9916 46.2601 31.9517 46.0878C31.9117 45.9155 31.9292 45.7335 31.9739 45.5629C31.9739 45.5629 31.9739 45.5629 31.9739 45.5629C32.0964 45.1079 32.2228 44.6689 32.354 44.245C32.894 42.5268 33.5695 40.964 34.3979 39.5023C37.1954 34.4227 39.9349 28.8825 39.4554 23.27C39.402 22.889 39.3168 22.5065 39.1948 22.1744C39.1245 21.9998 39.109 21.8033 39.1652 21.6206C39.2213 21.438 39.3426 21.2851 39.5057 21.1939C39.6687 21.1027 39.8624 21.0793 40.0474 21.127C40.2325 21.1747 40.3918 21.2907 40.5038 21.442C40.5038 21.442 40.5038 21.442 40.5038 21.442C40.8047 21.8684 41.0276 22.3243 41.2094 22.7761C43.3749 29.3386 40.8878 36.0034 37.8782 41.474C36.9827 43.0547 35.7807 44.4479 34.3276 45.6106C33.9682 45.8956 33.5891 46.1723 33.1907 46.4401Z" fill="#096F1F"/>
<path d="M33.4392 46.4472C33.6096 46.4104 33.7754 46.3708 33.9174 46.3069C34.0597 46.2426 34.169 46.1548 34.2357 46.0376C34.3024 45.9205 34.3221 45.7816 34.3048 45.6264C34.2873 45.4718 34.2367 45.3089 34.1814 45.1436C34.1814 45.1436 34.1814 45.1436 34.1814 45.1436C34.0984 44.9046 34.0128 44.6817 33.9242 44.4749C33.5591 43.6411 33.1048 43.0401 32.5246 42.6429C30.5613 41.2598 28.2852 39.9101 27.4241 38.345C27.3745 38.2457 27.3403 38.1537 27.3102 38.0885C27.3373 37.9113 27.3274 37.7244 27.2571 37.557C27.1869 37.3896 27.0641 37.2563 26.9076 37.1827C26.7511 37.1091 26.5701 37.0993 26.3964 37.1519C26.2226 37.2044 26.0723 37.3159 25.953 37.4497C25.953 37.4497 25.953 37.4497 25.953 37.4497C25.7629 37.7261 25.6628 38.0167 25.6025 38.2952C25.3704 42.1923 28.0681 44.2952 30.2643 45.9431C30.9339 46.4017 31.7611 46.6056 32.7071 46.5434C32.941 46.5263 33.1852 46.4943 33.4392 46.4472Z" fill="#096F1F"/>
<path d="M13.3756 17.3091C13.4131 17.3929 13.4288 17.4878 13.4103 17.5793C13.3918 17.6707 13.3416 17.7507 13.2683 17.8032C13.195 17.8557 13.1032 17.8775 13.0106 17.8656C12.918 17.8538 12.8333 17.8084 12.766 17.746C12.766 17.746 12.766 17.746 12.766 17.746C12.6071 17.5959 12.4559 17.4453 12.3075 17.287C10.9699 15.87 10.0278 14.0142 9.69953 12.0413C9.37039 10.0718 9.60895 7.99907 10.5135 6.21275C10.6157 6.01549 10.7288 5.81947 10.8529 5.63544C10.9052 5.56002 10.9782 5.49749 11.0661 5.46599C11.1539 5.43445 11.2483 5.43604 11.3312 5.47155C11.414 5.50705 11.4803 5.57431 11.518 5.65965C11.5558 5.74502 11.5609 5.84101 11.5423 5.93088C11.5423 5.93088 11.5423 5.93088 11.5423 5.93088C11.5065 6.12017 11.4772 6.31738 11.4544 6.51251C11.2658 8.28264 11.3935 10.0213 11.6716 11.7083C11.9575 13.3978 12.4333 15.0597 13.1337 16.7461C13.2117 16.9337 13.2906 17.119 13.3756 17.3091Z" fill="#935713"/>
<path d="M7.32447 1.81995C7.10893 1.12217 6.62724 0.553672 5.96502 0.246964C5.30399 -0.0601757 4.51665 -0.0803849 3.79651 0.183339C3.07638 0.447064 2.4883 0.970978 2.18196 1.63238C1.87445 2.29422 1.87382 3.03935 2.1599 3.7113C2.1599 3.7113 2.1599 3.7113 2.1599 3.7113C2.39374 4.26651 2.63175 4.8082 2.87365 5.33661C7.11944 14.7288 15.0102 24.8733 26.5225 25.0224C27.1455 25.0023 27.7644 24.9391 28.3878 24.8094C28.6422 24.7544 28.869 24.5956 29.0194 24.3754C29.1698 24.1548 29.2315 23.8909 29.1897 23.6341C29.148 23.3774 29.0058 23.1466 28.7933 22.985C28.5809 22.8239 28.3155 22.7451 28.0567 22.7736C28.0567 22.7736 28.0567 22.7736 28.0567 22.7736C27.5713 22.8232 27.0668 22.8242 26.555 22.7883C16.9096 21.6918 10.7995 12.3016 7.82168 3.36026C7.65236 2.85913 7.48654 2.3458 7.32447 1.81995Z" fill="#096F1F"/>
</svg>
